<svg xmlns="http://www.w3.org/2000/xml" xmlns:xlink="http://www.w3.org/1999/xlink" viewBox="-190 -190 380 380">
<g id="pinya">
<g id="1" transform="translate(100.0 0.0) rotate(0.0)">
<rect id="1_rect" class="ma" width="20" height="40" x="-10.0" y="-20.0">
</rect>
<g transform="rotate(90) translate(0 6)">
<text id="1_text" class="ma vtext" text-anchor="middle">
1
</text>
</g>
</g>
<g id="2" transform="translate(86.6 50.0) rotate(30.0)">
<rect id="2_rect" class="q" width="20" height="40" x="-10.0" y="-20.0">
</rect>
<g transform="rotate(90) translate(0 6)">
<text id="2_text" class="q vtext" text-anchor="middle">
2
</text>
</g>
</g>
<g id="3" transform="translate(50.0 86.6) rotate(60.0)">
<rect id="3_rect" class="vt" width="20" height="40" x="-10.0" y="-20.0">
</rect>
<g transform="rotate(90) translate(0 6)">
<text id="3_text" class="vt vtext" text-anchor="middle">
3
</text>
</g>
</g>
<g id="4" transform="translate(0.0 100.0) rotate(90.0)">
<rect id="4_rect" class="q" width="20" height="40" x="-10.0" y="-20.0">
</rect>
<g transform="rotate(90) translate(0 6)">
<text id="4_text" class="q vtext" text-anchor="middle">
4
</text>
</g>
</g>
<g id="5" transform="translate(-50.0 86.6) rotate(120.0)">
<rect id="5_rect" class="ma" width="20" height="40" x="-10.0" y="-20.0">
</rect>
<g transform="rotate(90) translate(0 6)">
<text id="5_text" class="ma vtext" text-anchor="middle">
5
</text>
</g>
</g>
<g id="6" transform="translate(-86.6 50.0) rotate(150.0)">
<rect id="6_rect" class="q" width="20" height="40" x="-10.0" y="-20.0">
</rect>
<g transform="rotate(90) translate(0 6)">
<text id="6_text" class="q vtext" text-anchor="middle">
6
</text>
</g>
</g>
<g id="7" transform="translate(-100.0 0.0) rotate(180.0)">
<rect id="7_rect" class="vt" width="20" height="40" x="-10.0" y="-20.0">
</rect>
<g transform="rotate(90) translate(0 6)">
<text id="7_text" class="vt vtext" text-anchor="middle">
7
</text>
</g>
</g>
<g id="8" transform="translate(-86.6 -50.0) rotate(210.0)">
<rect id="8_rect" class="q" width="20" height="40" x="-10.0" y="-20.0">
</rect>
<g transform="rotate(90) translate(0 6)">
<text id="8_text" class="q vtext" text-anchor="middle">
8
</text>
</g>
</g>
<g id="9" transform="translate(-50.0 -86.6) rotate(240.0)">
<rect id="9_rect" class="ma" width="20" height="40" x="-10.0" y="-20.0">
</rect>
<g transform="rotate(90) translate(0 6)">
<text id="9_text" class="ma vtext" text-anchor="middle">
9
</text>
</g>
</g>
<g id="10" transform="translate(-0.0 -100.0) rotate(270.0)">
<rect id="10_rect" class="q" width="20" height="40" x="-10.0" y="-20.0">
</rect>
<g transform="rotate(90) translate(0 6)">
<text id="10_text" class="q vtext" text-anchor="middle">
10
</text>
</g>
</g>
<g id="11" transform="translate(50.0 -86.6) rotate(300.0)">
<rect id="11_rect" class="vt" width="20" height="40" x="-10.0" y="-20.0">
</rect>
<g transform="rotate(90) translate(0 6)">
<text id="11_text" class="vt vtext" text-anchor="middle">
11
</text>
</g>
</g>
<g id="12" transform="translate(86.6 -50.0) rotate(330.0)">
<rect id="12_rect" class="q" width="20" height="40" x="-10.0" y="-20.0">
</rect>
<g transform="rotate(90) translate(0 6)">
<text id="12_text" class="q vtext" text-anchor="middle">
12
</text>
</g>
</g>
<g id="13" transform="translate(125.0 0.0) rotate(0.0)">
<rect id="13_rect" class="ma" width="20" height="40" x="-10.0" y="-20.0">
</rect>
<g transform="rotate(90) translate(0 6)">
<text id="13_text" class="ma vtext" text-anchor="middle">
13
</text>
</g>
</g>
<g id="14" transform="translate(117.46 42.75) rotate(20.0)">
<rect id="14_rect" class="q" width="20" height="40" x="-10.0" y="-20.0">
</rect>
<g transform="rotate(90) translate(0 6)">
<text id="14_text" class="q vtext" text-anchor="middle">
14
</text>
</g>
</g>
<g id="15" transform="translate(95.76 80.35) rotate(40.0)">
<rect id="15_rect" class="q" width="20" height="40" x="-10.0" y="-20.0">
</rect>
<g transform="rotate(90) translate(0 6)">
<text id="15_text" class="q vtext" text-anchor="middle">
15
</text>
</g>
</g>
<g id="16" transform="translate(62.5 108.25) rotate(60.0)">
<rect id="16_rect" class="vt" width="20" height="40" x="-10.0" y="-20.0">
</rect>
<g transform="rotate(90) translate(0 6)">
<text id="16_text" class="vt vtext" text-anchor="middle">
16
</text>
</g>
</g>
<g id="17" transform="translate(21.71 123.1) rotate(80.0)">
<rect id="17_rect" class="q" width="20" height="40" x="-10.0" y="-20.0">
</rect>
<g transform="rotate(90) translate(0 6)">
<text id="17_text" class="q vtext" text-anchor="middle">
17
</text>
</g>
</g>
<g id="18" transform="translate(-21.71 123.1) rotate(100.0)">
<rect id="18_rect" class="q" width="20" height="40" x="-10.0" y="-20.0">
</rect>
<g transform="rotate(90) translate(0 6)">
<text id="18_text" class="q vtext" text-anchor="middle">
18
</text>
</g>
</g>
<g id="19" transform="translate(-62.5 108.25) rotate(120.0)">
<rect id="19_rect" class="ma" width="20" height="40" x="-10.0" y="-20.0">
</rect>
<g transform="rotate(90) translate(0 6)">
<text id="19_text" class="ma vtext" text-anchor="middle">
19
</text>
</g>
</g>
<g id="20" transform="translate(-95.76 80.35) rotate(140.0)">
<rect id="20_rect" class="q" width="20" height="40" x="-10.0" y="-20.0">
</rect>
<g transform="rotate(90) translate(0 6)">
<text id="20_text" class="q vtext" text-anchor="middle">
20
</text>
</g>
</g>
<g id="21" transform="translate(-117.46 42.75) rotate(160.0)">
<rect id="21_rect" class="q" width="20" height="40" x="-10.0" y="-20.0">
</rect>
<g transform="rotate(90) translate(0 6)">
<text id="21_text" class="q vtext" text-anchor="middle">
21
</text>
</g>
</g>
<g id="22" transform="translate(-125.0 0.0) rotate(180.0)">
<rect id="22_rect" class="vt" width="20" height="40" x="-10.0" y="-20.0">
</rect>
<g transform="rotate(90) translate(0 6)">
<text id="22_text" class="vt vtext" text-anchor="middle">
22
</text>
</g>
</g>
<g id="23" transform="translate(-117.46 -42.75) rotate(200.0)">
<rect id="23_rect" class="q" width="20" height="40" x="-10.0" y="-20.0">
</rect>
<g transform="rotate(90) translate(0 6)">
<text id="23_text" class="q vtext" text-anchor="middle">
23
</text>
</g>
</g>
<g id="24" transform="translate(-95.76 -80.35) rotate(220.0)">
<rect id="24_rect" class="q" width="20" height="40" x="-10.0" y="-20.0">
</rect>
<g transform="rotate(90) translate(0 6)">
<text id="24_text" class="q vtext" text-anchor="middle">
24
</text>
</g>
</g>
<g id="25" transform="translate(-62.5 -108.25) rotate(240.0)">
<rect id="25_rect" class="ma" width="20" height="40" x="-10.0" y="-20.0">
</rect>
<g transform="rotate(90) translate(0 6)">
<text id="25_text" class="ma vtext" text-anchor="middle">
25
</text>
</g>
</g>
<g id="26" transform="translate(-21.71 -123.1) rotate(260.0)">
<rect id="26_rect" class="q" width="20" height="40" x="-10.0" y="-20.0">
</rect>
<g transform="rotate(90) translate(0 6)">
<text id="26_text" class="q vtext" text-anchor="middle">
26
</text>
</g>
</g>
<g id="27" transform="translate(21.71 -123.1) rotate(280.0)">
<rect id="27_rect" class="q" width="20" height="40" x="-10.0" y="-20.0">
</rect>
<g transform="rotate(90) translate(0 6)">
<text id="27_text" class="q vtext" text-anchor="middle">
27
</text>
</g>
</g>
<g id="28" transform="translate(62.5 -108.25) rotate(300.0)">
<rect id="28_rect" class="vt" width="20" height="40" x="-10.0" y="-20.0">
</rect>
<g transform="rotate(90) translate(0 6)">
<text id="28_text" class="vt vtext" text-anchor="middle">
28
</text>
</g>
</g>
<g id="29" transform="translate(95.76 -80.35) rotate(320.0)">
<rect id="29_rect" class="q" width="20" height="40" x="-10.0" y="-20.0">
</rect>
<g transform="rotate(90) translate(0 6)">
<text id="29_text" class="q vtext" text-anchor="middle">
29
</text>
</g>
</g>
<g id="30" transform="translate(117.46 -42.75) rotate(340.0)">
<rect id="30_rect" class="q" width="20" height="40" x="-10.0" y="-20.0">
</rect>
<g transform="rotate(90) translate(0 6)">
<text id="30_text" class="q vtext" text-anchor="middle">
30
</text>
</g>
</g>
<g id="31" transform="translate(150.0 0.0) rotate(0.0)">
<rect id="31_rect" class="ma" width="20" height="40" x="-10.0" y="-20.0">
</rect>
<g transform="rotate(90) translate(0 6)">
<text id="31_text" class="ma vtext" text-anchor="middle">
31
</text>
</g>
</g>
<g id="32" transform="translate(144.89 38.82) rotate(15.0)">
<rect id="32_rect" class="q" width="20" height="40" x="-10.0" y="-20.0">
</rect>
<g transform="rotate(90) translate(0 6)">
<text id="32_text" class="q vtext" text-anchor="middle">
32
</text>
</g>
</g>
<g id="33" transform="translate(129.9 75.0) rotate(30.0)">
<rect id="33_rect" class="q" width="20" height="40" x="-10.0" y="-20.0">
</rect>
<g transform="rotate(90) translate(0 6)">
<text id="33_text" class="q vtext" text-anchor="middle">
33
</text>
</g>
</g>
<g id="34" transform="translate(106.07 106.07) rotate(45.0)">
<rect id="34_rect" class="q" width="20" height="40" x="-10.0" y="-20.0">
</rect>
<g transform="rotate(90) translate(0 6)">
<text id="34_text" class="q vtext" text-anchor="middle">
34
</text>
</g>
</g>
<g id="35" transform="translate(75.0 129.9) rotate(60.0)">
<rect id="35_rect" class="vt" width="20" height="40" x="-10.0" y="-20.0">
</rect>
<g transform="rotate(90) translate(0 6)">
<text id="35_text" class="vt vtext" text-anchor="middle">
35
</text>
</g>
</g>
<g id="36" transform="translate(38.82 144.89) rotate(75.0)">
<rect id="36_rect" class="q" width="20" height="40" x="-10.0" y="-20.0">
</rect>
<g transform="rotate(90) translate(0 6)">
<text id="36_text" class="q vtext" text-anchor="middle">
36
</text>
</g>
</g>
<g id="37" transform="translate(0.0 150.0) rotate(90.0)">
<rect id="37_rect" class="q" width="20" height="40" x="-10.0" y="-20.0">
</rect>
<g transform="rotate(90) translate(0 6)">
<text id="37_text" class="q vtext" text-anchor="middle">
37
</text>
</g>
</g>
<g id="38" transform="translate(-38.82 144.89) rotate(105.0)">
<rect id="38_rect" class="q" width="20" height="40" x="-10.0" y="-20.0">
</rect>
<g transform="rotate(90) translate(0 6)">
<text id="38_text" class="q vtext" text-anchor="middle">
38
</text>
</g>
</g>
<g id="39" transform="translate(-75.0 129.9) rotate(120.0)">
<rect id="39_rect" class="ma" width="20" height="40" x="-10.0" y="-20.0">
</rect>
<g transform="rotate(90) translate(0 6)">
<text id="39_text" class="ma vtext" text-anchor="middle">
39
</text>
</g>
</g>
<g id="40" transform="translate(-106.07 106.07) rotate(135.0)">
<rect id="40_rect" class="q" width="20" height="40" x="-10.0" y="-20.0">
</rect>
<g transform="rotate(90) translate(0 6)">
<text id="40_text" class="q vtext" text-anchor="middle">
40
</text>
</g>
</g>
<g id="41" transform="translate(-129.9 75.0) rotate(150.0)">
<rect id="41_rect" class="q" width="20" height="40" x="-10.0" y="-20.0">
</rect>
<g transform="rotate(90) translate(0 6)">
<text id="41_text" class="q vtext" text-anchor="middle">
41
</text>
</g>
</g>
<g id="42" transform="translate(-144.89 38.82) rotate(165.0)">
<rect id="42_rect" class="q" width="20" height="40" x="-10.0" y="-20.0">
</rect>
<g transform="rotate(90) translate(0 6)">
<text id="42_text" class="q vtext" text-anchor="middle">
42
</text>
</g>
</g>
<g id="43" transform="translate(-150.0 0.0) rotate(180.0)">
<rect id="43_rect" class="vt" width="20" height="40" x="-10.0" y="-20.0">
</rect>
<g transform="rotate(90) translate(0 6)">
<text id="43_text" class="vt vtext" text-anchor="middle">
43
</text>
</g>
</g>
<g id="44" transform="translate(-144.89 -38.82) rotate(195.0)">
<rect id="44_rect" class="q" width="20" height="40" x="-10.0" y="-20.0">
</rect>
<g transform="rotate(90) translate(0 6)">
<text id="44_text" class="q vtext" text-anchor="middle">
44
</text>
</g>
</g>
<g id="45" transform="translate(-129.9 -75.0) rotate(210.0)">
<rect id="45_rect" class="q" width="20" height="40" x="-10.0" y="-20.0">
</rect>
<g transform="rotate(90) translate(0 6)">
<text id="45_text" class="q vtext" text-anchor="middle">
45
</text>
</g>
</g>
<g id="46" transform="translate(-106.07 -106.07) rotate(225.0)">
<rect id="46_rect" class="q" width="20" height="40" x="-10.0" y="-20.0">
</rect>
<g transform="rotate(90) translate(0 6)">
<text id="46_text" class="q vtext" text-anchor="middle">
46
</text>
</g>
</g>
<g id="47" transform="translate(-75.0 -129.9) rotate(240.0)">
<rect id="47_rect" class="ma" width="20" height="40" x="-10.0" y="-20.0">
</rect>
<g transform="rotate(90) translate(0 6)">
<text id="47_text" class="ma vtext" text-anchor="middle">
47
</text>
</g>
</g>
<g id="48" transform="translate(-38.82 -144.89) rotate(255.0)">
<rect id="48_rect" class="q" width="20" height="40" x="-10.0" y="-20.0">
</rect>
<g transform="rotate(90) translate(0 6)">
<text id="48_text" class="q vtext" text-anchor="middle">
48
</text>
</g>
</g>
<g id="49" transform="translate(-0.0 -150.0) rotate(270.0)">
<rect id="49_rect" class="q" width="20" height="40" x="-10.0" y="-20.0">
</rect>
<g transform="rotate(90) translate(0 6)">
<text id="49_text" class="q vtext" text-anchor="middle">
49
</text>
</g>
</g>
<g id="50" transform="translate(38.82 -144.89) rotate(285.0)">
<rect id="50_rect" class="q" width="20" height="40" x="-10.0" y="-20.0">
</rect>
<g transform="rotate(90) translate(0 6)">
<text id="50_text" class="q vtext" text-anchor="middle">
50
</text>
</g>
</g>
<g id="51" transform="translate(75.0 -129.9) rotate(300.0)">
<rect id="51_rect" class="vt" width="20" height="40" x="-10.0" y="-20.0">
</rect>
<g transform="rotate(90) translate(0 6)">
<text id="51_text" class="vt vtext" text-anchor="middle">
51
</text>
</g>
</g>
<g id="52" transform="translate(106.07 -106.07) rotate(315.0)">
<rect id="52_rect" class="q" width="20" height="40" x="-10.0" y="-20.0">
</rect>
<g transform="rotate(90) translate(0 6)">
<text id="52_text" class="q vtext" text-anchor="middle">
52
</text>
</g>
</g>
<g id="53" transform="translate(129.9 -75.0) rotate(330.0)">
<rect id="53_rect" class="q" width="20" height="40" x="-10.0" y="-20.0">
</rect>
<g transform="rotate(90) translate(0 6)">
<text id="53_text" class="q vtext" text-anchor="middle">
53
</text>
</g>
</g>
<g id="54" transform="translate(144.89 -38.82) rotate(345.0)">
<rect id="54_rect" class="q" width="20" height="40" x="-10.0" y="-20.0">
</rect>
<g transform="rotate(90) translate(0 6)">
<text id="54_text" class="q vtext" text-anchor="middle">
54
</text>
</g>
</g>
<g id="baixos_gp_0" transform="translate(40.0 0.0) rotate(0.0)">
<g id="55" transform="translate(0 0) rotate(0)">
<rect id="55_rect" class="b" width="20" height="40" x="-10" y="-20">
</rect>
<g transform="rotate(90) translate(0 6)">
<text id="55_text" class="b vtext" text-anchor="middle">
55
</text>
</g>
</g>
<g id="56" transform="translate(0 30) rotate(90)">
<rect id="56_rect" class="cr" width="16" height="30" x="-8" y="-15">
</rect>
<g transform="rotate(90) translate(0 6)">
<text id="56_text" class="cr vtext" text-anchor="middle">
56
</text>
</g>
</g>
<g id="57" transform="translate(0 -30) rotate(-90)">
<rect id="57_rect" class="cr" width="16" height="30" x="-8" y="-15">
</rect>
<g transform="rotate(90) translate(0 6)">
<text id="57_text" class="cr vtext" text-anchor="middle">
57
</text>
</g>
</g>
<g id="58" transform="translate(-20 0) rotate(0)">
<rect id="58_rect" class="co" width="16" height="30" x="-8" y="-15">
</rect>
<g transform="rotate(90) translate(0 6)">
<text id="58_text" class="co vtext" text-anchor="middle">
58
</text>
</g>
</g>
<g id="59" transform="translate(20 0) rotate(0)">
<rect id="59_rect" class="a" width="16" height="30" x="-8" y="-15">
</rect>
<g transform="rotate(90) translate(0 6)">
<text id="59_text" class="a vtext" text-anchor="middle">
59
</text>
</g>
</g>
</g>
<g id="baixos_gp_1" transform="translate(-20.0 34.64) rotate(120.0)">
<g id="60" transform="translate(0 0) rotate(0)">
<rect id="60_rect" class="b" width="20" height="40" x="-10" y="-20">
</rect>
<g transform="rotate(90) translate(0 6)">
<text id="60_text" class="b vtext" text-anchor="middle">
60
</text>
</g>
</g>
<g id="61" transform="translate(0 30) rotate(90)">
<rect id="61_rect" class="cr" width="16" height="30" x="-8" y="-15">
</rect>
<g transform="rotate(90) translate(0 6)">
<text id="61_text" class="cr vtext" text-anchor="middle">
61
</text>
</g>
</g>
<g id="62" transform="translate(0 -30) rotate(-90)">
<rect id="62_rect" class="cr" width="16" height="30" x="-8" y="-15">
</rect>
<g transform="rotate(90) translate(0 6)">
<text id="62_text" class="cr vtext" text-anchor="middle">
62
</text>
</g>
</g>
<g id="63" transform="translate(-20 0) rotate(0)">
<rect id="63_rect" class="co" width="16" height="30" x="-8" y="-15">
</rect>
<g transform="rotate(90) translate(0 6)">
<text id="63_text" class="co vtext" text-anchor="middle">
63
</text>
</g>
</g>
<g id="64" transform="translate(20 0) rotate(0)">
<rect id="64_rect" class="a" width="16" height="30" x="-8" y="-15">
</rect>
<g transform="rotate(90) translate(0 6)">
<text id="64_text" class="a vtext" text-anchor="middle">
64
</text>
</g>
</g>
</g>
<g id="baixos_gp_2" transform="translate(-20.0 -34.64) rotate(240.0)">
<g id="65" transform="translate(0 0) rotate(0)">
<rect id="65_rect" class="b" width="20" height="40" x="-10" y="-20">
</rect>
<g transform="rotate(90) translate(0 6)">
<text id="65_text" class="b vtext" text-anchor="middle">
65
</text>
</g>
</g>
<g id="66" transform="translate(0 30) rotate(90)">
<rect id="66_rect" class="cr" width="16" height="30" x="-8" y="-15">
</rect>
<g transform="rotate(90) translate(0 6)">
<text id="66_text" class="cr vtext" text-anchor="middle">
66
</text>
</g>
</g>
<g id="67" transform="translate(0 -30) rotate(-90)">
<rect id="67_rect" class="cr" width="16" height="30" x="-8" y="-15">
</rect>
<g transform="rotate(90) translate(0 6)">
<text id="67_text" class="cr vtext" text-anchor="middle">
67
</text>
</g>
</g>
<g id="68" transform="translate(-20 0) rotate(0)">
<rect id="68_rect" class="co" width="16" height="30" x="-8" y="-15">
</rect>
<g transform="rotate(90) translate(0 6)">
<text id="68_text" class="co vtext" text-anchor="middle">
68
</text>
</g>
</g>
<g id="69" transform="translate(20 0) rotate(0)">
<rect id="69_rect" class="a" width="16" height="30" x="-8" y="-15">
</rect>
<g transform="rotate(90) translate(0 6)">
<text id="69_text" class="a vtext" text-anchor="middle">
69
</text>
</g>
</g>
</g>
<g id="portacrosses_gp_0" transform="translate(35.0 60.62) rotate(60.0)">
<g id="70" transform="translate(0 0) rotate(0)">
<rect id="70_rect" class="pc" width="20" height="40" x="-10" y="-20">
</rect>
<g transform="rotate(90) translate(0 6)">
<text id="70_text" class="pc vtext" text-anchor="middle">
70
</text>
</g>
</g>
<g id="71" transform="translate(-10 -45) rotate(-30)">
<rect id="71_rect" class="pc" width="16" height="30" x="-8" y="-15">
</rect>
<g transform="rotate(90) translate(0 6)">
<text id="71_text" class="pc vtext" text-anchor="middle">
71
</text>
</g>
</g>
<g id="72" transform="translate(-10 45) rotate(30)">
<rect id="72_rect" class="pc" width="16" height="30" x="-8" y="-15">
</rect>
<g transform="rotate(90) translate(0 6)">
<text id="72_text" class="pc vtext" text-anchor="middle">
72
</text>
</g>
</g>
</g>
<g id="portacrosses_gp_1" transform="translate(-70.0 0.0) rotate(180.0)">
<g id="73" transform="translate(0 0) rotate(0)">
<rect id="73_rect" class="pc" width="20" height="40" x="-10" y="-20">
</rect>
<g transform="rotate(90) translate(0 6)">
<text id="73_text" class="pc vtext" text-anchor="middle">
73
</text>
</g>
</g>
<g id="74" transform="translate(-10 -45) rotate(-30)">
<rect id="74_rect" class="pc" width="16" height="30" x="-8" y="-15">
</rect>
<g transform="rotate(90) translate(0 6)">
<text id="74_text" class="pc vtext" text-anchor="middle">
74
</text>
</g>
</g>
<g id="75" transform="translate(-10 45) rotate(30)">
<rect id="75_rect" class="pc" width="16" height="30" x="-8" y="-15">
</rect>
<g transform="rotate(90) translate(0 6)">
<text id="75_text" class="pc vtext" text-anchor="middle">
75
</text>
</g>
</g>
</g>
<g id="portacrosses_gp_2" transform="translate(35.0 -60.62) rotate(300.0)">
<g id="76" transform="translate(0 0) rotate(0)">
<rect id="76_rect" class="pc" width="20" height="40" x="-10" y="-20">
</rect>
<g transform="rotate(90) translate(0 6)">
<text id="76_text" class="pc vtext" text-anchor="middle">
76
</text>
</g>
</g>
<g id="77" transform="translate(-10 -45) rotate(-30)">
<rect id="77_rect" class="pc" width="16" height="30" x="-8" y="-15">
</rect>
<g transform="rotate(90) translate(0 6)">
<text id="77_text" class="pc vtext" text-anchor="middle">
77
</text>
</g>
</g>
<g id="78" transform="translate(-10 45) rotate(30)">
<rect id="78_rect" class="pc" width="16" height="30" x="-8" y="-15">
</rect>
<g transform="rotate(90) translate(0 6)">
<text id="78_text" class="pc vtext" text-anchor="middle">
78
</text>
</g>
</g>
</g>
</g>
<g id="relations">
<path class="ma_ma" pos_list="1_13" d="M90.0,-20.0L115.0,-20.0"/>
<path class="ma_ma" pos_list="13_31" d="M115.0,-20.0L140.0,-20.0"/>
<path class="vt_vt" pos_list="3_16" d="M65.62,102.6L78.12,124.25"/>
<path class="vt_vt" pos_list="16_35" d="M78.12,124.25L90.62,145.9"/>
<path class="ma_ma" pos_list="5_19" d="M-69.75,76.12L-82.25,97.77"/>
<path class="ma_ma" pos_list="19_39" d="M-82.25,97.77L-94.75,119.42"/>
<path class="vt_vt" pos_list="7_22" d="M-77.99,3.96L-102.99,3.96"/>
<path class="vt_vt" pos_list="22_43" d="M-102.99,3.96L-127.99,3.96"/>
<path class="ma_ma" pos_list="9_25" d="M-72.17,-83.66L-84.67,-105.31"/>
<path class="ma_ma" pos_list="25_47" d="M-84.67,-105.31L-97.17,-126.96"/>
<path class="vt_vt" pos_list="11_28" d="M70.22,-96.16L82.72,-117.81"/>
<path class="vt_vt" pos_list="28_51" d="M82.72,-117.81L95.22,-139.46"/>
<path class="p_p" pos_list="2_14" d="M104.82,37.03L95.12,43.72"/>
<path class="p_p" pos_list="2_15" d="M104.82,37.03L87.53,101.14"/>
<path class="p_p" pos_list="14_32" d="M95.12,43.72L139.48,60.52"/>
<path class="p_p" pos_list="14_33" d="M95.12,43.72L148.12,62.03"/>
<path class="p_p" pos_list="15_33" d="M87.53,101.14L148.12,62.03"/>
<path class="p_p" pos_list="15_34" d="M87.53,101.14L83.8,104.07"/>
<path class="p_p" pos_list="4_17" d="M-13.4,117.9L42.69,115.37"/>
<path class="p_p" pos_list="4_18" d="M-13.4,117.9L-20.21,100.79"/>
<path class="p_p" pos_list="17_36" d="M42.69,115.37L37.36,122.58"/>
<path class="p_p" pos_list="17_37" d="M42.69,115.37L-13.4,167.9"/>
<path class="p_p" pos_list="18_37" d="M-20.21,100.79L-13.4,167.9"/>
<path class="p_p" pos_list="18_38" d="M-20.21,100.79L-17.0,140.0"/>
<path class="p_p" pos_list="6_20" d="M-79.29,28.87L-113.39,94.11"/>
<path class="p_p" pos_list="6_21" d="M-79.29,28.87L-112.09,64.46"/>
<path class="p_p" pos_list="20_40" d="M-113.39,94.11L-97.88,126.88"/>
<path class="p_p" pos_list="20_41" d="M-113.39,94.11L-122.59,53.87"/>
<path class="p_p" pos_list="21_41" d="M-112.09,64.46L-122.59,53.87"/>
<path class="p_p" pos_list="21_42" d="M-112.09,64.46L-164.18,50.12"/>
<path class="p_p" pos_list="8_23" d="M-87.12,-27.65L-104.87,-61.23"/>
<path class="p_p" pos_list="8_24" d="M-87.12,-27.65L-107.49,-99.39"/>
<path class="p_p" pos_list="23_44" d="M-104.87,-61.23L-159.04,-56.14"/>
<path class="p_p" pos_list="23_45" d="M-104.87,-61.23L-130.42,-52.65"/>
<path class="p_p" pos_list="24_45" d="M-107.49,-99.39L-130.42,-52.65"/>
<path class="p_p" pos_list="24_46" d="M-107.49,-99.39L-91.14,-122.72"/>
<path class="p_p" pos_list="10_26" d="M-6.32,-121.45L-28.07,-101.66"/>
<path class="p_p" pos_list="10_27" d="M-6.32,-121.45L38.68,-108.54"/>
<path class="p_p" pos_list="26_48" d="M-28.07,-101.66L-20.07,-132.71"/>
<path class="p_p" pos_list="26_49" d="M-28.07,-101.66L-6.32,-171.45"/>
<path class="p_p" pos_list="27_49" d="M38.68,-108.54L-6.32,-171.45"/>
<path class="p_p" pos_list="27_50" d="M38.68,-108.54L29.68,-124.48"/>
<path class="p_p" pos_list="12_29" d="M99.16,-31.5L95.29,-102.71"/>
<path class="p_p" pos_list="12_30" d="M99.16,-31.5L96.86,-51.44"/>
<path class="p_p" pos_list="29_52" d="M95.29,-102.71L84.5,-111.96"/>
<path class="p_p" pos_list="29_53" d="M95.29,-102.71L142.46,-56.5"/>
<path class="p_p" pos_list="30_53" d="M96.86,-51.44L142.46,-56.5"/>
<path class="p_p" pos_list="30_54" d="M96.86,-51.44L147.38,-61.04"/>
<path class="p" pos_list="2" d="M104.82,37.03"/>
<path class="p_p" pos_list="14_15" d="M95.12,43.72L87.53,101.14"/>
<path class="p_p_p" pos_list="32_33_34" d="M139.48,60.52L148.12,62.03L83.8,104.07"/>
<path class="p" pos_list="4" d="M-13.4,117.9"/>
<path class="p_p" pos_list="17_18" d="M42.69,115.37L-20.21,100.79"/>
<path class="p_p_p" pos_list="36_37_38" d="M37.36,122.58L-13.4,167.9L-17.0,140.0"/>
<path class="p" pos_list="6" d="M-79.29,28.87"/>
<path class="p_p" pos_list="20_21" d="M-113.39,94.11L-112.09,64.46"/>
<path class="p_p_p" pos_list="40_41_42" d="M-97.88,126.88L-122.59,53.87L-164.18,50.12"/>
<path class="p" pos_list="8" d="M-87.12,-27.65"/>
<path class="p_p" pos_list="23_24" d="M-104.87,-61.23L-107.49,-99.39"/>
<path class="p_p_p" pos_list="44_45_46" d="M-159.04,-56.14L-130.42,-52.65L-91.14,-122.72"/>
<path class="p" pos_list="10" d="M-6.32,-121.45"/>
<path class="p_p" pos_list="26_27" d="M-28.07,-101.66L38.68,-108.54"/>
<path class="p_p_p" pos_list="48_49_50" d="M-20.07,-132.71L-6.32,-171.45L29.68,-124.48"/>
<path class="p" pos_list="12" d="M99.16,-31.5"/>
<path class="p_p" pos_list="29_30" d="M95.29,-102.71L96.86,-51.44"/>
<path class="p_p_p" pos_list="52_53_54" d="M84.5,-111.96L142.46,-56.5L147.38,-61.04"/>
<path class="b_c" pos_list="71_56" d="M71.82,90.21L30.17,43.87"/>
<path class="b_c" pos_list="71_57" d="M71.82,90.21L56.99,-30.43"/>
<path class="b_c" pos_list="74_61" d="M-22.84,2.72L-2.53,76.07"/>
<path class="b_c" pos_list="74_62" d="M-22.84,2.72L-23.84,-0.0"/>
<path class="b_c" pos_list="77_66" d="M74.98,-85.79L18.27,-11.05"/>
<path class="b_c" pos_list="77_67" d="M74.98,-85.79L-43.23,-60.62"/>
</g>
</svg>