<svg xmlns="http://www.w3.org/2000/xml" xmlns:xlink="http://www.w3.org/1999/xlink" viewBox="-230 -190 460 380">
<g id="positions">
<g id="1" transform="translate(100.0 0.0) rotate(0.0)">
<rect id="1_rect" class="ma" width="20" height="40" x="-10.0" y="-20.0">
</rect>
<g transform="rotate(90) translate(0 6)">
<text id="1_text" class="ma vtext" text-anchor="middle">
1 ${_1} ${_c1}
</text>
</g>
</g>
<g id="2" transform="translate(86.6 50.0) rotate(30.0)">
<rect id="2_rect" class="pinya" width="20" height="40" x="-10.0" y="-20.0">
</rect>
<g transform="rotate(90) translate(0 6)">
<text id="2_text" class="pinya vtext" text-anchor="middle">
2 ${_2} ${_c2}
</text>
</g>
</g>
<g id="3" transform="translate(50.0 86.6) rotate(60.0)">
<rect id="3_rect" class="vent" width="20" height="40" x="-10.0" y="-20.0">
</rect>
<g transform="rotate(90) translate(0 6)">
<text id="3_text" class="vent vtext" text-anchor="middle">
3 ${_3} ${_c3}
</text>
</g>
</g>
<g id="4" transform="translate(0.0 100.0) rotate(90.0)">
<rect id="4_rect" class="pinya" width="20" height="40" x="-10.0" y="-20.0">
</rect>
<g transform="rotate(90) translate(0 6)">
<text id="4_text" class="pinya vtext" text-anchor="middle">
4 ${_4} ${_c4}
</text>
</g>
</g>
<g id="5" transform="translate(-50.0 86.6) rotate(120.0)">
<rect id="5_rect" class="ma" width="20" height="40" x="-10.0" y="-20.0">
</rect>
<g transform="rotate(90) translate(0 6)">
<text id="5_text" class="ma vtext" text-anchor="middle">
5 ${_5} ${_c5}
</text>
</g>
</g>
<g id="6" transform="translate(-86.6 50.0) rotate(150.0)">
<rect id="6_rect" class="pinya" width="20" height="40" x="-10.0" y="-20.0">
</rect>
<g transform="rotate(90) translate(0 6)">
<text id="6_text" class="pinya vtext" text-anchor="middle">
6 ${_6} ${_c6}
</text>
</g>
</g>
<g id="7" transform="translate(-100.0 0.0) rotate(180.0)">
<rect id="7_rect" class="vent" width="20" height="40" x="-10.0" y="-20.0">
</rect>
<g transform="rotate(90) translate(0 6)">
<text id="7_text" class="vent vtext" text-anchor="middle">
7 ${_7} ${_c7}
</text>
</g>
</g>
<g id="8" transform="translate(-86.6 -50.0) rotate(210.0)">
<rect id="8_rect" class="pinya" width="20" height="40" x="-10.0" y="-20.0">
</rect>
<g transform="rotate(90) translate(0 6)">
<text id="8_text" class="pinya vtext" text-anchor="middle">
8 ${_8} ${_c8}
</text>
</g>
</g>
<g id="9" transform="translate(-50.0 -86.6) rotate(240.0)">
<rect id="9_rect" class="ma" width="20" height="40" x="-10.0" y="-20.0">
</rect>
<g transform="rotate(90) translate(0 6)">
<text id="9_text" class="ma vtext" text-anchor="middle">
9 ${_9} ${_c9}
</text>
</g>
</g>
<g id="10" transform="translate(-0.0 -100.0) rotate(270.0)">
<rect id="10_rect" class="pinya" width="20" height="40" x="-10.0" y="-20.0">
</rect>
<g transform="rotate(90) translate(0 6)">
<text id="10_text" class="pinya vtext" text-anchor="middle">
10 ${_10} ${_c10}
</text>
</g>
</g>
<g id="11" transform="translate(50.0 -86.6) rotate(300.0)">
<rect id="11_rect" class="vent" width="20" height="40" x="-10.0" y="-20.0">
</rect>
<g transform="rotate(90) translate(0 6)">
<text id="11_text" class="vent vtext" text-anchor="middle">
11 ${_11} ${_c11}
</text>
</g>
</g>
<g id="12" transform="translate(86.6 -50.0) rotate(330.0)">
<rect id="12_rect" class="pinya" width="20" height="40" x="-10.0" y="-20.0">
</rect>
<g transform="rotate(90) translate(0 6)">
<text id="12_text" class="pinya vtext" text-anchor="middle">
12 ${_12} ${_c12}
</text>
</g>
</g>
<g id="13" transform="translate(125.0 0.0) rotate(0.0)">
<rect id="13_rect" class="ma" width="20" height="40" x="-10.0" y="-20.0">
</rect>
<g transform="rotate(90) translate(0 6)">
<text id="13_text" class="ma vtext" text-anchor="middle">
13 ${_13} ${_c13}
</text>
</g>
</g>
<g id="14" transform="translate(117.46 42.75) rotate(20.0)">
<rect id="14_rect" class="pinya" width="20" height="40" x="-10.0" y="-20.0">
</rect>
<g transform="rotate(90) translate(0 6)">
<text id="14_text" class="pinya vtext" text-anchor="middle">
14 ${_14} ${_c14}
</text>
</g>
</g>
<g id="15" transform="translate(95.76 80.35) rotate(40.0)">
<rect id="15_rect" class="pinya" width="20" height="40" x="-10.0" y="-20.0">
</rect>
<g transform="rotate(90) translate(0 6)">
<text id="15_text" class="pinya vtext" text-anchor="middle">
15 ${_15} ${_c15}
</text>
</g>
</g>
<g id="16" transform="translate(62.5 108.25) rotate(60.0)">
<rect id="16_rect" class="vent" width="20" height="40" x="-10.0" y="-20.0">
</rect>
<g transform="rotate(90) translate(0 6)">
<text id="16_text" class="vent vtext" text-anchor="middle">
16 ${_16} ${_c16}
</text>
</g>
</g>
<g id="17" transform="translate(21.71 123.1) rotate(80.0)">
<rect id="17_rect" class="pinya" width="20" height="40" x="-10.0" y="-20.0">
</rect>
<g transform="rotate(90) translate(0 6)">
<text id="17_text" class="pinya vtext" text-anchor="middle">
17 ${_17} ${_c17}
</text>
</g>
</g>
<g id="18" transform="translate(-21.71 123.1) rotate(100.0)">
<rect id="18_rect" class="pinya" width="20" height="40" x="-10.0" y="-20.0">
</rect>
<g transform="rotate(90) translate(0 6)">
<text id="18_text" class="pinya vtext" text-anchor="middle">
18 ${_18} ${_c18}
</text>
</g>
</g>
<g id="19" transform="translate(-62.5 108.25) rotate(120.0)">
<rect id="19_rect" class="ma" width="20" height="40" x="-10.0" y="-20.0">
</rect>
<g transform="rotate(90) translate(0 6)">
<text id="19_text" class="ma vtext" text-anchor="middle">
19 ${_19} ${_c19}
</text>
</g>
</g>
<g id="20" transform="translate(-95.76 80.35) rotate(140.0)">
<rect id="20_rect" class="pinya" width="20" height="40" x="-10.0" y="-20.0">
</rect>
<g transform="rotate(90) translate(0 6)">
<text id="20_text" class="pinya vtext" text-anchor="middle">
20 ${_20} ${_c20}
</text>
</g>
</g>
<g id="21" transform="translate(-117.46 42.75) rotate(160.0)">
<rect id="21_rect" class="pinya" width="20" height="40" x="-10.0" y="-20.0">
</rect>
<g transform="rotate(90) translate(0 6)">
<text id="21_text" class="pinya vtext" text-anchor="middle">
21 ${_21} ${_c21}
</text>
</g>
</g>
<g id="22" transform="translate(-125.0 0.0) rotate(180.0)">
<rect id="22_rect" class="vent" width="20" height="40" x="-10.0" y="-20.0">
</rect>
<g transform="rotate(90) translate(0 6)">
<text id="22_text" class="vent vtext" text-anchor="middle">
22 ${_22} ${_c22}
</text>
</g>
</g>
<g id="23" transform="translate(-117.46 -42.75) rotate(200.0)">
<rect id="23_rect" class="pinya" width="20" height="40" x="-10.0" y="-20.0">
</rect>
<g transform="rotate(90) translate(0 6)">
<text id="23_text" class="pinya vtext" text-anchor="middle">
23 ${_23} ${_c23}
</text>
</g>
</g>
<g id="24" transform="translate(-95.76 -80.35) rotate(220.0)">
<rect id="24_rect" class="pinya" width="20" height="40" x="-10.0" y="-20.0">
</rect>
<g transform="rotate(90) translate(0 6)">
<text id="24_text" class="pinya vtext" text-anchor="middle">
24 ${_24} ${_c24}
</text>
</g>
</g>
<g id="25" transform="translate(-62.5 -108.25) rotate(240.0)">
<rect id="25_rect" class="ma" width="20" height="40" x="-10.0" y="-20.0">
</rect>
<g transform="rotate(90) translate(0 6)">
<text id="25_text" class="ma vtext" text-anchor="middle">
25 ${_25} ${_c25}
</text>
</g>
</g>
<g id="26" transform="translate(-21.71 -123.1) rotate(260.0)">
<rect id="26_rect" class="pinya" width="20" height="40" x="-10.0" y="-20.0">
</rect>
<g transform="rotate(90) translate(0 6)">
<text id="26_text" class="pinya vtext" text-anchor="middle">
26 ${_26} ${_c26}
</text>
</g>
</g>
<g id="27" transform="translate(21.71 -123.1) rotate(280.0)">
<rect id="27_rect" class="pinya" width="20" height="40" x="-10.0" y="-20.0">
</rect>
<g transform="rotate(90) translate(0 6)">
<text id="27_text" class="pinya vtext" text-anchor="middle">
27 ${_27} ${_c27}
</text>
</g>
</g>
<g id="28" transform="translate(62.5 -108.25) rotate(300.0)">
<rect id="28_rect" class="vent" width="20" height="40" x="-10.0" y="-20.0">
</rect>
<g transform="rotate(90) translate(0 6)">
<text id="28_text" class="vent vtext" text-anchor="middle">
28 ${_28} ${_c28}
</text>
</g>
</g>
<g id="29" transform="translate(95.76 -80.35) rotate(320.0)">
<rect id="29_rect" class="pinya" width="20" height="40" x="-10.0" y="-20.0">
</rect>
<g transform="rotate(90) translate(0 6)">
<text id="29_text" class="pinya vtext" text-anchor="middle">
29 ${_29} ${_c29}
</text>
</g>
</g>
<g id="30" transform="translate(117.46 -42.75) rotate(340.0)">
<rect id="30_rect" class="pinya" width="20" height="40" x="-10.0" y="-20.0">
</rect>
<g transform="rotate(90) translate(0 6)">
<text id="30_text" class="pinya vtext" text-anchor="middle">
30 ${_30} ${_c30}
</text>
</g>
</g>
<g id="31" transform="translate(150.0 0.0) rotate(0.0)">
<rect id="31_rect" class="ma" width="20" height="40" x="-10.0" y="-20.0">
</rect>
<g transform="rotate(90) translate(0 6)">
<text id="31_text" class="ma vtext" text-anchor="middle">
31 ${_31} ${_c31}
</text>
</g>
</g>
<g id="32" transform="translate(144.89 38.82) rotate(15.0)">
<rect id="32_rect" class="pinya" width="20" height="40" x="-10.0" y="-20.0">
</rect>
<g transform="rotate(90) translate(0 6)">
<text id="32_text" class="pinya vtext" text-anchor="middle">
32 ${_32} ${_c32}
</text>
</g>
</g>
<g id="33" transform="translate(129.9 75.0) rotate(30.0)">
<rect id="33_rect" class="pinya" width="20" height="40" x="-10.0" y="-20.0">
</rect>
<g transform="rotate(90) translate(0 6)">
<text id="33_text" class="pinya vtext" text-anchor="middle">
33 ${_33} ${_c33}
</text>
</g>
</g>
<g id="34" transform="translate(106.07 106.07) rotate(45.0)">
<rect id="34_rect" class="pinya" width="20" height="40" x="-10.0" y="-20.0">
</rect>
<g transform="rotate(90) translate(0 6)">
<text id="34_text" class="pinya vtext" text-anchor="middle">
34 ${_34} ${_c34}
</text>
</g>
</g>
<g id="35" transform="translate(75.0 129.9) rotate(60.0)">
<rect id="35_rect" class="vent" width="20" height="40" x="-10.0" y="-20.0">
</rect>
<g transform="rotate(90) translate(0 6)">
<text id="35_text" class="vent vtext" text-anchor="middle">
35 ${_35} ${_c35}
</text>
</g>
</g>
<g id="36" transform="translate(38.82 144.89) rotate(75.0)">
<rect id="36_rect" class="pinya" width="20" height="40" x="-10.0" y="-20.0">
</rect>
<g transform="rotate(90) translate(0 6)">
<text id="36_text" class="pinya vtext" text-anchor="middle">
36 ${_36} ${_c36}
</text>
</g>
</g>
<g id="37" transform="translate(0.0 150.0) rotate(90.0)">
<rect id="37_rect" class="pinya" width="20" height="40" x="-10.0" y="-20.0">
</rect>
<g transform="rotate(90) translate(0 6)">
<text id="37_text" class="pinya vtext" text-anchor="middle">
37 ${_37} ${_c37}
</text>
</g>
</g>
<g id="38" transform="translate(-38.82 144.89) rotate(105.0)">
<rect id="38_rect" class="pinya" width="20" height="40" x="-10.0" y="-20.0">
</rect>
<g transform="rotate(90) translate(0 6)">
<text id="38_text" class="pinya vtext" text-anchor="middle">
38 ${_38} ${_c38}
</text>
</g>
</g>
<g id="39" transform="translate(-75.0 129.9) rotate(120.0)">
<rect id="39_rect" class="ma" width="20" height="40" x="-10.0" y="-20.0">
</rect>
<g transform="rotate(90) translate(0 6)">
<text id="39_text" class="ma vtext" text-anchor="middle">
39 ${_39} ${_c39}
</text>
</g>
</g>
<g id="40" transform="translate(-106.07 106.07) rotate(135.0)">
<rect id="40_rect" class="pinya" width="20" height="40" x="-10.0" y="-20.0">
</rect>
<g transform="rotate(90) translate(0 6)">
<text id="40_text" class="pinya vtext" text-anchor="middle">
40 ${_40} ${_c40}
</text>
</g>
</g>
<g id="41" transform="translate(-129.9 75.0) rotate(150.0)">
<rect id="41_rect" class="pinya" width="20" height="40" x="-10.0" y="-20.0">
</rect>
<g transform="rotate(90) translate(0 6)">
<text id="41_text" class="pinya vtext" text-anchor="middle">
41 ${_41} ${_c41}
</text>
</g>
</g>
<g id="42" transform="translate(-144.89 38.82) rotate(165.0)">
<rect id="42_rect" class="pinya" width="20" height="40" x="-10.0" y="-20.0">
</rect>
<g transform="rotate(90) translate(0 6)">
<text id="42_text" class="pinya vtext" text-anchor="middle">
42 ${_42} ${_c42}
</text>
</g>
</g>
<g id="43" transform="translate(-150.0 0.0) rotate(180.0)">
<rect id="43_rect" class="vent" width="20" height="40" x="-10.0" y="-20.0">
</rect>
<g transform="rotate(90) translate(0 6)">
<text id="43_text" class="vent vtext" text-anchor="middle">
43 ${_43} ${_c43}
</text>
</g>
</g>
<g id="44" transform="translate(-144.89 -38.82) rotate(195.0)">
<rect id="44_rect" class="pinya" width="20" height="40" x="-10.0" y="-20.0">
</rect>
<g transform="rotate(90) translate(0 6)">
<text id="44_text" class="pinya vtext" text-anchor="middle">
44 ${_44} ${_c44}
</text>
</g>
</g>
<g id="45" transform="translate(-129.9 -75.0) rotate(210.0)">
<rect id="45_rect" class="pinya" width="20" height="40" x="-10.0" y="-20.0">
</rect>
<g transform="rotate(90) translate(0 6)">
<text id="45_text" class="pinya vtext" text-anchor="middle">
45 ${_45} ${_c45}
</text>
</g>
</g>
<g id="46" transform="translate(-106.07 -106.07) rotate(225.0)">
<rect id="46_rect" class="pinya" width="20" height="40" x="-10.0" y="-20.0">
</rect>
<g transform="rotate(90) translate(0 6)">
<text id="46_text" class="pinya vtext" text-anchor="middle">
46 ${_46} ${_c46}
</text>
</g>
</g>
<g id="47" transform="translate(-75.0 -129.9) rotate(240.0)">
<rect id="47_rect" class="ma" width="20" height="40" x="-10.0" y="-20.0">
</rect>
<g transform="rotate(90) translate(0 6)">
<text id="47_text" class="ma vtext" text-anchor="middle">
47 ${_47} ${_c47}
</text>
</g>
</g>
<g id="48" transform="translate(-38.82 -144.89) rotate(255.0)">
<rect id="48_rect" class="pinya" width="20" height="40" x="-10.0" y="-20.0">
</rect>
<g transform="rotate(90) translate(0 6)">
<text id="48_text" class="pinya vtext" text-anchor="middle">
48 ${_48} ${_c48}
</text>
</g>
</g>
<g id="49" transform="translate(-0.0 -150.0) rotate(270.0)">
<rect id="49_rect" class="pinya" width="20" height="40" x="-10.0" y="-20.0">
</rect>
<g transform="rotate(90) translate(0 6)">
<text id="49_text" class="pinya vtext" text-anchor="middle">
49 ${_49} ${_c49}
</text>
</g>
</g>
<g id="50" transform="translate(38.82 -144.89) rotate(285.0)">
<rect id="50_rect" class="pinya" width="20" height="40" x="-10.0" y="-20.0">
</rect>
<g transform="rotate(90) translate(0 6)">
<text id="50_text" class="pinya vtext" text-anchor="middle">
50 ${_50} ${_c50}
</text>
</g>
</g>
<g id="51" transform="translate(75.0 -129.9) rotate(300.0)">
<rect id="51_rect" class="vent" width="20" height="40" x="-10.0" y="-20.0">
</rect>
<g transform="rotate(90) translate(0 6)">
<text id="51_text" class="vent vtext" text-anchor="middle">
51 ${_51} ${_c51}
</text>
</g>
</g>
<g id="52" transform="translate(106.07 -106.07) rotate(315.0)">
<rect id="52_rect" class="pinya" width="20" height="40" x="-10.0" y="-20.0">
</rect>
<g transform="rotate(90) translate(0 6)">
<text id="52_text" class="pinya vtext" text-anchor="middle">
52 ${_52} ${_c52}
</text>
</g>
</g>
<g id="53" transform="translate(129.9 -75.0) rotate(330.0)">
<rect id="53_rect" class="pinya" width="20" height="40" x="-10.0" y="-20.0">
</rect>
<g transform="rotate(90) translate(0 6)">
<text id="53_text" class="pinya vtext" text-anchor="middle">
53 ${_53} ${_c53}
</text>
</g>
</g>
<g id="54" transform="translate(144.89 -38.82) rotate(345.0)">
<rect id="54_rect" class="pinya" width="20" height="40" x="-10.0" y="-20.0">
</rect>
<g transform="rotate(90) translate(0 6)">
<text id="54_text" class="pinya vtext" text-anchor="middle">
54 ${_54} ${_c54}
</text>
</g>
</g>
<g id="baixos_gp_0" transform="translate(40.0 0.0) rotate(0.0)">
<g id="55" transform="translate(0 0) rotate(0)">
<rect id="55_rect" class="baix" width="20" height="40" x="-10" y="-20">
</rect>
<g transform="rotate(90) translate(0 6)">
<text id="55_text" class="baix vtext" text-anchor="middle">
55 ${_55} ${_c55}
</text>
</g>
</g>
<g id="56" transform="translate(0 30) rotate(90)">
<rect id="56_rect" class="crossa" width="16" height="30" x="-8" y="-15">
</rect>
<g transform="rotate(90) translate(0 6)">
<text id="56_text" class="crossa vtext" text-anchor="middle">
56 ${_56} ${_c56}
</text>
</g>
</g>
<g id="57" transform="translate(0 -30) rotate(-90)">
<rect id="57_rect" class="crossa" width="16" height="30" x="-8" y="-15">
</rect>
<g transform="rotate(90) translate(0 6)">
<text id="57_text" class="crossa vtext" text-anchor="middle">
57 ${_57} ${_c57}
</text>
</g>
</g>
<g id="58" transform="translate(20 0) rotate(0)">
<rect id="58_rect" class="contrafort" width="16" height="30" x="-8" y="-15">
</rect>
<g transform="rotate(90) translate(0 6)">
<text id="58_text" class="contrafort vtext" text-anchor="middle">
58 ${_58} ${_c58}
</text>
</g>
</g>
<g id="59" transform="translate(-20 0) rotate(0)">
<rect id="59_rect" class="agulla" width="16" height="30" x="-8" y="-15">
</rect>
<g transform="rotate(90) translate(0 6)">
<text id="59_text" class="agulla vtext" text-anchor="middle">
59 ${_59} ${_c59}
</text>
</g>
</g>
<g id="60" transform="translate(30 25) rotate(30)">
<rect id="60_rect" class="lateral" width="16" height="30" x="-8" y="-15">
</rect>
<g transform="rotate(90) translate(0 6)">
<text id="60_text" class="lateral vtext" text-anchor="middle">
60 ${_60} ${_c60}
</text>
</g>
</g>
<g id="61" transform="translate(30 -25) rotate(-30)">
<rect id="61_rect" class="lateral" width="16" height="30" x="-8" y="-15">
</rect>
<g transform="rotate(90) translate(0 6)">
<text id="61_text" class="lateral vtext" text-anchor="middle">
61 ${_61} ${_c61}
</text>
</g>
</g>
</g>
<g id="baixos_gp_1" transform="translate(-20.0 34.64) rotate(120.0)">
<g id="62" transform="translate(0 0) rotate(0)">
<rect id="62_rect" class="baix" width="20" height="40" x="-10" y="-20">
</rect>
<g transform="rotate(90) translate(0 6)">
<text id="62_text" class="baix vtext" text-anchor="middle">
62 ${_62} ${_c62}
</text>
</g>
</g>
<g id="63" transform="translate(0 30) rotate(90)">
<rect id="63_rect" class="crossa" width="16" height="30" x="-8" y="-15">
</rect>
<g transform="rotate(90) translate(0 6)">
<text id="63_text" class="crossa vtext" text-anchor="middle">
63 ${_63} ${_c63}
</text>
</g>
</g>
<g id="64" transform="translate(0 -30) rotate(-90)">
<rect id="64_rect" class="crossa" width="16" height="30" x="-8" y="-15">
</rect>
<g transform="rotate(90) translate(0 6)">
<text id="64_text" class="crossa vtext" text-anchor="middle">
64 ${_64} ${_c64}
</text>
</g>
</g>
<g id="65" transform="translate(20 0) rotate(0)">
<rect id="65_rect" class="contrafort" width="16" height="30" x="-8" y="-15">
</rect>
<g transform="rotate(90) translate(0 6)">
<text id="65_text" class="contrafort vtext" text-anchor="middle">
65 ${_65} ${_c65}
</text>
</g>
</g>
<g id="66" transform="translate(-20 0) rotate(0)">
<rect id="66_rect" class="agulla" width="16" height="30" x="-8" y="-15">
</rect>
<g transform="rotate(90) translate(0 6)">
<text id="66_text" class="agulla vtext" text-anchor="middle">
66 ${_66} ${_c66}
</text>
</g>
</g>
<g id="67" transform="translate(30 25) rotate(30)">
<rect id="67_rect" class="lateral" width="16" height="30" x="-8" y="-15">
</rect>
<g transform="rotate(90) translate(0 6)">
<text id="67_text" class="lateral vtext" text-anchor="middle">
67 ${_67} ${_c67}
</text>
</g>
</g>
<g id="68" transform="translate(30 -25) rotate(-30)">
<rect id="68_rect" class="lateral" width="16" height="30" x="-8" y="-15">
</rect>
<g transform="rotate(90) translate(0 6)">
<text id="68_text" class="lateral vtext" text-anchor="middle">
68 ${_68} ${_c68}
</text>
</g>
</g>
</g>
<g id="baixos_gp_2" transform="translate(-20.0 -34.64) rotate(240.0)">
<g id="69" transform="translate(0 0) rotate(0)">
<rect id="69_rect" class="baix" width="20" height="40" x="-10" y="-20">
</rect>
<g transform="rotate(90) translate(0 6)">
<text id="69_text" class="baix vtext" text-anchor="middle">
69 ${_69} ${_c69}
</text>
</g>
</g>
<g id="70" transform="translate(0 30) rotate(90)">
<rect id="70_rect" class="crossa" width="16" height="30" x="-8" y="-15">
</rect>
<g transform="rotate(90) translate(0 6)">
<text id="70_text" class="crossa vtext" text-anchor="middle">
70 ${_70} ${_c70}
</text>
</g>
</g>
<g id="71" transform="translate(0 -30) rotate(-90)">
<rect id="71_rect" class="crossa" width="16" height="30" x="-8" y="-15">
</rect>
<g transform="rotate(90) translate(0 6)">
<text id="71_text" class="crossa vtext" text-anchor="middle">
71 ${_71} ${_c71}
</text>
</g>
</g>
<g id="72" transform="translate(20 0) rotate(0)">
<rect id="72_rect" class="contrafort" width="16" height="30" x="-8" y="-15">
</rect>
<g transform="rotate(90) translate(0 6)">
<text id="72_text" class="contrafort vtext" text-anchor="middle">
72 ${_72} ${_c72}
</text>
</g>
</g>
<g id="73" transform="translate(-20 0) rotate(0)">
<rect id="73_rect" class="agulla" width="16" height="30" x="-8" y="-15">
</rect>
<g transform="rotate(90) translate(0 6)">
<text id="73_text" class="agulla vtext" text-anchor="middle">
73 ${_73} ${_c73}
</text>
</g>
</g>
<g id="74" transform="translate(30 25) rotate(30)">
<rect id="74_rect" class="lateral" width="16" height="30" x="-8" y="-15">
</rect>
<g transform="rotate(90) translate(0 6)">
<text id="74_text" class="lateral vtext" text-anchor="middle">
74 ${_74} ${_c74}
</text>
</g>
</g>
<g id="75" transform="translate(30 -25) rotate(-30)">
<rect id="75_rect" class="lateral" width="16" height="30" x="-8" y="-15">
</rect>
<g transform="rotate(90) translate(0 6)">
<text id="75_text" class="lateral vtext" text-anchor="middle">
75 ${_75} ${_c75}
</text>
</g>
</g>
</g>
<g id="portacrossa_gp_0" transform="translate(35.0 60.62) rotate(60.0)">
<g id="76" transform="translate(0 0) rotate(0)">
<rect id="76_rect" class="portacrossa" width="20" height="40" x="-10" y="-20">
</rect>
<g transform="rotate(90) translate(0 6)">
<text id="76_text" class="portacrossa vtext" text-anchor="middle">
76 ${_76} ${_c76}
</text>
</g>
</g>
</g>
<g id="portacrossa_gp_1" transform="translate(-70.0 0.0) rotate(180.0)">
<g id="77" transform="translate(0 0) rotate(0)">
<rect id="77_rect" class="portacrossa" width="20" height="40" x="-10" y="-20">
</rect>
<g transform="rotate(90) translate(0 6)">
<text id="77_text" class="portacrossa vtext" text-anchor="middle">
77 ${_77} ${_c77}
</text>
</g>
</g>
</g>
<g id="portacrossa_gp_2" transform="translate(35.0 -60.62) rotate(300.0)">
<g id="78" transform="translate(0 0) rotate(0)">
<rect id="78_rect" class="portacrossa" width="20" height="40" x="-10" y="-20">
</rect>
<g transform="rotate(90) translate(0 6)">
<text id="78_text" class="portacrossa vtext" text-anchor="middle">
78 ${_78} ${_c78}
</text>
</g>
</g>
</g>
<g id="79" transform="translate(187.5 0.0) rotate(0.0)">
<rect id="79_rect" class="segon" width="20" height="40" x="-10" y="-20">
</rect>
<g transform="rotate(90) translate(0 6)">
<text id="79_text" class="segon vtext" text-anchor="middle">
79 ${_79} ${_c79}
</text>
</g>
</g>
<g id="80" transform="translate(-93.75 162.38) rotate(120.0)">
<rect id="80_rect" class="segon" width="20" height="40" x="-10" y="-20">
</rect>
<g transform="rotate(90) translate(0 6)">
<text id="80_text" class="segon vtext" text-anchor="middle">
80 ${_80} ${_c80}
</text>
</g>
</g>
<g id="81" transform="translate(-93.75 -162.38) rotate(240.0)">
<rect id="81_rect" class="segon" width="20" height="40" x="-10" y="-20">
</rect>
<g transform="rotate(90) translate(0 6)">
<text id="81_text" class="segon vtext" text-anchor="middle">
81 ${_81} ${_c81}
</text>
</g>
</g>
</g>
<g id="relations">
<path class="rel ma_ma" pos_list="13_1" d="M127.238094103,1.835583868L101.145315096,3.7451556811"/>
<g transform="translate(114.19 2.79)"><text class="rel ma_ma">${_rel13_1}</text></g>
<path class="rel ma_ma" pos_list="31_13" d="M150.14648145,4.86322499972L129.835547373,0.263284783625"/>
<g transform="translate(139.99 2.56)"><text class="rel ma_ma">${_rel31_13}</text></g>
<path class="rel vent_vent" pos_list="16_3" d="M66.6645647428,110.748181178L51.7611354688,88.9370086682"/>
<g transform="translate(59.21 99.84)"><text class="rel vent_vent">${_rel16_3}</text></g>
<path class="rel vent_vent" pos_list="35_16" d="M79.1025315044,130.822360831L63.121736665,108.755703058"/>
<g transform="translate(71.11 119.79)"><text class="rel vent_vent">${_rel35_16}</text></g>
<path class="rel ma_ma" pos_list="19_5" d="M-58.8156432724,108.47275952L-46.3217808538,90.3447328225"/>
<g transform="translate(-52.57 99.41)"><text class="rel ma_ma">${_rel19_5}</text></g>
<path class="rel ma_ma" pos_list="39_19" d="M-70.4919917997,132.696923677L-62.2431628128,109.150935287"/>
<g transform="translate(-66.37 120.92)"><text class="rel ma_ma">${_rel39_19}</text></g>
<path class="rel vent_vent" pos_list="22_7" d="M-120.31013314,2.28479552331L-97.1918427733,3.96578493075"/>
<g transform="translate(-108.75 3.13)"><text class="rel vent_vent">${_rel22_7}</text></g>
<path class="rel vent_vent" pos_list="43_22" d="M-147.899354461,0.0555868430163L-124.644781671,1.88322942269"/>
<g transform="translate(-136.27 0.97)"><text class="rel vent_vent">${_rel43_22}</text></g>
<path class="rel ma_ma" pos_list="25_9" d="M-60.8326393763,-104.66455754L-46.6333262393,-86.5412842716"/>
<g transform="translate(-53.73 -95.6)"><text class="rel ma_ma">${_rel25_9}</text></g>
<path class="rel ma_ma" pos_list="47_25" d="M-74.0886805653,-128.637929923L-58.6345577371,-105.930341401"/>
<g transform="translate(-66.36 -117.28)"><text class="rel ma_ma">${_rel47_25}</text></g>
<path class="rel vent_vent" pos_list="28_11" d="M66.2966922597,-103.543835462L53.1549168765,-84.0365054572"/>
<g transform="translate(59.73 -93.79)"><text class="rel vent_vent">${_rel28_11}</text></g>
<path class="rel vent_vent" pos_list="51_28" d="M76.2791947808,-126.548740246L63.3644634947,-105.22905889"/>
<g transform="translate(69.82 -115.89)"><text class="rel vent_vent">${_rel51_28}</text></g>
<path class="rel pinya_pinya" pos_list="14_2" d="M118.174387333,46.081409607L87.4404127252,51.5216772881"/>
<g transform="translate(102.81 48.8)"><text class="rel pinya_pinya">${_rel14_2}</text></g>
<path class="rel pinya_pinya" pos_list="15_2" d="M100.256249698,80.5001993217L88.5177474252,53.956216663"/>
<g transform="translate(94.39 67.23)"><text class="rel pinya_pinya">${_rel15_2}</text></g>
<path class="rel pinya_pinya" pos_list="32_14" d="M149.278389094,40.9040733479L119.001489108,47.563185523"/>
<g transform="translate(134.14 44.23)"><text class="rel pinya_pinya">${_rel32_14}</text></g>
<path class="rel pinya_pinya" pos_list="33_14" d="M133.734617655,75.8903482566L118.17511838,45.919989233"/>
<g transform="translate(125.95 60.91)"><text class="rel pinya_pinya">${_rel33_14}</text></g>
<path class="rel pinya_pinya" pos_list="33_15" d="M134.556505223,78.418102562L95.968205531,80.6892136127"/>
<g transform="translate(115.26 79.55)"><text class="rel pinya_pinya">${_rel33_15}</text></g>
<path class="rel pinya_pinya" pos_list="34_15" d="M110.656816407,109.564131146L98.2427883631,84.0234055736"/>
<g transform="translate(104.45 96.79)"><text class="rel pinya_pinya">${_rel34_15}</text></g>
<path class="rel pinya_pinya" pos_list="17_4" d="M25.8853582385,125.14612252L2.02718727727,101.746947764"/>
<g transform="translate(13.96 113.45)"><text class="rel pinya_pinya">${_rel17_4}</text></g>
<path class="rel pinya_pinya" pos_list="18_4" d="M-18.2559498655,127.814880063L3.52332125374,102.711157411"/>
<g transform="translate(-7.37 115.26)"><text class="rel pinya_pinya">${_rel18_4}</text></g>
<path class="rel pinya_pinya" pos_list="36_17" d="M42.8056399983,147.527581456L26.1883964641,125.453973816"/>
<g transform="translate(34.5 136.49)"><text class="rel pinya_pinya">${_rel36_17}</text></g>
<path class="rel pinya_pinya" pos_list="37_17" d="M2.83239889334,154.132647121L24.0655878018,127.497671125"/>
<g transform="translate(13.45 140.82)"><text class="rel pinya_pinya">${_rel37_17}</text></g>
<path class="rel pinya_pinya" pos_list="37_18" d="M0.594306023076,150.02025563L-17.3936651469,123.618586357"/>
<g transform="translate(-8.4 136.82)"><text class="rel pinya_pinya">${_rel37_18}</text></g>
<path class="rel pinya_pinya" pos_list="38_18" d="M-38.362746681,146.624501871L-17.7261024595,125.033868308"/>
<g transform="translate(-28.04 135.83)"><text class="rel pinya_pinya">${_rel38_18}</text></g>
<path class="rel pinya_pinya" pos_list="20_6" d="M-95.2436851378,81.4382232047L-86.1375891834,51.4080848326"/>
<g transform="translate(-90.69 66.42)"><text class="rel pinya_pinya">${_rel20_6}</text></g>
<path class="rel pinya_pinya" pos_list="21_6" d="M-115.97516166,44.2186905673L-81.8440849654,54.4406302404"/>
<g transform="translate(-98.91 49.33)"><text class="rel pinya_pinya">${_rel21_6}</text></g>
<path class="rel pinya_pinya" pos_list="40_20" d="M-104.876424128,106.406017987L-92.7615786725,81.4875534335"/>
<g transform="translate(-98.82 93.95)"><text class="rel pinya_pinya">${_rel40_20}</text></g>
<path class="rel pinya_pinya" pos_list="41_20" d="M-129.695054454,75.7327993299L-91.4502696372,81.6960627106"/>
<g transform="translate(-110.57 78.71)"><text class="rel pinya_pinya">${_rel41_20}</text></g>
<path class="rel pinya_pinya" pos_list="41_21" d="M-127.478194307,79.7979480822L-114.026173773,47.3721105885"/>
<g transform="translate(-120.75 63.59)"><text class="rel pinya_pinya">${_rel41_21}</text></g>
<path class="rel pinya_pinya" pos_list="42_21" d="M-140.002744862,39.9099471592L-114.286509231,44.9626937749"/>
<g transform="translate(-127.14 42.44)"><text class="rel pinya_pinya">${_rel42_21}</text></g>
<path class="rel pinya_pinya" pos_list="23_8" d="M-117.290088874,-37.9897962286L-85.9868311135,-48.8225773092"/>
<g transform="translate(-101.64 -43.41)"><text class="rel pinya_pinya">${_rel23_8}</text></g>
<path class="rel pinya_pinya" pos_list="24_8" d="M-92.1899011761,-80.0924458114L-86.5619844867,-46.6676424963"/>
<g transform="translate(-89.38 -63.38)"><text class="rel pinya_pinya">${_rel24_8}</text></g>
<path class="rel pinya_pinya" pos_list="44_23" d="M-141.917687869,-33.8262086762L-112.989698917,-40.7539338219"/>
<g transform="translate(-127.45 -37.29)"><text class="rel pinya_pinya">${_rel44_23}</text></g>
<path class="rel pinya_pinya" pos_list="45_23" d="M-127.490933353,-70.1278791915L-115.142002704,-42.2042517369"/>
<g transform="translate(-121.32 -56.17)"><text class="rel pinya_pinya">${_rel45_23}</text></g>
<path class="rel pinya_pinya" pos_list="45_24" d="M-126.030808171,-71.4738660482L-94.6421584719,-77.6860427123"/>
<g transform="translate(-110.34 -74.58)"><text class="rel pinya_pinya">${_rel45_24}</text></g>
<path class="rel pinya_pinya" pos_list="46_24" d="M-105.368617639,-102.37812378L-92.8077343008,-76.0295266742"/>
<g transform="translate(-99.09 -89.2)"><text class="rel pinya_pinya">${_rel46_24}</text></g>
<path class="rel pinya_pinya" pos_list="26_10" d="M-17.5769929989,-119.434200549L2.2628094512,-98.305777304"/>
<g transform="translate(-7.66 -108.87)"><text class="rel pinya_pinya">${_rel26_10}</text></g>
<path class="rel pinya_pinya" pos_list="27_10" d="M26.6050403714,-122.188709593L1.59219581181,-96.0845218449"/>
<g transform="translate(14.1 -109.14)"><text class="rel pinya_pinya">${_rel27_10}</text></g>
<path class="rel pinya_pinya" pos_list="48_26" d="M-34.5097880168,-144.091624046L-18.9656029743,-119.271534932"/>
<g transform="translate(-26.74 -131.68)"><text class="rel pinya_pinya">${_rel48_26}</text></g>
<path class="rel pinya_pinya" pos_list="49_26" d="M2.48141407866,-148.947840542L-19.738472874,-122.142305799"/>
<g transform="translate(-8.63 -135.55)"><text class="rel pinya_pinya">${_rel49_26}</text></g>
<path class="rel pinya_pinya" pos_list="49_27" d="M0.279248358843,-147.778392523L23.2767903745,-118.672903107"/>
<g transform="translate(11.78 -133.23)"><text class="rel pinya_pinya">${_rel49_27}</text></g>
<path class="rel pinya_pinya" pos_list="50_27" d="M42.8954254825,-144.105453662L23.8318906167,-119.448106411"/>
<g transform="translate(33.36 -131.78)"><text class="rel pinya_pinya">${_rel50_27}</text></g>
<path class="rel pinya_pinya" pos_list="29_12" d="M97.9627582289,-79.1150964404L90.9276364595,-45.8959599838"/>
<g transform="translate(94.45 -62.51)"><text class="rel pinya_pinya">${_rel29_12}</text></g>
<path class="rel pinya_pinya" pos_list="30_12" d="M122.378665447,-40.9156830974L87.7079166873,-45.584264982"/>
<g transform="translate(105.04 -43.25)"><text class="rel pinya_pinya">${_rel30_12}</text></g>
<path class="rel pinya_pinya" pos_list="52_29" d="M110.849420691,-105.592972314L96.3803565792,-76.0480048797"/>
<g transform="translate(103.61 -90.82)"><text class="rel pinya_pinya">${_rel52_29}</text></g>
<path class="rel pinya_pinya" pos_list="53_29" d="M134.141109511,-74.4282697887L98.5735594012,-77.5924418698"/>
<g transform="translate(116.36 -76.01)"><text class="rel pinya_pinya">${_rel53_29}</text></g>
<path class="rel pinya_pinya" pos_list="53_30" d="M130.354516716,-71.266574517L117.766297362,-38.4550468902"/>
<g transform="translate(124.06 -54.86)"><text class="rel pinya_pinya">${_rel53_30}</text></g>
<path class="rel pinya_pinya" pos_list="54_30" d="M146.342801853,-34.2541471916L122.378284153,-42.4994306047"/>
<g transform="translate(134.36 -38.38)"><text class="rel pinya_pinya">${_rel54_30}</text></g>
<path class="rel pinya" pos_list="2" d="M90.6288148648,53.3533868092"/>
<g transform="translate(90.63 53.35)"></g>
<path class="rel pinya_pinya" pos_list="14_15" d="M120.209942049,46.0809378792L98.6530584368,83.4510189156"/>
<g transform="translate(109.43 64.77)"><text class="rel pinya_pinya">${_rel14_15}</text></g>
<path class="rel pinya_pinya_pinya" pos_list="32_33_34" d="M146.109610576,43.4378917163L130.022866366,78.4197297855L110.024319982,109.291362822"/>
<g transform="translate(128.72 77.05)"></g>
<path class="rel pinya" pos_list="4" d="M1.23116696997,100.49298909"/>
<g transform="translate(1.23 100.49)"></g>
<path class="rel pinya_pinya" pos_list="17_18" d="M26.3139045257,125.366549437L-18.0482710026,126.70752003"/>
<g transform="translate(4.13 126.04)"><text class="rel pinya_pinya">${_rel17_18}</text></g>
<path class="rel pinya_pinya_pinya" pos_list="36_37_38" d="M41.3932249807,148.944793167L4.35298849587,152.542379754L-36.3018001807,148.870715904"/>
<g transform="translate(3.15 150.12)"></g>
<path class="rel pinya" pos_list="6" d="M-82.9547733534,53.1073741618"/>
<g transform="translate(-82.95 53.11)"></g>
<path class="rel pinya_pinya" pos_list="20_21" d="M-91.4262142724,81.1756004728L-116.006425867,43.6509531975"/>
<g transform="translate(-103.72 62.41)"><text class="rel pinya_pinya">${_rel20_21}</text></g>
<path class="rel pinya_pinya_pinya" pos_list="40_41_42" d="M-104.024815633,106.941786328L-128.137395651,75.9448305726L-142.332473149,41.2134639139"/>
<g transform="translate(-124.83 74.7)"></g>
<path class="rel pinya" pos_list="8" d="M-83.2632704708,-49.6498791455"/>
<g transform="translate(-83.26 -49.65)"></g>
<path class="rel pinya_pinya" pos_list="23_24" d="M-116.158284326,-42.2225032778L-93.4878746073,-78.7968656982"/>
<g transform="translate(-104.82 -60.51)"><text class="rel pinya_pinya">${_rel23_24}</text></g>
<path class="rel pinya_pinya_pinya" pos_list="44_45_46" d="M-140.82223287,-35.9194664994L-127.192484377,-70.5095739094L-101.411906835,-101.394623852"/>
<g transform="translate(-123.14 -69.27)"></g>
<path class="rel pinya" pos_list="10" d="M0.235142835494,-97.7909131417"/>
<g transform="translate(0.24 -97.79)"></g>
<path class="rel pinya_pinya" pos_list="26_27" d="M-19.9063869952,-118.724730119L26.2901686683,-121.669710578"/>
<g transform="translate(3.19 -120.2)"><text class="rel pinya_pinya">${_rel26_27}</text></g>
<path class="rel pinya_pinya_pinya" pos_list="48_49_50" d="M-35.6968857102,-140.633815652L3.95397874421,-149.76818232L40.8802696955,-140.441207339"/>
<g transform="translate(3.05 -143.61)"></g>
<path class="rel pinya" pos_list="12" d="M87.5981665626,-48.1962819943"/>
<g transform="translate(87.6 -48.2)"></g>
<path class="rel pinya_pinya" pos_list="29_30" d="M100.502197495,-78.4414574792L121.795512496,-38.9619667168"/>
<g transform="translate(111.15 -58.7)"><text class="rel pinya_pinya">${_rel29_30}</text></g>
<path class="rel pinya_pinya_pinya" pos_list="52_53_54" d="M107.956949472,-103.525198389L133.351899345,-72.1213762014L145.501583773,-34.8462370007"/>
<g transform="translate(128.94 -70.16)"></g>
<path class="rel baix_crossa" pos_list="55_56" d="M41.6002405214,2.64523020219L40.4805334422,30.1338155266"/>
<g transform="translate(41.04 16.39)"><text class="rel baix_crossa">${_rel55_56}</text></g>
<path class="rel baix_crossa" pos_list="55_57" d="M41.5998726399,3.30893855502L43.8159152088,-27.9173522918"/>
<g transform="translate(42.71 -12.3)"><text class="rel baix_crossa">${_rel55_57}</text></g>
<path class="rel baix_crossa" pos_list="62_63" d="M-17.3303899443,37.6755195548L-42.0598228901,20.4187540791"/>
<g transform="translate(-29.7 29.05)"><text class="rel baix_crossa">${_rel62_63}</text></g>
<path class="rel baix_crossa" pos_list="62_64" d="M-17.2049952418,37.1012166661L7.38391017941,51.8566869999"/>
<g transform="translate(-4.91 44.48)"><text class="rel baix_crossa">${_rel62_64}</text></g>
<path class="rel baix_crossa" pos_list="69_70" d="M-19.3691340203,-33.1848250446L6.47469072873,-49.0413946932"/>
<g transform="translate(-6.45 -41.11)"><text class="rel baix_crossa">${_rel69_70}</text></g>
<path class="rel baix_crossa" pos_list="69_71" d="M-18.7215251681,-33.6320498446L-43.283846459,-15.1833933638"/>
<g transform="translate(-31.0 -24.41)"><text class="rel baix_crossa">${_rel69_71}</text></g>
<path class="rel baix_agulla" pos_list="55_59" d="M44.705751375,4.14022768498L22.9786214481,1.2442856941"/>
<g transform="translate(33.84 2.69)"><text class="rel baix_agulla">${_rel55_59}</text></g>
<path class="rel baix_agulla" pos_list="62_66" d="M-17.3461114419,38.7445687276L-5.92740627693,17.7720127367"/>
<g transform="translate(-11.64 28.26)"><text class="rel baix_agulla">${_rel62_66}</text></g>
<path class="rel baix_agulla" pos_list="69_73" d="M-19.8107970735,-34.1928483347L-7.02116943495,-13.9711407626"/>
<g transform="translate(-13.42 -24.08)"><text class="rel baix_agulla">${_rel69_73}</text></g>
<path class="rel baix_contrafort" pos_list="55_58" d="M42.2784572852,0.484150622025L64.9734290194,2.2612034828"/>
<g transform="translate(53.63 1.37)"><text class="rel baix_contrafort">${_rel55_58}</text></g>
<path class="rel baix_contrafort" pos_list="62_65" d="M-16.6816947993,39.3228292999L-26.8914310186,56.7717102193"/>
<g transform="translate(-21.79 48.05)"><text class="rel baix_contrafort">${_rel62_65}</text></g>
<path class="rel baix_contrafort" pos_list="69_72" d="M-16.2109939725,-32.5883570701L-25.2860757333,-48.5880236437"/>
<g transform="translate(-20.75 -40.59)"><text class="rel baix_contrafort">${_rel69_72}</text></g>
<path class="rel ma_baix_segon" pos_list="1_55_79" d="M100.416822965,0.207872944979L43.0278182947,2.09871981239L187.574852026,3.37347390233"/>
<g transform="translate(110.34 1.89)"></g>
<path class="rel ma_baix_segon" pos_list="5_62_80" d="M-45.7057404847,87.3493683779L-17.8691758754,37.2685280757L-92.2593217422,162.588248322"/>
<g transform="translate(-51.94 95.74)"></g>
<path class="rel ma_baix_segon" pos_list="9_69_81" d="M-45.8228737784,-83.988094907L-18.5891863329,-31.8356271865L-92.7018934043,-159.450770039"/>
<g transform="translate(-52.37 -91.76)"></g>
<path class="rel vent_baix_segon" pos_list="3_55_79" d="M51.9109742209,88.5391368148L42.4024330976,3.69828665045L191.824965575,4.05595515393"/>
<g transform="translate(95.38 32.1)"></g>
<path class="rel vent_baix_segon" pos_list="11_55_79" d="M53.8690571679,-86.264226993L41.9407264727,3.73912163232L188.216784031,2.73160999843"/>
<g transform="translate(94.68 -26.6)"></g>
<path class="rel vent_baix_segon" pos_list="7_62_80" d="M-97.5549688456,3.96038908703L-19.3991797836,35.4531893824L-90.3171112569,166.04596861"/>
<g transform="translate(-69.09 68.49)"></g>
<path class="rel vent_baix_segon" pos_list="3_62_80" d="M52.3512925565,86.9415598032L-17.2307573674,38.4573754273L-89.347194937,164.134234093"/>
<g transform="translate(-18.08 96.51)"></g>
<path class="rel vent_baix_segon" pos_list="11_69_81" d="M54.5477897094,-83.1230865027L-19.0151370665,-33.5222696928L-88.7534595212,-157.472771023"/>
<g transform="translate(-17.74 -91.37)"></g>
<path class="rel vent_baix_segon" pos_list="7_69_81" d="M-99.4391862019,1.58583469785L-18.1279480838,-34.2716422101L-92.0174121306,-160.660808165"/>
<g transform="translate(-69.86 -64.45)"></g>
<path class="rel agulla_baix_segon" pos_list="59_55_79" d="M22.5889920334,2.68773013246L41.3078572267,2.31978463875L190.647259144,4.88028773897"/>
<g transform="translate(84.85 3.3)"></g>
<path class="rel agulla_baix_segon" pos_list="66_62_80" d="M-8.7955983173,19.4438090867L-18.3698814491,37.5751856811L-93.104292624,164.989823379"/>
<g transform="translate(-40.09 74.0)"></g>
<path class="rel agulla_baix_segon" pos_list="73_69_81" d="M-7.44171226782,-12.4857710763L-18.7987274092,-33.6916118948L-90.5669015607,-161.296937556"/>
<g transform="translate(-38.94 -69.16)"></g>
<path class="rel baix_segon_baix_segon" pos_list="55_79_62_80" d="M44.8937413122,4.83933970856L189.99679792,1.86389225727L-18.6660450908,34.9290108516L-92.8695145282,167.144320333"/>
<g transform="translate(30.84 52.19)"></g>
<path class="rel baix_segon_baix_segon" pos_list="62_80_69_81" d="M-18.7219125666,37.3175057964L-91.3563435757,163.879577036L-19.7442369563,-32.6111462397L-90.1077160434,-158.117187962"/>
<g transform="translate(-54.98 2.62)"></g>
<path class="rel baix_segon_baix_segon" pos_list="69_81_55_79" d="M-16.7253566776,-34.2233832708L-89.1802995224,-162.047666578L42.5993324425,0.635619113594L191.979797793,2.25029963426"/>
<g transform="translate(32.17 -48.35)"></g>
<path class="rel lateral_baix_segon" pos_list="60_55_79" d="M74.9558683265,27.8164335721L41.4098448068,4.69578424631L190.692800207,3.8343777799"/>
<g transform="translate(102.35 12.12)"></g>
<path class="rel lateral_baix_segon" pos_list="61_55_79" d="M73.9628894456,-20.2128750117L40.0453586522,4.49455238145L191.606637916,3.44469360312"/>
<g transform="translate(101.87 -4.09)"></g>
<path class="rel lateral_baix_segon" pos_list="67_62_80" d="M-52.5307027342,50.2412295833L-18.7838609562,37.1845507908L-89.2350230478,164.079892583"/>
<g transform="translate(-53.52 83.84)"></g>
<path class="rel lateral_baix_segon" pos_list="68_62_80" d="M-10.962278973,74.0917014962L-18.3889347812,38.1397174383L-92.6987693165,165.990058176"/>
<g transform="translate(-40.68 92.74)"></g>
<path class="rel lateral_baix_segon" pos_list="74_69_81" d="M-12.1239018917,-68.1708619462L-16.2258189642,-32.4480035236L-91.1288156647,-160.987141097"/>
<g transform="translate(-39.83 -87.2)"></g>
<path class="rel lateral_baix_segon" pos_list="75_69_81" d="M-54.5874060449,-46.0670775707L-18.5567958974,-32.4135268283L-91.8700578654,-159.240424574"/>
<g transform="translate(-55.0 -79.24)"></g>
</g>
</svg>