<svg xmlns="http://www.w3.org/2000/xml" xmlns:xlink="http://www.w3.org/1999/xlink" viewBox="-230.0,-175.32,497.5,350.64">
<g id="positions">
<g id="1" transform="translate(100.0,0.0) rotate(0.0)">
<g id="1_casteller" class="ma" transform="scale(.2 .2) rotate(-90)">
${_rep1}
</g>
<g transform="rotate(90) translate(0 6)">
<text id="1_text" class="ma vtext" text-anchor="middle">
1 ${_1} ${_c1}
</text>
</g>
</g>
<g id="2" transform="translate(86.6,41.6666666667) rotate(30.0)">
<g id="2_casteller" class="pinya" transform="scale(.2 .2) rotate(-90)">
${_rep2}
</g>
<g transform="rotate(90) translate(0 6)">
<text id="2_text" class="pinya vtext" text-anchor="middle">
2 ${_2} ${_c2}
</text>
</g>
</g>
<g id="3" transform="translate(50.0,72.1666666667) rotate(60.0)">
<g id="3_casteller" class="vent" transform="scale(.2 .2) rotate(-90)">
${_rep3}
</g>
<g transform="rotate(90) translate(0 6)">
<text id="3_text" class="vent vtext" text-anchor="middle">
3 ${_3} ${_c3}
</text>
</g>
</g>
<g id="4" transform="translate(0.0,83.3333333333) rotate(90.0)">
<g id="4_casteller" class="pinya" transform="scale(.2 .2) rotate(-90)">
${_rep4}
</g>
<g transform="rotate(90) translate(0 6)">
<text id="4_text" class="pinya vtext" text-anchor="middle">
4 ${_4} ${_c4}
</text>
</g>
</g>
<g id="5" transform="translate(-50.0,72.1666666667) rotate(120.0)">
<g id="5_casteller" class="ma" transform="scale(.2 .2) rotate(-90)">
${_rep5}
</g>
<g transform="rotate(90) translate(0 6)">
<text id="5_text" class="ma vtext" text-anchor="middle">
5 ${_5} ${_c5}
</text>
</g>
</g>
<g id="6" transform="translate(-86.6,41.6666666667) rotate(150.0)">
<g id="6_casteller" class="pinya" transform="scale(.2 .2) rotate(-90)">
${_rep6}
</g>
<g transform="rotate(90) translate(0 6)">
<text id="6_text" class="pinya vtext" text-anchor="middle">
6 ${_6} ${_c6}
</text>
</g>
</g>
<g id="7" transform="translate(-100.0,0.0) rotate(180.0)">
<g id="7_casteller" class="vent" transform="scale(.2 .2) rotate(-90)">
${_rep7}
</g>
<g transform="rotate(90) translate(0 6)">
<text id="7_text" class="vent vtext" text-anchor="middle">
7 ${_7} ${_c7}
</text>
</g>
</g>
<g id="8" transform="translate(-86.6,-41.6666666667) rotate(210.0)">
<g id="8_casteller" class="pinya" transform="scale(.2 .2) rotate(-90)">
${_rep8}
</g>
<g transform="rotate(90) translate(0 6)">
<text id="8_text" class="pinya vtext" text-anchor="middle">
8 ${_8} ${_c8}
</text>
</g>
</g>
<g id="9" transform="translate(-50.0,-72.1666666667) rotate(240.0)">
<g id="9_casteller" class="ma" transform="scale(.2 .2) rotate(-90)">
${_rep9}
</g>
<g transform="rotate(90) translate(0 6)">
<text id="9_text" class="ma vtext" text-anchor="middle">
9 ${_9} ${_c9}
</text>
</g>
</g>
<g id="10" transform="translate(-0.0,-83.3333333333) rotate(270.0)">
<g id="10_casteller" class="pinya" transform="scale(.2 .2) rotate(-90)">
${_rep10}
</g>
<g transform="rotate(90) translate(0 6)">
<text id="10_text" class="pinya vtext" text-anchor="middle">
10 ${_10} ${_c10}
</text>
</g>
</g>
<g id="11" transform="translate(50.0,-72.1666666667) rotate(300.0)">
<g id="11_casteller" class="vent" transform="scale(.2 .2) rotate(-90)">
${_rep11}
</g>
<g transform="rotate(90) translate(0 6)">
<text id="11_text" class="vent vtext" text-anchor="middle">
11 ${_11} ${_c11}
</text>
</g>
</g>
<g id="12" transform="translate(86.6,-41.6666666667) rotate(330.0)">
<g id="12_casteller" class="pinya" transform="scale(.2 .2) rotate(-90)">
${_rep12}
</g>
<g transform="rotate(90) translate(0 6)">
<text id="12_text" class="pinya vtext" text-anchor="middle">
12 ${_12} ${_c12}
</text>
</g>
</g>
<g id="13" transform="translate(125.0,0.0) rotate(0.0)">
<g id="13_casteller" class="ma" transform="scale(.2 .2) rotate(-90)">
${_rep13}
</g>
<g transform="rotate(90) translate(0 6)">
<text id="13_text" class="ma vtext" text-anchor="middle">
13 ${_13} ${_c13}
</text>
</g>
</g>
<g id="14" transform="translate(117.46,35.625) rotate(20.0)">
<g id="14_casteller" class="pinya" transform="scale(.2 .2) rotate(-90)">
${_rep14}
</g>
<g transform="rotate(90) translate(0 6)">
<text id="14_text" class="pinya vtext" text-anchor="middle">
14 ${_14} ${_c14}
</text>
</g>
</g>
<g id="15" transform="translate(95.76,66.9583333333) rotate(40.0)">
<g id="15_casteller" class="pinya" transform="scale(.2 .2) rotate(-90)">
${_rep15}
</g>
<g transform="rotate(90) translate(0 6)">
<text id="15_text" class="pinya vtext" text-anchor="middle">
15 ${_15} ${_c15}
</text>
</g>
</g>
<g id="16" transform="translate(62.5,90.2083333333) rotate(60.0)">
<g id="16_casteller" class="vent" transform="scale(.2 .2) rotate(-90)">
${_rep16}
</g>
<g transform="rotate(90) translate(0 6)">
<text id="16_text" class="vent vtext" text-anchor="middle">
16 ${_16} ${_c16}
</text>
</g>
</g>
<g id="17" transform="translate(21.71,102.583333333) rotate(80.0)">
<g id="17_casteller" class="pinya" transform="scale(.2 .2) rotate(-90)">
${_rep17}
</g>
<g transform="rotate(90) translate(0 6)">
<text id="17_text" class="pinya vtext" text-anchor="middle">
17 ${_17} ${_c17}
</text>
</g>
</g>
<g id="18" transform="translate(-21.71,102.583333333) rotate(100.0)">
<g id="18_casteller" class="pinya" transform="scale(.2 .2) rotate(-90)">
${_rep18}
</g>
<g transform="rotate(90) translate(0 6)">
<text id="18_text" class="pinya vtext" text-anchor="middle">
18 ${_18} ${_c18}
</text>
</g>
</g>
<g id="19" transform="translate(-62.5,90.2083333333) rotate(120.0)">
<g id="19_casteller" class="ma" transform="scale(.2 .2) rotate(-90)">
${_rep19}
</g>
<g transform="rotate(90) translate(0 6)">
<text id="19_text" class="ma vtext" text-anchor="middle">
19 ${_19} ${_c19}
</text>
</g>
</g>
<g id="20" transform="translate(-95.76,66.9583333333) rotate(140.0)">
<g id="20_casteller" class="pinya" transform="scale(.2 .2) rotate(-90)">
${_rep20}
</g>
<g transform="rotate(90) translate(0 6)">
<text id="20_text" class="pinya vtext" text-anchor="middle">
20 ${_20} ${_c20}
</text>
</g>
</g>
<g id="21" transform="translate(-117.46,35.625) rotate(160.0)">
<g id="21_casteller" class="pinya" transform="scale(.2 .2) rotate(-90)">
${_rep21}
</g>
<g transform="rotate(90) translate(0 6)">
<text id="21_text" class="pinya vtext" text-anchor="middle">
21 ${_21} ${_c21}
</text>
</g>
</g>
<g id="22" transform="translate(-125.0,0.0) rotate(180.0)">
<g id="22_casteller" class="vent" transform="scale(.2 .2) rotate(-90)">
${_rep22}
</g>
<g transform="rotate(90) translate(0 6)">
<text id="22_text" class="vent vtext" text-anchor="middle">
22 ${_22} ${_c22}
</text>
</g>
</g>
<g id="23" transform="translate(-117.46,-35.625) rotate(200.0)">
<g id="23_casteller" class="pinya" transform="scale(.2 .2) rotate(-90)">
${_rep23}
</g>
<g transform="rotate(90) translate(0 6)">
<text id="23_text" class="pinya vtext" text-anchor="middle">
23 ${_23} ${_c23}
</text>
</g>
</g>
<g id="24" transform="translate(-95.76,-66.9583333333) rotate(220.0)">
<g id="24_casteller" class="pinya" transform="scale(.2 .2) rotate(-90)">
${_rep24}
</g>
<g transform="rotate(90) translate(0 6)">
<text id="24_text" class="pinya vtext" text-anchor="middle">
24 ${_24} ${_c24}
</text>
</g>
</g>
<g id="25" transform="translate(-62.5,-90.2083333333) rotate(240.0)">
<g id="25_casteller" class="ma" transform="scale(.2 .2) rotate(-90)">
${_rep25}
</g>
<g transform="rotate(90) translate(0 6)">
<text id="25_text" class="ma vtext" text-anchor="middle">
25 ${_25} ${_c25}
</text>
</g>
</g>
<g id="26" transform="translate(-21.71,-102.583333333) rotate(260.0)">
<g id="26_casteller" class="pinya" transform="scale(.2 .2) rotate(-90)">
${_rep26}
</g>
<g transform="rotate(90) translate(0 6)">
<text id="26_text" class="pinya vtext" text-anchor="middle">
26 ${_26} ${_c26}
</text>
</g>
</g>
<g id="27" transform="translate(21.71,-102.583333333) rotate(280.0)">
<g id="27_casteller" class="pinya" transform="scale(.2 .2) rotate(-90)">
${_rep27}
</g>
<g transform="rotate(90) translate(0 6)">
<text id="27_text" class="pinya vtext" text-anchor="middle">
27 ${_27} ${_c27}
</text>
</g>
</g>
<g id="28" transform="translate(62.5,-90.2083333333) rotate(300.0)">
<g id="28_casteller" class="vent" transform="scale(.2 .2) rotate(-90)">
${_rep28}
</g>
<g transform="rotate(90) translate(0 6)">
<text id="28_text" class="vent vtext" text-anchor="middle">
28 ${_28} ${_c28}
</text>
</g>
</g>
<g id="29" transform="translate(95.76,-66.9583333333) rotate(320.0)">
<g id="29_casteller" class="pinya" transform="scale(.2 .2) rotate(-90)">
${_rep29}
</g>
<g transform="rotate(90) translate(0 6)">
<text id="29_text" class="pinya vtext" text-anchor="middle">
29 ${_29} ${_c29}
</text>
</g>
</g>
<g id="30" transform="translate(117.46,-35.625) rotate(340.0)">
<g id="30_casteller" class="pinya" transform="scale(.2 .2) rotate(-90)">
${_rep30}
</g>
<g transform="rotate(90) translate(0 6)">
<text id="30_text" class="pinya vtext" text-anchor="middle">
30 ${_30} ${_c30}
</text>
</g>
</g>
<g id="31" transform="translate(150.0,0.0) rotate(0.0)">
<g id="31_casteller" class="ma" transform="scale(.2 .2) rotate(-90)">
${_rep31}
</g>
<g transform="rotate(90) translate(0 6)">
<text id="31_text" class="ma vtext" text-anchor="middle">
31 ${_31} ${_c31}
</text>
</g>
</g>
<g id="32" transform="translate(144.89,32.35) rotate(15.0)">
<g id="32_casteller" class="pinya" transform="scale(.2 .2) rotate(-90)">
${_rep32}
</g>
<g transform="rotate(90) translate(0 6)">
<text id="32_text" class="pinya vtext" text-anchor="middle">
32 ${_32} ${_c32}
</text>
</g>
</g>
<g id="33" transform="translate(129.9,62.5) rotate(30.0)">
<g id="33_casteller" class="pinya" transform="scale(.2 .2) rotate(-90)">
${_rep33}
</g>
<g transform="rotate(90) translate(0 6)">
<text id="33_text" class="pinya vtext" text-anchor="middle">
33 ${_33} ${_c33}
</text>
</g>
</g>
<g id="34" transform="translate(106.07,88.3916666667) rotate(45.0)">
<g id="34_casteller" class="pinya" transform="scale(.2 .2) rotate(-90)">
${_rep34}
</g>
<g transform="rotate(90) translate(0 6)">
<text id="34_text" class="pinya vtext" text-anchor="middle">
34 ${_34} ${_c34}
</text>
</g>
</g>
<g id="35" transform="translate(75.0,108.25) rotate(60.0)">
<g id="35_casteller" class="vent" transform="scale(.2 .2) rotate(-90)">
${_rep35}
</g>
<g transform="rotate(90) translate(0 6)">
<text id="35_text" class="vent vtext" text-anchor="middle">
35 ${_35} ${_c35}
</text>
</g>
</g>
<g id="36" transform="translate(38.82,120.741666667) rotate(75.0)">
<g id="36_casteller" class="pinya" transform="scale(.2 .2) rotate(-90)">
${_rep36}
</g>
<g transform="rotate(90) translate(0 6)">
<text id="36_text" class="pinya vtext" text-anchor="middle">
36 ${_36} ${_c36}
</text>
</g>
</g>
<g id="37" transform="translate(0.0,125.0) rotate(90.0)">
<g id="37_casteller" class="pinya" transform="scale(.2 .2) rotate(-90)">
${_rep37}
</g>
<g transform="rotate(90) translate(0 6)">
<text id="37_text" class="pinya vtext" text-anchor="middle">
37 ${_37} ${_c37}
</text>
</g>
</g>
<g id="38" transform="translate(-38.82,120.741666667) rotate(105.0)">
<g id="38_casteller" class="pinya" transform="scale(.2 .2) rotate(-90)">
${_rep38}
</g>
<g transform="rotate(90) translate(0 6)">
<text id="38_text" class="pinya vtext" text-anchor="middle">
38 ${_38} ${_c38}
</text>
</g>
</g>
<g id="39" transform="translate(-75.0,108.25) rotate(120.0)">
<g id="39_casteller" class="ma" transform="scale(.2 .2) rotate(-90)">
${_rep39}
</g>
<g transform="rotate(90) translate(0 6)">
<text id="39_text" class="ma vtext" text-anchor="middle">
39 ${_39} ${_c39}
</text>
</g>
</g>
<g id="40" transform="translate(-106.07,88.3916666667) rotate(135.0)">
<g id="40_casteller" class="pinya" transform="scale(.2 .2) rotate(-90)">
${_rep40}
</g>
<g transform="rotate(90) translate(0 6)">
<text id="40_text" class="pinya vtext" text-anchor="middle">
40 ${_40} ${_c40}
</text>
</g>
</g>
<g id="41" transform="translate(-129.9,62.5) rotate(150.0)">
<g id="41_casteller" class="pinya" transform="scale(.2 .2) rotate(-90)">
${_rep41}
</g>
<g transform="rotate(90) translate(0 6)">
<text id="41_text" class="pinya vtext" text-anchor="middle">
41 ${_41} ${_c41}
</text>
</g>
</g>
<g id="42" transform="translate(-144.89,32.35) rotate(165.0)">
<g id="42_casteller" class="pinya" transform="scale(.2 .2) rotate(-90)">
${_rep42}
</g>
<g transform="rotate(90) translate(0 6)">
<text id="42_text" class="pinya vtext" text-anchor="middle">
42 ${_42} ${_c42}
</text>
</g>
</g>
<g id="43" transform="translate(-150.0,0.0) rotate(180.0)">
<g id="43_casteller" class="vent" transform="scale(.2 .2) rotate(-90)">
${_rep43}
</g>
<g transform="rotate(90) translate(0 6)">
<text id="43_text" class="vent vtext" text-anchor="middle">
43 ${_43} ${_c43}
</text>
</g>
</g>
<g id="44" transform="translate(-144.89,-32.35) rotate(195.0)">
<g id="44_casteller" class="pinya" transform="scale(.2 .2) rotate(-90)">
${_rep44}
</g>
<g transform="rotate(90) translate(0 6)">
<text id="44_text" class="pinya vtext" text-anchor="middle">
44 ${_44} ${_c44}
</text>
</g>
</g>
<g id="45" transform="translate(-129.9,-62.5) rotate(210.0)">
<g id="45_casteller" class="pinya" transform="scale(.2 .2) rotate(-90)">
${_rep45}
</g>
<g transform="rotate(90) translate(0 6)">
<text id="45_text" class="pinya vtext" text-anchor="middle">
45 ${_45} ${_c45}
</text>
</g>
</g>
<g id="46" transform="translate(-106.07,-88.3916666667) rotate(225.0)">
<g id="46_casteller" class="pinya" transform="scale(.2 .2) rotate(-90)">
${_rep46}
</g>
<g transform="rotate(90) translate(0 6)">
<text id="46_text" class="pinya vtext" text-anchor="middle">
46 ${_46} ${_c46}
</text>
</g>
</g>
<g id="47" transform="translate(-75.0,-108.25) rotate(240.0)">
<g id="47_casteller" class="ma" transform="scale(.2 .2) rotate(-90)">
${_rep47}
</g>
<g transform="rotate(90) translate(0 6)">
<text id="47_text" class="ma vtext" text-anchor="middle">
47 ${_47} ${_c47}
</text>
</g>
</g>
<g id="48" transform="translate(-38.82,-120.741666667) rotate(255.0)">
<g id="48_casteller" class="pinya" transform="scale(.2 .2) rotate(-90)">
${_rep48}
</g>
<g transform="rotate(90) translate(0 6)">
<text id="48_text" class="pinya vtext" text-anchor="middle">
48 ${_48} ${_c48}
</text>
</g>
</g>
<g id="49" transform="translate(-0.0,-125.0) rotate(270.0)">
<g id="49_casteller" class="pinya" transform="scale(.2 .2) rotate(-90)">
${_rep49}
</g>
<g transform="rotate(90) translate(0 6)">
<text id="49_text" class="pinya vtext" text-anchor="middle">
49 ${_49} ${_c49}
</text>
</g>
</g>
<g id="50" transform="translate(38.82,-120.741666667) rotate(285.0)">
<g id="50_casteller" class="pinya" transform="scale(.2 .2) rotate(-90)">
${_rep50}
</g>
<g transform="rotate(90) translate(0 6)">
<text id="50_text" class="pinya vtext" text-anchor="middle">
50 ${_50} ${_c50}
</text>
</g>
</g>
<g id="51" transform="translate(75.0,-108.25) rotate(300.0)">
<g id="51_casteller" class="vent" transform="scale(.2 .2) rotate(-90)">
${_rep51}
</g>
<g transform="rotate(90) translate(0 6)">
<text id="51_text" class="vent vtext" text-anchor="middle">
51 ${_51} ${_c51}
</text>
</g>
</g>
<g id="52" transform="translate(106.07,-88.3916666667) rotate(315.0)">
<g id="52_casteller" class="pinya" transform="scale(.2 .2) rotate(-90)">
${_rep52}
</g>
<g transform="rotate(90) translate(0 6)">
<text id="52_text" class="pinya vtext" text-anchor="middle">
52 ${_52} ${_c52}
</text>
</g>
</g>
<g id="53" transform="translate(129.9,-62.5) rotate(330.0)">
<g id="53_casteller" class="pinya" transform="scale(.2 .2) rotate(-90)">
${_rep53}
</g>
<g transform="rotate(90) translate(0 6)">
<text id="53_text" class="pinya vtext" text-anchor="middle">
53 ${_53} ${_c53}
</text>
</g>
</g>
<g id="54" transform="translate(144.89,-32.35) rotate(345.0)">
<g id="54_casteller" class="pinya" transform="scale(.2 .2) rotate(-90)">
${_rep54}
</g>
<g transform="rotate(90) translate(0 6)">
<text id="54_text" class="pinya vtext" text-anchor="middle">
54 ${_54} ${_c54}
</text>
</g>
</g>
<g id="baixos_gp_0" transform="translate(40.0 0.0) rotate(0.0)">
<g id="55" transform="translate(0.0,0.0) rotate(0.0)">
<g id="55_casteller" class="baix" transform="scale(.2 .2) rotate(-90)">
${_rep55}
</g>
<g transform="rotate(90) translate(0 6)">
<text id="55_text" class="baix vtext" text-anchor="middle">
55 ${_55} ${_c55}
</text>
</g>
</g>
<g id="56" transform="translate(0.0,25.0) rotate(90.0)">
<g id="56_casteller" class="crossa" transform="scale(.2 .2) rotate(-90)">
${_rep56}
</g>
<g transform="rotate(90) translate(0 6)">
<text id="56_text" class="crossa vtext" text-anchor="middle">
56 ${_56} ${_c56}
</text>
</g>
</g>
<g id="57" transform="translate(0.0,-25.0) rotate(-90.0)">
<g id="57_casteller" class="crossa" transform="scale(.2 .2) rotate(-90)">
${_rep57}
</g>
<g transform="rotate(90) translate(0 6)">
<text id="57_text" class="crossa vtext" text-anchor="middle">
57 ${_57} ${_c57}
</text>
</g>
</g>
<g id="58" transform="translate(20.0,0.0) rotate(0.0)">
<g id="58_casteller" class="contrafort" transform="scale(.2 .2) rotate(-90)">
${_rep58}
</g>
<g transform="rotate(90) translate(0 6)">
<text id="58_text" class="contrafort vtext" text-anchor="middle">
58 ${_58} ${_c58}
</text>
</g>
</g>
<g id="59" transform="translate(-20.0,0.0) rotate(0.0)">
<g id="59_casteller" class="agulla" transform="scale(.2 .2) rotate(-90)">
${_rep59}
</g>
<g transform="rotate(90) translate(0 6)">
<text id="59_text" class="agulla vtext" text-anchor="middle">
59 ${_59} ${_c59}
</text>
</g>
</g>
<g id="60" transform="translate(30.0,20.8333333333) rotate(30.0)">
<g id="60_casteller" class="lateral" transform="scale(.2 .2) rotate(-90)">
${_rep60}
</g>
<g transform="rotate(90) translate(0 6)">
<text id="60_text" class="lateral vtext" text-anchor="middle">
60 ${_60} ${_c60}
</text>
</g>
</g>
<g id="61" transform="translate(30.0,-20.8333333333) rotate(-30.0)">
<g id="61_casteller" class="lateral" transform="scale(.2 .2) rotate(-90)">
${_rep61}
</g>
<g transform="rotate(90) translate(0 6)">
<text id="61_text" class="lateral vtext" text-anchor="middle">
61 ${_61} ${_c61}
</text>
</g>
</g>
</g>
<g id="baixos_gp_1" transform="translate(-20.0 34.64) rotate(120.0)">
<g id="62" transform="translate(0.0,0.0) rotate(0.0)">
<g id="62_casteller" class="baix" transform="scale(.2 .2) rotate(-90)">
${_rep62}
</g>
<g transform="rotate(90) translate(0 6)">
<text id="62_text" class="baix vtext" text-anchor="middle">
62 ${_62} ${_c62}
</text>
</g>
</g>
<g id="63" transform="translate(0.0,25.0) rotate(90.0)">
<g id="63_casteller" class="crossa" transform="scale(.2 .2) rotate(-90)">
${_rep63}
</g>
<g transform="rotate(90) translate(0 6)">
<text id="63_text" class="crossa vtext" text-anchor="middle">
63 ${_63} ${_c63}
</text>
</g>
</g>
<g id="64" transform="translate(0.0,-25.0) rotate(-90.0)">
<g id="64_casteller" class="crossa" transform="scale(.2 .2) rotate(-90)">
${_rep64}
</g>
<g transform="rotate(90) translate(0 6)">
<text id="64_text" class="crossa vtext" text-anchor="middle">
64 ${_64} ${_c64}
</text>
</g>
</g>
<g id="65" transform="translate(20.0,0.0) rotate(0.0)">
<g id="65_casteller" class="contrafort" transform="scale(.2 .2) rotate(-90)">
${_rep65}
</g>
<g transform="rotate(90) translate(0 6)">
<text id="65_text" class="contrafort vtext" text-anchor="middle">
65 ${_65} ${_c65}
</text>
</g>
</g>
<g id="66" transform="translate(-20.0,0.0) rotate(0.0)">
<g id="66_casteller" class="agulla" transform="scale(.2 .2) rotate(-90)">
${_rep66}
</g>
<g transform="rotate(90) translate(0 6)">
<text id="66_text" class="agulla vtext" text-anchor="middle">
66 ${_66} ${_c66}
</text>
</g>
</g>
<g id="67" transform="translate(30.0,20.8333333333) rotate(30.0)">
<g id="67_casteller" class="lateral" transform="scale(.2 .2) rotate(-90)">
${_rep67}
</g>
<g transform="rotate(90) translate(0 6)">
<text id="67_text" class="lateral vtext" text-anchor="middle">
67 ${_67} ${_c67}
</text>
</g>
</g>
<g id="68" transform="translate(30.0,-20.8333333333) rotate(-30.0)">
<g id="68_casteller" class="lateral" transform="scale(.2 .2) rotate(-90)">
${_rep68}
</g>
<g transform="rotate(90) translate(0 6)">
<text id="68_text" class="lateral vtext" text-anchor="middle">
68 ${_68} ${_c68}
</text>
</g>
</g>
</g>
<g id="baixos_gp_2" transform="translate(-20.0 -34.64) rotate(240.0)">
<g id="69" transform="translate(0.0,0.0) rotate(0.0)">
<g id="69_casteller" class="baix" transform="scale(.2 .2) rotate(-90)">
${_rep69}
</g>
<g transform="rotate(90) translate(0 6)">
<text id="69_text" class="baix vtext" text-anchor="middle">
69 ${_69} ${_c69}
</text>
</g>
</g>
<g id="70" transform="translate(0.0,25.0) rotate(90.0)">
<g id="70_casteller" class="crossa" transform="scale(.2 .2) rotate(-90)">
${_rep70}
</g>
<g transform="rotate(90) translate(0 6)">
<text id="70_text" class="crossa vtext" text-anchor="middle">
70 ${_70} ${_c70}
</text>
</g>
</g>
<g id="71" transform="translate(0.0,-25.0) rotate(-90.0)">
<g id="71_casteller" class="crossa" transform="scale(.2 .2) rotate(-90)">
${_rep71}
</g>
<g transform="rotate(90) translate(0 6)">
<text id="71_text" class="crossa vtext" text-anchor="middle">
71 ${_71} ${_c71}
</text>
</g>
</g>
<g id="72" transform="translate(20.0,0.0) rotate(0.0)">
<g id="72_casteller" class="contrafort" transform="scale(.2 .2) rotate(-90)">
${_rep72}
</g>
<g transform="rotate(90) translate(0 6)">
<text id="72_text" class="contrafort vtext" text-anchor="middle">
72 ${_72} ${_c72}
</text>
</g>
</g>
<g id="73" transform="translate(-20.0,0.0) rotate(0.0)">
<g id="73_casteller" class="agulla" transform="scale(.2 .2) rotate(-90)">
${_rep73}
</g>
<g transform="rotate(90) translate(0 6)">
<text id="73_text" class="agulla vtext" text-anchor="middle">
73 ${_73} ${_c73}
</text>
</g>
</g>
<g id="74" transform="translate(30.0,20.8333333333) rotate(30.0)">
<g id="74_casteller" class="lateral" transform="scale(.2 .2) rotate(-90)">
${_rep74}
</g>
<g transform="rotate(90) translate(0 6)">
<text id="74_text" class="lateral vtext" text-anchor="middle">
74 ${_74} ${_c74}
</text>
</g>
</g>
<g id="75" transform="translate(30.0,-20.8333333333) rotate(-30.0)">
<g id="75_casteller" class="lateral" transform="scale(.2 .2) rotate(-90)">
${_rep75}
</g>
<g transform="rotate(90) translate(0 6)">
<text id="75_text" class="lateral vtext" text-anchor="middle">
75 ${_75} ${_c75}
</text>
</g>
</g>
</g>
<g id="portacrossa_gp_0" transform="translate(35.0 60.62) rotate(60.0)">
<g id="76" transform="translate(0.0,0.0) rotate(0.0)">
<g id="76_casteller" class="portacrossa" transform="scale(.2 .2) rotate(-90)">
${_rep76}
</g>
<g transform="rotate(90) translate(0 6)">
<text id="76_text" class="portacrossa vtext" text-anchor="middle">
76 ${_76} ${_c76}
</text>
</g>
</g>
</g>
<g id="portacrossa_gp_1" transform="translate(-70.0 0.0) rotate(180.0)">
<g id="77" transform="translate(0.0,0.0) rotate(0.0)">
<g id="77_casteller" class="portacrossa" transform="scale(.2 .2) rotate(-90)">
${_rep77}
</g>
<g transform="rotate(90) translate(0 6)">
<text id="77_text" class="portacrossa vtext" text-anchor="middle">
77 ${_77} ${_c77}
</text>
</g>
</g>
</g>
<g id="portacrossa_gp_2" transform="translate(35.0 -60.62) rotate(300.0)">
<g id="78" transform="translate(0.0,0.0) rotate(0.0)">
<g id="78_casteller" class="portacrossa" transform="scale(.2 .2) rotate(-90)">
${_rep78}
</g>
<g transform="rotate(90) translate(0 6)">
<text id="78_text" class="portacrossa vtext" text-anchor="middle">
78 ${_78} ${_c78}
</text>
</g>
</g>
</g>
<g id="79" transform="translate(187.5,0.0) rotate(0.0)">
<g id="79_casteller" class="segon" transform="scale(.2 .2) rotate(-90)">
${_rep79}
</g>
<g transform="rotate(90) translate(0 6)">
<text id="79_text" class="segon vtext" text-anchor="middle">
79 ${_79} ${_c79}
</text>
</g>
</g>
<g id="80" transform="translate(-93.75,135.316666667) rotate(120.0)">
<g id="80_casteller" class="segon" transform="scale(.2 .2) rotate(-90)">
${_rep80}
</g>
<g transform="rotate(90) translate(0 6)">
<text id="80_text" class="segon vtext" text-anchor="middle">
80 ${_80} ${_c80}
</text>
</g>
</g>
<g id="81" transform="translate(-93.75,-135.316666667) rotate(240.0)">
<g id="81_casteller" class="segon" transform="scale(.2 .2) rotate(-90)">
${_rep81}
</g>
<g transform="rotate(90) translate(0 6)">
<text id="81_text" class="segon vtext" text-anchor="middle">
81 ${_81} ${_c81}
</text>
</g>
</g>
</g>
<g id="relations">
<path class="rel ma_ma" pos_list="13_1" d="M128.129378964,3.50869743461L104.631051347,1.30258551958"/>
<g transform="translate(116.38 2.41)"><text class="rel ma_ma">${_rel13_1}</text></g>
<path class="rel ma_ma" pos_list="31_13" d="M151.919154023,0.627985162257L128.969573916,3.86089567765"/>
<g transform="translate(140.44 2.24)"><text class="rel ma_ma">${_rel31_13}</text></g>
<path class="rel vent_vent" pos_list="16_3" d="M64.1910095133,93.5634092866L53.7261501117,74.0869783481"/>
<g transform="translate(58.96 83.83)"><text class="rel vent_vent">${_rel16_3}</text></g>
<path class="rel vent_vent" pos_list="35_16" d="M77.8593342868,110.900144276L64.0402408652,91.9225618894"/>
<g transform="translate(70.95 101.41)"><text class="rel vent_vent">${_rel35_16}</text></g>
<path class="rel ma_ma" pos_list="19_5" d="M-60.6110914241,92.3989436927L-49.2873602887,74.0371405739"/>
<g transform="translate(-54.95 83.22)"><text class="rel ma_ma">${_rel19_5}</text></g>
<path class="rel ma_ma" pos_list="39_19" d="M-74.6680479821,111.60071637L-61.0395721432,92.4198710972"/>
<g transform="translate(-67.85 102.01)"><text class="rel ma_ma">${_rel39_19}</text></g>
<path class="rel vent_vent" pos_list="22_7" d="M-123.335552139,0.0672978422713L-99.6654006698,0.104576360617"/>
<g transform="translate(-111.5 0.09)"><text class="rel vent_vent">${_rel22_7}</text></g>
<path class="rel vent_vent" pos_list="43_22" d="M-149.274058444,4.8492688405L-120.178962058,3.6641645822"/>
<g transform="translate(-134.73 4.26)"><text class="rel vent_vent">${_rel43_22}</text></g>
<path class="rel ma_ma" pos_list="25_9" d="M-60.9567805567,-86.3392445362L-47.3522427233,-71.5362629898"/>
<g transform="translate(-54.15 -78.94)"><text class="rel ma_ma">${_rel25_9}</text></g>
<path class="rel ma_ma" pos_list="47_25" d="M-74.6523170834,-103.846813997L-58.0997367017,-86.6585941658"/>
<g transform="translate(-66.38 -95.25)"><text class="rel ma_ma">${_rel47_25}</text></g>
<path class="rel vent_vent" pos_list="28_11" d="M63.594688867,-88.5017487524L53.4822463206,-69.1286008458"/>
<g transform="translate(58.54 -78.82)"><text class="rel vent_vent">${_rel28_11}</text></g>
<path class="rel vent_vent" pos_list="51_28" d="M79.5072013997,-103.480957086L65.412258279,-86.557436754"/>
<g transform="translate(72.46 -95.02)"><text class="rel vent_vent">${_rel51_28}</text></g>
<path class="rel pinya_pinya" pos_list="14_2" d="M120.201985437,40.5425752214L87.728779923,45.8879892071"/>
<g transform="translate(103.97 43.22)"><text class="rel pinya_pinya">${_rel14_2}</text></g>
<path class="rel pinya_pinya" pos_list="15_2" d="M99.0282756388,69.7682503479L89.9031195126,44.7324219698"/>
<g transform="translate(94.47 57.25)"><text class="rel pinya_pinya">${_rel15_2}</text></g>
<path class="rel pinya_pinya" pos_list="32_14" d="M147.572031971,32.7243372191L121.230962184,35.9319639999"/>
<g transform="translate(134.4 34.33)"><text class="rel pinya_pinya">${_rel32_14}</text></g>
<path class="rel pinya_pinya" pos_list="33_14" d="M132.236746393,62.6843840175L121.902643616,38.1251961538"/>
<g transform="translate(127.07 50.4)"><text class="rel pinya_pinya">${_rel33_14}</text></g>
<path class="rel pinya_pinya" pos_list="33_15" d="M133.472686313,64.809825635L96.1820976306,68.8017718877"/>
<g transform="translate(114.83 66.81)"><text class="rel pinya_pinya">${_rel33_15}</text></g>
<path class="rel pinya_pinya" pos_list="34_15" d="M108.82779029,93.1515128061L99.3652856873,68.1617427293"/>
<g transform="translate(104.1 80.66)"><text class="rel pinya_pinya">${_rel34_15}</text></g>
<path class="rel pinya_pinya" pos_list="17_4" d="M25.314671336,105.457037369L3.95758148088,85.4210498612"/>
<g transform="translate(14.64 95.44)"><text class="rel pinya_pinya">${_rel17_4}</text></g>
<path class="rel pinya_pinya" pos_list="18_4" d="M-16.8851387275,106.834524992L0.668084324685,84.8247400759"/>
<g transform="translate(-8.11 95.83)"><text class="rel pinya_pinya">${_rel18_4}</text></g>
<path class="rel pinya_pinya" pos_list="36_17" d="M41.294849707,125.203207077L26.456770011,103.457317152"/>
<g transform="translate(33.88 114.33)"><text class="rel pinya_pinya">${_rel36_17}</text></g>
<path class="rel pinya_pinya" pos_list="37_17" d="M4.20438868466,129.440157124L22.0510174584,105.935486631"/>
<g transform="translate(13.13 117.69)"><text class="rel pinya_pinya">${_rel37_17}</text></g>
<path class="rel pinya_pinya" pos_list="37_18" d="M1.20696747383,129.502667827L-18.3975763366,106.778131415"/>
<g transform="translate(-8.6 118.14)"><text class="rel pinya_pinya">${_rel37_18}</text></g>
<path class="rel pinya_pinya" pos_list="38_18" d="M-36.678907774,125.423055586L-20.5880880395,103.631010917"/>
<g transform="translate(-28.63 114.53)"><text class="rel pinya_pinya">${_rel38_18}</text></g>
<path class="rel pinya_pinya" pos_list="20_6" d="M-91.9607300982,67.9433122522L-85.5151922145,44.3471883819"/>
<g transform="translate(-88.74 56.15)"><text class="rel pinya_pinya">${_rel20_6}</text></g>
<path class="rel pinya_pinya" pos_list="21_6" d="M-114.48622789,37.0778894703L-82.4027843342,44.3855280521"/>
<g transform="translate(-98.44 40.73)"><text class="rel pinya_pinya">${_rel21_6}</text></g>
<path class="rel pinya_pinya" pos_list="40_20" d="M-102.493578517,91.5411069175L-95.2323407115,69.4321596742"/>
<g transform="translate(-98.86 80.49)"><text class="rel pinya_pinya">${_rel40_20}</text></g>
<path class="rel pinya_pinya" pos_list="41_20" d="M-126.919224903,63.2866719736L-93.2050055801,68.4457199952"/>
<g transform="translate(-110.06 65.87)"><text class="rel pinya_pinya">${_rel41_20}</text></g>
<path class="rel pinya_pinya" pos_list="41_21" d="M-128.349378203,62.9627306202L-116.578202995,36.8816222958"/>
<g transform="translate(-122.46 49.92)"><text class="rel pinya_pinya">${_rel41_21}</text></g>
<path class="rel pinya_pinya" pos_list="42_21" d="M-143.433001884,32.5861092482L-115.407320183,39.3936539711"/>
<g transform="translate(-129.42 35.99)"><text class="rel pinya_pinya">${_rel42_21}</text></g>
<path class="rel pinya_pinya" pos_list="23_8" d="M-112.637697681,-35.0898918849L-82.3936456619,-37.4339327567"/>
<g transform="translate(-97.52 -36.26)"><text class="rel pinya_pinya">${_rel23_8}</text></g>
<path class="rel pinya_pinya" pos_list="24_8" d="M-94.0295443108,-66.9272132404L-83.0712203104,-40.995101835"/>
<g transform="translate(-88.55 -53.96)"><text class="rel pinya_pinya">${_rel24_8}</text></g>
<path class="rel pinya_pinya" pos_list="44_23" d="M-144.823839463,-31.3445809317L-116.243591053,-32.2339662699"/>
<g transform="translate(-130.53 -31.79)"><text class="rel pinya_pinya">${_rel44_23}</text></g>
<path class="rel pinya_pinya" pos_list="45_23" d="M-129.32209899,-59.1248861532L-117.195266739,-31.3922568407"/>
<g transform="translate(-123.26 -45.26)"><text class="rel pinya_pinya">${_rel45_23}</text></g>
<path class="rel pinya_pinya" pos_list="45_24" d="M-126.363305996,-62.4736210395L-93.1305916074,-63.0671610579"/>
<g transform="translate(-109.75 -62.77)"><text class="rel pinya_pinya">${_rel45_24}</text></g>
<path class="rel pinya_pinya" pos_list="46_24" d="M-102.430902314,-87.7418907146L-92.5411763648,-62.6104049376"/>
<g transform="translate(-97.49 -75.18)"><text class="rel pinya_pinya">${_rel46_24}</text></g>
<path class="rel pinya_pinya" pos_list="26_10" d="M-16.8937161665,-99.7649421697L0.192756198532,-81.9454134879"/>
<g transform="translate(-8.35 -90.86)"><text class="rel pinya_pinya">${_rel26_10}</text></g>
<path class="rel pinya_pinya" pos_list="27_10" d="M22.6713492714,-101.146370878L3.56105672923,-82.1473482472"/>
<g transform="translate(13.12 -91.65)"><text class="rel pinya_pinya">${_rel27_10}</text></g>
<path class="rel pinya_pinya" pos_list="48_26" d="M-37.276575716,-120.481106728L-16.9931967392,-101.388902185"/>
<g transform="translate(-27.13 -110.94)"><text class="rel pinya_pinya">${_rel48_26}</text></g>
<path class="rel pinya_pinya" pos_list="49_26" d="M4.8251248173,-124.225086656L-20.9200259046,-101.833218318"/>
<g transform="translate(-8.05 -113.03)"><text class="rel pinya_pinya">${_rel49_26}</text></g>
<path class="rel pinya_pinya" pos_list="49_27" d="M2.45984808355,-124.552376762L23.7746703798,-98.1672305318"/>
<g transform="translate(13.12 -111.36)"><text class="rel pinya_pinya">${_rel49_27}</text></g>
<path class="rel pinya_pinya" pos_list="50_27" d="M40.6120844231,-116.646632522L23.7233633166,-102.232244997"/>
<g transform="translate(32.17 -109.44)"><text class="rel pinya_pinya">${_rel50_27}</text></g>
<path class="rel pinya_pinya" pos_list="29_12" d="M98.7720260311,-62.6561017818L91.5515558151,-41.4136709107"/>
<g transform="translate(95.16 -52.03)"><text class="rel pinya_pinya">${_rel29_12}</text></g>
<path class="rel pinya_pinya" pos_list="30_12" d="M122.438764623,-31.797499326L88.0802682604,-40.7311084337"/>
<g transform="translate(105.26 -36.26)"><text class="rel pinya_pinya">${_rel30_12}</text></g>
<path class="rel pinya_pinya" pos_list="52_29" d="M107.370101294,-86.6407991906L97.1319395742,-63.5032528671"/>
<g transform="translate(102.25 -75.07)"><text class="rel pinya_pinya">${_rel52_29}</text></g>
<path class="rel pinya_pinya" pos_list="53_29" d="M132.955052672,-61.3979841097L98.5708337674,-63.720407202"/>
<g transform="translate(115.76 -62.56)"><text class="rel pinya_pinya">${_rel53_29}</text></g>
<path class="rel pinya_pinya" pos_list="53_30" d="M134.587855537,-57.7802882239L118.791530575,-31.8073685861"/>
<g transform="translate(126.69 -44.79)"><text class="rel pinya_pinya">${_rel53_30}</text></g>
<path class="rel pinya_pinya" pos_list="54_30" d="M147.182872592,-29.7529046019L122.132691117,-33.9505008515"/>
<g transform="translate(134.66 -31.85)"><text class="rel pinya_pinya">${_rel54_30}</text></g>
<path class="rel pinya" pos_list="2" d="M86.7676518698,42.0592240427"/>
<g transform="translate(86.77 42.06)"></g>
<path class="rel pinya_pinya" pos_list="14_15" d="M118.04062616,36.1099194322L97.6561597406,67.9765549431"/>
<g transform="translate(107.85 52.04)"><text class="rel pinya_pinya">${_rel14_15}</text></g>
<path class="rel pinya_pinya_pinya" pos_list="32_33_34" d="M148.404272327,36.2700276713L134.876022644,64.7023264618L109.297197098,90.5225384242"/>
<g transform="translate(130.86 63.83)"></g>
<path class="rel pinya" pos_list="4" d="M3.67579898882,86.0672189901"/>
<g transform="translate(3.68 86.07)"></g>
<path class="rel pinya_pinya" pos_list="17_18" d="M24.0216733227,106.938489337L-20.2506703138,104.786918376"/>
<g transform="translate(1.89 105.86)"><text class="rel pinya_pinya">${_rel17_18}</text></g>
<path class="rel pinya_pinya_pinya" pos_list="36_37_38" d="M40.4143982453,124.858707767L0.769883024569,129.009348682L-37.4195121068,123.665545865"/>
<g transform="translate(1.25 125.84)"></g>
<path class="rel pinya" pos_list="6" d="M-82.3380628008,44.5493483736"/>
<g transform="translate(-82.34 44.55)"></g>
<path class="rel pinya_pinya" pos_list="20_21" d="M-91.8358242999,70.7518493932L-115.492968289,40.1144722509"/>
<g transform="translate(-103.66 55.43)"><text class="rel pinya_pinya">${_rel20_21}</text></g>
<path class="rel pinya_pinya_pinya" pos_list="40_41_42" d="M-101.322641966,90.0865298251L-126.412250437,66.4531978916L-140.365424493,33.3179829543"/>
<g transform="translate(-122.7 63.29)"></g>
<path class="rel pinya" pos_list="8" d="M-85.0628316978,-41.6335178889"/>
<g transform="translate(-85.06 -41.63)"></g>
<path class="rel pinya_pinya" pos_list="23_24" d="M-114.967696794,-32.1856746324L-93.8521850193,-64.373742409"/>
<g transform="translate(-104.41 -48.28)"><text class="rel pinya_pinya">${_rel23_24}</text></g>
<path class="rel pinya_pinya_pinya" pos_list="44_45_46" d="M-142.862225932,-27.5879721L-126.724622831,-59.4595225858L-101.658189363,-87.8839632753"/>
<g transform="translate(-123.75 -58.31)"></g>
<path class="rel pinya" pos_list="10" d="M3.39806104568,-82.2454779653"/>
<g transform="translate(3.4 -82.25)"></g>
<path class="rel pinya_pinya" pos_list="26_27" d="M-18.8758999773,-97.9272424036L21.9462540792,-101.467706065"/>
<g transform="translate(1.54 -99.7)"><text class="rel pinya_pinya">${_rel26_27}</text></g>
<path class="rel pinya_pinya_pinya" pos_list="48_49_50" d="M-37.9561583275,-116.753295314L0.878486442098,-121.552109414L39.5617087057,-117.214517889"/>
<g transform="translate(0.83 -118.51)"></g>
<path class="rel pinya" pos_list="12" d="M88.2536989385,-40.5094322846"/>
<g transform="translate(88.25 -40.51)"></g>
<path class="rel pinya_pinya" pos_list="29_30" d="M100.476917495,-62.0990222608L117.830275932,-33.7589952469"/>
<g transform="translate(109.15 -47.93)"><text class="rel pinya_pinya">${_rel29_30}</text></g>
<path class="rel pinya_pinya_pinya" pos_list="52_53_54" d="M110.553256541,-84.6932135013L134.284978103,-58.9537200489L146.300429103,-31.6691715476"/>
<g transform="translate(130.38 -58.44)"></g>
<path class="rel baix_crossa" pos_list="55_56" d="M43.4458772328,0.515138347948L41.3580592289,29.2413297454"/>
<g transform="translate(42.4 14.88)"><text class="rel baix_crossa">${_rel55_56}</text></g>
<path class="rel baix_crossa" pos_list="55_57" d="M40.7988642878,1.5794886515L41.9719479915,-22.1779056721"/>
<g transform="translate(41.39 -10.3)"><text class="rel baix_crossa">${_rel55_57}</text></g>
<path class="rel baix_crossa" pos_list="62_63" d="M-19.3140264081,33.3344289442L-38.0060866228,17.7428483437"/>
<g transform="translate(-28.66 25.54)"><text class="rel baix_crossa">${_rel62_63}</text></g>
<path class="rel baix_crossa" pos_list="62_64" d="M-18.4025071406,30.0542663656L5.2018599559,43.3681283328"/>
<g transform="translate(-6.6 36.71)"><text class="rel baix_crossa">${_rel62_64}</text></g>
<path class="rel baix_crossa" pos_list="69_70" d="M-15.9382827844,-26.4457788974L4.2702543112,-37.3964229088"/>
<g transform="translate(-5.83 -31.92)"><text class="rel baix_crossa">${_rel69_70}</text></g>
<path class="rel baix_crossa" pos_list="69_71" d="M-17.3651233737,-27.0586850892L-38.6137689172,-12.1316653083"/>
<g transform="translate(-27.99 -19.6)"><text class="rel baix_crossa">${_rel69_71}</text></g>
<path class="rel baix_agulla" pos_list="55_59" d="M43.2712848192,2.95859001491L20.8223680808,0.940975091438"/>
<g transform="translate(32.05 1.95)"><text class="rel baix_agulla">${_rel55_59}</text></g>
<path class="rel baix_agulla" pos_list="62_66" d="M-18.4436480204,31.2318018198L-8.60164798261,16.354661008"/>
<g transform="translate(-13.52 23.79)"><text class="rel baix_agulla">${_rel62_66}</text></g>
<path class="rel baix_agulla" pos_list="69_73" d="M-17.4984420599,-26.920801743L-8.69106974255,-7.34675761949"/>
<g transform="translate(-13.09 -17.13)"><text class="rel baix_agulla">${_rel69_73}</text></g>
<path class="rel baix_contrafort" pos_list="55_58" d="M42.1554325889,4.6734449169L64.0409707917,0.633520122657"/>
<g transform="translate(53.1 2.65)"><text class="rel baix_contrafort">${_rel55_58}</text></g>
<path class="rel baix_contrafort" pos_list="62_65" d="M-17.8786150853,32.8843483576L-25.5208980169,49.238811099"/>
<g transform="translate(-21.7 41.06)"><text class="rel baix_contrafort">${_rel62_65}</text></g>
<path class="rel baix_contrafort" pos_list="69_72" d="M-16.8562812325,-28.2946318809L-29.5357738009,-44.6825925583"/>
<g transform="translate(-23.2 -36.49)"><text class="rel baix_contrafort">${_rel69_72}</text></g>
<path class="rel ma_baix_segon" pos_list="1_55_79" d="M104.591720442,2.18409356984L43.450875711,2.36141022052L187.728870971,2.08199468777"/>
<g transform="translate(111.92 2.21)"></g>
<path class="rel ma_baix_segon" pos_list="5_62_80" d="M-48.2215056685,76.709460204L-18.1819046288,33.4746064799L-89.9730700945,139.087551854"/>
<g transform="translate(-52.13 83.09)"></g>
<path class="rel ma_baix_segon" pos_list="9_69_81" d="M-45.4213625599,-71.9390671036L-15.7004995082,-27.3210764278L-90.2199122105,-134.985318077"/>
<g transform="translate(-50.45 -78.08)"></g>
<path class="rel vent_baix_segon" pos_list="3_55_79" d="M52.4589867473,75.6783596676L40.7986610588,0.463350403091L191.901316998,1.05744889687"/>
<g transform="translate(95.05 25.73)"></g>
<path class="rel vent_baix_segon" pos_list="11_55_79" d="M50.4591179406,-70.3232091777L44.4630803635,4.84187561325L189.717135085,3.460424815"/>
<g transform="translate(94.88 -20.67)"></g>
<path class="rel vent_baix_segon" pos_list="7_62_80" d="M-95.0981751236,3.42879836705L-17.4418447444,29.8965178613L-92.2648012423,139.176421189"/>
<g transform="translate(-68.27 57.5)"></g>
<path class="rel vent_baix_segon" pos_list="3_62_80" d="M50.2765945946,74.4546615415L-19.8945561133,31.2328461024L-88.9168726283,140.168227801"/>
<g transform="translate(-19.51 81.95)"></g>
<path class="rel vent_baix_segon" pos_list="11_69_81" d="M50.2629004183,-71.525991722L-16.2640779561,-25.4964550284L-91.6807630189,-131.74824662"/>
<g transform="translate(-19.23 -76.26)"></g>
<path class="rel vent_baix_segon" pos_list="7_69_81" d="M-99.8870113588,2.46001033134L-17.5190555258,-27.5401689532L-90.2982741436,-130.845089892"/>
<g transform="translate(-69.23 -51.98)"></g>
<path class="rel agulla_baix_segon" pos_list="59_55_79" d="M22.0639219046,1.97119263844L41.4906594726,4.79478350081L189.773096198,0.0915897761728"/>
<g transform="translate(84.44 2.29)"></g>
<path class="rel agulla_baix_segon" pos_list="66_62_80" d="M-5.90862765732,15.848868537L-17.7346356126,29.2035234111L-91.8118161332,139.513250704"/>
<g transform="translate(-38.49 61.52)"></g>
<path class="rel agulla_baix_segon" pos_list="73_69_81" d="M-5.83847883484,-7.0780419934L-19.813279021,-28.0561361693L-89.4301476305,-132.810375592"/>
<g transform="translate(-38.36 -55.98)"></g>
<path class="rel baix_segon_baix_segon" pos_list="55_79_62_80" d="M40.1884723573,1.69504442967L191.728841886,2.3874453424L-17.8442903612,31.4583203289L-92.4099666074,135.49433532"/>
<g transform="translate(30.42 42.76)"></g>
<path class="rel baix_segon_baix_segon" pos_list="62_80_69_81" d="M-16.7246576418,33.0331909521L-90.8625015407,139.174263882L-18.9948433217,-28.8432839998L-91.4720572286,-132.423997478"/>
<g transform="translate(-54.51 2.74)"></g>
<path class="rel baix_segon_baix_segon" pos_list="69_81_55_79" d="M-17.3057319879,-27.5534610864L-93.085881214,-132.983082338L41.5902841385,4.48450234535L190.258042193,4.96558087345"/>
<g transform="translate(30.36 -37.77)"></g>
<path class="rel lateral_baix_segon" pos_list="60_55_79" d="M70.5994393294,21.8802456378L43.5062317479,0.253500997614L191.533929618,4.53043708552"/>
<g transform="translate(101.88 8.89)"></g>
<path class="rel lateral_baix_segon" pos_list="61_55_79" d="M70.9284589386,-18.9779979552L40.0482779783,1.61106104717L188.724159251,3.46217740935"/>
<g transform="translate(99.9 -4.63)"></g>
<path class="rel lateral_baix_segon" pos_list="67_62_80" d="M-50.4648023518,47.5427070233L-17.0438047014,30.44181013L-90.8058428652,136.315226886"/>
<g transform="translate(-52.77 71.43)"></g>
<path class="rel lateral_baix_segon" pos_list="68_62_80" d="M-14.4013976381,66.8042344356L-16.7868562429,32.1617921704L-92.0545820144,137.269181775"/>
<g transform="translate(-41.08 78.75)"></g>
<path class="rel lateral_baix_segon" pos_list="74_69_81" d="M-14.9467195398,-61.4667604175L-18.5573734214,-26.2692831706L-90.4956973626,-130.368905796"/>
<g transform="translate(-41.33 -72.7)"></g>
<path class="rel lateral_baix_segon" pos_list="75_69_81" d="M-48.4498027014,-40.8000613432L-17.7116125538,-28.3189558729L-89.6547460412,-131.607199336"/>
<g transform="translate(-51.94 -66.91)"></g>
</g>
</svg>