<svg xmlns="http://www.w3.org/2000/xml" xmlns:xlink="http://www.w3.org/1999/xlink" viewBox="-230 -190 460 380">
<g id="positions">
<g id="1" transform="translate(100.0 0.0) rotate(0.0)">
<g id="1_casteller" class="ma" transform="scale(.15 .15) rotate(-90)">
${_rep1}
</g>
<g transform="rotate(90) translate(0 6)">
<text id="1_text" class="ma vtext" text-anchor="middle">
1 ${_1} ${_c1}
</text>
</g>
</g>
<g id="2" transform="translate(86.6 50.0) rotate(30.0)">
<g id="2_casteller" class="pinya" transform="scale(.15 .15) rotate(-90)">
${_rep2}
</g>
<g transform="rotate(90) translate(0 6)">
<text id="2_text" class="pinya vtext" text-anchor="middle">
2 ${_2} ${_c2}
</text>
</g>
</g>
<g id="3" transform="translate(50.0 86.6) rotate(60.0)">
<g id="3_casteller" class="vent" transform="scale(.15 .15) rotate(-90)">
${_rep3}
</g>
<g transform="rotate(90) translate(0 6)">
<text id="3_text" class="vent vtext" text-anchor="middle">
3 ${_3} ${_c3}
</text>
</g>
</g>
<g id="4" transform="translate(0.0 100.0) rotate(90.0)">
<g id="4_casteller" class="pinya" transform="scale(.15 .15) rotate(-90)">
${_rep4}
</g>
<g transform="rotate(90) translate(0 6)">
<text id="4_text" class="pinya vtext" text-anchor="middle">
4 ${_4} ${_c4}
</text>
</g>
</g>
<g id="5" transform="translate(-50.0 86.6) rotate(120.0)">
<g id="5_casteller" class="ma" transform="scale(.15 .15) rotate(-90)">
${_rep5}
</g>
<g transform="rotate(90) translate(0 6)">
<text id="5_text" class="ma vtext" text-anchor="middle">
5 ${_5} ${_c5}
</text>
</g>
</g>
<g id="6" transform="translate(-86.6 50.0) rotate(150.0)">
<g id="6_casteller" class="pinya" transform="scale(.15 .15) rotate(-90)">
${_rep6}
</g>
<g transform="rotate(90) translate(0 6)">
<text id="6_text" class="pinya vtext" text-anchor="middle">
6 ${_6} ${_c6}
</text>
</g>
</g>
<g id="7" transform="translate(-100.0 0.0) rotate(180.0)">
<g id="7_casteller" class="vent" transform="scale(.15 .15) rotate(-90)">
${_rep7}
</g>
<g transform="rotate(90) translate(0 6)">
<text id="7_text" class="vent vtext" text-anchor="middle">
7 ${_7} ${_c7}
</text>
</g>
</g>
<g id="8" transform="translate(-86.6 -50.0) rotate(210.0)">
<g id="8_casteller" class="pinya" transform="scale(.15 .15) rotate(-90)">
${_rep8}
</g>
<g transform="rotate(90) translate(0 6)">
<text id="8_text" class="pinya vtext" text-anchor="middle">
8 ${_8} ${_c8}
</text>
</g>
</g>
<g id="9" transform="translate(-50.0 -86.6) rotate(240.0)">
<g id="9_casteller" class="ma" transform="scale(.15 .15) rotate(-90)">
${_rep9}
</g>
<g transform="rotate(90) translate(0 6)">
<text id="9_text" class="ma vtext" text-anchor="middle">
9 ${_9} ${_c9}
</text>
</g>
</g>
<g id="10" transform="translate(-0.0 -100.0) rotate(270.0)">
<g id="10_casteller" class="pinya" transform="scale(.15 .15) rotate(-90)">
${_rep10}
</g>
<g transform="rotate(90) translate(0 6)">
<text id="10_text" class="pinya vtext" text-anchor="middle">
10 ${_10} ${_c10}
</text>
</g>
</g>
<g id="11" transform="translate(50.0 -86.6) rotate(300.0)">
<g id="11_casteller" class="vent" transform="scale(.15 .15) rotate(-90)">
${_rep11}
</g>
<g transform="rotate(90) translate(0 6)">
<text id="11_text" class="vent vtext" text-anchor="middle">
11 ${_11} ${_c11}
</text>
</g>
</g>
<g id="12" transform="translate(86.6 -50.0) rotate(330.0)">
<g id="12_casteller" class="pinya" transform="scale(.15 .15) rotate(-90)">
${_rep12}
</g>
<g transform="rotate(90) translate(0 6)">
<text id="12_text" class="pinya vtext" text-anchor="middle">
12 ${_12} ${_c12}
</text>
</g>
</g>
<g id="13" transform="translate(125.0 0.0) rotate(0.0)">
<g id="13_casteller" class="ma" transform="scale(.15 .15) rotate(-90)">
${_rep13}
</g>
<g transform="rotate(90) translate(0 6)">
<text id="13_text" class="ma vtext" text-anchor="middle">
13 ${_13} ${_c13}
</text>
</g>
</g>
<g id="14" transform="translate(117.46 42.75) rotate(20.0)">
<g id="14_casteller" class="pinya" transform="scale(.15 .15) rotate(-90)">
${_rep14}
</g>
<g transform="rotate(90) translate(0 6)">
<text id="14_text" class="pinya vtext" text-anchor="middle">
14 ${_14} ${_c14}
</text>
</g>
</g>
<g id="15" transform="translate(95.76 80.35) rotate(40.0)">
<g id="15_casteller" class="pinya" transform="scale(.15 .15) rotate(-90)">
${_rep15}
</g>
<g transform="rotate(90) translate(0 6)">
<text id="15_text" class="pinya vtext" text-anchor="middle">
15 ${_15} ${_c15}
</text>
</g>
</g>
<g id="16" transform="translate(62.5 108.25) rotate(60.0)">
<g id="16_casteller" class="vent" transform="scale(.15 .15) rotate(-90)">
${_rep16}
</g>
<g transform="rotate(90) translate(0 6)">
<text id="16_text" class="vent vtext" text-anchor="middle">
16 ${_16} ${_c16}
</text>
</g>
</g>
<g id="17" transform="translate(21.71 123.1) rotate(80.0)">
<g id="17_casteller" class="pinya" transform="scale(.15 .15) rotate(-90)">
${_rep17}
</g>
<g transform="rotate(90) translate(0 6)">
<text id="17_text" class="pinya vtext" text-anchor="middle">
17 ${_17} ${_c17}
</text>
</g>
</g>
<g id="18" transform="translate(-21.71 123.1) rotate(100.0)">
<g id="18_casteller" class="pinya" transform="scale(.15 .15) rotate(-90)">
${_rep18}
</g>
<g transform="rotate(90) translate(0 6)">
<text id="18_text" class="pinya vtext" text-anchor="middle">
18 ${_18} ${_c18}
</text>
</g>
</g>
<g id="19" transform="translate(-62.5 108.25) rotate(120.0)">
<g id="19_casteller" class="ma" transform="scale(.15 .15) rotate(-90)">
${_rep19}
</g>
<g transform="rotate(90) translate(0 6)">
<text id="19_text" class="ma vtext" text-anchor="middle">
19 ${_19} ${_c19}
</text>
</g>
</g>
<g id="20" transform="translate(-95.76 80.35) rotate(140.0)">
<g id="20_casteller" class="pinya" transform="scale(.15 .15) rotate(-90)">
${_rep20}
</g>
<g transform="rotate(90) translate(0 6)">
<text id="20_text" class="pinya vtext" text-anchor="middle">
20 ${_20} ${_c20}
</text>
</g>
</g>
<g id="21" transform="translate(-117.46 42.75) rotate(160.0)">
<g id="21_casteller" class="pinya" transform="scale(.15 .15) rotate(-90)">
${_rep21}
</g>
<g transform="rotate(90) translate(0 6)">
<text id="21_text" class="pinya vtext" text-anchor="middle">
21 ${_21} ${_c21}
</text>
</g>
</g>
<g id="22" transform="translate(-125.0 0.0) rotate(180.0)">
<g id="22_casteller" class="vent" transform="scale(.15 .15) rotate(-90)">
${_rep22}
</g>
<g transform="rotate(90) translate(0 6)">
<text id="22_text" class="vent vtext" text-anchor="middle">
22 ${_22} ${_c22}
</text>
</g>
</g>
<g id="23" transform="translate(-117.46 -42.75) rotate(200.0)">
<g id="23_casteller" class="pinya" transform="scale(.15 .15) rotate(-90)">
${_rep23}
</g>
<g transform="rotate(90) translate(0 6)">
<text id="23_text" class="pinya vtext" text-anchor="middle">
23 ${_23} ${_c23}
</text>
</g>
</g>
<g id="24" transform="translate(-95.76 -80.35) rotate(220.0)">
<g id="24_casteller" class="pinya" transform="scale(.15 .15) rotate(-90)">
${_rep24}
</g>
<g transform="rotate(90) translate(0 6)">
<text id="24_text" class="pinya vtext" text-anchor="middle">
24 ${_24} ${_c24}
</text>
</g>
</g>
<g id="25" transform="translate(-62.5 -108.25) rotate(240.0)">
<g id="25_casteller" class="ma" transform="scale(.15 .15) rotate(-90)">
${_rep25}
</g>
<g transform="rotate(90) translate(0 6)">
<text id="25_text" class="ma vtext" text-anchor="middle">
25 ${_25} ${_c25}
</text>
</g>
</g>
<g id="26" transform="translate(-21.71 -123.1) rotate(260.0)">
<g id="26_casteller" class="pinya" transform="scale(.15 .15) rotate(-90)">
${_rep26}
</g>
<g transform="rotate(90) translate(0 6)">
<text id="26_text" class="pinya vtext" text-anchor="middle">
26 ${_26} ${_c26}
</text>
</g>
</g>
<g id="27" transform="translate(21.71 -123.1) rotate(280.0)">
<g id="27_casteller" class="pinya" transform="scale(.15 .15) rotate(-90)">
${_rep27}
</g>
<g transform="rotate(90) translate(0 6)">
<text id="27_text" class="pinya vtext" text-anchor="middle">
27 ${_27} ${_c27}
</text>
</g>
</g>
<g id="28" transform="translate(62.5 -108.25) rotate(300.0)">
<g id="28_casteller" class="vent" transform="scale(.15 .15) rotate(-90)">
${_rep28}
</g>
<g transform="rotate(90) translate(0 6)">
<text id="28_text" class="vent vtext" text-anchor="middle">
28 ${_28} ${_c28}
</text>
</g>
</g>
<g id="29" transform="translate(95.76 -80.35) rotate(320.0)">
<g id="29_casteller" class="pinya" transform="scale(.15 .15) rotate(-90)">
${_rep29}
</g>
<g transform="rotate(90) translate(0 6)">
<text id="29_text" class="pinya vtext" text-anchor="middle">
29 ${_29} ${_c29}
</text>
</g>
</g>
<g id="30" transform="translate(117.46 -42.75) rotate(340.0)">
<g id="30_casteller" class="pinya" transform="scale(.15 .15) rotate(-90)">
${_rep30}
</g>
<g transform="rotate(90) translate(0 6)">
<text id="30_text" class="pinya vtext" text-anchor="middle">
30 ${_30} ${_c30}
</text>
</g>
</g>
<g id="31" transform="translate(150.0 0.0) rotate(0.0)">
<g id="31_casteller" class="ma" transform="scale(.15 .15) rotate(-90)">
${_rep31}
</g>
<g transform="rotate(90) translate(0 6)">
<text id="31_text" class="ma vtext" text-anchor="middle">
31 ${_31} ${_c31}
</text>
</g>
</g>
<g id="32" transform="translate(144.89 38.82) rotate(15.0)">
<g id="32_casteller" class="pinya" transform="scale(.15 .15) rotate(-90)">
${_rep32}
</g>
<g transform="rotate(90) translate(0 6)">
<text id="32_text" class="pinya vtext" text-anchor="middle">
32 ${_32} ${_c32}
</text>
</g>
</g>
<g id="33" transform="translate(129.9 75.0) rotate(30.0)">
<g id="33_casteller" class="pinya" transform="scale(.15 .15) rotate(-90)">
${_rep33}
</g>
<g transform="rotate(90) translate(0 6)">
<text id="33_text" class="pinya vtext" text-anchor="middle">
33 ${_33} ${_c33}
</text>
</g>
</g>
<g id="34" transform="translate(106.07 106.07) rotate(45.0)">
<g id="34_casteller" class="pinya" transform="scale(.15 .15) rotate(-90)">
${_rep34}
</g>
<g transform="rotate(90) translate(0 6)">
<text id="34_text" class="pinya vtext" text-anchor="middle">
34 ${_34} ${_c34}
</text>
</g>
</g>
<g id="35" transform="translate(75.0 129.9) rotate(60.0)">
<g id="35_casteller" class="vent" transform="scale(.15 .15) rotate(-90)">
${_rep35}
</g>
<g transform="rotate(90) translate(0 6)">
<text id="35_text" class="vent vtext" text-anchor="middle">
35 ${_35} ${_c35}
</text>
</g>
</g>
<g id="36" transform="translate(38.82 144.89) rotate(75.0)">
<g id="36_casteller" class="pinya" transform="scale(.15 .15) rotate(-90)">
${_rep36}
</g>
<g transform="rotate(90) translate(0 6)">
<text id="36_text" class="pinya vtext" text-anchor="middle">
36 ${_36} ${_c36}
</text>
</g>
</g>
<g id="37" transform="translate(0.0 150.0) rotate(90.0)">
<g id="37_casteller" class="pinya" transform="scale(.15 .15) rotate(-90)">
${_rep37}
</g>
<g transform="rotate(90) translate(0 6)">
<text id="37_text" class="pinya vtext" text-anchor="middle">
37 ${_37} ${_c37}
</text>
</g>
</g>
<g id="38" transform="translate(-38.82 144.89) rotate(105.0)">
<g id="38_casteller" class="pinya" transform="scale(.15 .15) rotate(-90)">
${_rep38}
</g>
<g transform="rotate(90) translate(0 6)">
<text id="38_text" class="pinya vtext" text-anchor="middle">
38 ${_38} ${_c38}
</text>
</g>
</g>
<g id="39" transform="translate(-75.0 129.9) rotate(120.0)">
<g id="39_casteller" class="ma" transform="scale(.15 .15) rotate(-90)">
${_rep39}
</g>
<g transform="rotate(90) translate(0 6)">
<text id="39_text" class="ma vtext" text-anchor="middle">
39 ${_39} ${_c39}
</text>
</g>
</g>
<g id="40" transform="translate(-106.07 106.07) rotate(135.0)">
<g id="40_casteller" class="pinya" transform="scale(.15 .15) rotate(-90)">
${_rep40}
</g>
<g transform="rotate(90) translate(0 6)">
<text id="40_text" class="pinya vtext" text-anchor="middle">
40 ${_40} ${_c40}
</text>
</g>
</g>
<g id="41" transform="translate(-129.9 75.0) rotate(150.0)">
<g id="41_casteller" class="pinya" transform="scale(.15 .15) rotate(-90)">
${_rep41}
</g>
<g transform="rotate(90) translate(0 6)">
<text id="41_text" class="pinya vtext" text-anchor="middle">
41 ${_41} ${_c41}
</text>
</g>
</g>
<g id="42" transform="translate(-144.89 38.82) rotate(165.0)">
<g id="42_casteller" class="pinya" transform="scale(.15 .15) rotate(-90)">
${_rep42}
</g>
<g transform="rotate(90) translate(0 6)">
<text id="42_text" class="pinya vtext" text-anchor="middle">
42 ${_42} ${_c42}
</text>
</g>
</g>
<g id="43" transform="translate(-150.0 0.0) rotate(180.0)">
<g id="43_casteller" class="vent" transform="scale(.15 .15) rotate(-90)">
${_rep43}
</g>
<g transform="rotate(90) translate(0 6)">
<text id="43_text" class="vent vtext" text-anchor="middle">
43 ${_43} ${_c43}
</text>
</g>
</g>
<g id="44" transform="translate(-144.89 -38.82) rotate(195.0)">
<g id="44_casteller" class="pinya" transform="scale(.15 .15) rotate(-90)">
${_rep44}
</g>
<g transform="rotate(90) translate(0 6)">
<text id="44_text" class="pinya vtext" text-anchor="middle">
44 ${_44} ${_c44}
</text>
</g>
</g>
<g id="45" transform="translate(-129.9 -75.0) rotate(210.0)">
<g id="45_casteller" class="pinya" transform="scale(.15 .15) rotate(-90)">
${_rep45}
</g>
<g transform="rotate(90) translate(0 6)">
<text id="45_text" class="pinya vtext" text-anchor="middle">
45 ${_45} ${_c45}
</text>
</g>
</g>
<g id="46" transform="translate(-106.07 -106.07) rotate(225.0)">
<g id="46_casteller" class="pinya" transform="scale(.15 .15) rotate(-90)">
${_rep46}
</g>
<g transform="rotate(90) translate(0 6)">
<text id="46_text" class="pinya vtext" text-anchor="middle">
46 ${_46} ${_c46}
</text>
</g>
</g>
<g id="47" transform="translate(-75.0 -129.9) rotate(240.0)">
<g id="47_casteller" class="ma" transform="scale(.15 .15) rotate(-90)">
${_rep47}
</g>
<g transform="rotate(90) translate(0 6)">
<text id="47_text" class="ma vtext" text-anchor="middle">
47 ${_47} ${_c47}
</text>
</g>
</g>
<g id="48" transform="translate(-38.82 -144.89) rotate(255.0)">
<g id="48_casteller" class="pinya" transform="scale(.15 .15) rotate(-90)">
${_rep48}
</g>
<g transform="rotate(90) translate(0 6)">
<text id="48_text" class="pinya vtext" text-anchor="middle">
48 ${_48} ${_c48}
</text>
</g>
</g>
<g id="49" transform="translate(-0.0 -150.0) rotate(270.0)">
<g id="49_casteller" class="pinya" transform="scale(.15 .15) rotate(-90)">
${_rep49}
</g>
<g transform="rotate(90) translate(0 6)">
<text id="49_text" class="pinya vtext" text-anchor="middle">
49 ${_49} ${_c49}
</text>
</g>
</g>
<g id="50" transform="translate(38.82 -144.89) rotate(285.0)">
<g id="50_casteller" class="pinya" transform="scale(.15 .15) rotate(-90)">
${_rep50}
</g>
<g transform="rotate(90) translate(0 6)">
<text id="50_text" class="pinya vtext" text-anchor="middle">
50 ${_50} ${_c50}
</text>
</g>
</g>
<g id="51" transform="translate(75.0 -129.9) rotate(300.0)">
<g id="51_casteller" class="vent" transform="scale(.15 .15) rotate(-90)">
${_rep51}
</g>
<g transform="rotate(90) translate(0 6)">
<text id="51_text" class="vent vtext" text-anchor="middle">
51 ${_51} ${_c51}
</text>
</g>
</g>
<g id="52" transform="translate(106.07 -106.07) rotate(315.0)">
<g id="52_casteller" class="pinya" transform="scale(.15 .15) rotate(-90)">
${_rep52}
</g>
<g transform="rotate(90) translate(0 6)">
<text id="52_text" class="pinya vtext" text-anchor="middle">
52 ${_52} ${_c52}
</text>
</g>
</g>
<g id="53" transform="translate(129.9 -75.0) rotate(330.0)">
<g id="53_casteller" class="pinya" transform="scale(.15 .15) rotate(-90)">
${_rep53}
</g>
<g transform="rotate(90) translate(0 6)">
<text id="53_text" class="pinya vtext" text-anchor="middle">
53 ${_53} ${_c53}
</text>
</g>
</g>
<g id="54" transform="translate(144.89 -38.82) rotate(345.0)">
<g id="54_casteller" class="pinya" transform="scale(.15 .15) rotate(-90)">
${_rep54}
</g>
<g transform="rotate(90) translate(0 6)">
<text id="54_text" class="pinya vtext" text-anchor="middle">
54 ${_54} ${_c54}
</text>
</g>
</g>
<g id="baixos_gp_0" transform="translate(40.0 0.0) rotate(0.0)">
<g id="55" transform="translate(0 0) rotate(0)">
<g id="55_casteller" class="baix" transform="scale(.15 .15) rotate(-90)">
${_rep55}
</g>
<g transform="rotate(90) translate(0 6)">
<text id="55_text" class="baix vtext" text-anchor="middle">
55 ${_55} ${_c55}
</text>
</g>
</g>
<g id="56" transform="translate(0 30) rotate(90)">
<g id="56_casteller" class="crossa" transform="scale(.15 .15) rotate(-90)">
${_rep56}
</g>
<g transform="rotate(90) translate(0 6)">
<text id="56_text" class="crossa vtext" text-anchor="middle">
56 ${_56} ${_c56}
</text>
</g>
</g>
<g id="57" transform="translate(0 -30) rotate(-90)">
<g id="57_casteller" class="crossa" transform="scale(.15 .15) rotate(-90)">
${_rep57}
</g>
<g transform="rotate(90) translate(0 6)">
<text id="57_text" class="crossa vtext" text-anchor="middle">
57 ${_57} ${_c57}
</text>
</g>
</g>
<g id="58" transform="translate(20 0) rotate(0)">
<g id="58_casteller" class="contrafort" transform="scale(.15 .15) rotate(-90)">
${_rep58}
</g>
<g transform="rotate(90) translate(0 6)">
<text id="58_text" class="contrafort vtext" text-anchor="middle">
58 ${_58} ${_c58}
</text>
</g>
</g>
<g id="59" transform="translate(-20 0) rotate(0)">
<g id="59_casteller" class="agulla" transform="scale(.15 .15) rotate(-90)">
${_rep59}
</g>
<g transform="rotate(90) translate(0 6)">
<text id="59_text" class="agulla vtext" text-anchor="middle">
59 ${_59} ${_c59}
</text>
</g>
</g>
<g id="60" transform="translate(30 25) rotate(30)">
<g id="60_casteller" class="lateral" transform="scale(.15 .15) rotate(-90)">
${_rep60}
</g>
<g transform="rotate(90) translate(0 6)">
<text id="60_text" class="lateral vtext" text-anchor="middle">
60 ${_60} ${_c60}
</text>
</g>
</g>
<g id="61" transform="translate(30 -25) rotate(-30)">
<g id="61_casteller" class="lateral" transform="scale(.15 .15) rotate(-90)">
${_rep61}
</g>
<g transform="rotate(90) translate(0 6)">
<text id="61_text" class="lateral vtext" text-anchor="middle">
61 ${_61} ${_c61}
</text>
</g>
</g>
</g>
<g id="baixos_gp_1" transform="translate(-20.0 34.64) rotate(120.0)">
<g id="62" transform="translate(0 0) rotate(0)">
<g id="62_casteller" class="baix" transform="scale(.15 .15) rotate(-90)">
${_rep62}
</g>
<g transform="rotate(90) translate(0 6)">
<text id="62_text" class="baix vtext" text-anchor="middle">
62 ${_62} ${_c62}
</text>
</g>
</g>
<g id="63" transform="translate(0 30) rotate(90)">
<g id="63_casteller" class="crossa" transform="scale(.15 .15) rotate(-90)">
${_rep63}
</g>
<g transform="rotate(90) translate(0 6)">
<text id="63_text" class="crossa vtext" text-anchor="middle">
63 ${_63} ${_c63}
</text>
</g>
</g>
<g id="64" transform="translate(0 -30) rotate(-90)">
<g id="64_casteller" class="crossa" transform="scale(.15 .15) rotate(-90)">
${_rep64}
</g>
<g transform="rotate(90) translate(0 6)">
<text id="64_text" class="crossa vtext" text-anchor="middle">
64 ${_64} ${_c64}
</text>
</g>
</g>
<g id="65" transform="translate(20 0) rotate(0)">
<g id="65_casteller" class="contrafort" transform="scale(.15 .15) rotate(-90)">
${_rep65}
</g>
<g transform="rotate(90) translate(0 6)">
<text id="65_text" class="contrafort vtext" text-anchor="middle">
65 ${_65} ${_c65}
</text>
</g>
</g>
<g id="66" transform="translate(-20 0) rotate(0)">
<g id="66_casteller" class="agulla" transform="scale(.15 .15) rotate(-90)">
${_rep66}
</g>
<g transform="rotate(90) translate(0 6)">
<text id="66_text" class="agulla vtext" text-anchor="middle">
66 ${_66} ${_c66}
</text>
</g>
</g>
<g id="67" transform="translate(30 25) rotate(30)">
<g id="67_casteller" class="lateral" transform="scale(.15 .15) rotate(-90)">
${_rep67}
</g>
<g transform="rotate(90) translate(0 6)">
<text id="67_text" class="lateral vtext" text-anchor="middle">
67 ${_67} ${_c67}
</text>
</g>
</g>
<g id="68" transform="translate(30 -25) rotate(-30)">
<g id="68_casteller" class="lateral" transform="scale(.15 .15) rotate(-90)">
${_rep68}
</g>
<g transform="rotate(90) translate(0 6)">
<text id="68_text" class="lateral vtext" text-anchor="middle">
68 ${_68} ${_c68}
</text>
</g>
</g>
</g>
<g id="baixos_gp_2" transform="translate(-20.0 -34.64) rotate(240.0)">
<g id="69" transform="translate(0 0) rotate(0)">
<g id="69_casteller" class="baix" transform="scale(.15 .15) rotate(-90)">
${_rep69}
</g>
<g transform="rotate(90) translate(0 6)">
<text id="69_text" class="baix vtext" text-anchor="middle">
69 ${_69} ${_c69}
</text>
</g>
</g>
<g id="70" transform="translate(0 30) rotate(90)">
<g id="70_casteller" class="crossa" transform="scale(.15 .15) rotate(-90)">
${_rep70}
</g>
<g transform="rotate(90) translate(0 6)">
<text id="70_text" class="crossa vtext" text-anchor="middle">
70 ${_70} ${_c70}
</text>
</g>
</g>
<g id="71" transform="translate(0 -30) rotate(-90)">
<g id="71_casteller" class="crossa" transform="scale(.15 .15) rotate(-90)">
${_rep71}
</g>
<g transform="rotate(90) translate(0 6)">
<text id="71_text" class="crossa vtext" text-anchor="middle">
71 ${_71} ${_c71}
</text>
</g>
</g>
<g id="72" transform="translate(20 0) rotate(0)">
<g id="72_casteller" class="contrafort" transform="scale(.15 .15) rotate(-90)">
${_rep72}
</g>
<g transform="rotate(90) translate(0 6)">
<text id="72_text" class="contrafort vtext" text-anchor="middle">
72 ${_72} ${_c72}
</text>
</g>
</g>
<g id="73" transform="translate(-20 0) rotate(0)">
<g id="73_casteller" class="agulla" transform="scale(.15 .15) rotate(-90)">
${_rep73}
</g>
<g transform="rotate(90) translate(0 6)">
<text id="73_text" class="agulla vtext" text-anchor="middle">
73 ${_73} ${_c73}
</text>
</g>
</g>
<g id="74" transform="translate(30 25) rotate(30)">
<g id="74_casteller" class="lateral" transform="scale(.15 .15) rotate(-90)">
${_rep74}
</g>
<g transform="rotate(90) translate(0 6)">
<text id="74_text" class="lateral vtext" text-anchor="middle">
74 ${_74} ${_c74}
</text>
</g>
</g>
<g id="75" transform="translate(30 -25) rotate(-30)">
<g id="75_casteller" class="lateral" transform="scale(.15 .15) rotate(-90)">
${_rep75}
</g>
<g transform="rotate(90) translate(0 6)">
<text id="75_text" class="lateral vtext" text-anchor="middle">
75 ${_75} ${_c75}
</text>
</g>
</g>
</g>
<g id="portacrossa_gp_0" transform="translate(35.0 60.62) rotate(60.0)">
<g id="76" transform="translate(0 0) rotate(0)">
<g id="76_casteller" class="portacrossa" transform="scale(.15 .15) rotate(-90)">
${_rep76}
</g>
<g transform="rotate(90) translate(0 6)">
<text id="76_text" class="portacrossa vtext" text-anchor="middle">
76 ${_76} ${_c76}
</text>
</g>
</g>
</g>
<g id="portacrossa_gp_1" transform="translate(-70.0 0.0) rotate(180.0)">
<g id="77" transform="translate(0 0) rotate(0)">
<g id="77_casteller" class="portacrossa" transform="scale(.15 .15) rotate(-90)">
${_rep77}
</g>
<g transform="rotate(90) translate(0 6)">
<text id="77_text" class="portacrossa vtext" text-anchor="middle">
77 ${_77} ${_c77}
</text>
</g>
</g>
</g>
<g id="portacrossa_gp_2" transform="translate(35.0 -60.62) rotate(300.0)">
<g id="78" transform="translate(0 0) rotate(0)">
<g id="78_casteller" class="portacrossa" transform="scale(.15 .15) rotate(-90)">
${_rep78}
</g>
<g transform="rotate(90) translate(0 6)">
<text id="78_text" class="portacrossa vtext" text-anchor="middle">
78 ${_78} ${_c78}
</text>
</g>
</g>
</g>
<g id="79" transform="translate(187.5 0.0) rotate(0.0)">
<g id="79_casteller" class="segon" transform="scale(.15 .15) rotate(-90)">
${_rep79}
</g>
<g transform="rotate(90) translate(0 6)">
<text id="79_text" class="segon vtext" text-anchor="middle">
79 ${_79} ${_c79}
</text>
</g>
</g>
<g id="80" transform="translate(-93.75 162.38) rotate(120.0)">
<g id="80_casteller" class="segon" transform="scale(.15 .15) rotate(-90)">
${_rep80}
</g>
<g transform="rotate(90) translate(0 6)">
<text id="80_text" class="segon vtext" text-anchor="middle">
80 ${_80} ${_c80}
</text>
</g>
</g>
<g id="81" transform="translate(-93.75 -162.38) rotate(240.0)">
<g id="81_casteller" class="segon" transform="scale(.15 .15) rotate(-90)">
${_rep81}
</g>
<g transform="rotate(90) translate(0 6)">
<text id="81_text" class="segon vtext" text-anchor="middle">
81 ${_81} ${_c81}
</text>
</g>
</g>
</g>
<g id="relations">
<path class="rel ma_ma" pos_list="13_1" d="M126.990633471,2.31417174761L104.845695834,1.54916034249"/>
<g transform="translate(115.92 1.93)"><text class="rel ma_ma">${_rel13_1}</text></g>
<path class="rel ma_ma" pos_list="31_13" d="M150.425138316,4.87214914569L126.652449764,4.22872121493"/>
<g transform="translate(138.54 4.55)"><text class="rel ma_ma">${_rel31_13}</text></g>
<path class="rel vent_vent" pos_list="16_3" d="M62.8498821893,110.441099794L53.8011351203,89.6381932368"/>
<g transform="translate(58.33 100.04)"><text class="rel vent_vent">${_rel16_3}</text></g>
<path class="rel vent_vent" pos_list="35_16" d="M75.2244937921,132.907450926L65.097589228,112.712922148"/>
<g transform="translate(70.16 122.81)"><text class="rel vent_vent">${_rel35_16}</text></g>
<path class="rel ma_ma" pos_list="19_5" d="M-59.0009280535,110.349887788L-45.9590388108,87.4063749175"/>
<g transform="translate(-52.48 98.88)"><text class="rel ma_ma">${_rel19_5}</text></g>
<path class="rel ma_ma" pos_list="39_19" d="M-72.3154539547,134.51324515L-57.7260199028,109.911827932"/>
<g transform="translate(-65.02 122.21)"><text class="rel ma_ma">${_rel39_19}</text></g>
<path class="rel vent_vent" pos_list="22_7" d="M-124.644479583,2.57935652006L-98.524629469,0.903907201869"/>
<g transform="translate(-111.58 1.74)"><text class="rel vent_vent">${_rel22_7}</text></g>
<path class="rel vent_vent" pos_list="43_22" d="M-148.189186371,0.0784652265021L-124.258220423,2.39133860296"/>
<g transform="translate(-136.22 1.23)"><text class="rel vent_vent">${_rel43_22}</text></g>
<path class="rel ma_ma" pos_list="25_9" d="M-60.292674416,-107.01227225L-46.6639096227,-84.7191164915"/>
<g transform="translate(-53.48 -95.87)"><text class="rel ma_ma">${_rel25_9}</text></g>
<path class="rel ma_ma" pos_list="47_25" d="M-72.7640928711,-129.812202251L-59.7938779042,-108.005204648"/>
<g transform="translate(-66.28 -118.91)"><text class="rel ma_ma">${_rel47_25}</text></g>
<path class="rel vent_vent" pos_list="28_11" d="M64.5716203453,-104.223667401L51.0320350409,-82.991517457"/>
<g transform="translate(57.8 -93.61)"><text class="rel vent_vent">${_rel28_11}</text></g>
<path class="rel vent_vent" pos_list="51_28" d="M76.0395627964,-127.831291219L65.7806872978,-105.651087072"/>
<g transform="translate(70.91 -116.74)"><text class="rel vent_vent">${_rel51_28}</text></g>
<path class="rel pinya_pinya" pos_list="14_2" d="M118.128433384,43.8073375861L90.9210777538,50.4394676156"/>
<g transform="translate(104.52 47.12)"><text class="rel pinya_pinya">${_rel14_2}</text></g>
<path class="rel pinya_pinya" pos_list="15_2" d="M96.559966911,83.6199351375L87.8594508472,53.2030110703"/>
<g transform="translate(92.21 68.41)"><text class="rel pinya_pinya">${_rel15_2}</text></g>
<path class="rel pinya_pinya" pos_list="32_14" d="M146.507265664,42.6479350577L118.295260555,47.0619178153"/>
<g transform="translate(132.4 44.85)"><text class="rel pinya_pinya">${_rel32_14}</text></g>
<path class="rel pinya_pinya" pos_list="33_14" d="M132.935925489,79.1816658782L120.308873817,45.2700197991"/>
<g transform="translate(126.62 62.23)"><text class="rel pinya_pinya">${_rel33_14}</text></g>
<path class="rel pinya_pinya" pos_list="33_15" d="M131.435962227,77.2659392751L96.5697826904,81.9234252154"/>
<g transform="translate(114.0 79.59)"><text class="rel pinya_pinya">${_rel33_15}</text></g>
<path class="rel pinya_pinya" pos_list="34_15" d="M107.862290916,110.364107806L97.923423838,83.5427942367"/>
<g transform="translate(102.89 96.95)"><text class="rel pinya_pinya">${_rel34_15}</text></g>
<path class="rel pinya_pinya" pos_list="17_4" d="M26.3184679947,124.894390266L3.13354889674,104.304947742"/>
<g transform="translate(14.73 114.6)"><text class="rel pinya_pinya">${_rel17_4}</text></g>
<path class="rel pinya_pinya" pos_list="18_4" d="M-21.4983455368,127.447928645L3.61738468597,101.985736121"/>
<g transform="translate(-8.94 114.72)"><text class="rel pinya_pinya">${_rel18_4}</text></g>
<path class="rel pinya_pinya" pos_list="36_17" d="M42.9803470401,146.946752055L26.3800822139,123.804326182"/>
<g transform="translate(34.68 135.38)"><text class="rel pinya_pinya">${_rel36_17}</text></g>
<path class="rel pinya_pinya" pos_list="37_17" d="M3.9740698246,151.536629558L21.8305035072,124.692710868"/>
<g transform="translate(12.9 138.11)"><text class="rel pinya_pinya">${_rel37_17}</text></g>
<path class="rel pinya_pinya" pos_list="37_18" d="M0.141287015613,154.106309711L-18.2439412533,126.106864598"/>
<g transform="translate(-9.05 140.11)"><text class="rel pinya_pinya">${_rel37_18}</text></g>
<path class="rel pinya_pinya" pos_list="38_18" d="M-36.6826479623,148.091164351L-20.9249566216,124.935732066"/>
<g transform="translate(-28.8 136.51)"><text class="rel pinya_pinya">${_rel38_18}</text></g>
<path class="rel pinya_pinya" pos_list="20_6" d="M-93.6228708375,84.2180490161L-82.1603693117,51.2965991365"/>
<g transform="translate(-87.89 67.76)"><text class="rel pinya_pinya">${_rel20_6}</text></g>
<path class="rel pinya_pinya" pos_list="21_6" d="M-114.230188889,45.8553904603L-81.9381914511,53.8328368669"/>
<g transform="translate(-98.08 49.84)"><text class="rel pinya_pinya">${_rel21_6}</text></g>
<path class="rel pinya_pinya" pos_list="40_20" d="M-103.457508601,109.085570989L-92.2926455349,84.1656531903"/>
<g transform="translate(-97.88 96.63)"><text class="rel pinya_pinya">${_rel40_20}</text></g>
<path class="rel pinya_pinya" pos_list="41_20" d="M-129.543316784,76.7816352571L-93.5897023821,82.3174458889"/>
<g transform="translate(-111.57 79.55)"><text class="rel pinya_pinya">${_rel41_20}</text></g>
<path class="rel pinya_pinya" pos_list="41_21" d="M-125.389736965,79.9329727746L-116.756247152,47.5415553614"/>
<g transform="translate(-121.07 63.74)"><text class="rel pinya_pinya">${_rel41_21}</text></g>
<path class="rel pinya_pinya" pos_list="42_21" d="M-144.519747003,41.3132229921L-117.403303651,47.2921747571"/>
<g transform="translate(-130.96 44.3)"><text class="rel pinya_pinya">${_rel42_21}</text></g>
<path class="rel pinya_pinya" pos_list="23_8" d="M-116.587743656,-39.0370852244L-84.9710988407,-49.9256772946"/>
<g transform="translate(-100.78 -44.48)"><text class="rel pinya_pinya">${_rel23_8}</text></g>
<path class="rel pinya_pinya" pos_list="24_8" d="M-92.9820009066,-79.5494826062L-84.0900934784,-48.5087595435"/>
<g transform="translate(-88.54 -64.03)"><text class="rel pinya_pinya">${_rel24_8}</text></g>
<path class="rel pinya_pinya" pos_list="44_23" d="M-142.501233783,-35.2734761812L-112.483710249,-42.6579504993"/>
<g transform="translate(-127.49 -38.97)"><text class="rel pinya_pinya">${_rel44_23}</text></g>
<path class="rel pinya_pinya" pos_list="45_23" d="M-129.586994707,-71.780567001L-114.048466262,-40.9195740437"/>
<g transform="translate(-121.82 -56.35)"><text class="rel pinya_pinya">${_rel45_23}</text></g>
<path class="rel pinya_pinya" pos_list="45_24" d="M-129.281084913,-72.3005337409L-92.3838464613,-78.8664231825"/>
<g transform="translate(-110.83 -75.58)"><text class="rel pinya_pinya">${_rel45_24}</text></g>
<path class="rel pinya_pinya" pos_list="46_24" d="M-101.173560564,-101.93170571L-95.1360551627,-79.3404063614"/>
<g transform="translate(-98.15 -90.64)"><text class="rel pinya_pinya">${_rel46_24}</text></g>
<path class="rel pinya_pinya" pos_list="26_10" d="M-20.6497957216,-119.876654007L3.18838830151,-98.9075734111"/>
<g transform="translate(-8.73 -109.39)"><text class="rel pinya_pinya">${_rel26_10}</text></g>
<path class="rel pinya_pinya" pos_list="27_10" d="M24.3081073674,-119.787911198L0.26572322778,-98.5096302603"/>
<g transform="translate(12.29 -109.15)"><text class="rel pinya_pinya">${_rel27_10}</text></g>
<path class="rel pinya_pinya" pos_list="48_26" d="M-34.3186559008,-142.189326747L-17.1400762739,-121.210642522"/>
<g transform="translate(-25.73 -131.7)"><text class="rel pinya_pinya">${_rel48_26}</text></g>
<path class="rel pinya_pinya" pos_list="49_26" d="M1.84676973156,-147.07150058L-20.4002451138,-122.653115081"/>
<g transform="translate(-9.28 -134.86)"><text class="rel pinya_pinya">${_rel49_26}</text></g>
<path class="rel pinya_pinya" pos_list="49_27" d="M1.30862427564,-146.672884659L26.7079854987,-122.273353103"/>
<g transform="translate(14.01 -134.47)"><text class="rel pinya_pinya">${_rel49_27}</text></g>
<path class="rel pinya_pinya" pos_list="50_27" d="M39.4721923042,-140.368608278L24.8455988543,-119.933475592"/>
<g transform="translate(32.16 -130.15)"><text class="rel pinya_pinya">${_rel50_27}</text></g>
<path class="rel pinya_pinya" pos_list="29_12" d="M96.5566461786,-75.8263564076L90.2001890897,-46.2687716039"/>
<g transform="translate(93.38 -61.05)"><text class="rel pinya_pinya">${_rel29_12}</text></g>
<path class="rel pinya_pinya" pos_list="30_12" d="M119.497005131,-39.6230447866L90.7519067786,-47.0743126845"/>
<g transform="translate(105.12 -43.35)"><text class="rel pinya_pinya">${_rel30_12}</text></g>
<path class="rel pinya_pinya" pos_list="52_29" d="M110.008816931,-104.229906608L100.028839169,-75.7392232477"/>
<g transform="translate(105.02 -89.98)"><text class="rel pinya_pinya">${_rel52_29}</text></g>
<path class="rel pinya_pinya" pos_list="53_29" d="M132.093982278,-70.0131925886L100.091615886,-79.5385199081"/>
<g transform="translate(116.09 -74.78)"><text class="rel pinya_pinya">${_rel53_29}</text></g>
<path class="rel pinya_pinya" pos_list="53_30" d="M134.249200631,-72.4910510805L117.701893954,-38.5355070797"/>
<g transform="translate(125.98 -55.51)"><text class="rel pinya_pinya">${_rel53_30}</text></g>
<path class="rel pinya_pinya" pos_list="54_30" d="M148.466708083,-33.8605272207L117.53475581,-40.7423502623"/>
<g transform="translate(133.0 -37.3)"><text class="rel pinya_pinya">${_rel54_30}</text></g>
<path class="rel pinya" pos_list="2" d="M90.8531222556,53.8610900128"/>
<g transform="translate(90.85 53.86)"></g>
<path class="rel pinya_pinya" pos_list="14_15" d="M121.287002685,46.8266764266L100.382258666,81.2843987308"/>
<g transform="translate(110.83 64.06)"><text class="rel pinya_pinya">${_rel14_15}</text></g>
<path class="rel pinya_pinya_pinya" pos_list="32_33_34" d="M147.330498257,41.3161705717L134.210316688,76.7909401807L107.765431555,106.514939285"/>
<g transform="translate(129.77 74.87)"></g>
<path class="rel pinya" pos_list="4" d="M0.458203807407,104.521756301"/>
<g transform="translate(0.46 104.52)"></g>
<path class="rel pinya_pinya" pos_list="17_18" d="M24.5987244053,123.845962233L-18.2469974694,123.549085824"/>
<g transform="translate(3.18 123.7)"><text class="rel pinya_pinya">${_rel17_18}</text></g>
<path class="rel pinya_pinya_pinya" pos_list="36_37_38" d="M42.3702007522,146.292209799L4.91574738931,152.202875089L-37.0647567005,148.17853951"/>
<g transform="translate(3.41 148.89)"></g>
<path class="rel pinya" pos_list="6" d="M-82.8299208554,53.52803016"/>
<g transform="translate(-82.83 53.53)"></g>
<path class="rel pinya_pinya" pos_list="20_21" d="M-95.2308223152,82.1740412955L-117.009539863,46.4104444941"/>
<g transform="translate(-106.12 64.29)"><text class="rel pinya_pinya">${_rel20_21}</text></g>
<path class="rel pinya_pinya_pinya" pos_list="40_41_42" d="M-104.660309529,107.952546316L-127.601456568,75.5336940028L-140.537487233,41.8681703764"/>
<g transform="translate(-124.27 75.12)"></g>
<path class="rel pinya" pos_list="8" d="M-83.3594125731,-47.9092639534"/>
<g transform="translate(-83.36 -47.91)"></g>
<path class="rel pinya_pinya" pos_list="23_24" d="M-114.56833689,-39.2515325175L-94.7532806944,-75.7134060845"/>
<g transform="translate(-104.66 -57.48)"><text class="rel pinya_pinya">${_rel23_24}</text></g>
<path class="rel pinya_pinya_pinya" pos_list="44_45_46" d="M-142.674275871,-36.1786769663L-127.624574436,-74.4590155753L-102.954816134,-101.096179742"/>
<g transform="translate(-124.42 -70.58)"></g>
<path class="rel pinya" pos_list="10" d="M1.20345287194,-95.2649682965"/>
<g transform="translate(1.2 -95.26)"></g>
<path class="rel pinya_pinya" pos_list="26_27" d="M-20.0571977183,-120.237702046L23.2316570643,-118.750609831"/>
<g transform="translate(1.59 -119.49)"><text class="rel pinya_pinya">${_rel26_27}</text></g>
<path class="rel pinya_pinya_pinya" pos_list="48_49_50" d="M-37.4875573263,-141.715368419L2.27190275915,-147.712466058L40.145371419,-140.885025927"/>
<g transform="translate(1.64 -143.44)"></g>
<path class="rel pinya" pos_list="12" d="M89.5051271971,-47.746718661"/>
<g transform="translate(89.51 -47.75)"></g>
<path class="rel pinya_pinya" pos_list="29_30" d="M100.758047672,-79.7327021964L119.768047675,-40.9702559657"/>
<g transform="translate(110.26 -60.35)"><text class="rel pinya_pinya">${_rel29_30}</text></g>
<path class="rel pinya_pinya_pinya" pos_list="52_53_54" d="M107.126823885,-104.908737462L133.262116678,-73.3014140205L147.012033907,-36.0624076175"/>
<g transform="translate(129.13 -71.42)"></g>
<path class="rel baix_crossa" pos_list="55_56" d="M44.4502030347,4.57381094266L41.8331231934,30.2453716761"/>
<g transform="translate(43.14 17.41)"><text class="rel baix_crossa">${_rel55_56}</text></g>
<path class="rel baix_crossa" pos_list="55_57" d="M44.4089446909,2.76614816767L41.432905022,-26.875726667"/>
<g transform="translate(42.92 -12.05)"><text class="rel baix_crossa">${_rel55_57}</text></g>
<path class="rel baix_crossa" pos_list="62_63" d="M-16.5249608218,35.4955271268L-42.3658171255,21.2175594295"/>
<g transform="translate(-29.45 28.36)"><text class="rel baix_crossa">${_rel62_63}</text></g>
<path class="rel baix_crossa" pos_list="62_64" d="M-15.0582762051,35.0961825425L10.859364721,53.9977190291"/>
<g transform="translate(-2.1 44.55)"><text class="rel baix_crossa">${_rel62_64}</text></g>
<path class="rel baix_crossa" pos_list="69_70" d="M-16.2592165383,-32.2780226645L8.55811968315,-47.8115570022"/>
<g transform="translate(-3.85 -40.04)"><text class="rel baix_crossa">${_rel69_70}</text></g>
<path class="rel baix_crossa" pos_list="69_71" d="M-16.8058399602,-29.824495751L-41.9414961658,-17.8554772722"/>
<g transform="translate(-29.37 -23.84)"><text class="rel baix_crossa">${_rel69_71}</text></g>
<path class="rel baix_agulla" pos_list="55_59" d="M40.3133386581,4.83471663579L22.0430896909,2.64540552738"/>
<g transform="translate(31.18 3.74)"><text class="rel baix_agulla">${_rel55_59}</text></g>
<path class="rel baix_agulla" pos_list="62_66" d="M-15.8842083865,39.3499770395L-9.02487217216,19.2346493837"/>
<g transform="translate(-12.45 29.29)"><text class="rel baix_agulla">${_rel62_66}</text></g>
<path class="rel baix_agulla" pos_list="69_73" d="M-17.4366256113,-30.7144909891L-6.37594156569,-13.4878300522"/>
<g transform="translate(-11.91 -22.1)"><text class="rel baix_agulla">${_rel69_73}</text></g>
<path class="rel baix_contrafort" pos_list="55_58" d="M41.5729816841,0.287651095614L62.1056009067,1.49937469275"/>
<g transform="translate(51.84 0.89)"><text class="rel baix_contrafort">${_rel55_58}</text></g>
<path class="rel baix_contrafort" pos_list="62_65" d="M-17.1198341753,37.2769790438L-25.4728332457,52.9129132856"/>
<g transform="translate(-21.3 45.09)"><text class="rel baix_contrafort">${_rel62_65}</text></g>
<path class="rel baix_contrafort" pos_list="69_72" d="M-15.6661801204,-34.3887810369L-29.7063442393,-49.1600936585"/>
<g transform="translate(-22.69 -41.77)"><text class="rel baix_contrafort">${_rel69_72}</text></g>
<path class="rel ma_baix_segon" pos_list="1_55_79" d="M103.17040303,1.48979908926L42.728069114,1.46838981108L190.440333727,0.526269205963"/>
<g transform="translate(112.11 1.16)"></g>
<path class="rel ma_baix_segon" pos_list="5_62_80" d="M-48.8183003642,87.2180653198L-17.6789996472,34.8126541351L-91.7680772349,166.208893999"/>
<g transform="translate(-52.76 96.08)"></g>
<path class="rel ma_baix_segon" pos_list="9_69_81" d="M-47.783933993,-85.2751803531L-17.4974050856,-31.8875517612L-91.4675300394,-161.322839344"/>
<g transform="translate(-52.25 -92.83)"></g>
<path class="rel vent_baix_segon" pos_list="3_55_79" d="M53.550835877,90.4588939945L44.968280763,0.581919384828L189.26587156,3.7054239347"/>
<g transform="translate(95.93 31.58)"></g>
<path class="rel vent_baix_segon" pos_list="11_55_79" d="M50.0103444126,-81.6790812419L43.8127569781,0.594917715554L190.281766687,1.2280213517"/>
<g transform="translate(94.7 -26.62)"></g>
<path class="rel vent_baix_segon" pos_list="7_62_80" d="M-95.055323368,1.48938058873L-17.4131030992,36.9889579734L-93.0680004397,166.666958966"/>
<g transform="translate(-68.51 68.38)"></g>
<path class="rel vent_baix_segon" pos_list="3_62_80" d="M50.5054275659,89.5267752162L-16.277753129,38.8066643693L-91.8942096566,166.524364662"/>
<g transform="translate(-19.22 98.29)"></g>
<path class="rel vent_baix_segon" pos_list="11_69_81" d="M52.9360269962,-84.8229554545L-16.4310193424,-30.8232628033L-89.1098294208,-160.74951882"/>
<g transform="translate(-17.53 -92.13)"></g>
<path class="rel vent_baix_segon" pos_list="7_69_81" d="M-98.5311139013,2.28773436778L-19.1968026172,-33.3349849646L-88.8359318394,-157.996801621"/>
<g transform="translate(-68.85 -63.01)"></g>
<path class="rel agulla_baix_segon" pos_list="59_55_79" d="M22.8888236666,4.78195093202L41.1520066608,1.10396046494L190.609020933,0.600095779007"/>
<g transform="translate(84.88 2.16)"></g>
<path class="rel agulla_baix_segon" pos_list="66_62_80" d="M-7.42581000483,21.4333847586L-19.0292445717,38.2695214214L-89.008283689,163.720189466"/>
<g transform="translate(-38.49 74.47)"></g>
<path class="rel agulla_baix_segon" pos_list="73_69_81" d="M-8.48275712968,-14.6157452514L-15.3768195876,-33.4829108476L-92.5056723163,-159.964834847"/>
<g transform="translate(-38.79 -69.35)"></g>
<path class="rel baix_segon_baix_segon" pos_list="55_79_62_80" d="M40.2288139408,0.659426509452L190.247218352,4.97740408805L-18.2245999955,34.6633810733L-89.5209354885,164.089097734"/>
<g transform="translate(30.68 51.1)"></g>
<path class="rel baix_segon_baix_segon" pos_list="62_80_69_81" d="M-15.9022614341,37.3625508915L-88.8269121277,163.652140478L-17.2209352174,-32.5649620485L-92.1312286957,-158.23907123"/>
<g transform="translate(-53.52 2.55)"></g>
<path class="rel baix_segon_baix_segon" pos_list="69_81_55_79" d="M-15.2934807642,-34.6019466857L-91.9812668219,-160.267495981L41.5395863028,1.605794317L189.84250126,3.01104373732"/>
<g transform="translate(31.03 -47.56)"></g>
<path class="rel lateral_baix_segon" pos_list="60_55_79" d="M74.9926195091,28.6625421258L43.7077101548,3.41272688459L190.953077066,3.77629200122"/>
<g transform="translate(103.22 11.95)"></g>
<path class="rel lateral_baix_segon" pos_list="61_55_79" d="M70.3952555962,-22.6300815881L40.9707271828,3.39566472966L192.086078158,1.68816036076"/>
<g transform="translate(101.15 -5.85)"></g>
<path class="rel lateral_baix_segon" pos_list="67_62_80" d="M-55.5855556402,50.4924043686L-19.9531907204,38.2627616247L-91.6193731307,165.474603948"/>
<g transform="translate(-55.72 84.74)"></g>
<path class="rel lateral_baix_segon" pos_list="68_62_80" d="M-12.6702348401,75.3088345677L-17.4832622891,36.6327953351L-90.3136332788,163.034986936"/>
<g transform="translate(-40.16 91.66)"></g>
<path class="rel lateral_baix_segon" pos_list="74_69_81" d="M-13.2018450081,-71.7131028085L-15.7285076662,-33.5216399515L-93.7445152053,-158.305412674"/>
<g transform="translate(-40.89 -87.85)"></g>
<path class="rel lateral_baix_segon" pos_list="75_69_81" d="M-56.2892019136,-43.2076161577L-15.6130589193,-34.2047753739L-92.8581432052,-159.897523959"/>
<g transform="translate(-54.92 -79.1)"></g>
</g>
</svg>