<svg xmlns="http://www.w3.org/2000/xml" xmlns:xlink="http://www.w3.org/1999/xlink" viewBox="-230 -190 460 380">
<g id="positions">
<g id="1" transform="translate(100.0 0.0) rotate(0.0)">
<rect id="1_rect" class="ma" width="20" height="40" x="-10.0" y="-20.0">
</rect>
<g transform="rotate(90) translate(0 6)">
<text id="1_text" class="ma vtext" text-anchor="middle">
1 ${_1} ${_c1}
</text>
</g>
</g>
<g id="2" transform="translate(86.6 50.0) rotate(30.0)">
<rect id="2_rect" class="pinya" width="20" height="40" x="-10.0" y="-20.0">
</rect>
<g transform="rotate(90) translate(0 6)">
<text id="2_text" class="pinya vtext" text-anchor="middle">
2 ${_2} ${_c2}
</text>
</g>
</g>
<g id="3" transform="translate(50.0 86.6) rotate(60.0)">
<rect id="3_rect" class="vent" width="20" height="40" x="-10.0" y="-20.0">
</rect>
<g transform="rotate(90) translate(0 6)">
<text id="3_text" class="vent vtext" text-anchor="middle">
3 ${_3} ${_c3}
</text>
</g>
</g>
<g id="4" transform="translate(0.0 100.0) rotate(90.0)">
<rect id="4_rect" class="pinya" width="20" height="40" x="-10.0" y="-20.0">
</rect>
<g transform="rotate(90) translate(0 6)">
<text id="4_text" class="pinya vtext" text-anchor="middle">
4 ${_4} ${_c4}
</text>
</g>
</g>
<g id="5" transform="translate(-50.0 86.6) rotate(120.0)">
<rect id="5_rect" class="ma" width="20" height="40" x="-10.0" y="-20.0">
</rect>
<g transform="rotate(90) translate(0 6)">
<text id="5_text" class="ma vtext" text-anchor="middle">
5 ${_5} ${_c5}
</text>
</g>
</g>
<g id="6" transform="translate(-86.6 50.0) rotate(150.0)">
<rect id="6_rect" class="pinya" width="20" height="40" x="-10.0" y="-20.0">
</rect>
<g transform="rotate(90) translate(0 6)">
<text id="6_text" class="pinya vtext" text-anchor="middle">
6 ${_6} ${_c6}
</text>
</g>
</g>
<g id="7" transform="translate(-100.0 0.0) rotate(180.0)">
<rect id="7_rect" class="vent" width="20" height="40" x="-10.0" y="-20.0">
</rect>
<g transform="rotate(90) translate(0 6)">
<text id="7_text" class="vent vtext" text-anchor="middle">
7 ${_7} ${_c7}
</text>
</g>
</g>
<g id="8" transform="translate(-86.6 -50.0) rotate(210.0)">
<rect id="8_rect" class="pinya" width="20" height="40" x="-10.0" y="-20.0">
</rect>
<g transform="rotate(90) translate(0 6)">
<text id="8_text" class="pinya vtext" text-anchor="middle">
8 ${_8} ${_c8}
</text>
</g>
</g>
<g id="9" transform="translate(-50.0 -86.6) rotate(240.0)">
<rect id="9_rect" class="ma" width="20" height="40" x="-10.0" y="-20.0">
</rect>
<g transform="rotate(90) translate(0 6)">
<text id="9_text" class="ma vtext" text-anchor="middle">
9 ${_9} ${_c9}
</text>
</g>
</g>
<g id="10" transform="translate(-0.0 -100.0) rotate(270.0)">
<rect id="10_rect" class="pinya" width="20" height="40" x="-10.0" y="-20.0">
</rect>
<g transform="rotate(90) translate(0 6)">
<text id="10_text" class="pinya vtext" text-anchor="middle">
10 ${_10} ${_c10}
</text>
</g>
</g>
<g id="11" transform="translate(50.0 -86.6) rotate(300.0)">
<rect id="11_rect" class="vent" width="20" height="40" x="-10.0" y="-20.0">
</rect>
<g transform="rotate(90) translate(0 6)">
<text id="11_text" class="vent vtext" text-anchor="middle">
11 ${_11} ${_c11}
</text>
</g>
</g>
<g id="12" transform="translate(86.6 -50.0) rotate(330.0)">
<rect id="12_rect" class="pinya" width="20" height="40" x="-10.0" y="-20.0">
</rect>
<g transform="rotate(90) translate(0 6)">
<text id="12_text" class="pinya vtext" text-anchor="middle">
12 ${_12} ${_c12}
</text>
</g>
</g>
<g id="13" transform="translate(125.0 0.0) rotate(0.0)">
<rect id="13_rect" class="ma" width="20" height="40" x="-10.0" y="-20.0">
</rect>
<g transform="rotate(90) translate(0 6)">
<text id="13_text" class="ma vtext" text-anchor="middle">
13 ${_13} ${_c13}
</text>
</g>
</g>
<g id="14" transform="translate(117.46 42.75) rotate(20.0)">
<rect id="14_rect" class="pinya" width="20" height="40" x="-10.0" y="-20.0">
</rect>
<g transform="rotate(90) translate(0 6)">
<text id="14_text" class="pinya vtext" text-anchor="middle">
14 ${_14} ${_c14}
</text>
</g>
</g>
<g id="15" transform="translate(95.76 80.35) rotate(40.0)">
<rect id="15_rect" class="pinya" width="20" height="40" x="-10.0" y="-20.0">
</rect>
<g transform="rotate(90) translate(0 6)">
<text id="15_text" class="pinya vtext" text-anchor="middle">
15 ${_15} ${_c15}
</text>
</g>
</g>
<g id="16" transform="translate(62.5 108.25) rotate(60.0)">
<rect id="16_rect" class="vent" width="20" height="40" x="-10.0" y="-20.0">
</rect>
<g transform="rotate(90) translate(0 6)">
<text id="16_text" class="vent vtext" text-anchor="middle">
16 ${_16} ${_c16}
</text>
</g>
</g>
<g id="17" transform="translate(21.71 123.1) rotate(80.0)">
<rect id="17_rect" class="pinya" width="20" height="40" x="-10.0" y="-20.0">
</rect>
<g transform="rotate(90) translate(0 6)">
<text id="17_text" class="pinya vtext" text-anchor="middle">
17 ${_17} ${_c17}
</text>
</g>
</g>
<g id="18" transform="translate(-21.71 123.1) rotate(100.0)">
<rect id="18_rect" class="pinya" width="20" height="40" x="-10.0" y="-20.0">
</rect>
<g transform="rotate(90) translate(0 6)">
<text id="18_text" class="pinya vtext" text-anchor="middle">
18 ${_18} ${_c18}
</text>
</g>
</g>
<g id="19" transform="translate(-62.5 108.25) rotate(120.0)">
<rect id="19_rect" class="ma" width="20" height="40" x="-10.0" y="-20.0">
</rect>
<g transform="rotate(90) translate(0 6)">
<text id="19_text" class="ma vtext" text-anchor="middle">
19 ${_19} ${_c19}
</text>
</g>
</g>
<g id="20" transform="translate(-95.76 80.35) rotate(140.0)">
<rect id="20_rect" class="pinya" width="20" height="40" x="-10.0" y="-20.0">
</rect>
<g transform="rotate(90) translate(0 6)">
<text id="20_text" class="pinya vtext" text-anchor="middle">
20 ${_20} ${_c20}
</text>
</g>
</g>
<g id="21" transform="translate(-117.46 42.75) rotate(160.0)">
<rect id="21_rect" class="pinya" width="20" height="40" x="-10.0" y="-20.0">
</rect>
<g transform="rotate(90) translate(0 6)">
<text id="21_text" class="pinya vtext" text-anchor="middle">
21 ${_21} ${_c21}
</text>
</g>
</g>
<g id="22" transform="translate(-125.0 0.0) rotate(180.0)">
<rect id="22_rect" class="vent" width="20" height="40" x="-10.0" y="-20.0">
</rect>
<g transform="rotate(90) translate(0 6)">
<text id="22_text" class="vent vtext" text-anchor="middle">
22 ${_22} ${_c22}
</text>
</g>
</g>
<g id="23" transform="translate(-117.46 -42.75) rotate(200.0)">
<rect id="23_rect" class="pinya" width="20" height="40" x="-10.0" y="-20.0">
</rect>
<g transform="rotate(90) translate(0 6)">
<text id="23_text" class="pinya vtext" text-anchor="middle">
23 ${_23} ${_c23}
</text>
</g>
</g>
<g id="24" transform="translate(-95.76 -80.35) rotate(220.0)">
<rect id="24_rect" class="pinya" width="20" height="40" x="-10.0" y="-20.0">
</rect>
<g transform="rotate(90) translate(0 6)">
<text id="24_text" class="pinya vtext" text-anchor="middle">
24 ${_24} ${_c24}
</text>
</g>
</g>
<g id="25" transform="translate(-62.5 -108.25) rotate(240.0)">
<rect id="25_rect" class="ma" width="20" height="40" x="-10.0" y="-20.0">
</rect>
<g transform="rotate(90) translate(0 6)">
<text id="25_text" class="ma vtext" text-anchor="middle">
25 ${_25} ${_c25}
</text>
</g>
</g>
<g id="26" transform="translate(-21.71 -123.1) rotate(260.0)">
<rect id="26_rect" class="pinya" width="20" height="40" x="-10.0" y="-20.0">
</rect>
<g transform="rotate(90) translate(0 6)">
<text id="26_text" class="pinya vtext" text-anchor="middle">
26 ${_26} ${_c26}
</text>
</g>
</g>
<g id="27" transform="translate(21.71 -123.1) rotate(280.0)">
<rect id="27_rect" class="pinya" width="20" height="40" x="-10.0" y="-20.0">
</rect>
<g transform="rotate(90) translate(0 6)">
<text id="27_text" class="pinya vtext" text-anchor="middle">
27 ${_27} ${_c27}
</text>
</g>
</g>
<g id="28" transform="translate(62.5 -108.25) rotate(300.0)">
<rect id="28_rect" class="vent" width="20" height="40" x="-10.0" y="-20.0">
</rect>
<g transform="rotate(90) translate(0 6)">
<text id="28_text" class="vent vtext" text-anchor="middle">
28 ${_28} ${_c28}
</text>
</g>
</g>
<g id="29" transform="translate(95.76 -80.35) rotate(320.0)">
<rect id="29_rect" class="pinya" width="20" height="40" x="-10.0" y="-20.0">
</rect>
<g transform="rotate(90) translate(0 6)">
<text id="29_text" class="pinya vtext" text-anchor="middle">
29 ${_29} ${_c29}
</text>
</g>
</g>
<g id="30" transform="translate(117.46 -42.75) rotate(340.0)">
<rect id="30_rect" class="pinya" width="20" height="40" x="-10.0" y="-20.0">
</rect>
<g transform="rotate(90) translate(0 6)">
<text id="30_text" class="pinya vtext" text-anchor="middle">
30 ${_30} ${_c30}
</text>
</g>
</g>
<g id="31" transform="translate(150.0 0.0) rotate(0.0)">
<rect id="31_rect" class="ma" width="20" height="40" x="-10.0" y="-20.0">
</rect>
<g transform="rotate(90) translate(0 6)">
<text id="31_text" class="ma vtext" text-anchor="middle">
31 ${_31} ${_c31}
</text>
</g>
</g>
<g id="32" transform="translate(144.89 38.82) rotate(15.0)">
<rect id="32_rect" class="pinya" width="20" height="40" x="-10.0" y="-20.0">
</rect>
<g transform="rotate(90) translate(0 6)">
<text id="32_text" class="pinya vtext" text-anchor="middle">
32 ${_32} ${_c32}
</text>
</g>
</g>
<g id="33" transform="translate(129.9 75.0) rotate(30.0)">
<rect id="33_rect" class="pinya" width="20" height="40" x="-10.0" y="-20.0">
</rect>
<g transform="rotate(90) translate(0 6)">
<text id="33_text" class="pinya vtext" text-anchor="middle">
33 ${_33} ${_c33}
</text>
</g>
</g>
<g id="34" transform="translate(106.07 106.07) rotate(45.0)">
<rect id="34_rect" class="pinya" width="20" height="40" x="-10.0" y="-20.0">
</rect>
<g transform="rotate(90) translate(0 6)">
<text id="34_text" class="pinya vtext" text-anchor="middle">
34 ${_34} ${_c34}
</text>
</g>
</g>
<g id="35" transform="translate(75.0 129.9) rotate(60.0)">
<rect id="35_rect" class="vent" width="20" height="40" x="-10.0" y="-20.0">
</rect>
<g transform="rotate(90) translate(0 6)">
<text id="35_text" class="vent vtext" text-anchor="middle">
35 ${_35} ${_c35}
</text>
</g>
</g>
<g id="36" transform="translate(38.82 144.89) rotate(75.0)">
<rect id="36_rect" class="pinya" width="20" height="40" x="-10.0" y="-20.0">
</rect>
<g transform="rotate(90) translate(0 6)">
<text id="36_text" class="pinya vtext" text-anchor="middle">
36 ${_36} ${_c36}
</text>
</g>
</g>
<g id="37" transform="translate(0.0 150.0) rotate(90.0)">
<rect id="37_rect" class="pinya" width="20" height="40" x="-10.0" y="-20.0">
</rect>
<g transform="rotate(90) translate(0 6)">
<text id="37_text" class="pinya vtext" text-anchor="middle">
37 ${_37} ${_c37}
</text>
</g>
</g>
<g id="38" transform="translate(-38.82 144.89) rotate(105.0)">
<rect id="38_rect" class="pinya" width="20" height="40" x="-10.0" y="-20.0">
</rect>
<g transform="rotate(90) translate(0 6)">
<text id="38_text" class="pinya vtext" text-anchor="middle">
38 ${_38} ${_c38}
</text>
</g>
</g>
<g id="39" transform="translate(-75.0 129.9) rotate(120.0)">
<rect id="39_rect" class="ma" width="20" height="40" x="-10.0" y="-20.0">
</rect>
<g transform="rotate(90) translate(0 6)">
<text id="39_text" class="ma vtext" text-anchor="middle">
39 ${_39} ${_c39}
</text>
</g>
</g>
<g id="40" transform="translate(-106.07 106.07) rotate(135.0)">
<rect id="40_rect" class="pinya" width="20" height="40" x="-10.0" y="-20.0">
</rect>
<g transform="rotate(90) translate(0 6)">
<text id="40_text" class="pinya vtext" text-anchor="middle">
40 ${_40} ${_c40}
</text>
</g>
</g>
<g id="41" transform="translate(-129.9 75.0) rotate(150.0)">
<rect id="41_rect" class="pinya" width="20" height="40" x="-10.0" y="-20.0">
</rect>
<g transform="rotate(90) translate(0 6)">
<text id="41_text" class="pinya vtext" text-anchor="middle">
41 ${_41} ${_c41}
</text>
</g>
</g>
<g id="42" transform="translate(-144.89 38.82) rotate(165.0)">
<rect id="42_rect" class="pinya" width="20" height="40" x="-10.0" y="-20.0">
</rect>
<g transform="rotate(90) translate(0 6)">
<text id="42_text" class="pinya vtext" text-anchor="middle">
42 ${_42} ${_c42}
</text>
</g>
</g>
<g id="43" transform="translate(-150.0 0.0) rotate(180.0)">
<rect id="43_rect" class="vent" width="20" height="40" x="-10.0" y="-20.0">
</rect>
<g transform="rotate(90) translate(0 6)">
<text id="43_text" class="vent vtext" text-anchor="middle">
43 ${_43} ${_c43}
</text>
</g>
</g>
<g id="44" transform="translate(-144.89 -38.82) rotate(195.0)">
<rect id="44_rect" class="pinya" width="20" height="40" x="-10.0" y="-20.0">
</rect>
<g transform="rotate(90) translate(0 6)">
<text id="44_text" class="pinya vtext" text-anchor="middle">
44 ${_44} ${_c44}
</text>
</g>
</g>
<g id="45" transform="translate(-129.9 -75.0) rotate(210.0)">
<rect id="45_rect" class="pinya" width="20" height="40" x="-10.0" y="-20.0">
</rect>
<g transform="rotate(90) translate(0 6)">
<text id="45_text" class="pinya vtext" text-anchor="middle">
45 ${_45} ${_c45}
</text>
</g>
</g>
<g id="46" transform="translate(-106.07 -106.07) rotate(225.0)">
<rect id="46_rect" class="pinya" width="20" height="40" x="-10.0" y="-20.0">
</rect>
<g transform="rotate(90) translate(0 6)">
<text id="46_text" class="pinya vtext" text-anchor="middle">
46 ${_46} ${_c46}
</text>
</g>
</g>
<g id="47" transform="translate(-75.0 -129.9) rotate(240.0)">
<rect id="47_rect" class="ma" width="20" height="40" x="-10.0" y="-20.0">
</rect>
<g transform="rotate(90) translate(0 6)">
<text id="47_text" class="ma vtext" text-anchor="middle">
47 ${_47} ${_c47}
</text>
</g>
</g>
<g id="48" transform="translate(-38.82 -144.89) rotate(255.0)">
<rect id="48_rect" class="pinya" width="20" height="40" x="-10.0" y="-20.0">
</rect>
<g transform="rotate(90) translate(0 6)">
<text id="48_text" class="pinya vtext" text-anchor="middle">
48 ${_48} ${_c48}
</text>
</g>
</g>
<g id="49" transform="translate(-0.0 -150.0) rotate(270.0)">
<rect id="49_rect" class="pinya" width="20" height="40" x="-10.0" y="-20.0">
</rect>
<g transform="rotate(90) translate(0 6)">
<text id="49_text" class="pinya vtext" text-anchor="middle">
49 ${_49} ${_c49}
</text>
</g>
</g>
<g id="50" transform="translate(38.82 -144.89) rotate(285.0)">
<rect id="50_rect" class="pinya" width="20" height="40" x="-10.0" y="-20.0">
</rect>
<g transform="rotate(90) translate(0 6)">
<text id="50_text" class="pinya vtext" text-anchor="middle">
50 ${_50} ${_c50}
</text>
</g>
</g>
<g id="51" transform="translate(75.0 -129.9) rotate(300.0)">
<rect id="51_rect" class="vent" width="20" height="40" x="-10.0" y="-20.0">
</rect>
<g transform="rotate(90) translate(0 6)">
<text id="51_text" class="vent vtext" text-anchor="middle">
51 ${_51} ${_c51}
</text>
</g>
</g>
<g id="52" transform="translate(106.07 -106.07) rotate(315.0)">
<rect id="52_rect" class="pinya" width="20" height="40" x="-10.0" y="-20.0">
</rect>
<g transform="rotate(90) translate(0 6)">
<text id="52_text" class="pinya vtext" text-anchor="middle">
52 ${_52} ${_c52}
</text>
</g>
</g>
<g id="53" transform="translate(129.9 -75.0) rotate(330.0)">
<rect id="53_rect" class="pinya" width="20" height="40" x="-10.0" y="-20.0">
</rect>
<g transform="rotate(90) translate(0 6)">
<text id="53_text" class="pinya vtext" text-anchor="middle">
53 ${_53} ${_c53}
</text>
</g>
</g>
<g id="54" transform="translate(144.89 -38.82) rotate(345.0)">
<rect id="54_rect" class="pinya" width="20" height="40" x="-10.0" y="-20.0">
</rect>
<g transform="rotate(90) translate(0 6)">
<text id="54_text" class="pinya vtext" text-anchor="middle">
54 ${_54} ${_c54}
</text>
</g>
</g>
<g id="baixos_gp_0" transform="translate(40.0 0.0) rotate(0.0)">
<g id="55" transform="translate(0 0) rotate(0)">
<rect id="55_rect" class="baix" width="20" height="40" x="-10" y="-20">
</rect>
<g transform="rotate(90) translate(0 6)">
<text id="55_text" class="baix vtext" text-anchor="middle">
55 ${_55} ${_c55}
</text>
</g>
</g>
<g id="56" transform="translate(0 30) rotate(90)">
<rect id="56_rect" class="crossa" width="16" height="30" x="-8" y="-15">
</rect>
<g transform="rotate(90) translate(0 6)">
<text id="56_text" class="crossa vtext" text-anchor="middle">
56 ${_56} ${_c56}
</text>
</g>
</g>
<g id="57" transform="translate(0 -30) rotate(-90)">
<rect id="57_rect" class="crossa" width="16" height="30" x="-8" y="-15">
</rect>
<g transform="rotate(90) translate(0 6)">
<text id="57_text" class="crossa vtext" text-anchor="middle">
57 ${_57} ${_c57}
</text>
</g>
</g>
<g id="58" transform="translate(20 0) rotate(0)">
<rect id="58_rect" class="contrafort" width="16" height="30" x="-8" y="-15">
</rect>
<g transform="rotate(90) translate(0 6)">
<text id="58_text" class="contrafort vtext" text-anchor="middle">
58 ${_58} ${_c58}
</text>
</g>
</g>
<g id="59" transform="translate(-20 0) rotate(0)">
<rect id="59_rect" class="agulla" width="16" height="30" x="-8" y="-15">
</rect>
<g transform="rotate(90) translate(0 6)">
<text id="59_text" class="agulla vtext" text-anchor="middle">
59 ${_59} ${_c59}
</text>
</g>
</g>
<g id="60" transform="translate(30 25) rotate(30)">
<rect id="60_rect" class="lateral" width="16" height="30" x="-8" y="-15">
</rect>
<g transform="rotate(90) translate(0 6)">
<text id="60_text" class="lateral vtext" text-anchor="middle">
60 ${_60} ${_c60}
</text>
</g>
</g>
<g id="61" transform="translate(30 -25) rotate(-30)">
<rect id="61_rect" class="lateral" width="16" height="30" x="-8" y="-15">
</rect>
<g transform="rotate(90) translate(0 6)">
<text id="61_text" class="lateral vtext" text-anchor="middle">
61 ${_61} ${_c61}
</text>
</g>
</g>
</g>
<g id="baixos_gp_1" transform="translate(-20.0 34.64) rotate(120.0)">
<g id="62" transform="translate(0 0) rotate(0)">
<rect id="62_rect" class="baix" width="20" height="40" x="-10" y="-20">
</rect>
<g transform="rotate(90) translate(0 6)">
<text id="62_text" class="baix vtext" text-anchor="middle">
62 ${_62} ${_c62}
</text>
</g>
</g>
<g id="63" transform="translate(0 30) rotate(90)">
<rect id="63_rect" class="crossa" width="16" height="30" x="-8" y="-15">
</rect>
<g transform="rotate(90) translate(0 6)">
<text id="63_text" class="crossa vtext" text-anchor="middle">
63 ${_63} ${_c63}
</text>
</g>
</g>
<g id="64" transform="translate(0 -30) rotate(-90)">
<rect id="64_rect" class="crossa" width="16" height="30" x="-8" y="-15">
</rect>
<g transform="rotate(90) translate(0 6)">
<text id="64_text" class="crossa vtext" text-anchor="middle">
64 ${_64} ${_c64}
</text>
</g>
</g>
<g id="65" transform="translate(20 0) rotate(0)">
<rect id="65_rect" class="contrafort" width="16" height="30" x="-8" y="-15">
</rect>
<g transform="rotate(90) translate(0 6)">
<text id="65_text" class="contrafort vtext" text-anchor="middle">
65 ${_65} ${_c65}
</text>
</g>
</g>
<g id="66" transform="translate(-20 0) rotate(0)">
<rect id="66_rect" class="agulla" width="16" height="30" x="-8" y="-15">
</rect>
<g transform="rotate(90) translate(0 6)">
<text id="66_text" class="agulla vtext" text-anchor="middle">
66 ${_66} ${_c66}
</text>
</g>
</g>
<g id="67" transform="translate(30 25) rotate(30)">
<rect id="67_rect" class="lateral" width="16" height="30" x="-8" y="-15">
</rect>
<g transform="rotate(90) translate(0 6)">
<text id="67_text" class="lateral vtext" text-anchor="middle">
67 ${_67} ${_c67}
</text>
</g>
</g>
<g id="68" transform="translate(30 -25) rotate(-30)">
<rect id="68_rect" class="lateral" width="16" height="30" x="-8" y="-15">
</rect>
<g transform="rotate(90) translate(0 6)">
<text id="68_text" class="lateral vtext" text-anchor="middle">
68 ${_68} ${_c68}
</text>
</g>
</g>
</g>
<g id="baixos_gp_2" transform="translate(-20.0 -34.64) rotate(240.0)">
<g id="69" transform="translate(0 0) rotate(0)">
<rect id="69_rect" class="baix" width="20" height="40" x="-10" y="-20">
</rect>
<g transform="rotate(90) translate(0 6)">
<text id="69_text" class="baix vtext" text-anchor="middle">
69 ${_69} ${_c69}
</text>
</g>
</g>
<g id="70" transform="translate(0 30) rotate(90)">
<rect id="70_rect" class="crossa" width="16" height="30" x="-8" y="-15">
</rect>
<g transform="rotate(90) translate(0 6)">
<text id="70_text" class="crossa vtext" text-anchor="middle">
70 ${_70} ${_c70}
</text>
</g>
</g>
<g id="71" transform="translate(0 -30) rotate(-90)">
<rect id="71_rect" class="crossa" width="16" height="30" x="-8" y="-15">
</rect>
<g transform="rotate(90) translate(0 6)">
<text id="71_text" class="crossa vtext" text-anchor="middle">
71 ${_71} ${_c71}
</text>
</g>
</g>
<g id="72" transform="translate(20 0) rotate(0)">
<rect id="72_rect" class="contrafort" width="16" height="30" x="-8" y="-15">
</rect>
<g transform="rotate(90) translate(0 6)">
<text id="72_text" class="contrafort vtext" text-anchor="middle">
72 ${_72} ${_c72}
</text>
</g>
</g>
<g id="73" transform="translate(-20 0) rotate(0)">
<rect id="73_rect" class="agulla" width="16" height="30" x="-8" y="-15">
</rect>
<g transform="rotate(90) translate(0 6)">
<text id="73_text" class="agulla vtext" text-anchor="middle">
73 ${_73} ${_c73}
</text>
</g>
</g>
<g id="74" transform="translate(30 25) rotate(30)">
<rect id="74_rect" class="lateral" width="16" height="30" x="-8" y="-15">
</rect>
<g transform="rotate(90) translate(0 6)">
<text id="74_text" class="lateral vtext" text-anchor="middle">
74 ${_74} ${_c74}
</text>
</g>
</g>
<g id="75" transform="translate(30 -25) rotate(-30)">
<rect id="75_rect" class="lateral" width="16" height="30" x="-8" y="-15">
</rect>
<g transform="rotate(90) translate(0 6)">
<text id="75_text" class="lateral vtext" text-anchor="middle">
75 ${_75} ${_c75}
</text>
</g>
</g>
</g>
<g id="portacrossa_gp_0" transform="translate(35.0 60.62) rotate(60.0)">
<g id="76" transform="translate(0 0) rotate(0)">
<rect id="76_rect" class="portacrossa" width="20" height="40" x="-10" y="-20">
</rect>
<g transform="rotate(90) translate(0 6)">
<text id="76_text" class="portacrossa vtext" text-anchor="middle">
76 ${_76} ${_c76}
</text>
</g>
</g>
</g>
<g id="portacrossa_gp_1" transform="translate(-70.0 0.0) rotate(180.0)">
<g id="77" transform="translate(0 0) rotate(0)">
<rect id="77_rect" class="portacrossa" width="20" height="40" x="-10" y="-20">
</rect>
<g transform="rotate(90) translate(0 6)">
<text id="77_text" class="portacrossa vtext" text-anchor="middle">
77 ${_77} ${_c77}
</text>
</g>
</g>
</g>
<g id="portacrossa_gp_2" transform="translate(35.0 -60.62) rotate(300.0)">
<g id="78" transform="translate(0 0) rotate(0)">
<rect id="78_rect" class="portacrossa" width="20" height="40" x="-10" y="-20">
</rect>
<g transform="rotate(90) translate(0 6)">
<text id="78_text" class="portacrossa vtext" text-anchor="middle">
78 ${_78} ${_c78}
</text>
</g>
</g>
</g>
<g id="79" transform="translate(187.5 0.0) rotate(0.0)">
<rect id="79_rect" class="segon" width="20" height="40" x="-10" y="-20">
</rect>
<g transform="rotate(90) translate(0 6)">
<text id="79_text" class="segon vtext" text-anchor="middle">
79 ${_79} ${_c79}
</text>
</g>
</g>
<g id="80" transform="translate(-93.75 162.38) rotate(120.0)">
<rect id="80_rect" class="segon" width="20" height="40" x="-10" y="-20">
</rect>
<g transform="rotate(90) translate(0 6)">
<text id="80_text" class="segon vtext" text-anchor="middle">
80 ${_80} ${_c80}
</text>
</g>
</g>
<g id="81" transform="translate(-93.75 -162.38) rotate(240.0)">
<rect id="81_rect" class="segon" width="20" height="40" x="-10" y="-20">
</rect>
<g transform="rotate(90) translate(0 6)">
<text id="81_text" class="segon vtext" text-anchor="middle">
81 ${_81} ${_c81}
</text>
</g>
</g>
</g>
<g id="relations">
<path class="rel ma_ma" pos_list="13_1" d="M127.644823671,0.465498053242L100.17728999,1.56622370145"/>
<g transform="translate(113.91 1.02)"><text class="rel ma_ma">${_rel13_1}</text></g>
<path class="rel ma_ma" pos_list="31_13" d="M154.822315844,3.80759974624L127.71993095,3.1870536905"/>
<g transform="translate(141.27 3.5)"><text class="rel ma_ma">${_rel31_13}</text></g>
<path class="rel vent_vent" pos_list="16_3" d="M63.8979381684,111.351870864L50.7761542798,89.091933326"/>
<g transform="translate(57.34 100.22)"><text class="rel vent_vent">${_rel16_3}</text></g>
<path class="rel vent_vent" pos_list="35_16" d="M76.0140647834,134.036316629L66.6355784441,112.37136809"/>
<g transform="translate(71.32 123.2)"><text class="rel vent_vent">${_rel35_16}</text></g>
<path class="rel ma_ma" pos_list="19_5" d="M-58.8764267167,110.505969087L-45.5637129705,88.6499695017"/>
<g transform="translate(-52.22 99.58)"><text class="rel ma_ma">${_rel19_5}</text></g>
<path class="rel ma_ma" pos_list="39_19" d="M-71.7606690805,134.049429704L-58.4513829761,109.467366149"/>
<g transform="translate(-65.11 121.76)"><text class="rel ma_ma">${_rel39_19}</text></g>
<path class="rel vent_vent" pos_list="22_7" d="M-124.95917374,1.59243187181L-96.7532788996,1.54470151029"/>
<g transform="translate(-110.86 1.57)"><text class="rel vent_vent">${_rel22_7}</text></g>
<path class="rel vent_vent" pos_list="43_22" d="M-146.615659998,1.12013416948L-123.267835325,1.82250930228"/>
<g transform="translate(-134.94 1.47)"><text class="rel vent_vent">${_rel43_22}</text></g>
<path class="rel ma_ma" pos_list="25_9" d="M-59.0254931375,-106.139474857L-45.7163855745,-85.2727805134"/>
<g transform="translate(-52.37 -95.71)"><text class="rel ma_ma">${_rel25_9}</text></g>
<path class="rel ma_ma" pos_list="47_25" d="M-70.8772308375,-129.358338848L-58.4302290344,-103.783298687"/>
<g transform="translate(-64.65 -116.57)"><text class="rel ma_ma">${_rel47_25}</text></g>
<path class="rel vent_vent" pos_list="28_11" d="M63.0161050897,-105.08115437L53.0591505943,-85.3708695142"/>
<g transform="translate(58.04 -95.23)"><text class="rel vent_vent">${_rel28_11}</text></g>
<path class="rel vent_vent" pos_list="51_28" d="M78.3824711912,-125.169160413L63.2739643168,-104.621367076"/>
<g transform="translate(70.83 -114.9)"><text class="rel vent_vent">${_rel51_28}</text></g>
<path class="rel pinya_pinya" pos_list="14_2" d="M117.537866498,45.9023779708L90.1117130322,53.9387507013"/>
<g transform="translate(103.82 49.92)"><text class="rel pinya_pinya">${_rel14_2}</text></g>
<path class="rel pinya_pinya" pos_list="15_2" d="M98.7093132429,81.5381721519L91.5516102571,53.6477749693"/>
<g transform="translate(95.13 67.59)"><text class="rel pinya_pinya">${_rel15_2}</text></g>
<path class="rel pinya_pinya" pos_list="32_14" d="M148.111465422,43.4872730596L122.385674875,42.843479004"/>
<g transform="translate(135.25 43.17)"><text class="rel pinya_pinya">${_rel32_14}</text></g>
<path class="rel pinya_pinya" pos_list="33_14" d="M131.91782034,75.7549138683L118.454238588,43.1691589459"/>
<g transform="translate(125.19 59.46)"><text class="rel pinya_pinya">${_rel33_14}</text></g>
<path class="rel pinya_pinya" pos_list="33_15" d="M130.124072029,77.2872980283L100.737559137,83.3999420903"/>
<g transform="translate(115.43 80.34)"><text class="rel pinya_pinya">${_rel33_15}</text></g>
<path class="rel pinya_pinya" pos_list="34_15" d="M106.375574227,106.449164293L99.8730636084,83.9842262308"/>
<g transform="translate(103.12 95.22)"><text class="rel pinya_pinya">${_rel34_15}</text></g>
<path class="rel pinya_pinya" pos_list="17_4" d="M26.6544137811,127.223859586L2.7296237144,102.414273245"/>
<g transform="translate(14.69 114.82)"><text class="rel pinya_pinya">${_rel17_4}</text></g>
<path class="rel pinya_pinya" pos_list="18_4" d="M-20.8780382013,126.841380395L4.6308439938,102.546244722"/>
<g transform="translate(-8.12 114.69)"><text class="rel pinya_pinya">${_rel18_4}</text></g>
<path class="rel pinya_pinya" pos_list="36_17" d="M42.2360894025,148.916085591L26.5422418475,128.044337427"/>
<g transform="translate(34.39 138.48)"><text class="rel pinya_pinya">${_rel36_17}</text></g>
<path class="rel pinya_pinya" pos_list="37_17" d="M1.39000760141,154.387331873L26.1454967341,124.855199801"/>
<g transform="translate(13.77 139.62)"><text class="rel pinya_pinya">${_rel37_17}</text></g>
<path class="rel pinya_pinya" pos_list="37_18" d="M1.25650128215,154.730668986L-17.5397739103,123.847598175"/>
<g transform="translate(-8.14 139.29)"><text class="rel pinya_pinya">${_rel37_18}</text></g>
<path class="rel pinya_pinya" pos_list="38_18" d="M-38.2440493034,146.734531895L-17.7432859401,123.394012059"/>
<g transform="translate(-27.99 135.06)"><text class="rel pinya_pinya">${_rel38_18}</text></g>
<path class="rel pinya_pinya" pos_list="20_6" d="M-92.6524352026,84.3057478558L-81.9177934458,51.6786245237"/>
<g transform="translate(-87.29 67.99)"><text class="rel pinya_pinya">${_rel20_6}</text></g>
<path class="rel pinya_pinya" pos_list="21_6" d="M-113.694849614,45.1011338144L-86.5883037878,51.932446711"/>
<g transform="translate(-100.14 48.52)"><text class="rel pinya_pinya">${_rel21_6}</text></g>
<path class="rel pinya_pinya" pos_list="40_20" d="M-102.261655929,106.840226484L-91.5265182004,80.9462827631"/>
<g transform="translate(-96.89 93.89)"><text class="rel pinya_pinya">${_rel40_20}</text></g>
<path class="rel pinya_pinya" pos_list="41_20" d="M-129.256965523,79.3835119905L-92.6836797388,82.1328445937"/>
<g transform="translate(-110.97 80.76)"><text class="rel pinya_pinya">${_rel41_20}</text></g>
<path class="rel pinya_pinya" pos_list="41_21" d="M-129.506953101,75.4063154915L-116.87408364,44.0984155674"/>
<g transform="translate(-123.19 59.75)"><text class="rel pinya_pinya">${_rel41_21}</text></g>
<path class="rel pinya_pinya" pos_list="42_21" d="M-143.638617555,40.939891598L-112.765344709,46.5853153245"/>
<g transform="translate(-128.2 43.76)"><text class="rel pinya_pinya">${_rel42_21}</text></g>
<path class="rel pinya_pinya" pos_list="23_8" d="M-112.816673204,-42.6961269795L-84.7771626075,-46.7576927123"/>
<g transform="translate(-98.8 -44.73)"><text class="rel pinya_pinya">${_rel23_8}</text></g>
<path class="rel pinya_pinya" pos_list="24_8" d="M-93.4444385234,-76.4234562459L-83.2754443497,-49.505791883"/>
<g transform="translate(-88.36 -62.96)"><text class="rel pinya_pinya">${_rel24_8}</text></g>
<path class="rel pinya_pinya" pos_list="44_23" d="M-144.005169234,-36.8446905001L-113.189703733,-42.0514144667"/>
<g transform="translate(-128.6 -39.45)"><text class="rel pinya_pinya">${_rel44_23}</text></g>
<path class="rel pinya_pinya" pos_list="45_23" d="M-127.655785234,-70.9266624324L-116.844570607,-39.3664063767"/>
<g transform="translate(-122.25 -55.15)"><text class="rel pinya_pinya">${_rel45_23}</text></g>
<path class="rel pinya_pinya" pos_list="45_24" d="M-129.060870405,-72.4582320926L-93.600010013,-79.9968773797"/>
<g transform="translate(-111.33 -76.23)"><text class="rel pinya_pinya">${_rel45_24}</text></g>
<path class="rel pinya_pinya" pos_list="46_24" d="M-105.694080825,-104.547391951L-95.6071449214,-76.7587233459"/>
<g transform="translate(-100.65 -90.65)"><text class="rel pinya_pinya">${_rel46_24}</text></g>
<path class="rel pinya_pinya" pos_list="26_10" d="M-21.6148636922,-119.574150482L1.43547609611,-96.3080166626"/>
<g transform="translate(-10.09 -107.94)"><text class="rel pinya_pinya">${_rel26_10}</text></g>
<path class="rel pinya_pinya" pos_list="27_10" d="M24.7386134116,-122.412098535L4.62572132705,-99.755436639"/>
<g transform="translate(14.68 -111.08)"><text class="rel pinya_pinya">${_rel27_10}</text></g>
<path class="rel pinya_pinya" pos_list="48_26" d="M-35.7954118974,-143.591471999L-21.4182342119,-118.4006498"/>
<g transform="translate(-28.61 -131.0)"><text class="rel pinya_pinya">${_rel48_26}</text></g>
<path class="rel pinya_pinya" pos_list="49_26" d="M3.5165373424,-149.960935186L-21.5544027519,-121.564978472"/>
<g transform="translate(-9.02 -135.76)"><text class="rel pinya_pinya">${_rel49_26}</text></g>
<path class="rel pinya_pinya" pos_list="49_27" d="M2.85500561003,-145.516964042L26.517268446,-121.285496674"/>
<g transform="translate(14.69 -133.4)"><text class="rel pinya_pinya">${_rel49_27}</text></g>
<path class="rel pinya_pinya" pos_list="50_27" d="M40.5902191321,-140.171902801L22.1143420182,-121.138041718"/>
<g transform="translate(31.35 -130.65)"><text class="rel pinya_pinya">${_rel50_27}</text></g>
<path class="rel pinya_pinya" pos_list="29_12" d="M98.537018249,-79.2283228572L86.6386751256,-47.4361549961"/>
<g transform="translate(92.59 -63.33)"><text class="rel pinya_pinya">${_rel29_12}</text></g>
<path class="rel pinya_pinya" pos_list="30_12" d="M117.599760198,-40.5576978513L86.677981158,-46.5401298504"/>
<g transform="translate(102.14 -43.55)"><text class="rel pinya_pinya">${_rel30_12}</text></g>
<path class="rel pinya_pinya" pos_list="52_29" d="M110.107136045,-104.728869416L100.29451478,-79.6696033967"/>
<g transform="translate(105.2 -92.2)"><text class="rel pinya_pinya">${_rel52_29}</text></g>
<path class="rel pinya_pinya" pos_list="53_29" d="M131.090126602,-72.8948588696L100.493112024,-77.7154775817"/>
<g transform="translate(115.79 -75.31)"><text class="rel pinya_pinya">${_rel53_29}</text></g>
<path class="rel pinya_pinya" pos_list="53_30" d="M132.214516963,-70.7973525465L122.43591428,-40.3924031899"/>
<g transform="translate(127.33 -55.59)"><text class="rel pinya_pinya">${_rel53_30}</text></g>
<path class="rel pinya_pinya" pos_list="54_30" d="M146.663981571,-34.345968585L118.668001136,-41.1872848356"/>
<g transform="translate(132.67 -37.77)"><text class="rel pinya_pinya">${_rel54_30}</text></g>
<path class="rel pinya" pos_list="2" d="M87.9591465613,54.4556470534"/>
<g transform="translate(87.96 54.46)"></g>
<path class="rel pinya_pinya" pos_list="14_15" d="M117.620881142,44.8340135744L99.2791967264,83.1261020502"/>
<g transform="translate(108.45 63.98)"><text class="rel pinya_pinya">${_rel14_15}</text></g>
<path class="rel pinya_pinya_pinya" pos_list="32_33_34" d="M147.330261501,39.4881071452L132.122120818,75.7056047252L109.899584595,107.02887072"/>
<g transform="translate(129.78 74.07)"></g>
<path class="rel pinya" pos_list="4" d="M0.105467761471,104.097375654"/>
<g transform="translate(0.11 104.1)"></g>
<path class="rel pinya_pinya" pos_list="17_18" d="M23.9401778371,125.384065526L-18.973399132,127.33371576"/>
<g transform="translate(2.48 126.36)"><text class="rel pinya_pinya">${_rel17_18}</text></g>
<path class="rel pinya_pinya_pinya" pos_list="36_37_38" d="M41.3873088722,146.14569365L3.71575136586,151.036533409L-36.3488592064,149.362728921"/>
<g transform="translate(2.92 148.85)"></g>
<path class="rel pinya" pos_list="6" d="M-83.5218211158,53.8410675621"/>
<g transform="translate(-83.52 53.84)"></g>
<path class="rel pinya_pinya" pos_list="20_21" d="M-95.4929874189,82.1626319839L-115.403617069,45.3002182083"/>
<g transform="translate(-105.45 63.73)"><text class="rel pinya_pinya">${_rel20_21}</text></g>
<path class="rel pinya_pinya_pinya" pos_list="40_41_42" d="M-102.512699378,109.321356007L-129.180663309,76.650282946L-142.696031902,43.2076145259"/>
<g transform="translate(-124.8 76.39)"></g>
<path class="rel pinya" pos_list="8" d="M-85.7218701607,-49.9272664743"/>
<g transform="translate(-85.72 -49.93)"></g>
<path class="rel pinya_pinya" pos_list="23_24" d="M-113.737445044,-40.5304513244L-93.9353201579,-77.6739731243"/>
<g transform="translate(-103.84 -59.1)"><text class="rel pinya_pinya">${_rel23_24}</text></g>
<path class="rel pinya_pinya_pinya" pos_list="44_45_46" d="M-140.430588947,-34.9176269205L-126.557185076,-70.7052111862L-101.631526255,-104.860844039"/>
<g transform="translate(-122.87 -70.16)"></g>
<path class="rel pinya" pos_list="10" d="M2.75448487171,-95.2638487874"/>
<g transform="translate(2.75 -95.26)"></g>
<path class="rel pinya_pinya" pos_list="26_27" d="M-20.9644656473,-120.157341133L26.6043290206,-119.590202075"/>
<g transform="translate(2.82 -119.87)"><text class="rel pinya_pinya">${_rel26_27}</text></g>
<path class="rel pinya_pinya_pinya" pos_list="48_49_50" d="M-37.238027551,-141.22397915L1.17899191489,-146.428667526L42.5256184819,-143.29532966"/>
<g transform="translate(2.16 -143.65)"></g>
<path class="rel pinya" pos_list="12" d="M89.4023756586,-48.8787144483"/>
<g transform="translate(89.4 -48.88)"></g>
<path class="rel pinya_pinya" pos_list="29_30" d="M96.6831633165,-76.124250711L118.567100549,-39.4812903382"/>
<g transform="translate(107.63 -57.8)"><text class="rel pinya_pinya">${_rel29_30}</text></g>
<path class="rel pinya_pinya_pinya" pos_list="52_53_54" d="M109.340689374,-104.508049732L131.030180412,-74.4325086024L145.446179258,-35.5171195814"/>
<g transform="translate(128.61 -71.49)"></g>
<path class="rel baix_crossa" pos_list="55_56" d="M41.0659542871,2.59283634578L40.85898178,32.0472772786"/>
<g transform="translate(40.96 17.32)"><text class="rel baix_crossa">${_rel55_56}</text></g>
<path class="rel baix_crossa" pos_list="55_57" d="M44.1635317594,2.11763615769L44.7344851877,-26.0775393745"/>
<g transform="translate(44.45 -11.98)"><text class="rel baix_crossa">${_rel55_57}</text></g>
<path class="rel baix_crossa" pos_list="62_63" d="M-18.2501425636,39.4804120737L-41.273356766,20.0594829353"/>
<g transform="translate(-29.76 29.77)"><text class="rel baix_crossa">${_rel62_63}</text></g>
<path class="rel baix_crossa" pos_list="62_64" d="M-17.0443340544,38.0503729493L10.8168928524,51.4728168054"/>
<g transform="translate(-3.11 44.76)"><text class="rel baix_crossa">${_rel62_64}</text></g>
<path class="rel baix_crossa" pos_list="69_70" d="M-17.9940582228,-29.8601279322L6.47780590755,-49.6215899482"/>
<g transform="translate(-5.76 -39.74)"><text class="rel baix_crossa">${_rel69_70}</text></g>
<path class="rel baix_crossa" pos_list="69_71" d="M-19.9601613927,-32.6339753344L-41.3042685368,-14.7624654373"/>
<g transform="translate(-30.63 -23.7)"><text class="rel baix_crossa">${_rel69_71}</text></g>
<path class="rel baix_agulla" pos_list="55_59" d="M44.2232609937,2.0758414766L20.1951085451,4.76400690834"/>
<g transform="translate(32.21 3.42)"><text class="rel baix_agulla">${_rel55_59}</text></g>
<path class="rel baix_agulla" pos_list="62_66" d="M-19.0747068869,35.613762366L-7.06818953975,18.7087407066"/>
<g transform="translate(-13.07 27.16)"><text class="rel baix_agulla">${_rel62_66}</text></g>
<path class="rel baix_agulla" pos_list="69_73" d="M-19.9868047911,-34.0801719953L-9.86730085162,-13.2459139886"/>
<g transform="translate(-14.93 -23.66)"><text class="rel baix_agulla">${_rel69_73}</text></g>
<path class="rel baix_contrafort" pos_list="55_58" d="M40.9735829394,2.13392029164L60.282954378,2.46916386506"/>
<g transform="translate(50.63 2.3)"><text class="rel baix_contrafort">${_rel55_58}</text></g>
<path class="rel baix_contrafort" pos_list="62_65" d="M-17.3927417543,39.3852911209L-29.8925812268,56.5365031797"/>
<g transform="translate(-23.64 47.96)"><text class="rel baix_contrafort">${_rel62_65}</text></g>
<path class="rel baix_contrafort" pos_list="69_72" d="M-15.4852384973,-33.1589114546L-26.3220917189,-51.8166161322"/>
<g transform="translate(-20.9 -42.49)"><text class="rel baix_contrafort">${_rel69_72}</text></g>
<path class="rel ma_baix_segon" pos_list="1_55_79" d="M100.92095908,1.93367051437L44.7030381038,4.05308084348L192.183120126,0.829731944927"/>
<g transform="translate(112.6 2.27)"></g>
<path class="rel ma_baix_segon" pos_list="5_62_80" d="M-46.8210302869,90.870697677L-15.6531332216,38.8026294294L-89.8000882155,164.350558994"/>
<g transform="translate(-50.76 98.01)"></g>
<path class="rel ma_baix_segon" pos_list="9_69_81" d="M-49.7341205694,-82.3242071451L-16.4543898178,-33.2276708279L-92.298105838,-159.231628127"/>
<g transform="translate(-52.83 -91.59)"></g>
<path class="rel vent_baix_segon" pos_list="3_55_79" d="M50.2520679047,90.0180782444L41.5421016923,0.958349960207L192.242259838,4.65186678282"/>
<g transform="translate(94.68 31.88)"></g>
<path class="rel vent_baix_segon" pos_list="11_55_79" d="M51.4512467194,-82.4122512262L40.2670712682,2.51437883024L190.997459512,4.23249394914"/>
<g transform="translate(94.24 -25.22)"></g>
<path class="rel vent_baix_segon" pos_list="7_62_80" d="M-96.7053019915,3.1634338004L-18.3887838562,34.8006326606L-91.0625297064,164.141741145"/>
<g transform="translate(-68.72 67.37)"></g>
<path class="rel vent_baix_segon" pos_list="3_62_80" d="M51.7436067381,91.5451189073L-18.5493797237,36.0446881732L-91.7289569582,167.006771285"/>
<g transform="translate(-19.51 98.2)"></g>
<path class="rel vent_baix_segon" pos_list="11_69_81" d="M50.5697744664,-84.8265648471L-16.387040765,-34.0407478014L-90.7817009938,-160.528744899"/>
<g transform="translate(-18.87 -93.13)"></g>
<path class="rel vent_baix_segon" pos_list="7_69_81" d="M-95.5008933949,4.52647673385L-16.2179267773,-30.3436720282L-92.1897548439,-160.185655804"/>
<g transform="translate(-67.97 -62.0)"></g>
<path class="rel agulla_baix_segon" pos_list="59_55_79" d="M24.2152137643,1.486752029L44.1182988447,1.75487838879L189.86398833,4.02437443252"/>
<g transform="translate(86.07 2.42)"></g>
<path class="rel agulla_baix_segon" pos_list="66_62_80" d="M-5.00329411907,21.7442781946L-19.2129846785,35.315860702L-91.8194374562,166.387954958"/>
<g transform="translate(-38.68 74.48)"></g>
<path class="rel agulla_baix_segon" pos_list="73_69_81" d="M-5.41965523635,-14.8152647462L-15.0609307091,-30.1940891744L-93.3626196394,-161.846043422"/>
<g transform="translate(-37.95 -68.95)"></g>
<path class="rel baix_segon_baix_segon" pos_list="55_79_62_80" d="M40.3814173226,2.45926529194L191.616501759,0.954773497586L-19.6163759354,36.3704416053L-88.9439361126,166.540193172"/>
<g transform="translate(30.86 51.58)"></g>
<path class="rel baix_segon_baix_segon" pos_list="62_80_69_81" d="M-15.4652126597,37.5991346835L-90.4174669796,162.561795202L-19.3888750928,-31.8715809165L-90.9102714389,-159.344862468"/>
<g transform="translate(-54.05 2.24)"></g>
<path class="rel baix_segon_baix_segon" pos_list="69_81_55_79" d="M-18.0618284526,-33.6811431183L-93.5373582169,-158.637510102L41.6610005795,0.946526971209L188.278122428,4.02424042768"/>
<g transform="translate(29.58 -46.84)"></g>
<path class="rel lateral_baix_segon" pos_list="60_55_79" d="M73.0949876751,26.5816673913L41.4231557053,2.63477042504L188.500713942,4.66768055641"/>
<g transform="translate(101.01 11.29)"></g>
<path class="rel lateral_baix_segon" pos_list="61_55_79" d="M73.5272330752,-20.9586309391L41.2321859452,0.407983939355L189.605813135,0.652421392806"/>
<g transform="translate(101.46 -6.63)"></g>
<path class="rel lateral_baix_segon" pos_list="67_62_80" d="M-53.7426459425,50.5435489935L-16.407581546,39.6042591252L-88.7726321499,165.168165955"/>
<g transform="translate(-52.97 85.11)"></g>
<path class="rel lateral_baix_segon" pos_list="68_62_80" d="M-13.2679467629,74.4840355606L-16.5830728149,35.4171131405L-88.8952049869,165.94583607"/>
<g transform="translate(-39.58 91.95)"></g>
<path class="rel lateral_baix_segon" pos_list="74_69_81" d="M-9.65303963557,-69.8052456813L-19.504384445,-30.642436945L-90.2600915371,-160.282159227"/>
<g transform="translate(-39.81 -86.91)"></g>
<path class="rel lateral_baix_segon" pos_list="75_69_81" d="M-54.7057116181,-46.960296044L-16.917180331,-31.5622356788L-92.6833715297,-160.641925252"/>
<g transform="translate(-54.77 -79.72)"></g>
</g>
</svg>