<svg xmlns="http://www.w3.org/2000/xml" xmlns:xlink="http://www.w3.org/1999/xlink" viewBox="-230 -190 460 380">
<g id="positions">
<g id="1" transform="translate(100.0,0.0) rotate(0.0)">
<g id="1_casteller" class="ma" transform="scale(.2 .2) rotate(-90)">
${_rep1}
</g>
<g transform="rotate(90) translate(0 6)">
<text id="1_text" class="ma vtext" text-anchor="middle">
1 ${_1} ${_c1}
</text>
</g>
</g>
<g id="2" transform="translate(86.6,25.0) rotate(30.0)">
<g id="2_casteller" class="pinya" transform="scale(.2 .2) rotate(-90)">
${_rep2}
</g>
<g transform="rotate(90) translate(0 6)">
<text id="2_text" class="pinya vtext" text-anchor="middle">
2 ${_2} ${_c2}
</text>
</g>
</g>
<g id="3" transform="translate(50.0,43.3) rotate(60.0)">
<g id="3_casteller" class="vent" transform="scale(.2 .2) rotate(-90)">
${_rep3}
</g>
<g transform="rotate(90) translate(0 6)">
<text id="3_text" class="vent vtext" text-anchor="middle">
3 ${_3} ${_c3}
</text>
</g>
</g>
<g id="4" transform="translate(0.0,50.0) rotate(90.0)">
<g id="4_casteller" class="pinya" transform="scale(.2 .2) rotate(-90)">
${_rep4}
</g>
<g transform="rotate(90) translate(0 6)">
<text id="4_text" class="pinya vtext" text-anchor="middle">
4 ${_4} ${_c4}
</text>
</g>
</g>
<g id="5" transform="translate(-50.0,43.3) rotate(120.0)">
<g id="5_casteller" class="ma" transform="scale(.2 .2) rotate(-90)">
${_rep5}
</g>
<g transform="rotate(90) translate(0 6)">
<text id="5_text" class="ma vtext" text-anchor="middle">
5 ${_5} ${_c5}
</text>
</g>
</g>
<g id="6" transform="translate(-86.6,25.0) rotate(150.0)">
<g id="6_casteller" class="pinya" transform="scale(.2 .2) rotate(-90)">
${_rep6}
</g>
<g transform="rotate(90) translate(0 6)">
<text id="6_text" class="pinya vtext" text-anchor="middle">
6 ${_6} ${_c6}
</text>
</g>
</g>
<g id="7" transform="translate(-100.0,0.0) rotate(180.0)">
<g id="7_casteller" class="vent" transform="scale(.2 .2) rotate(-90)">
${_rep7}
</g>
<g transform="rotate(90) translate(0 6)">
<text id="7_text" class="vent vtext" text-anchor="middle">
7 ${_7} ${_c7}
</text>
</g>
</g>
<g id="8" transform="translate(-86.6,-25.0) rotate(210.0)">
<g id="8_casteller" class="pinya" transform="scale(.2 .2) rotate(-90)">
${_rep8}
</g>
<g transform="rotate(90) translate(0 6)">
<text id="8_text" class="pinya vtext" text-anchor="middle">
8 ${_8} ${_c8}
</text>
</g>
</g>
<g id="9" transform="translate(-50.0,-43.3) rotate(240.0)">
<g id="9_casteller" class="ma" transform="scale(.2 .2) rotate(-90)">
${_rep9}
</g>
<g transform="rotate(90) translate(0 6)">
<text id="9_text" class="ma vtext" text-anchor="middle">
9 ${_9} ${_c9}
</text>
</g>
</g>
<g id="10" transform="translate(-0.0,-50.0) rotate(270.0)">
<g id="10_casteller" class="pinya" transform="scale(.2 .2) rotate(-90)">
${_rep10}
</g>
<g transform="rotate(90) translate(0 6)">
<text id="10_text" class="pinya vtext" text-anchor="middle">
10 ${_10} ${_c10}
</text>
</g>
</g>
<g id="11" transform="translate(50.0,-43.3) rotate(300.0)">
<g id="11_casteller" class="vent" transform="scale(.2 .2) rotate(-90)">
${_rep11}
</g>
<g transform="rotate(90) translate(0 6)">
<text id="11_text" class="vent vtext" text-anchor="middle">
11 ${_11} ${_c11}
</text>
</g>
</g>
<g id="12" transform="translate(86.6,-25.0) rotate(330.0)">
<g id="12_casteller" class="pinya" transform="scale(.2 .2) rotate(-90)">
${_rep12}
</g>
<g transform="rotate(90) translate(0 6)">
<text id="12_text" class="pinya vtext" text-anchor="middle">
12 ${_12} ${_c12}
</text>
</g>
</g>
<g id="13" transform="translate(125.0,0.0) rotate(0.0)">
<g id="13_casteller" class="ma" transform="scale(.2 .2) rotate(-90)">
${_rep13}
</g>
<g transform="rotate(90) translate(0 6)">
<text id="13_text" class="ma vtext" text-anchor="middle">
13 ${_13} ${_c13}
</text>
</g>
</g>
<g id="14" transform="translate(117.46,21.375) rotate(20.0)">
<g id="14_casteller" class="pinya" transform="scale(.2 .2) rotate(-90)">
${_rep14}
</g>
<g transform="rotate(90) translate(0 6)">
<text id="14_text" class="pinya vtext" text-anchor="middle">
14 ${_14} ${_c14}
</text>
</g>
</g>
<g id="15" transform="translate(95.76,40.175) rotate(40.0)">
<g id="15_casteller" class="pinya" transform="scale(.2 .2) rotate(-90)">
${_rep15}
</g>
<g transform="rotate(90) translate(0 6)">
<text id="15_text" class="pinya vtext" text-anchor="middle">
15 ${_15} ${_c15}
</text>
</g>
</g>
<g id="16" transform="translate(62.5,54.125) rotate(60.0)">
<g id="16_casteller" class="vent" transform="scale(.2 .2) rotate(-90)">
${_rep16}
</g>
<g transform="rotate(90) translate(0 6)">
<text id="16_text" class="vent vtext" text-anchor="middle">
16 ${_16} ${_c16}
</text>
</g>
</g>
<g id="17" transform="translate(21.71,61.55) rotate(80.0)">
<g id="17_casteller" class="pinya" transform="scale(.2 .2) rotate(-90)">
${_rep17}
</g>
<g transform="rotate(90) translate(0 6)">
<text id="17_text" class="pinya vtext" text-anchor="middle">
17 ${_17} ${_c17}
</text>
</g>
</g>
<g id="18" transform="translate(-21.71,61.55) rotate(100.0)">
<g id="18_casteller" class="pinya" transform="scale(.2 .2) rotate(-90)">
${_rep18}
</g>
<g transform="rotate(90) translate(0 6)">
<text id="18_text" class="pinya vtext" text-anchor="middle">
18 ${_18} ${_c18}
</text>
</g>
</g>
<g id="19" transform="translate(-62.5,54.125) rotate(120.0)">
<g id="19_casteller" class="ma" transform="scale(.2 .2) rotate(-90)">
${_rep19}
</g>
<g transform="rotate(90) translate(0 6)">
<text id="19_text" class="ma vtext" text-anchor="middle">
19 ${_19} ${_c19}
</text>
</g>
</g>
<g id="20" transform="translate(-95.76,40.175) rotate(140.0)">
<g id="20_casteller" class="pinya" transform="scale(.2 .2) rotate(-90)">
${_rep20}
</g>
<g transform="rotate(90) translate(0 6)">
<text id="20_text" class="pinya vtext" text-anchor="middle">
20 ${_20} ${_c20}
</text>
</g>
</g>
<g id="21" transform="translate(-117.46,21.375) rotate(160.0)">
<g id="21_casteller" class="pinya" transform="scale(.2 .2) rotate(-90)">
${_rep21}
</g>
<g transform="rotate(90) translate(0 6)">
<text id="21_text" class="pinya vtext" text-anchor="middle">
21 ${_21} ${_c21}
</text>
</g>
</g>
<g id="22" transform="translate(-125.0,0.0) rotate(180.0)">
<g id="22_casteller" class="vent" transform="scale(.2 .2) rotate(-90)">
${_rep22}
</g>
<g transform="rotate(90) translate(0 6)">
<text id="22_text" class="vent vtext" text-anchor="middle">
22 ${_22} ${_c22}
</text>
</g>
</g>
<g id="23" transform="translate(-117.46,-21.375) rotate(200.0)">
<g id="23_casteller" class="pinya" transform="scale(.2 .2) rotate(-90)">
${_rep23}
</g>
<g transform="rotate(90) translate(0 6)">
<text id="23_text" class="pinya vtext" text-anchor="middle">
23 ${_23} ${_c23}
</text>
</g>
</g>
<g id="24" transform="translate(-95.76,-40.175) rotate(220.0)">
<g id="24_casteller" class="pinya" transform="scale(.2 .2) rotate(-90)">
${_rep24}
</g>
<g transform="rotate(90) translate(0 6)">
<text id="24_text" class="pinya vtext" text-anchor="middle">
24 ${_24} ${_c24}
</text>
</g>
</g>
<g id="25" transform="translate(-62.5,-54.125) rotate(240.0)">
<g id="25_casteller" class="ma" transform="scale(.2 .2) rotate(-90)">
${_rep25}
</g>
<g transform="rotate(90) translate(0 6)">
<text id="25_text" class="ma vtext" text-anchor="middle">
25 ${_25} ${_c25}
</text>
</g>
</g>
<g id="26" transform="translate(-21.71,-61.55) rotate(260.0)">
<g id="26_casteller" class="pinya" transform="scale(.2 .2) rotate(-90)">
${_rep26}
</g>
<g transform="rotate(90) translate(0 6)">
<text id="26_text" class="pinya vtext" text-anchor="middle">
26 ${_26} ${_c26}
</text>
</g>
</g>
<g id="27" transform="translate(21.71,-61.55) rotate(280.0)">
<g id="27_casteller" class="pinya" transform="scale(.2 .2) rotate(-90)">
${_rep27}
</g>
<g transform="rotate(90) translate(0 6)">
<text id="27_text" class="pinya vtext" text-anchor="middle">
27 ${_27} ${_c27}
</text>
</g>
</g>
<g id="28" transform="translate(62.5,-54.125) rotate(300.0)">
<g id="28_casteller" class="vent" transform="scale(.2 .2) rotate(-90)">
${_rep28}
</g>
<g transform="rotate(90) translate(0 6)">
<text id="28_text" class="vent vtext" text-anchor="middle">
28 ${_28} ${_c28}
</text>
</g>
</g>
<g id="29" transform="translate(95.76,-40.175) rotate(320.0)">
<g id="29_casteller" class="pinya" transform="scale(.2 .2) rotate(-90)">
${_rep29}
</g>
<g transform="rotate(90) translate(0 6)">
<text id="29_text" class="pinya vtext" text-anchor="middle">
29 ${_29} ${_c29}
</text>
</g>
</g>
<g id="30" transform="translate(117.46,-21.375) rotate(340.0)">
<g id="30_casteller" class="pinya" transform="scale(.2 .2) rotate(-90)">
${_rep30}
</g>
<g transform="rotate(90) translate(0 6)">
<text id="30_text" class="pinya vtext" text-anchor="middle">
30 ${_30} ${_c30}
</text>
</g>
</g>
<g id="31" transform="translate(150.0,0.0) rotate(0.0)">
<g id="31_casteller" class="ma" transform="scale(.2 .2) rotate(-90)">
${_rep31}
</g>
<g transform="rotate(90) translate(0 6)">
<text id="31_text" class="ma vtext" text-anchor="middle">
31 ${_31} ${_c31}
</text>
</g>
</g>
<g id="32" transform="translate(144.89,19.41) rotate(15.0)">
<g id="32_casteller" class="pinya" transform="scale(.2 .2) rotate(-90)">
${_rep32}
</g>
<g transform="rotate(90) translate(0 6)">
<text id="32_text" class="pinya vtext" text-anchor="middle">
32 ${_32} ${_c32}
</text>
</g>
</g>
<g id="33" transform="translate(129.9,37.5) rotate(30.0)">
<g id="33_casteller" class="pinya" transform="scale(.2 .2) rotate(-90)">
${_rep33}
</g>
<g transform="rotate(90) translate(0 6)">
<text id="33_text" class="pinya vtext" text-anchor="middle">
33 ${_33} ${_c33}
</text>
</g>
</g>
<g id="34" transform="translate(106.07,53.035) rotate(45.0)">
<g id="34_casteller" class="pinya" transform="scale(.2 .2) rotate(-90)">
${_rep34}
</g>
<g transform="rotate(90) translate(0 6)">
<text id="34_text" class="pinya vtext" text-anchor="middle">
34 ${_34} ${_c34}
</text>
</g>
</g>
<g id="35" transform="translate(75.0,64.95) rotate(60.0)">
<g id="35_casteller" class="vent" transform="scale(.2 .2) rotate(-90)">
${_rep35}
</g>
<g transform="rotate(90) translate(0 6)">
<text id="35_text" class="vent vtext" text-anchor="middle">
35 ${_35} ${_c35}
</text>
</g>
</g>
<g id="36" transform="translate(38.82,72.445) rotate(75.0)">
<g id="36_casteller" class="pinya" transform="scale(.2 .2) rotate(-90)">
${_rep36}
</g>
<g transform="rotate(90) translate(0 6)">
<text id="36_text" class="pinya vtext" text-anchor="middle">
36 ${_36} ${_c36}
</text>
</g>
</g>
<g id="37" transform="translate(0.0,75.0) rotate(90.0)">
<g id="37_casteller" class="pinya" transform="scale(.2 .2) rotate(-90)">
${_rep37}
</g>
<g transform="rotate(90) translate(0 6)">
<text id="37_text" class="pinya vtext" text-anchor="middle">
37 ${_37} ${_c37}
</text>
</g>
</g>
<g id="38" transform="translate(-38.82,72.445) rotate(105.0)">
<g id="38_casteller" class="pinya" transform="scale(.2 .2) rotate(-90)">
${_rep38}
</g>
<g transform="rotate(90) translate(0 6)">
<text id="38_text" class="pinya vtext" text-anchor="middle">
38 ${_38} ${_c38}
</text>
</g>
</g>
<g id="39" transform="translate(-75.0,64.95) rotate(120.0)">
<g id="39_casteller" class="ma" transform="scale(.2 .2) rotate(-90)">
${_rep39}
</g>
<g transform="rotate(90) translate(0 6)">
<text id="39_text" class="ma vtext" text-anchor="middle">
39 ${_39} ${_c39}
</text>
</g>
</g>
<g id="40" transform="translate(-106.07,53.035) rotate(135.0)">
<g id="40_casteller" class="pinya" transform="scale(.2 .2) rotate(-90)">
${_rep40}
</g>
<g transform="rotate(90) translate(0 6)">
<text id="40_text" class="pinya vtext" text-anchor="middle">
40 ${_40} ${_c40}
</text>
</g>
</g>
<g id="41" transform="translate(-129.9,37.5) rotate(150.0)">
<g id="41_casteller" class="pinya" transform="scale(.2 .2) rotate(-90)">
${_rep41}
</g>
<g transform="rotate(90) translate(0 6)">
<text id="41_text" class="pinya vtext" text-anchor="middle">
41 ${_41} ${_c41}
</text>
</g>
</g>
<g id="42" transform="translate(-144.89,19.41) rotate(165.0)">
<g id="42_casteller" class="pinya" transform="scale(.2 .2) rotate(-90)">
${_rep42}
</g>
<g transform="rotate(90) translate(0 6)">
<text id="42_text" class="pinya vtext" text-anchor="middle">
42 ${_42} ${_c42}
</text>
</g>
</g>
<g id="43" transform="translate(-150.0,0.0) rotate(180.0)">
<g id="43_casteller" class="vent" transform="scale(.2 .2) rotate(-90)">
${_rep43}
</g>
<g transform="rotate(90) translate(0 6)">
<text id="43_text" class="vent vtext" text-anchor="middle">
43 ${_43} ${_c43}
</text>
</g>
</g>
<g id="44" transform="translate(-144.89,-19.41) rotate(195.0)">
<g id="44_casteller" class="pinya" transform="scale(.2 .2) rotate(-90)">
${_rep44}
</g>
<g transform="rotate(90) translate(0 6)">
<text id="44_text" class="pinya vtext" text-anchor="middle">
44 ${_44} ${_c44}
</text>
</g>
</g>
<g id="45" transform="translate(-129.9,-37.5) rotate(210.0)">
<g id="45_casteller" class="pinya" transform="scale(.2 .2) rotate(-90)">
${_rep45}
</g>
<g transform="rotate(90) translate(0 6)">
<text id="45_text" class="pinya vtext" text-anchor="middle">
45 ${_45} ${_c45}
</text>
</g>
</g>
<g id="46" transform="translate(-106.07,-53.035) rotate(225.0)">
<g id="46_casteller" class="pinya" transform="scale(.2 .2) rotate(-90)">
${_rep46}
</g>
<g transform="rotate(90) translate(0 6)">
<text id="46_text" class="pinya vtext" text-anchor="middle">
46 ${_46} ${_c46}
</text>
</g>
</g>
<g id="47" transform="translate(-75.0,-64.95) rotate(240.0)">
<g id="47_casteller" class="ma" transform="scale(.2 .2) rotate(-90)">
${_rep47}
</g>
<g transform="rotate(90) translate(0 6)">
<text id="47_text" class="ma vtext" text-anchor="middle">
47 ${_47} ${_c47}
</text>
</g>
</g>
<g id="48" transform="translate(-38.82,-72.445) rotate(255.0)">
<g id="48_casteller" class="pinya" transform="scale(.2 .2) rotate(-90)">
${_rep48}
</g>
<g transform="rotate(90) translate(0 6)">
<text id="48_text" class="pinya vtext" text-anchor="middle">
48 ${_48} ${_c48}
</text>
</g>
</g>
<g id="49" transform="translate(-0.0,-75.0) rotate(270.0)">
<g id="49_casteller" class="pinya" transform="scale(.2 .2) rotate(-90)">
${_rep49}
</g>
<g transform="rotate(90) translate(0 6)">
<text id="49_text" class="pinya vtext" text-anchor="middle">
49 ${_49} ${_c49}
</text>
</g>
</g>
<g id="50" transform="translate(38.82,-72.445) rotate(285.0)">
<g id="50_casteller" class="pinya" transform="scale(.2 .2) rotate(-90)">
${_rep50}
</g>
<g transform="rotate(90) translate(0 6)">
<text id="50_text" class="pinya vtext" text-anchor="middle">
50 ${_50} ${_c50}
</text>
</g>
</g>
<g id="51" transform="translate(75.0,-64.95) rotate(300.0)">
<g id="51_casteller" class="vent" transform="scale(.2 .2) rotate(-90)">
${_rep51}
</g>
<g transform="rotate(90) translate(0 6)">
<text id="51_text" class="vent vtext" text-anchor="middle">
51 ${_51} ${_c51}
</text>
</g>
</g>
<g id="52" transform="translate(106.07,-53.035) rotate(315.0)">
<g id="52_casteller" class="pinya" transform="scale(.2 .2) rotate(-90)">
${_rep52}
</g>
<g transform="rotate(90) translate(0 6)">
<text id="52_text" class="pinya vtext" text-anchor="middle">
52 ${_52} ${_c52}
</text>
</g>
</g>
<g id="53" transform="translate(129.9,-37.5) rotate(330.0)">
<g id="53_casteller" class="pinya" transform="scale(.2 .2) rotate(-90)">
${_rep53}
</g>
<g transform="rotate(90) translate(0 6)">
<text id="53_text" class="pinya vtext" text-anchor="middle">
53 ${_53} ${_c53}
</text>
</g>
</g>
<g id="54" transform="translate(144.89,-19.41) rotate(345.0)">
<g id="54_casteller" class="pinya" transform="scale(.2 .2) rotate(-90)">
${_rep54}
</g>
<g transform="rotate(90) translate(0 6)">
<text id="54_text" class="pinya vtext" text-anchor="middle">
54 ${_54} ${_c54}
</text>
</g>
</g>
<g id="baixos_gp_0" transform="translate(40.0 0.0) rotate(0.0)">
<g id="55" transform="translate(0.0,0.0) rotate(0.0)">
<g id="55_casteller" class="baix" transform="scale(.2 .2) rotate(-90)">
${_rep55}
</g>
<g transform="rotate(90) translate(0 6)">
<text id="55_text" class="baix vtext" text-anchor="middle">
55 ${_55} ${_c55}
</text>
</g>
</g>
<g id="56" transform="translate(0.0,15.0) rotate(90.0)">
<g id="56_casteller" class="crossa" transform="scale(.2 .2) rotate(-90)">
${_rep56}
</g>
<g transform="rotate(90) translate(0 6)">
<text id="56_text" class="crossa vtext" text-anchor="middle">
56 ${_56} ${_c56}
</text>
</g>
</g>
<g id="57" transform="translate(0.0,-15.0) rotate(-90.0)">
<g id="57_casteller" class="crossa" transform="scale(.2 .2) rotate(-90)">
${_rep57}
</g>
<g transform="rotate(90) translate(0 6)">
<text id="57_text" class="crossa vtext" text-anchor="middle">
57 ${_57} ${_c57}
</text>
</g>
</g>
<g id="58" transform="translate(20.0,0.0) rotate(0.0)">
<g id="58_casteller" class="contrafort" transform="scale(.2 .2) rotate(-90)">
${_rep58}
</g>
<g transform="rotate(90) translate(0 6)">
<text id="58_text" class="contrafort vtext" text-anchor="middle">
58 ${_58} ${_c58}
</text>
</g>
</g>
<g id="59" transform="translate(-20.0,0.0) rotate(0.0)">
<g id="59_casteller" class="agulla" transform="scale(.2 .2) rotate(-90)">
${_rep59}
</g>
<g transform="rotate(90) translate(0 6)">
<text id="59_text" class="agulla vtext" text-anchor="middle">
59 ${_59} ${_c59}
</text>
</g>
</g>
<g id="60" transform="translate(30.0,12.5) rotate(30.0)">
<g id="60_casteller" class="lateral" transform="scale(.2 .2) rotate(-90)">
${_rep60}
</g>
<g transform="rotate(90) translate(0 6)">
<text id="60_text" class="lateral vtext" text-anchor="middle">
60 ${_60} ${_c60}
</text>
</g>
</g>
<g id="61" transform="translate(30.0,-12.5) rotate(-30.0)">
<g id="61_casteller" class="lateral" transform="scale(.2 .2) rotate(-90)">
${_rep61}
</g>
<g transform="rotate(90) translate(0 6)">
<text id="61_text" class="lateral vtext" text-anchor="middle">
61 ${_61} ${_c61}
</text>
</g>
</g>
</g>
<g id="baixos_gp_1" transform="translate(-20.0 34.64) rotate(120.0)">
<g id="62" transform="translate(0.0,0.0) rotate(0.0)">
<g id="62_casteller" class="baix" transform="scale(.2 .2) rotate(-90)">
${_rep62}
</g>
<g transform="rotate(90) translate(0 6)">
<text id="62_text" class="baix vtext" text-anchor="middle">
62 ${_62} ${_c62}
</text>
</g>
</g>
<g id="63" transform="translate(0.0,15.0) rotate(90.0)">
<g id="63_casteller" class="crossa" transform="scale(.2 .2) rotate(-90)">
${_rep63}
</g>
<g transform="rotate(90) translate(0 6)">
<text id="63_text" class="crossa vtext" text-anchor="middle">
63 ${_63} ${_c63}
</text>
</g>
</g>
<g id="64" transform="translate(0.0,-15.0) rotate(-90.0)">
<g id="64_casteller" class="crossa" transform="scale(.2 .2) rotate(-90)">
${_rep64}
</g>
<g transform="rotate(90) translate(0 6)">
<text id="64_text" class="crossa vtext" text-anchor="middle">
64 ${_64} ${_c64}
</text>
</g>
</g>
<g id="65" transform="translate(20.0,0.0) rotate(0.0)">
<g id="65_casteller" class="contrafort" transform="scale(.2 .2) rotate(-90)">
${_rep65}
</g>
<g transform="rotate(90) translate(0 6)">
<text id="65_text" class="contrafort vtext" text-anchor="middle">
65 ${_65} ${_c65}
</text>
</g>
</g>
<g id="66" transform="translate(-20.0,0.0) rotate(0.0)">
<g id="66_casteller" class="agulla" transform="scale(.2 .2) rotate(-90)">
${_rep66}
</g>
<g transform="rotate(90) translate(0 6)">
<text id="66_text" class="agulla vtext" text-anchor="middle">
66 ${_66} ${_c66}
</text>
</g>
</g>
<g id="67" transform="translate(30.0,12.5) rotate(30.0)">
<g id="67_casteller" class="lateral" transform="scale(.2 .2) rotate(-90)">
${_rep67}
</g>
<g transform="rotate(90) translate(0 6)">
<text id="67_text" class="lateral vtext" text-anchor="middle">
67 ${_67} ${_c67}
</text>
</g>
</g>
<g id="68" transform="translate(30.0,-12.5) rotate(-30.0)">
<g id="68_casteller" class="lateral" transform="scale(.2 .2) rotate(-90)">
${_rep68}
</g>
<g transform="rotate(90) translate(0 6)">
<text id="68_text" class="lateral vtext" text-anchor="middle">
68 ${_68} ${_c68}
</text>
</g>
</g>
</g>
<g id="baixos_gp_2" transform="translate(-20.0 -34.64) rotate(240.0)">
<g id="69" transform="translate(0.0,0.0) rotate(0.0)">
<g id="69_casteller" class="baix" transform="scale(.2 .2) rotate(-90)">
${_rep69}
</g>
<g transform="rotate(90) translate(0 6)">
<text id="69_text" class="baix vtext" text-anchor="middle">
69 ${_69} ${_c69}
</text>
</g>
</g>
<g id="70" transform="translate(0.0,15.0) rotate(90.0)">
<g id="70_casteller" class="crossa" transform="scale(.2 .2) rotate(-90)">
${_rep70}
</g>
<g transform="rotate(90) translate(0 6)">
<text id="70_text" class="crossa vtext" text-anchor="middle">
70 ${_70} ${_c70}
</text>
</g>
</g>
<g id="71" transform="translate(0.0,-15.0) rotate(-90.0)">
<g id="71_casteller" class="crossa" transform="scale(.2 .2) rotate(-90)">
${_rep71}
</g>
<g transform="rotate(90) translate(0 6)">
<text id="71_text" class="crossa vtext" text-anchor="middle">
71 ${_71} ${_c71}
</text>
</g>
</g>
<g id="72" transform="translate(20.0,0.0) rotate(0.0)">
<g id="72_casteller" class="contrafort" transform="scale(.2 .2) rotate(-90)">
${_rep72}
</g>
<g transform="rotate(90) translate(0 6)">
<text id="72_text" class="contrafort vtext" text-anchor="middle">
72 ${_72} ${_c72}
</text>
</g>
</g>
<g id="73" transform="translate(-20.0,0.0) rotate(0.0)">
<g id="73_casteller" class="agulla" transform="scale(.2 .2) rotate(-90)">
${_rep73}
</g>
<g transform="rotate(90) translate(0 6)">
<text id="73_text" class="agulla vtext" text-anchor="middle">
73 ${_73} ${_c73}
</text>
</g>
</g>
<g id="74" transform="translate(30.0,12.5) rotate(30.0)">
<g id="74_casteller" class="lateral" transform="scale(.2 .2) rotate(-90)">
${_rep74}
</g>
<g transform="rotate(90) translate(0 6)">
<text id="74_text" class="lateral vtext" text-anchor="middle">
74 ${_74} ${_c74}
</text>
</g>
</g>
<g id="75" transform="translate(30.0,-12.5) rotate(-30.0)">
<g id="75_casteller" class="lateral" transform="scale(.2 .2) rotate(-90)">
${_rep75}
</g>
<g transform="rotate(90) translate(0 6)">
<text id="75_text" class="lateral vtext" text-anchor="middle">
75 ${_75} ${_c75}
</text>
</g>
</g>
</g>
<g id="portacrossa_gp_0" transform="translate(35.0 60.62) rotate(60.0)">
<g id="76" transform="translate(0.0,0.0) rotate(0.0)">
<g id="76_casteller" class="portacrossa" transform="scale(.2 .2) rotate(-90)">
${_rep76}
</g>
<g transform="rotate(90) translate(0 6)">
<text id="76_text" class="portacrossa vtext" text-anchor="middle">
76 ${_76} ${_c76}
</text>
</g>
</g>
</g>
<g id="portacrossa_gp_1" transform="translate(-70.0 0.0) rotate(180.0)">
<g id="77" transform="translate(0.0,0.0) rotate(0.0)">
<g id="77_casteller" class="portacrossa" transform="scale(.2 .2) rotate(-90)">
${_rep77}
</g>
<g transform="rotate(90) translate(0 6)">
<text id="77_text" class="portacrossa vtext" text-anchor="middle">
77 ${_77} ${_c77}
</text>
</g>
</g>
</g>
<g id="portacrossa_gp_2" transform="translate(35.0 -60.62) rotate(300.0)">
<g id="78" transform="translate(0.0,0.0) rotate(0.0)">
<g id="78_casteller" class="portacrossa" transform="scale(.2 .2) rotate(-90)">
${_rep78}
</g>
<g transform="rotate(90) translate(0 6)">
<text id="78_text" class="portacrossa vtext" text-anchor="middle">
78 ${_78} ${_c78}
</text>
</g>
</g>
</g>
<g id="79" transform="translate(187.5,0.0) rotate(0.0)">
<g id="79_casteller" class="segon" transform="scale(.2 .2) rotate(-90)">
${_rep79}
</g>
<g transform="rotate(90) translate(0 6)">
<text id="79_text" class="segon vtext" text-anchor="middle">
79 ${_79} ${_c79}
</text>
</g>
</g>
<g id="80" transform="translate(-93.75,81.19) rotate(120.0)">
<g id="80_casteller" class="segon" transform="scale(.2 .2) rotate(-90)">
${_rep80}
</g>
<g transform="rotate(90) translate(0 6)">
<text id="80_text" class="segon vtext" text-anchor="middle">
80 ${_80} ${_c80}
</text>
</g>
</g>
<g id="81" transform="translate(-93.75,-81.19) rotate(240.0)">
<g id="81_casteller" class="segon" transform="scale(.2 .2) rotate(-90)">
${_rep81}
</g>
<g transform="rotate(90) translate(0 6)">
<text id="81_text" class="segon vtext" text-anchor="middle">
81 ${_81} ${_c81}
</text>
</g>
</g>
</g>
<g id="relations">
<path class="rel ma_ma" pos_list="13_1" d="M125.527443911,3.01537637323L102.480053504,1.42997976934"/>
<g transform="translate(114.0 2.22)"><text class="rel ma_ma">${_rel13_1}</text></g>
<path class="rel ma_ma" pos_list="31_13" d="M152.421290055,0.413292754969L126.095118203,1.5060910284"/>
<g transform="translate(139.26 0.96)"><text class="rel ma_ma">${_rel31_13}</text></g>
<path class="rel vent_vent" pos_list="16_3" d="M65.8540024399,56.6206026713L52.8129973803,44.8506517343"/>
<g transform="translate(59.33 50.74)"><text class="rel vent_vent">${_rel16_3}</text></g>
<path class="rel vent_vent" pos_list="35_16" d="M76.6825279866,69.0655547201L63.6997266955,54.7667307295"/>
<g transform="translate(70.19 61.92)"><text class="rel vent_vent">${_rel35_16}</text></g>
<path class="rel ma_ma" pos_list="19_5" d="M-60.6469085645,58.7450145134L-46.2763800038,43.3692275405"/>
<g transform="translate(-53.46 51.06)"><text class="rel ma_ma">${_rel19_5}</text></g>
<path class="rel ma_ma" pos_list="39_19" d="M-72.1683108941,68.3426903596L-60.3098274267,58.949597352"/>
<g transform="translate(-66.24 63.65)"><text class="rel ma_ma">${_rel39_19}</text></g>
<path class="rel vent_vent" pos_list="22_7" d="M-121.528489532,2.54139769722L-98.2843781768,2.82148303031"/>
<g transform="translate(-109.91 2.68)"><text class="rel vent_vent">${_rel22_7}</text></g>
<path class="rel vent_vent" pos_list="43_22" d="M-145.862411394,1.7918837152L-120.586785722,4.72248136922"/>
<g transform="translate(-133.22 3.26)"><text class="rel vent_vent">${_rel43_22}</text></g>
<path class="rel ma_ma" pos_list="25_9" d="M-59.24051151,-51.936532634L-45.396411422,-40.6322723103"/>
<g transform="translate(-52.32 -46.28)"><text class="rel ma_ma">${_rel25_9}</text></g>
<path class="rel ma_ma" pos_list="47_25" d="M-70.5851097785,-63.7922865972L-59.4753669728,-52.1296920503"/>
<g transform="translate(-65.03 -57.96)"><text class="rel ma_ma">${_rel47_25}</text></g>
<path class="rel vent_vent" pos_list="28_11" d="M63.2342466809,-51.4064566582L52.3436117096,-41.8746620953"/>
<g transform="translate(57.79 -46.64)"><text class="rel vent_vent">${_rel28_11}</text></g>
<path class="rel vent_vent" pos_list="51_28" d="M77.0929524102,-61.5571987708L64.3030622366,-53.3496859916"/>
<g transform="translate(70.7 -57.45)"><text class="rel vent_vent">${_rel51_28}</text></g>
<path class="rel pinya_pinya" pos_list="14_2" d="M121.311050719,25.6143242523L87.2380990795,27.7844409359"/>
<g transform="translate(104.27 26.7)"><text class="rel pinya_pinya">${_rel14_2}</text></g>
<path class="rel pinya_pinya" pos_list="15_2" d="M95.8567173582,43.8938746385L88.2917602501,26.9616473586"/>
<g transform="translate(92.07 35.43)"><text class="rel pinya_pinya">${_rel15_2}</text></g>
<path class="rel pinya_pinya" pos_list="32_14" d="M147.790112585,23.4650094449L121.225808068,23.5805722268"/>
<g transform="translate(134.51 23.52)"><text class="rel pinya_pinya">${_rel32_14}</text></g>
<path class="rel pinya_pinya" pos_list="33_14" d="M131.464981067,40.9470722886L119.315751833,25.3433198314"/>
<g transform="translate(125.39 33.15)"><text class="rel pinya_pinya">${_rel33_14}</text></g>
<path class="rel pinya_pinya" pos_list="33_15" d="M133.139971529,37.5234553989L96.9740095312,44.4376467054"/>
<g transform="translate(115.06 40.98)"><text class="rel pinya_pinya">${_rel33_15}</text></g>
<path class="rel pinya_pinya" pos_list="34_15" d="M107.983832616,53.5233754526L97.5415260634,40.7820599213"/>
<g transform="translate(102.76 47.15)"><text class="rel pinya_pinya">${_rel34_15}</text></g>
<path class="rel pinya_pinya" pos_list="17_4" d="M24.3304581002,61.6811070893L3.64467757935,50.307859954"/>
<g transform="translate(13.99 55.99)"><text class="rel pinya_pinya">${_rel17_4}</text></g>
<path class="rel pinya_pinya" pos_list="18_4" d="M-18.0002198727,65.7300920573L3.87453436434,54.1180907525"/>
<g transform="translate(-7.06 59.92)"><text class="rel pinya_pinya">${_rel18_4}</text></g>
<path class="rel pinya_pinya" pos_list="36_17" d="M39.4064033995,73.723241969L23.6963266831,66.4831795358"/>
<g transform="translate(31.55 70.1)"><text class="rel pinya_pinya">${_rel36_17}</text></g>
<path class="rel pinya_pinya" pos_list="37_17" d="M3.62176693985,76.1772548788L22.2903306431,62.046476042"/>
<g transform="translate(12.96 69.11)"><text class="rel pinya_pinya">${_rel37_17}</text></g>
<path class="rel pinya_pinya" pos_list="37_18" d="M3.26491623038,76.7645266348L-19.990712262,64.6123446009"/>
<g transform="translate(-8.36 70.69)"><text class="rel pinya_pinya">${_rel37_18}</text></g>
<path class="rel pinya_pinya" pos_list="38_18" d="M-37.1434475313,76.9236573611L-21.0074915618,62.3696471078"/>
<g transform="translate(-29.08 69.65)"><text class="rel pinya_pinya">${_rel38_18}</text></g>
<path class="rel pinya_pinya" pos_list="20_6" d="M-94.9265916237,41.2354124897L-84.5970813588,27.4778959123"/>
<g transform="translate(-89.76 34.36)"><text class="rel pinya_pinya">${_rel20_6}</text></g>
<path class="rel pinya_pinya" pos_list="21_6" d="M-114.403634409,23.1329401577L-86.1875731878,25.2201646582"/>
<g transform="translate(-100.3 24.18)"><text class="rel pinya_pinya">${_rel21_6}</text></g>
<path class="rel pinya_pinya" pos_list="40_20" d="M-102.302589131,57.2377163491L-92.8545394658,40.9101380777"/>
<g transform="translate(-97.58 49.07)"><text class="rel pinya_pinya">${_rel40_20}</text></g>
<path class="rel pinya_pinya" pos_list="41_20" d="M-127.652674727,39.7050668877L-93.5499652616,44.9032662594"/>
<g transform="translate(-110.6 42.3)"><text class="rel pinya_pinya">${_rel41_20}</text></g>
<path class="rel pinya_pinya" pos_list="41_21" d="M-127.709413246,37.6342925429L-117.283462332,23.3520469261"/>
<g transform="translate(-122.5 30.49)"><text class="rel pinya_pinya">${_rel41_21}</text></g>
<path class="rel pinya_pinya" pos_list="42_21" d="M-143.197919094,23.7965820054L-114.304969637,25.1030984179"/>
<g transform="translate(-128.75 24.45)"><text class="rel pinya_pinya">${_rel42_21}</text></g>
<path class="rel pinya_pinya" pos_list="23_8" d="M-113.930347793,-20.830205776L-82.1125980523,-24.8697412316"/>
<g transform="translate(-98.02 -22.85)"><text class="rel pinya_pinya">${_rel23_8}</text></g>
<path class="rel pinya_pinya" pos_list="24_8" d="M-93.0404888626,-35.1845176873L-84.9622566726,-20.9818824177"/>
<g transform="translate(-89.0 -28.08)"><text class="rel pinya_pinya">${_rel24_8}</text></g>
<path class="rel pinya_pinya" pos_list="44_23" d="M-142.61381643,-15.6792744128L-113.060360562,-16.6462240554"/>
<g transform="translate(-127.84 -16.16)"><text class="rel pinya_pinya">${_rel44_23}</text></g>
<path class="rel pinya_pinya" pos_list="45_23" d="M-125.377262892,-36.7893949618L-114.285517745,-20.2038019108"/>
<g transform="translate(-119.83 -28.5)"><text class="rel pinya_pinya">${_rel45_23}</text></g>
<path class="rel pinya_pinya" pos_list="45_24" d="M-127.830749664,-34.1431124409L-93.1564688797,-38.193644246"/>
<g transform="translate(-110.49 -36.17)"><text class="rel pinya_pinya">${_rel45_24}</text></g>
<path class="rel pinya_pinya" pos_list="46_24" d="M-104.88568347,-49.9224011147L-91.2560778498,-36.9730151788"/>
<g transform="translate(-98.07 -43.45)"><text class="rel pinya_pinya">${_rel46_24}</text></g>
<path class="rel pinya_pinya" pos_list="26_10" d="M-17.4080888174,-60.5641864499L3.55045827605,-48.6789378177"/>
<g transform="translate(-6.93 -54.62)"><text class="rel pinya_pinya">${_rel26_10}</text></g>
<path class="rel pinya_pinya" pos_list="27_10" d="M23.150974513,-60.5389083402L1.37324849269,-48.0961980309"/>
<g transform="translate(12.26 -54.32)"><text class="rel pinya_pinya">${_rel27_10}</text></g>
<path class="rel pinya_pinya" pos_list="48_26" d="M-37.7188744671,-70.3519375567L-16.7945971899,-59.3195112782"/>
<g transform="translate(-27.26 -64.84)"><text class="rel pinya_pinya">${_rel48_26}</text></g>
<path class="rel pinya_pinya" pos_list="49_26" d="M2.21528607722,-74.9155569911L-21.141548396,-60.2878468692"/>
<g transform="translate(-9.46 -67.6)"><text class="rel pinya_pinya">${_rel49_26}</text></g>
<path class="rel pinya_pinya" pos_list="49_27" d="M2.05325445377,-73.6682115159L25.0893502877,-60.2544748655"/>
<g transform="translate(13.57 -66.96)"><text class="rel pinya_pinya">${_rel49_27}</text></g>
<path class="rel pinya_pinya" pos_list="50_27" d="M39.5352714105,-69.3163048814L26.1722704969,-56.5562741457"/>
<g transform="translate(32.85 -62.94)"><text class="rel pinya_pinya">${_rel50_27}</text></g>
<path class="rel pinya_pinya" pos_list="29_12" d="M100.445422488,-37.4959710366L88.2592375574,-20.4793796823"/>
<g transform="translate(94.35 -28.99)"><text class="rel pinya_pinya">${_rel29_12}</text></g>
<path class="rel pinya_pinya" pos_list="30_12" d="M120.575594587,-16.5937390318L88.0831099616,-21.7190880602"/>
<g transform="translate(104.33 -19.16)"><text class="rel pinya_pinya">${_rel30_12}</text></g>
<path class="rel pinya_pinya" pos_list="52_29" d="M107.84380757,-52.2874237572L97.9919668516,-37.4044101872"/>
<g transform="translate(102.92 -44.85)"><text class="rel pinya_pinya">${_rel52_29}</text></g>
<path class="rel pinya_pinya" pos_list="53_29" d="M133.048678971,-36.5618284697L96.591523232,-39.4957604943"/>
<g transform="translate(114.82 -38.03)"><text class="rel pinya_pinya">${_rel53_29}</text></g>
<path class="rel pinya_pinya" pos_list="53_30" d="M134.31680345,-36.5599614191L120.811169727,-16.5165576873"/>
<g transform="translate(127.56 -26.54)"><text class="rel pinya_pinya">${_rel53_30}</text></g>
<path class="rel pinya_pinya" pos_list="54_30" d="M147.170294871,-15.7890244289L120.36833806,-17.6915426938"/>
<g transform="translate(133.77 -16.74)"><text class="rel pinya_pinya">${_rel54_30}</text></g>
<path class="rel pinya" pos_list="2" d="M87.9071586125,29.7123141962"/>
<g transform="translate(87.91 29.71)"></g>
<path class="rel pinya_pinya" pos_list="14_15" d="M118.188239619,25.345673698L99.1618058388,43.102993474"/>
<g transform="translate(108.68 34.22)"><text class="rel pinya_pinya">${_rel14_15}</text></g>
<path class="rel pinya_pinya_pinya" pos_list="32_33_34" d="M147.139808233,20.6245465181L131.732504654,41.0462231323L109.69100374,53.7586527151"/>
<g transform="translate(129.52 38.48)"></g>
<path class="rel pinya" pos_list="4" d="M4.68801083978,53.4580553293"/>
<g transform="translate(4.69 53.46)"></g>
<path class="rel pinya_pinya" pos_list="17_18" d="M24.4452989681,65.7914386518L-17.0349906569,61.9713987249"/>
<g transform="translate(3.71 63.88)"><text class="rel pinya_pinya">${_rel17_18}</text></g>
<path class="rel pinya_pinya_pinya" pos_list="36_37_38" d="M42.1641492427,75.5385593219L1.71005135966,76.897484863L-37.3963758807,75.4897204833"/>
<g transform="translate(2.16 75.98)"></g>
<path class="rel pinya" pos_list="6" d="M-85.7988389129,26.1581725581"/>
<g transform="translate(-85.8 26.16)"></g>
<path class="rel pinya_pinya" pos_list="20_21" d="M-92.2121322747,41.4640980466L-113.038726365,25.9097878212"/>
<g transform="translate(-102.63 33.69)"><text class="rel pinya_pinya">${_rel20_21}</text></g>
<path class="rel pinya_pinya_pinya" pos_list="40_41_42" d="M-102.509078499,55.7287356019L-128.149252583,38.8969366572L-140.68218781,19.5370565709"/>
<g transform="translate(-123.78 38.05)"></g>
<path class="rel pinya" pos_list="8" d="M-84.9889459576,-24.6749323757"/>
<g transform="translate(-84.99 -24.67)"></g>
<path class="rel pinya_pinya" pos_list="23_24" d="M-114.49393392,-19.9078624887L-91.876577888,-35.2474992244"/>
<g transform="translate(-103.19 -27.58)"><text class="rel pinya_pinya">${_rel23_24}</text></g>
<path class="rel pinya_pinya_pinya" pos_list="44_45_46" d="M-143.144638118,-16.1554069759L-125.132593277,-33.4039890247L-103.624333112,-52.5992751926"/>
<g transform="translate(-123.97 -34.05)"></g>
<path class="rel pinya" pos_list="10" d="M1.50156510538,-47.1459649293"/>
<g transform="translate(1.5 -47.15)"></g>
<path class="rel pinya_pinya" pos_list="26_27" d="M-17.7775976638,-60.6802948173L24.957369091,-58.8317651461"/>
<g transform="translate(3.59 -59.76)"><text class="rel pinya_pinya">${_rel26_27}</text></g>
<path class="rel pinya_pinya_pinya" pos_list="48_49_50" d="M-38.7647412903,-68.8551574833L4.51790358472,-70.6099312266L39.8697933298,-67.4404536335"/>
<g transform="translate(1.87 -68.97)"></g>
<path class="rel pinya" pos_list="12" d="M90.7274453466,-23.8462307979"/>
<g transform="translate(90.73 -23.85)"></g>
<path class="rel pinya_pinya" pos_list="29_30" d="M98.3374998078,-38.1310289544L120.223269809,-16.6314794353"/>
<g transform="translate(109.28 -27.38)"><text class="rel pinya_pinya">${_rel29_30}</text></g>
<path class="rel pinya_pinya_pinya" pos_list="52_53_54" d="M109.503397065,-52.1330539737L134.136601136,-33.8517923596L148.16067836,-15.5924784981"/>
<g transform="translate(130.6 -33.86)"></g>
<path class="rel baix_crossa" pos_list="55_56" d="M40.7123160681,4.62913085094L44.8249632727,15.6817713915"/>
<g transform="translate(42.77 10.16)"><text class="rel baix_crossa">${_rel55_56}</text></g>
<path class="rel baix_crossa" pos_list="55_57" d="M43.9889792439,1.0021244301L43.935873842,-14.3719195423"/>
<g transform="translate(43.96 -6.68)"><text class="rel baix_crossa">${_rel55_57}</text></g>
<path class="rel baix_crossa" pos_list="62_63" d="M-15.4878164783,19.9430418911L-30.8126284449,12.2403872155"/>
<g transform="translate(-23.15 16.09)"><text class="rel baix_crossa">${_rel62_63}</text></g>
<path class="rel baix_crossa" pos_list="62_64" d="M-18.922507102,20.6780586398L-2.7714529025,28.8170136221"/>
<g transform="translate(-10.85 24.75)"><text class="rel baix_crossa">${_rel62_64}</text></g>
<path class="rel baix_crossa" pos_list="69_70" d="M-16.1682557178,-14.0120064567L-3.7851034089,-23.9862713553"/>
<g transform="translate(-9.98 -19.0)"><text class="rel baix_crossa">${_rel69_70}</text></g>
<path class="rel baix_crossa" pos_list="69_71" d="M-19.9593649381,-15.0493267959L-29.3229129146,-7.01244480147"/>
<g transform="translate(-24.64 -11.03)"><text class="rel baix_crossa">${_rel69_71}</text></g>
<path class="rel baix_agulla" pos_list="55_59" d="M40.2405873438,3.05188179795L22.6464579932,3.38236888778"/>
<g transform="translate(31.44 3.22)"><text class="rel baix_agulla">${_rel55_59}</text></g>
<path class="rel baix_agulla" pos_list="62_66" d="M-17.494694836,17.3513134083L-5.54511707878,4.86622325487"/>
<g transform="translate(-11.52 11.11)"><text class="rel baix_agulla">${_rel62_66}</text></g>
<path class="rel baix_agulla" pos_list="69_73" d="M-17.3851461817,-14.0544550389L-7.69713183555,0.641051048547"/>
<g transform="translate(-12.54 -6.71)"><text class="rel baix_agulla">${_rel69_73}</text></g>
<path class="rel baix_contrafort" pos_list="55_58" d="M42.5666198286,4.95707415879L62.8720706715,1.60320107804"/>
<g transform="translate(52.72 3.28)"><text class="rel baix_contrafort">${_rel55_58}</text></g>
<path class="rel baix_contrafort" pos_list="62_65" d="M-15.981902946,19.3074872783L-28.1353588434,36.2292104229"/>
<g transform="translate(-22.06 27.77)"><text class="rel baix_contrafort">${_rel62_65}</text></g>
<path class="rel baix_contrafort" pos_list="69_72" d="M-16.6152600318,-17.2484690036L-25.1471501528,-33.870196068"/>
<g transform="translate(-20.88 -25.56)"><text class="rel baix_contrafort">${_rel69_72}</text></g>
<path class="rel ma_baix_segon" pos_list="1_55_79" d="M104.352529764,0.752919179551L42.9745580757,0.662236978881L190.067384562,1.70837641983"/>
<g transform="translate(112.46 1.04)"></g>
<path class="rel ma_baix_segon" pos_list="5_62_80" d="M-46.1157421802,46.1893182742L-19.7260470056,17.3600982588L-91.4420948805,84.8612806633"/>
<g transform="translate(-52.43 49.47)"></g>
<path class="rel ma_baix_segon" pos_list="9_69_81" d="M-49.345730942,-39.7413327976L-16.4602626057,-17.002688082L-89.9000506222,-76.3421678235"/>
<g transform="translate(-51.9 -44.36)"></g>
<path class="rel vent_baix_segon" pos_list="3_55_79" d="M50.526173772,43.8885962638L43.0167620637,4.51557644322L191.341754439,1.93390119828"/>
<g transform="translate(94.96 16.78)"></g>
<path class="rel vent_baix_segon" pos_list="11_55_79" d="M54.7381472809,-39.5368628835L42.0011340773,4.07851215369L189.589313835,3.00003519909"/>
<g transform="translate(95.44 -10.82)"></g>
<path class="rel vent_baix_segon" pos_list="7_62_80" d="M-98.8585210506,0.784575372338L-15.8048786117,22.317397519L-91.8595468633,81.5760790393"/>
<g transform="translate(-68.84 34.89)"></g>
<path class="rel vent_baix_segon" pos_list="3_62_80" d="M52.3975275235,44.9347249456L-16.7183574036,20.3457644503L-90.2420139422,82.0892411691"/>
<g transform="translate(-18.19 49.12)"></g>
<path class="rel vent_baix_segon" pos_list="11_69_81" d="M50.9801450982,-40.4024016279L-17.7584720355,-13.7220760486L-91.0689848127,-77.2279823521"/>
<g transform="translate(-19.28 -43.78)"></g>
<path class="rel vent_baix_segon" pos_list="7_69_81" d="M-95.0221117817,0.00611696857878L-19.6110994836,-13.8388811537L-90.2616424996,-79.7792986947"/>
<g transform="translate(-68.3 -31.2)"></g>
<path class="rel agulla_baix_segon" pos_list="59_55_79" d="M20.4043191392,4.9926884478L42.550284785,2.56808328861L189.781480422,1.43461389074"/>
<g transform="translate(84.25 3.0)"></g>
<path class="rel agulla_baix_segon" pos_list="66_62_80" d="M-9.144311784,4.01874689364L-17.5216603935,20.100647312L-89.7830294444,85.6857471973"/>
<g transform="translate(-38.82 36.6)"></g>
<path class="rel agulla_baix_segon" pos_list="73_69_81" d="M-6.95908669443,1.55416239667L-16.7932458703,-14.1414750431L-89.4725472196,-78.8800362809"/>
<g transform="translate(-37.74 -30.49)"></g>
<path class="rel baix_segon_baix_segon" pos_list="55_79_62_80" d="M44.5275189175,3.05438349809L188.395376822,2.06674381994L-17.75043296,18.3214276323L-93.7324302099,85.6220492373"/>
<g transform="translate(30.36 27.27)"></g>
<path class="rel baix_segon_baix_segon" pos_list="62_80_69_81" d="M-17.8705688335,20.7385221565L-92.4522854191,82.3267961317L-16.7348178747,-16.3671258737L-92.4983471113,-77.1726643617"/>
<g transform="translate(-54.89 2.38)"></g>
<path class="rel baix_segon_baix_segon" pos_list="69_81_55_79" d="M-19.8596209196,-13.3385014956L-90.8380375675,-76.6625603892L40.2840377861,3.90209325105L190.392843086,0.0865085837894"/>
<g transform="translate(29.99 -21.5)"></g>
<path class="rel lateral_baix_segon" pos_list="60_55_79" d="M74.2913982292,13.624943067L42.2368228827,0.768502502594L191.699345122,1.68754664759"/>
<g transform="translate(102.74 5.36)"></g>
<path class="rel lateral_baix_segon" pos_list="61_55_79" d="M71.3876021385,-10.7828632646L42.3241601463,2.03053049302L191.720073155,1.83873345068"/>
<g transform="translate(101.81 -2.3)"></g>
<path class="rel lateral_baix_segon" pos_list="67_62_80" d="M-43.9983066672,41.8331484562L-17.8888180246,18.4986929133L-93.6861752748,84.7080444568"/>
<g transform="translate(-51.86 48.35)"></g>
<path class="rel lateral_baix_segon" pos_list="68_62_80" d="M-21.5169788838,52.0980197106L-16.6610331898,19.5764592413L-89.3363131591,85.9593446022"/>
<g transform="translate(-42.5 52.54)"></g>
<path class="rel lateral_baix_segon" pos_list="74_69_81" d="M-22.5429728394,-45.5879410316L-16.496239906,-13.4453276444L-88.8276177558,-78.0472795446"/>
<g transform="translate(-42.62 -45.69)"></g>
<path class="rel lateral_baix_segon" pos_list="75_69_81" d="M-42.8919788315,-33.604614748L-16.8096173671,-16.2817417949L-89.9191207987,-79.4996486863"/>
<g transform="translate(-49.87 -43.13)"></g>
</g>
</svg>