<svg xmlns="http://www.w3.org/2000/xml" xmlns:xlink="http://www.w3.org/1999/xlink" viewBox="-230 -190 460 380">
<g id="positions">
<g id="1" transform="translate(100.0 0.0) rotate(0.0)">
<rect id="1_rect" class="ma" width="20" height="40" x="-10.0" y="-20.0">
</rect>
<g transform="rotate(90) translate(0 6)">
<text id="1_text" class="ma vtext" text-anchor="middle">
1 ${_1} ${_c1}
</text>
</g>
</g>
<g id="2" transform="translate(86.6 50.0) rotate(30.0)">
<rect id="2_rect" class="pinya" width="20" height="40" x="-10.0" y="-20.0">
</rect>
<g transform="rotate(90) translate(0 6)">
<text id="2_text" class="pinya vtext" text-anchor="middle">
2 ${_2} ${_c2}
</text>
</g>
</g>
<g id="3" transform="translate(50.0 86.6) rotate(60.0)">
<rect id="3_rect" class="vent" width="20" height="40" x="-10.0" y="-20.0">
</rect>
<g transform="rotate(90) translate(0 6)">
<text id="3_text" class="vent vtext" text-anchor="middle">
3 ${_3} ${_c3}
</text>
</g>
</g>
<g id="4" transform="translate(0.0 100.0) rotate(90.0)">
<rect id="4_rect" class="pinya" width="20" height="40" x="-10.0" y="-20.0">
</rect>
<g transform="rotate(90) translate(0 6)">
<text id="4_text" class="pinya vtext" text-anchor="middle">
4 ${_4} ${_c4}
</text>
</g>
</g>
<g id="5" transform="translate(-50.0 86.6) rotate(120.0)">
<rect id="5_rect" class="ma" width="20" height="40" x="-10.0" y="-20.0">
</rect>
<g transform="rotate(90) translate(0 6)">
<text id="5_text" class="ma vtext" text-anchor="middle">
5 ${_5} ${_c5}
</text>
</g>
</g>
<g id="6" transform="translate(-86.6 50.0) rotate(150.0)">
<rect id="6_rect" class="pinya" width="20" height="40" x="-10.0" y="-20.0">
</rect>
<g transform="rotate(90) translate(0 6)">
<text id="6_text" class="pinya vtext" text-anchor="middle">
6 ${_6} ${_c6}
</text>
</g>
</g>
<g id="7" transform="translate(-100.0 0.0) rotate(180.0)">
<rect id="7_rect" class="vent" width="20" height="40" x="-10.0" y="-20.0">
</rect>
<g transform="rotate(90) translate(0 6)">
<text id="7_text" class="vent vtext" text-anchor="middle">
7 ${_7} ${_c7}
</text>
</g>
</g>
<g id="8" transform="translate(-86.6 -50.0) rotate(210.0)">
<rect id="8_rect" class="pinya" width="20" height="40" x="-10.0" y="-20.0">
</rect>
<g transform="rotate(90) translate(0 6)">
<text id="8_text" class="pinya vtext" text-anchor="middle">
8 ${_8} ${_c8}
</text>
</g>
</g>
<g id="9" transform="translate(-50.0 -86.6) rotate(240.0)">
<rect id="9_rect" class="ma" width="20" height="40" x="-10.0" y="-20.0">
</rect>
<g transform="rotate(90) translate(0 6)">
<text id="9_text" class="ma vtext" text-anchor="middle">
9 ${_9} ${_c9}
</text>
</g>
</g>
<g id="10" transform="translate(-0.0 -100.0) rotate(270.0)">
<rect id="10_rect" class="pinya" width="20" height="40" x="-10.0" y="-20.0">
</rect>
<g transform="rotate(90) translate(0 6)">
<text id="10_text" class="pinya vtext" text-anchor="middle">
10 ${_10} ${_c10}
</text>
</g>
</g>
<g id="11" transform="translate(50.0 -86.6) rotate(300.0)">
<rect id="11_rect" class="vent" width="20" height="40" x="-10.0" y="-20.0">
</rect>
<g transform="rotate(90) translate(0 6)">
<text id="11_text" class="vent vtext" text-anchor="middle">
11 ${_11} ${_c11}
</text>
</g>
</g>
<g id="12" transform="translate(86.6 -50.0) rotate(330.0)">
<rect id="12_rect" class="pinya" width="20" height="40" x="-10.0" y="-20.0">
</rect>
<g transform="rotate(90) translate(0 6)">
<text id="12_text" class="pinya vtext" text-anchor="middle">
12 ${_12} ${_c12}
</text>
</g>
</g>
<g id="13" transform="translate(125.0 0.0) rotate(0.0)">
<rect id="13_rect" class="ma" width="20" height="40" x="-10.0" y="-20.0">
</rect>
<g transform="rotate(90) translate(0 6)">
<text id="13_text" class="ma vtext" text-anchor="middle">
13 ${_13} ${_c13}
</text>
</g>
</g>
<g id="14" transform="translate(117.46 42.75) rotate(20.0)">
<rect id="14_rect" class="pinya" width="20" height="40" x="-10.0" y="-20.0">
</rect>
<g transform="rotate(90) translate(0 6)">
<text id="14_text" class="pinya vtext" text-anchor="middle">
14 ${_14} ${_c14}
</text>
</g>
</g>
<g id="15" transform="translate(95.76 80.35) rotate(40.0)">
<rect id="15_rect" class="pinya" width="20" height="40" x="-10.0" y="-20.0">
</rect>
<g transform="rotate(90) translate(0 6)">
<text id="15_text" class="pinya vtext" text-anchor="middle">
15 ${_15} ${_c15}
</text>
</g>
</g>
<g id="16" transform="translate(62.5 108.25) rotate(60.0)">
<rect id="16_rect" class="vent" width="20" height="40" x="-10.0" y="-20.0">
</rect>
<g transform="rotate(90) translate(0 6)">
<text id="16_text" class="vent vtext" text-anchor="middle">
16 ${_16} ${_c16}
</text>
</g>
</g>
<g id="17" transform="translate(21.71 123.1) rotate(80.0)">
<rect id="17_rect" class="pinya" width="20" height="40" x="-10.0" y="-20.0">
</rect>
<g transform="rotate(90) translate(0 6)">
<text id="17_text" class="pinya vtext" text-anchor="middle">
17 ${_17} ${_c17}
</text>
</g>
</g>
<g id="18" transform="translate(-21.71 123.1) rotate(100.0)">
<rect id="18_rect" class="pinya" width="20" height="40" x="-10.0" y="-20.0">
</rect>
<g transform="rotate(90) translate(0 6)">
<text id="18_text" class="pinya vtext" text-anchor="middle">
18 ${_18} ${_c18}
</text>
</g>
</g>
<g id="19" transform="translate(-62.5 108.25) rotate(120.0)">
<rect id="19_rect" class="ma" width="20" height="40" x="-10.0" y="-20.0">
</rect>
<g transform="rotate(90) translate(0 6)">
<text id="19_text" class="ma vtext" text-anchor="middle">
19 ${_19} ${_c19}
</text>
</g>
</g>
<g id="20" transform="translate(-95.76 80.35) rotate(140.0)">
<rect id="20_rect" class="pinya" width="20" height="40" x="-10.0" y="-20.0">
</rect>
<g transform="rotate(90) translate(0 6)">
<text id="20_text" class="pinya vtext" text-anchor="middle">
20 ${_20} ${_c20}
</text>
</g>
</g>
<g id="21" transform="translate(-117.46 42.75) rotate(160.0)">
<rect id="21_rect" class="pinya" width="20" height="40" x="-10.0" y="-20.0">
</rect>
<g transform="rotate(90) translate(0 6)">
<text id="21_text" class="pinya vtext" text-anchor="middle">
21 ${_21} ${_c21}
</text>
</g>
</g>
<g id="22" transform="translate(-125.0 0.0) rotate(180.0)">
<rect id="22_rect" class="vent" width="20" height="40" x="-10.0" y="-20.0">
</rect>
<g transform="rotate(90) translate(0 6)">
<text id="22_text" class="vent vtext" text-anchor="middle">
22 ${_22} ${_c22}
</text>
</g>
</g>
<g id="23" transform="translate(-117.46 -42.75) rotate(200.0)">
<rect id="23_rect" class="pinya" width="20" height="40" x="-10.0" y="-20.0">
</rect>
<g transform="rotate(90) translate(0 6)">
<text id="23_text" class="pinya vtext" text-anchor="middle">
23 ${_23} ${_c23}
</text>
</g>
</g>
<g id="24" transform="translate(-95.76 -80.35) rotate(220.0)">
<rect id="24_rect" class="pinya" width="20" height="40" x="-10.0" y="-20.0">
</rect>
<g transform="rotate(90) translate(0 6)">
<text id="24_text" class="pinya vtext" text-anchor="middle">
24 ${_24} ${_c24}
</text>
</g>
</g>
<g id="25" transform="translate(-62.5 -108.25) rotate(240.0)">
<rect id="25_rect" class="ma" width="20" height="40" x="-10.0" y="-20.0">
</rect>
<g transform="rotate(90) translate(0 6)">
<text id="25_text" class="ma vtext" text-anchor="middle">
25 ${_25} ${_c25}
</text>
</g>
</g>
<g id="26" transform="translate(-21.71 -123.1) rotate(260.0)">
<rect id="26_rect" class="pinya" width="20" height="40" x="-10.0" y="-20.0">
</rect>
<g transform="rotate(90) translate(0 6)">
<text id="26_text" class="pinya vtext" text-anchor="middle">
26 ${_26} ${_c26}
</text>
</g>
</g>
<g id="27" transform="translate(21.71 -123.1) rotate(280.0)">
<rect id="27_rect" class="pinya" width="20" height="40" x="-10.0" y="-20.0">
</rect>
<g transform="rotate(90) translate(0 6)">
<text id="27_text" class="pinya vtext" text-anchor="middle">
27 ${_27} ${_c27}
</text>
</g>
</g>
<g id="28" transform="translate(62.5 -108.25) rotate(300.0)">
<rect id="28_rect" class="vent" width="20" height="40" x="-10.0" y="-20.0">
</rect>
<g transform="rotate(90) translate(0 6)">
<text id="28_text" class="vent vtext" text-anchor="middle">
28 ${_28} ${_c28}
</text>
</g>
</g>
<g id="29" transform="translate(95.76 -80.35) rotate(320.0)">
<rect id="29_rect" class="pinya" width="20" height="40" x="-10.0" y="-20.0">
</rect>
<g transform="rotate(90) translate(0 6)">
<text id="29_text" class="pinya vtext" text-anchor="middle">
29 ${_29} ${_c29}
</text>
</g>
</g>
<g id="30" transform="translate(117.46 -42.75) rotate(340.0)">
<rect id="30_rect" class="pinya" width="20" height="40" x="-10.0" y="-20.0">
</rect>
<g transform="rotate(90) translate(0 6)">
<text id="30_text" class="pinya vtext" text-anchor="middle">
30 ${_30} ${_c30}
</text>
</g>
</g>
<g id="31" transform="translate(150.0 0.0) rotate(0.0)">
<rect id="31_rect" class="ma" width="20" height="40" x="-10.0" y="-20.0">
</rect>
<g transform="rotate(90) translate(0 6)">
<text id="31_text" class="ma vtext" text-anchor="middle">
31 ${_31} ${_c31}
</text>
</g>
</g>
<g id="32" transform="translate(144.89 38.82) rotate(15.0)">
<rect id="32_rect" class="pinya" width="20" height="40" x="-10.0" y="-20.0">
</rect>
<g transform="rotate(90) translate(0 6)">
<text id="32_text" class="pinya vtext" text-anchor="middle">
32 ${_32} ${_c32}
</text>
</g>
</g>
<g id="33" transform="translate(129.9 75.0) rotate(30.0)">
<rect id="33_rect" class="pinya" width="20" height="40" x="-10.0" y="-20.0">
</rect>
<g transform="rotate(90) translate(0 6)">
<text id="33_text" class="pinya vtext" text-anchor="middle">
33 ${_33} ${_c33}
</text>
</g>
</g>
<g id="34" transform="translate(106.07 106.07) rotate(45.0)">
<rect id="34_rect" class="pinya" width="20" height="40" x="-10.0" y="-20.0">
</rect>
<g transform="rotate(90) translate(0 6)">
<text id="34_text" class="pinya vtext" text-anchor="middle">
34 ${_34} ${_c34}
</text>
</g>
</g>
<g id="35" transform="translate(75.0 129.9) rotate(60.0)">
<rect id="35_rect" class="vent" width="20" height="40" x="-10.0" y="-20.0">
</rect>
<g transform="rotate(90) translate(0 6)">
<text id="35_text" class="vent vtext" text-anchor="middle">
35 ${_35} ${_c35}
</text>
</g>
</g>
<g id="36" transform="translate(38.82 144.89) rotate(75.0)">
<rect id="36_rect" class="pinya" width="20" height="40" x="-10.0" y="-20.0">
</rect>
<g transform="rotate(90) translate(0 6)">
<text id="36_text" class="pinya vtext" text-anchor="middle">
36 ${_36} ${_c36}
</text>
</g>
</g>
<g id="37" transform="translate(0.0 150.0) rotate(90.0)">
<rect id="37_rect" class="pinya" width="20" height="40" x="-10.0" y="-20.0">
</rect>
<g transform="rotate(90) translate(0 6)">
<text id="37_text" class="pinya vtext" text-anchor="middle">
37 ${_37} ${_c37}
</text>
</g>
</g>
<g id="38" transform="translate(-38.82 144.89) rotate(105.0)">
<rect id="38_rect" class="pinya" width="20" height="40" x="-10.0" y="-20.0">
</rect>
<g transform="rotate(90) translate(0 6)">
<text id="38_text" class="pinya vtext" text-anchor="middle">
38 ${_38} ${_c38}
</text>
</g>
</g>
<g id="39" transform="translate(-75.0 129.9) rotate(120.0)">
<rect id="39_rect" class="ma" width="20" height="40" x="-10.0" y="-20.0">
</rect>
<g transform="rotate(90) translate(0 6)">
<text id="39_text" class="ma vtext" text-anchor="middle">
39 ${_39} ${_c39}
</text>
</g>
</g>
<g id="40" transform="translate(-106.07 106.07) rotate(135.0)">
<rect id="40_rect" class="pinya" width="20" height="40" x="-10.0" y="-20.0">
</rect>
<g transform="rotate(90) translate(0 6)">
<text id="40_text" class="pinya vtext" text-anchor="middle">
40 ${_40} ${_c40}
</text>
</g>
</g>
<g id="41" transform="translate(-129.9 75.0) rotate(150.0)">
<rect id="41_rect" class="pinya" width="20" height="40" x="-10.0" y="-20.0">
</rect>
<g transform="rotate(90) translate(0 6)">
<text id="41_text" class="pinya vtext" text-anchor="middle">
41 ${_41} ${_c41}
</text>
</g>
</g>
<g id="42" transform="translate(-144.89 38.82) rotate(165.0)">
<rect id="42_rect" class="pinya" width="20" height="40" x="-10.0" y="-20.0">
</rect>
<g transform="rotate(90) translate(0 6)">
<text id="42_text" class="pinya vtext" text-anchor="middle">
42 ${_42} ${_c42}
</text>
</g>
</g>
<g id="43" transform="translate(-150.0 0.0) rotate(180.0)">
<rect id="43_rect" class="vent" width="20" height="40" x="-10.0" y="-20.0">
</rect>
<g transform="rotate(90) translate(0 6)">
<text id="43_text" class="vent vtext" text-anchor="middle">
43 ${_43} ${_c43}
</text>
</g>
</g>
<g id="44" transform="translate(-144.89 -38.82) rotate(195.0)">
<rect id="44_rect" class="pinya" width="20" height="40" x="-10.0" y="-20.0">
</rect>
<g transform="rotate(90) translate(0 6)">
<text id="44_text" class="pinya vtext" text-anchor="middle">
44 ${_44} ${_c44}
</text>
</g>
</g>
<g id="45" transform="translate(-129.9 -75.0) rotate(210.0)">
<rect id="45_rect" class="pinya" width="20" height="40" x="-10.0" y="-20.0">
</rect>
<g transform="rotate(90) translate(0 6)">
<text id="45_text" class="pinya vtext" text-anchor="middle">
45 ${_45} ${_c45}
</text>
</g>
</g>
<g id="46" transform="translate(-106.07 -106.07) rotate(225.0)">
<rect id="46_rect" class="pinya" width="20" height="40" x="-10.0" y="-20.0">
</rect>
<g transform="rotate(90) translate(0 6)">
<text id="46_text" class="pinya vtext" text-anchor="middle">
46 ${_46} ${_c46}
</text>
</g>
</g>
<g id="47" transform="translate(-75.0 -129.9) rotate(240.0)">
<rect id="47_rect" class="ma" width="20" height="40" x="-10.0" y="-20.0">
</rect>
<g transform="rotate(90) translate(0 6)">
<text id="47_text" class="ma vtext" text-anchor="middle">
47 ${_47} ${_c47}
</text>
</g>
</g>
<g id="48" transform="translate(-38.82 -144.89) rotate(255.0)">
<rect id="48_rect" class="pinya" width="20" height="40" x="-10.0" y="-20.0">
</rect>
<g transform="rotate(90) translate(0 6)">
<text id="48_text" class="pinya vtext" text-anchor="middle">
48 ${_48} ${_c48}
</text>
</g>
</g>
<g id="49" transform="translate(-0.0 -150.0) rotate(270.0)">
<rect id="49_rect" class="pinya" width="20" height="40" x="-10.0" y="-20.0">
</rect>
<g transform="rotate(90) translate(0 6)">
<text id="49_text" class="pinya vtext" text-anchor="middle">
49 ${_49} ${_c49}
</text>
</g>
</g>
<g id="50" transform="translate(38.82 -144.89) rotate(285.0)">
<rect id="50_rect" class="pinya" width="20" height="40" x="-10.0" y="-20.0">
</rect>
<g transform="rotate(90) translate(0 6)">
<text id="50_text" class="pinya vtext" text-anchor="middle">
50 ${_50} ${_c50}
</text>
</g>
</g>
<g id="51" transform="translate(75.0 -129.9) rotate(300.0)">
<rect id="51_rect" class="vent" width="20" height="40" x="-10.0" y="-20.0">
</rect>
<g transform="rotate(90) translate(0 6)">
<text id="51_text" class="vent vtext" text-anchor="middle">
51 ${_51} ${_c51}
</text>
</g>
</g>
<g id="52" transform="translate(106.07 -106.07) rotate(315.0)">
<rect id="52_rect" class="pinya" width="20" height="40" x="-10.0" y="-20.0">
</rect>
<g transform="rotate(90) translate(0 6)">
<text id="52_text" class="pinya vtext" text-anchor="middle">
52 ${_52} ${_c52}
</text>
</g>
</g>
<g id="53" transform="translate(129.9 -75.0) rotate(330.0)">
<rect id="53_rect" class="pinya" width="20" height="40" x="-10.0" y="-20.0">
</rect>
<g transform="rotate(90) translate(0 6)">
<text id="53_text" class="pinya vtext" text-anchor="middle">
53 ${_53} ${_c53}
</text>
</g>
</g>
<g id="54" transform="translate(144.89 -38.82) rotate(345.0)">
<rect id="54_rect" class="pinya" width="20" height="40" x="-10.0" y="-20.0">
</rect>
<g transform="rotate(90) translate(0 6)">
<text id="54_text" class="pinya vtext" text-anchor="middle">
54 ${_54} ${_c54}
</text>
</g>
</g>
<g id="baixos_gp_0" transform="translate(40.0 0.0) rotate(0.0)">
<g id="55" transform="translate(0 0) rotate(0)">
<rect id="55_rect" class="baix" width="20" height="40" x="-10" y="-20">
</rect>
<g transform="rotate(90) translate(0 6)">
<text id="55_text" class="baix vtext" text-anchor="middle">
55 ${_55} ${_c55}
</text>
</g>
</g>
<g id="56" transform="translate(0 30) rotate(90)">
<rect id="56_rect" class="crossa" width="16" height="30" x="-8" y="-15">
</rect>
<g transform="rotate(90) translate(0 6)">
<text id="56_text" class="crossa vtext" text-anchor="middle">
56 ${_56} ${_c56}
</text>
</g>
</g>
<g id="57" transform="translate(0 -30) rotate(-90)">
<rect id="57_rect" class="crossa" width="16" height="30" x="-8" y="-15">
</rect>
<g transform="rotate(90) translate(0 6)">
<text id="57_text" class="crossa vtext" text-anchor="middle">
57 ${_57} ${_c57}
</text>
</g>
</g>
<g id="58" transform="translate(20 0) rotate(0)">
<rect id="58_rect" class="contrafort" width="16" height="30" x="-8" y="-15">
</rect>
<g transform="rotate(90) translate(0 6)">
<text id="58_text" class="contrafort vtext" text-anchor="middle">
58 ${_58} ${_c58}
</text>
</g>
</g>
<g id="59" transform="translate(-20 0) rotate(0)">
<rect id="59_rect" class="agulla" width="16" height="30" x="-8" y="-15">
</rect>
<g transform="rotate(90) translate(0 6)">
<text id="59_text" class="agulla vtext" text-anchor="middle">
59 ${_59} ${_c59}
</text>
</g>
</g>
<g id="60" transform="translate(30 25) rotate(30)">
<rect id="60_rect" class="lateral" width="16" height="30" x="-8" y="-15">
</rect>
<g transform="rotate(90) translate(0 6)">
<text id="60_text" class="lateral vtext" text-anchor="middle">
60 ${_60} ${_c60}
</text>
</g>
</g>
<g id="61" transform="translate(30 -25) rotate(-30)">
<rect id="61_rect" class="lateral" width="16" height="30" x="-8" y="-15">
</rect>
<g transform="rotate(90) translate(0 6)">
<text id="61_text" class="lateral vtext" text-anchor="middle">
61 ${_61} ${_c61}
</text>
</g>
</g>
</g>
<g id="baixos_gp_1" transform="translate(-20.0 34.64) rotate(120.0)">
<g id="62" transform="translate(0 0) rotate(0)">
<rect id="62_rect" class="baix" width="20" height="40" x="-10" y="-20">
</rect>
<g transform="rotate(90) translate(0 6)">
<text id="62_text" class="baix vtext" text-anchor="middle">
62 ${_62} ${_c62}
</text>
</g>
</g>
<g id="63" transform="translate(0 30) rotate(90)">
<rect id="63_rect" class="crossa" width="16" height="30" x="-8" y="-15">
</rect>
<g transform="rotate(90) translate(0 6)">
<text id="63_text" class="crossa vtext" text-anchor="middle">
63 ${_63} ${_c63}
</text>
</g>
</g>
<g id="64" transform="translate(0 -30) rotate(-90)">
<rect id="64_rect" class="crossa" width="16" height="30" x="-8" y="-15">
</rect>
<g transform="rotate(90) translate(0 6)">
<text id="64_text" class="crossa vtext" text-anchor="middle">
64 ${_64} ${_c64}
</text>
</g>
</g>
<g id="65" transform="translate(20 0) rotate(0)">
<rect id="65_rect" class="contrafort" width="16" height="30" x="-8" y="-15">
</rect>
<g transform="rotate(90) translate(0 6)">
<text id="65_text" class="contrafort vtext" text-anchor="middle">
65 ${_65} ${_c65}
</text>
</g>
</g>
<g id="66" transform="translate(-20 0) rotate(0)">
<rect id="66_rect" class="agulla" width="16" height="30" x="-8" y="-15">
</rect>
<g transform="rotate(90) translate(0 6)">
<text id="66_text" class="agulla vtext" text-anchor="middle">
66 ${_66} ${_c66}
</text>
</g>
</g>
<g id="67" transform="translate(30 25) rotate(30)">
<rect id="67_rect" class="lateral" width="16" height="30" x="-8" y="-15">
</rect>
<g transform="rotate(90) translate(0 6)">
<text id="67_text" class="lateral vtext" text-anchor="middle">
67 ${_67} ${_c67}
</text>
</g>
</g>
<g id="68" transform="translate(30 -25) rotate(-30)">
<rect id="68_rect" class="lateral" width="16" height="30" x="-8" y="-15">
</rect>
<g transform="rotate(90) translate(0 6)">
<text id="68_text" class="lateral vtext" text-anchor="middle">
68 ${_68} ${_c68}
</text>
</g>
</g>
</g>
<g id="baixos_gp_2" transform="translate(-20.0 -34.64) rotate(240.0)">
<g id="69" transform="translate(0 0) rotate(0)">
<rect id="69_rect" class="baix" width="20" height="40" x="-10" y="-20">
</rect>
<g transform="rotate(90) translate(0 6)">
<text id="69_text" class="baix vtext" text-anchor="middle">
69 ${_69} ${_c69}
</text>
</g>
</g>
<g id="70" transform="translate(0 30) rotate(90)">
<rect id="70_rect" class="crossa" width="16" height="30" x="-8" y="-15">
</rect>
<g transform="rotate(90) translate(0 6)">
<text id="70_text" class="crossa vtext" text-anchor="middle">
70 ${_70} ${_c70}
</text>
</g>
</g>
<g id="71" transform="translate(0 -30) rotate(-90)">
<rect id="71_rect" class="crossa" width="16" height="30" x="-8" y="-15">
</rect>
<g transform="rotate(90) translate(0 6)">
<text id="71_text" class="crossa vtext" text-anchor="middle">
71 ${_71} ${_c71}
</text>
</g>
</g>
<g id="72" transform="translate(20 0) rotate(0)">
<rect id="72_rect" class="contrafort" width="16" height="30" x="-8" y="-15">
</rect>
<g transform="rotate(90) translate(0 6)">
<text id="72_text" class="contrafort vtext" text-anchor="middle">
72 ${_72} ${_c72}
</text>
</g>
</g>
<g id="73" transform="translate(-20 0) rotate(0)">
<rect id="73_rect" class="agulla" width="16" height="30" x="-8" y="-15">
</rect>
<g transform="rotate(90) translate(0 6)">
<text id="73_text" class="agulla vtext" text-anchor="middle">
73 ${_73} ${_c73}
</text>
</g>
</g>
<g id="74" transform="translate(30 25) rotate(30)">
<rect id="74_rect" class="lateral" width="16" height="30" x="-8" y="-15">
</rect>
<g transform="rotate(90) translate(0 6)">
<text id="74_text" class="lateral vtext" text-anchor="middle">
74 ${_74} ${_c74}
</text>
</g>
</g>
<g id="75" transform="translate(30 -25) rotate(-30)">
<rect id="75_rect" class="lateral" width="16" height="30" x="-8" y="-15">
</rect>
<g transform="rotate(90) translate(0 6)">
<text id="75_text" class="lateral vtext" text-anchor="middle">
75 ${_75} ${_c75}
</text>
</g>
</g>
</g>
<g id="portacrossa_gp_0" transform="translate(35.0 60.62) rotate(60.0)">
<g id="76" transform="translate(0 0) rotate(0)">
<rect id="76_rect" class="portacrossa" width="20" height="40" x="-10" y="-20">
</rect>
<g transform="rotate(90) translate(0 6)">
<text id="76_text" class="portacrossa vtext" text-anchor="middle">
76 ${_76} ${_c76}
</text>
</g>
</g>
</g>
<g id="portacrossa_gp_1" transform="translate(-70.0 0.0) rotate(180.0)">
<g id="77" transform="translate(0 0) rotate(0)">
<rect id="77_rect" class="portacrossa" width="20" height="40" x="-10" y="-20">
</rect>
<g transform="rotate(90) translate(0 6)">
<text id="77_text" class="portacrossa vtext" text-anchor="middle">
77 ${_77} ${_c77}
</text>
</g>
</g>
</g>
<g id="portacrossa_gp_2" transform="translate(35.0 -60.62) rotate(300.0)">
<g id="78" transform="translate(0 0) rotate(0)">
<rect id="78_rect" class="portacrossa" width="20" height="40" x="-10" y="-20">
</rect>
<g transform="rotate(90) translate(0 6)">
<text id="78_text" class="portacrossa vtext" text-anchor="middle">
78 ${_78} ${_c78}
</text>
</g>
</g>
</g>
<g id="79" transform="translate(187.5 0.0) rotate(0.0)">
<rect id="79_rect" class="segon" width="20" height="40" x="-10" y="-20">
</rect>
<g transform="rotate(90) translate(0 6)">
<text id="79_text" class="segon vtext" text-anchor="middle">
79 ${_79} ${_c79}
</text>
</g>
</g>
<g id="80" transform="translate(-93.75 162.38) rotate(120.0)">
<rect id="80_rect" class="segon" width="20" height="40" x="-10" y="-20">
</rect>
<g transform="rotate(90) translate(0 6)">
<text id="80_text" class="segon vtext" text-anchor="middle">
80 ${_80} ${_c80}
</text>
</g>
</g>
<g id="81" transform="translate(-93.75 -162.38) rotate(240.0)">
<rect id="81_rect" class="segon" width="20" height="40" x="-10" y="-20">
</rect>
<g transform="rotate(90) translate(0 6)">
<text id="81_text" class="segon vtext" text-anchor="middle">
81 ${_81} ${_c81}
</text>
</g>
</g>
</g>
<g id="relations">
<path class="rel ma_ma" pos_list="13_1" d="M125.0,0.0L100.0,0.0"/>
<g transform="translate(112.5 0.0)"><text class="rel ma_ma">${_rel13_1}</text></g>
<path class="rel ma_ma" pos_list="31_13" d="M150.0,0.0L125.0,0.0"/>
<g transform="translate(137.5 0.0)"><text class="rel ma_ma">${_rel31_13}</text></g>
<path class="rel vent_vent" pos_list="16_3" d="M62.5,108.25L50.0,86.6"/>
<g transform="translate(56.25 97.42)"><text class="rel vent_vent">${_rel16_3}</text></g>
<path class="rel vent_vent" pos_list="35_16" d="M75.0,129.9L62.5,108.25"/>
<g transform="translate(68.75 119.08)"><text class="rel vent_vent">${_rel35_16}</text></g>
<path class="rel ma_ma" pos_list="19_5" d="M-62.5,108.25L-50.0,86.6"/>
<g transform="translate(-56.25 97.42)"><text class="rel ma_ma">${_rel19_5}</text></g>
<path class="rel ma_ma" pos_list="39_19" d="M-75.0,129.9L-62.5,108.25"/>
<g transform="translate(-68.75 119.08)"><text class="rel ma_ma">${_rel39_19}</text></g>
<path class="rel vent_vent" pos_list="22_7" d="M-125.0,0.0L-100.0,0.0"/>
<g transform="translate(-112.5 0.0)"><text class="rel vent_vent">${_rel22_7}</text></g>
<path class="rel vent_vent" pos_list="43_22" d="M-150.0,0.0L-125.0,0.0"/>
<g transform="translate(-137.5 0.0)"><text class="rel vent_vent">${_rel43_22}</text></g>
<path class="rel ma_ma" pos_list="25_9" d="M-62.5,-108.25L-50.0,-86.6"/>
<g transform="translate(-56.25 -97.42)"><text class="rel ma_ma">${_rel25_9}</text></g>
<path class="rel ma_ma" pos_list="47_25" d="M-75.0,-129.9L-62.5,-108.25"/>
<g transform="translate(-68.75 -119.08)"><text class="rel ma_ma">${_rel47_25}</text></g>
<path class="rel vent_vent" pos_list="28_11" d="M62.5,-108.25L50.0,-86.6"/>
<g transform="translate(56.25 -97.42)"><text class="rel vent_vent">${_rel28_11}</text></g>
<path class="rel vent_vent" pos_list="51_28" d="M75.0,-129.9L62.5,-108.25"/>
<g transform="translate(68.75 -119.08)"><text class="rel vent_vent">${_rel51_28}</text></g>
<path class="rel pinya_pinya" pos_list="14_2" d="M117.46,42.75L86.6,50.0"/>
<g transform="translate(102.03 46.38)"><text class="rel pinya_pinya">${_rel14_2}</text></g>
<path class="rel pinya_pinya" pos_list="15_2" d="M95.76,80.35L86.6,50.0"/>
<g transform="translate(91.18 65.17)"><text class="rel pinya_pinya">${_rel15_2}</text></g>
<path class="rel pinya_pinya" pos_list="32_14" d="M144.89,38.82L117.46,42.75"/>
<g transform="translate(131.17 40.78)"><text class="rel pinya_pinya">${_rel32_14}</text></g>
<path class="rel pinya_pinya" pos_list="33_14" d="M129.9,75.0L117.46,42.75"/>
<g transform="translate(123.68 58.88)"><text class="rel pinya_pinya">${_rel33_14}</text></g>
<path class="rel pinya_pinya" pos_list="33_15" d="M129.9,75.0L95.76,80.35"/>
<g transform="translate(112.83 77.67)"><text class="rel pinya_pinya">${_rel33_15}</text></g>
<path class="rel pinya_pinya" pos_list="34_15" d="M106.07,106.07L95.76,80.35"/>
<g transform="translate(100.91 93.21)"><text class="rel pinya_pinya">${_rel34_15}</text></g>
<path class="rel pinya_pinya" pos_list="17_4" d="M21.71,123.1L0.0,100.0"/>
<g transform="translate(10.86 111.55)"><text class="rel pinya_pinya">${_rel17_4}</text></g>
<path class="rel pinya_pinya" pos_list="18_4" d="M-21.71,123.1L0.0,100.0"/>
<g transform="translate(-10.86 111.55)"><text class="rel pinya_pinya">${_rel18_4}</text></g>
<path class="rel pinya_pinya" pos_list="36_17" d="M38.82,144.89L21.71,123.1"/>
<g transform="translate(30.27 134.0)"><text class="rel pinya_pinya">${_rel36_17}</text></g>
<path class="rel pinya_pinya" pos_list="37_17" d="M0.0,150.0L21.71,123.1"/>
<g transform="translate(10.86 136.55)"><text class="rel pinya_pinya">${_rel37_17}</text></g>
<path class="rel pinya_pinya" pos_list="37_18" d="M0.0,150.0L-21.71,123.1"/>
<g transform="translate(-10.86 136.55)"><text class="rel pinya_pinya">${_rel37_18}</text></g>
<path class="rel pinya_pinya" pos_list="38_18" d="M-38.82,144.89L-21.71,123.1"/>
<g transform="translate(-30.27 134.0)"><text class="rel pinya_pinya">${_rel38_18}</text></g>
<path class="rel pinya_pinya" pos_list="20_6" d="M-95.76,80.35L-86.6,50.0"/>
<g transform="translate(-91.18 65.17)"><text class="rel pinya_pinya">${_rel20_6}</text></g>
<path class="rel pinya_pinya" pos_list="21_6" d="M-117.46,42.75L-86.6,50.0"/>
<g transform="translate(-102.03 46.38)"><text class="rel pinya_pinya">${_rel21_6}</text></g>
<path class="rel pinya_pinya" pos_list="40_20" d="M-106.07,106.07L-95.76,80.35"/>
<g transform="translate(-100.91 93.21)"><text class="rel pinya_pinya">${_rel40_20}</text></g>
<path class="rel pinya_pinya" pos_list="41_20" d="M-129.9,75.0L-95.76,80.35"/>
<g transform="translate(-112.83 77.67)"><text class="rel pinya_pinya">${_rel41_20}</text></g>
<path class="rel pinya_pinya" pos_list="41_21" d="M-129.9,75.0L-117.46,42.75"/>
<g transform="translate(-123.68 58.88)"><text class="rel pinya_pinya">${_rel41_21}</text></g>
<path class="rel pinya_pinya" pos_list="42_21" d="M-144.89,38.82L-117.46,42.75"/>
<g transform="translate(-131.17 40.78)"><text class="rel pinya_pinya">${_rel42_21}</text></g>
<path class="rel pinya_pinya" pos_list="23_8" d="M-117.46,-42.75L-86.6,-50.0"/>
<g transform="translate(-102.03 -46.38)"><text class="rel pinya_pinya">${_rel23_8}</text></g>
<path class="rel pinya_pinya" pos_list="24_8" d="M-95.76,-80.35L-86.6,-50.0"/>
<g transform="translate(-91.18 -65.17)"><text class="rel pinya_pinya">${_rel24_8}</text></g>
<path class="rel pinya_pinya" pos_list="44_23" d="M-144.89,-38.82L-117.46,-42.75"/>
<g transform="translate(-131.17 -40.78)"><text class="rel pinya_pinya">${_rel44_23}</text></g>
<path class="rel pinya_pinya" pos_list="45_23" d="M-129.9,-75.0L-117.46,-42.75"/>
<g transform="translate(-123.68 -58.88)"><text class="rel pinya_pinya">${_rel45_23}</text></g>
<path class="rel pinya_pinya" pos_list="45_24" d="M-129.9,-75.0L-95.76,-80.35"/>
<g transform="translate(-112.83 -77.67)"><text class="rel pinya_pinya">${_rel45_24}</text></g>
<path class="rel pinya_pinya" pos_list="46_24" d="M-106.07,-106.07L-95.76,-80.35"/>
<g transform="translate(-100.91 -93.21)"><text class="rel pinya_pinya">${_rel46_24}</text></g>
<path class="rel pinya_pinya" pos_list="26_10" d="M-21.71,-123.1L0.0,-100.0"/>
<g transform="translate(-10.86 -111.55)"><text class="rel pinya_pinya">${_rel26_10}</text></g>
<path class="rel pinya_pinya" pos_list="27_10" d="M21.71,-123.1L0.0,-100.0"/>
<g transform="translate(10.86 -111.55)"><text class="rel pinya_pinya">${_rel27_10}</text></g>
<path class="rel pinya_pinya" pos_list="48_26" d="M-38.82,-144.89L-21.71,-123.1"/>
<g transform="translate(-30.27 -134.0)"><text class="rel pinya_pinya">${_rel48_26}</text></g>
<path class="rel pinya_pinya" pos_list="49_26" d="M0.0,-150.0L-21.71,-123.1"/>
<g transform="translate(-10.86 -136.55)"><text class="rel pinya_pinya">${_rel49_26}</text></g>
<path class="rel pinya_pinya" pos_list="49_27" d="M0.0,-150.0L21.71,-123.1"/>
<g transform="translate(10.86 -136.55)"><text class="rel pinya_pinya">${_rel49_27}</text></g>
<path class="rel pinya_pinya" pos_list="50_27" d="M38.82,-144.89L21.71,-123.1"/>
<g transform="translate(30.27 -134.0)"><text class="rel pinya_pinya">${_rel50_27}</text></g>
<path class="rel pinya_pinya" pos_list="29_12" d="M95.76,-80.35L86.6,-50.0"/>
<g transform="translate(91.18 -65.17)"><text class="rel pinya_pinya">${_rel29_12}</text></g>
<path class="rel pinya_pinya" pos_list="30_12" d="M117.46,-42.75L86.6,-50.0"/>
<g transform="translate(102.03 -46.38)"><text class="rel pinya_pinya">${_rel30_12}</text></g>
<path class="rel pinya_pinya" pos_list="52_29" d="M106.07,-106.07L95.76,-80.35"/>
<g transform="translate(100.91 -93.21)"><text class="rel pinya_pinya">${_rel52_29}</text></g>
<path class="rel pinya_pinya" pos_list="53_29" d="M129.9,-75.0L95.76,-80.35"/>
<g transform="translate(112.83 -77.67)"><text class="rel pinya_pinya">${_rel53_29}</text></g>
<path class="rel pinya_pinya" pos_list="53_30" d="M129.9,-75.0L117.46,-42.75"/>
<g transform="translate(123.68 -58.88)"><text class="rel pinya_pinya">${_rel53_30}</text></g>
<path class="rel pinya_pinya" pos_list="54_30" d="M144.89,-38.82L117.46,-42.75"/>
<g transform="translate(131.17 -40.78)"><text class="rel pinya_pinya">${_rel54_30}</text></g>
<path class="rel pinya" pos_list="2" d="M86.6,50.0"/>
<g transform="translate(86.6 50.0)"></g>
<path class="rel pinya_pinya" pos_list="14_15" d="M117.46,42.75L95.76,80.35"/>
<g transform="translate(106.61 61.55)"><text class="rel pinya_pinya">${_rel14_15}</text></g>
<path class="rel pinya_pinya_pinya" pos_list="32_33_34" d="M144.89,38.82L129.9,75.0L106.07,106.07"/>
<g transform="translate(126.95 73.3)"></g>
<path class="rel pinya" pos_list="4" d="M0.0,100.0"/>
<g transform="translate(0.0 100.0)"></g>
<path class="rel pinya_pinya" pos_list="17_18" d="M21.71,123.1L-21.71,123.1"/>
<g transform="translate(0.0 123.1)"><text class="rel pinya_pinya">${_rel17_18}</text></g>
<path class="rel pinya_pinya_pinya" pos_list="36_37_38" d="M38.82,144.89L0.0,150.0L-38.82,144.89"/>
<g transform="translate(0.0 146.59)"></g>
<path class="rel pinya" pos_list="6" d="M-86.6,50.0"/>
<g transform="translate(-86.6 50.0)"></g>
<path class="rel pinya_pinya" pos_list="20_21" d="M-95.76,80.35L-117.46,42.75"/>
<g transform="translate(-106.61 61.55)"><text class="rel pinya_pinya">${_rel20_21}</text></g>
<path class="rel pinya_pinya_pinya" pos_list="40_41_42" d="M-106.07,106.07L-129.9,75.0L-144.89,38.82"/>
<g transform="translate(-126.95 73.3)"></g>
<path class="rel pinya" pos_list="8" d="M-86.6,-50.0"/>
<g transform="translate(-86.6 -50.0)"></g>
<path class="rel pinya_pinya" pos_list="23_24" d="M-117.46,-42.75L-95.76,-80.35"/>
<g transform="translate(-106.61 -61.55)"><text class="rel pinya_pinya">${_rel23_24}</text></g>
<path class="rel pinya_pinya_pinya" pos_list="44_45_46" d="M-144.89,-38.82L-129.9,-75.0L-106.07,-106.07"/>
<g transform="translate(-126.95 -73.3)"></g>
<path class="rel pinya" pos_list="10" d="M0.0,-100.0"/>
<g transform="translate(0.0 -100.0)"></g>
<path class="rel pinya_pinya" pos_list="26_27" d="M-21.71,-123.1L21.71,-123.1"/>
<g transform="translate(0.0 -123.1)"><text class="rel pinya_pinya">${_rel26_27}</text></g>
<path class="rel pinya_pinya_pinya" pos_list="48_49_50" d="M-38.82,-144.89L0.0,-150.0L38.82,-144.89"/>
<g transform="translate(0.0 -146.59)"></g>
<path class="rel pinya" pos_list="12" d="M86.6,-50.0"/>
<g transform="translate(86.6 -50.0)"></g>
<path class="rel pinya_pinya" pos_list="29_30" d="M95.76,-80.35L117.46,-42.75"/>
<g transform="translate(106.61 -61.55)"><text class="rel pinya_pinya">${_rel29_30}</text></g>
<path class="rel pinya_pinya_pinya" pos_list="52_53_54" d="M106.07,-106.07L129.9,-75.0L144.89,-38.82"/>
<g transform="translate(126.95 -73.3)"></g>
<path class="rel baix_crossa" pos_list="55_56" d="M40.0,0.0L40.0,30.0"/>
<g transform="translate(40.0 15.0)"><text class="rel baix_crossa">${_rel55_56}</text></g>
<path class="rel baix_crossa" pos_list="55_57" d="M40.0,0.0L40.0,-30.0"/>
<g transform="translate(40.0 -15.0)"><text class="rel baix_crossa">${_rel55_57}</text></g>
<path class="rel baix_crossa" pos_list="62_63" d="M-20.0,34.64L-45.98,19.64"/>
<g transform="translate(-32.99 27.14)"><text class="rel baix_crossa">${_rel62_63}</text></g>
<path class="rel baix_crossa" pos_list="62_64" d="M-20.0,34.64L5.98,49.64"/>
<g transform="translate(-7.01 42.14)"><text class="rel baix_crossa">${_rel62_64}</text></g>
<path class="rel baix_crossa" pos_list="69_70" d="M-20.0,-34.64L5.98,-49.64"/>
<g transform="translate(-7.01 -42.14)"><text class="rel baix_crossa">${_rel69_70}</text></g>
<path class="rel baix_crossa" pos_list="69_71" d="M-20.0,-34.64L-45.98,-19.64"/>
<g transform="translate(-32.99 -27.14)"><text class="rel baix_crossa">${_rel69_71}</text></g>
<path class="rel baix_agulla" pos_list="55_59" d="M40.0,0.0L20.0,0.0"/>
<g transform="translate(30.0 0.0)"><text class="rel baix_agulla">${_rel55_59}</text></g>
<path class="rel baix_agulla" pos_list="62_66" d="M-20.0,34.64L-10.0,17.32"/>
<g transform="translate(-15.0 25.98)"><text class="rel baix_agulla">${_rel62_66}</text></g>
<path class="rel baix_agulla" pos_list="69_73" d="M-20.0,-34.64L-10.0,-17.32"/>
<g transform="translate(-15.0 -25.98)"><text class="rel baix_agulla">${_rel69_73}</text></g>
<path class="rel baix_contrafort" pos_list="55_58" d="M40.0,0.0L60.0,0.0"/>
<g transform="translate(50.0 0.0)"><text class="rel baix_contrafort">${_rel55_58}</text></g>
<path class="rel baix_contrafort" pos_list="62_65" d="M-20.0,34.64L-30.0,51.96"/>
<g transform="translate(-25.0 43.3)"><text class="rel baix_contrafort">${_rel62_65}</text></g>
<path class="rel baix_contrafort" pos_list="69_72" d="M-20.0,-34.64L-30.0,-51.96"/>
<g transform="translate(-25.0 -43.3)"><text class="rel baix_contrafort">${_rel69_72}</text></g>
<path class="rel ma_baix_segon" pos_list="1_55_79" d="M100.0,0.0L40.0,0.0L187.5,0.0"/>
<g transform="translate(109.17 0.0)"></g>
<path class="rel ma_baix_segon" pos_list="5_62_80" d="M-50.0,86.6L-20.0,34.64L-93.75,162.38"/>
<g transform="translate(-54.58 94.54)"></g>
<path class="rel ma_baix_segon" pos_list="9_69_81" d="M-50.0,-86.6L-20.0,-34.64L-93.75,-162.38"/>
<g transform="translate(-54.58 -94.54)"></g>
<path class="rel vent_baix_segon" pos_list="3_55_79" d="M50.0,86.6L40.0,0.0L187.5,0.0"/>
<g transform="translate(92.5 28.87)"></g>
<path class="rel vent_baix_segon" pos_list="7_62_80" d="M-100.0,0.0L-20.0,34.64L-93.75,162.38"/>
<g transform="translate(-71.25 65.67)"></g>
<path class="rel vent_baix_segon" pos_list="11_69_81" d="M50.0,-86.6L-20.0,-34.64L-93.75,-162.38"/>
<g transform="translate(-21.25 -94.54)"></g>
<path class="rel agulla_baix_segon" pos_list="59_55_79" d="M20.0,0.0L40.0,0.0L187.5,0.0"/>
<g transform="translate(82.5 0.0)"></g>
<path class="rel agulla_baix_segon" pos_list="66_62_80" d="M-10.0,17.32L-20.0,34.64L-93.75,162.38"/>
<g transform="translate(-41.25 71.45)"></g>
<path class="rel agulla_baix_segon" pos_list="73_69_81" d="M-10.0,-17.32L-20.0,-34.64L-93.75,-162.38"/>
<g transform="translate(-41.25 -71.45)"></g>
<path class="rel baix_segon_baix_segon" pos_list="55_79_62_80" d="M40.0,0.0L187.5,0.0L-20.0,34.64L-93.75,162.38"/>
<g transform="translate(28.44 49.25)"></g>
<path class="rel baix_segon_baix_segon" pos_list="62_80_69_81" d="M-20.0,34.64L-93.75,162.38L-20.0,-34.64L-93.75,-162.38"/>
<g transform="translate(-56.88 0.0)"></g>
<path class="rel baix_segon_baix_segon" pos_list="69_81_55_79" d="M-20.0,-34.64L-93.75,-162.38L40.0,0.0L187.5,0.0"/>
<g transform="translate(28.44 -49.25)"></g>
<path class="rel lateral_baix_segon" pos_list="60_55_79" d="M70.0,25.0L40.0,0.0L187.5,0.0"/>
<g transform="translate(99.17 8.33)"></g>
<path class="rel lateral_baix_segon" pos_list="61_55_79" d="M70.0,-25.0L40.0,0.0L187.5,0.0"/>
<g transform="translate(99.17 -8.33)"></g>
<path class="rel lateral_baix_segon" pos_list="67_62_80" d="M-56.65,48.12L-20.0,34.64L-93.75,162.38"/>
<g transform="translate(-56.8 81.71)"></g>
<path class="rel lateral_baix_segon" pos_list="68_62_80" d="M-13.35,73.12L-20.0,34.64L-93.75,162.38"/>
<g transform="translate(-42.37 90.05)"></g>
<path class="rel lateral_baix_segon" pos_list="74_69_81" d="M-13.35,-73.12L-20.0,-34.64L-93.75,-162.38"/>
<g transform="translate(-42.37 -90.05)"></g>
<path class="rel lateral_baix_segon" pos_list="75_69_81" d="M-56.65,-48.12L-20.0,-34.64L-93.75,-162.38"/>
<g transform="translate(-56.8 -81.71)"></g>
</g>
</svg>