<svg xmlns="http://www.w3.org/2000/xml" xmlns:xlink="http://www.w3.org/1999/xlink" viewBox="-230 -190 460 380">
<g id="positions">
<g id="1" transform="translate(100.0 0.0) rotate(0.0)">
<g id="1_casteller" class="ma" transform="scale(.15 .15) rotate(-90)">
${_rep1}
</g>
<g transform="rotate(90) translate(0 6)">
<text id="1_text" class="ma vtext" text-anchor="middle">
1 ${_1} ${_c1}
</text>
</g>
</g>
<g id="2" transform="translate(86.6 50.0) rotate(30.0)">
<g id="2_casteller" class="pinya" transform="scale(.15 .15) rotate(-90)">
${_rep2}
</g>
<g transform="rotate(90) translate(0 6)">
<text id="2_text" class="pinya vtext" text-anchor="middle">
2 ${_2} ${_c2}
</text>
</g>
</g>
<g id="3" transform="translate(50.0 86.6) rotate(60.0)">
<g id="3_casteller" class="vent" transform="scale(.15 .15) rotate(-90)">
${_rep3}
</g>
<g transform="rotate(90) translate(0 6)">
<text id="3_text" class="vent vtext" text-anchor="middle">
3 ${_3} ${_c3}
</text>
</g>
</g>
<g id="4" transform="translate(0.0 100.0) rotate(90.0)">
<g id="4_casteller" class="pinya" transform="scale(.15 .15) rotate(-90)">
${_rep4}
</g>
<g transform="rotate(90) translate(0 6)">
<text id="4_text" class="pinya vtext" text-anchor="middle">
4 ${_4} ${_c4}
</text>
</g>
</g>
<g id="5" transform="translate(-50.0 86.6) rotate(120.0)">
<g id="5_casteller" class="ma" transform="scale(.15 .15) rotate(-90)">
${_rep5}
</g>
<g transform="rotate(90) translate(0 6)">
<text id="5_text" class="ma vtext" text-anchor="middle">
5 ${_5} ${_c5}
</text>
</g>
</g>
<g id="6" transform="translate(-86.6 50.0) rotate(150.0)">
<g id="6_casteller" class="pinya" transform="scale(.15 .15) rotate(-90)">
${_rep6}
</g>
<g transform="rotate(90) translate(0 6)">
<text id="6_text" class="pinya vtext" text-anchor="middle">
6 ${_6} ${_c6}
</text>
</g>
</g>
<g id="7" transform="translate(-100.0 0.0) rotate(180.0)">
<g id="7_casteller" class="vent" transform="scale(.15 .15) rotate(-90)">
${_rep7}
</g>
<g transform="rotate(90) translate(0 6)">
<text id="7_text" class="vent vtext" text-anchor="middle">
7 ${_7} ${_c7}
</text>
</g>
</g>
<g id="8" transform="translate(-86.6 -50.0) rotate(210.0)">
<g id="8_casteller" class="pinya" transform="scale(.15 .15) rotate(-90)">
${_rep8}
</g>
<g transform="rotate(90) translate(0 6)">
<text id="8_text" class="pinya vtext" text-anchor="middle">
8 ${_8} ${_c8}
</text>
</g>
</g>
<g id="9" transform="translate(-50.0 -86.6) rotate(240.0)">
<g id="9_casteller" class="ma" transform="scale(.15 .15) rotate(-90)">
${_rep9}
</g>
<g transform="rotate(90) translate(0 6)">
<text id="9_text" class="ma vtext" text-anchor="middle">
9 ${_9} ${_c9}
</text>
</g>
</g>
<g id="10" transform="translate(-0.0 -100.0) rotate(270.0)">
<g id="10_casteller" class="pinya" transform="scale(.15 .15) rotate(-90)">
${_rep10}
</g>
<g transform="rotate(90) translate(0 6)">
<text id="10_text" class="pinya vtext" text-anchor="middle">
10 ${_10} ${_c10}
</text>
</g>
</g>
<g id="11" transform="translate(50.0 -86.6) rotate(300.0)">
<g id="11_casteller" class="vent" transform="scale(.15 .15) rotate(-90)">
${_rep11}
</g>
<g transform="rotate(90) translate(0 6)">
<text id="11_text" class="vent vtext" text-anchor="middle">
11 ${_11} ${_c11}
</text>
</g>
</g>
<g id="12" transform="translate(86.6 -50.0) rotate(330.0)">
<g id="12_casteller" class="pinya" transform="scale(.15 .15) rotate(-90)">
${_rep12}
</g>
<g transform="rotate(90) translate(0 6)">
<text id="12_text" class="pinya vtext" text-anchor="middle">
12 ${_12} ${_c12}
</text>
</g>
</g>
<g id="13" transform="translate(125.0 0.0) rotate(0.0)">
<g id="13_casteller" class="ma" transform="scale(.15 .15) rotate(-90)">
${_rep13}
</g>
<g transform="rotate(90) translate(0 6)">
<text id="13_text" class="ma vtext" text-anchor="middle">
13 ${_13} ${_c13}
</text>
</g>
</g>
<g id="14" transform="translate(117.46 42.75) rotate(20.0)">
<g id="14_casteller" class="pinya" transform="scale(.15 .15) rotate(-90)">
${_rep14}
</g>
<g transform="rotate(90) translate(0 6)">
<text id="14_text" class="pinya vtext" text-anchor="middle">
14 ${_14} ${_c14}
</text>
</g>
</g>
<g id="15" transform="translate(95.76 80.35) rotate(40.0)">
<g id="15_casteller" class="pinya" transform="scale(.15 .15) rotate(-90)">
${_rep15}
</g>
<g transform="rotate(90) translate(0 6)">
<text id="15_text" class="pinya vtext" text-anchor="middle">
15 ${_15} ${_c15}
</text>
</g>
</g>
<g id="16" transform="translate(62.5 108.25) rotate(60.0)">
<g id="16_casteller" class="vent" transform="scale(.15 .15) rotate(-90)">
${_rep16}
</g>
<g transform="rotate(90) translate(0 6)">
<text id="16_text" class="vent vtext" text-anchor="middle">
16 ${_16} ${_c16}
</text>
</g>
</g>
<g id="17" transform="translate(21.71 123.1) rotate(80.0)">
<g id="17_casteller" class="pinya" transform="scale(.15 .15) rotate(-90)">
${_rep17}
</g>
<g transform="rotate(90) translate(0 6)">
<text id="17_text" class="pinya vtext" text-anchor="middle">
17 ${_17} ${_c17}
</text>
</g>
</g>
<g id="18" transform="translate(-21.71 123.1) rotate(100.0)">
<g id="18_casteller" class="pinya" transform="scale(.15 .15) rotate(-90)">
${_rep18}
</g>
<g transform="rotate(90) translate(0 6)">
<text id="18_text" class="pinya vtext" text-anchor="middle">
18 ${_18} ${_c18}
</text>
</g>
</g>
<g id="19" transform="translate(-62.5 108.25) rotate(120.0)">
<g id="19_casteller" class="ma" transform="scale(.15 .15) rotate(-90)">
${_rep19}
</g>
<g transform="rotate(90) translate(0 6)">
<text id="19_text" class="ma vtext" text-anchor="middle">
19 ${_19} ${_c19}
</text>
</g>
</g>
<g id="20" transform="translate(-95.76 80.35) rotate(140.0)">
<g id="20_casteller" class="pinya" transform="scale(.15 .15) rotate(-90)">
${_rep20}
</g>
<g transform="rotate(90) translate(0 6)">
<text id="20_text" class="pinya vtext" text-anchor="middle">
20 ${_20} ${_c20}
</text>
</g>
</g>
<g id="21" transform="translate(-117.46 42.75) rotate(160.0)">
<g id="21_casteller" class="pinya" transform="scale(.15 .15) rotate(-90)">
${_rep21}
</g>
<g transform="rotate(90) translate(0 6)">
<text id="21_text" class="pinya vtext" text-anchor="middle">
21 ${_21} ${_c21}
</text>
</g>
</g>
<g id="22" transform="translate(-125.0 0.0) rotate(180.0)">
<g id="22_casteller" class="vent" transform="scale(.15 .15) rotate(-90)">
${_rep22}
</g>
<g transform="rotate(90) translate(0 6)">
<text id="22_text" class="vent vtext" text-anchor="middle">
22 ${_22} ${_c22}
</text>
</g>
</g>
<g id="23" transform="translate(-117.46 -42.75) rotate(200.0)">
<g id="23_casteller" class="pinya" transform="scale(.15 .15) rotate(-90)">
${_rep23}
</g>
<g transform="rotate(90) translate(0 6)">
<text id="23_text" class="pinya vtext" text-anchor="middle">
23 ${_23} ${_c23}
</text>
</g>
</g>
<g id="24" transform="translate(-95.76 -80.35) rotate(220.0)">
<g id="24_casteller" class="pinya" transform="scale(.15 .15) rotate(-90)">
${_rep24}
</g>
<g transform="rotate(90) translate(0 6)">
<text id="24_text" class="pinya vtext" text-anchor="middle">
24 ${_24} ${_c24}
</text>
</g>
</g>
<g id="25" transform="translate(-62.5 -108.25) rotate(240.0)">
<g id="25_casteller" class="ma" transform="scale(.15 .15) rotate(-90)">
${_rep25}
</g>
<g transform="rotate(90) translate(0 6)">
<text id="25_text" class="ma vtext" text-anchor="middle">
25 ${_25} ${_c25}
</text>
</g>
</g>
<g id="26" transform="translate(-21.71 -123.1) rotate(260.0)">
<g id="26_casteller" class="pinya" transform="scale(.15 .15) rotate(-90)">
${_rep26}
</g>
<g transform="rotate(90) translate(0 6)">
<text id="26_text" class="pinya vtext" text-anchor="middle">
26 ${_26} ${_c26}
</text>
</g>
</g>
<g id="27" transform="translate(21.71 -123.1) rotate(280.0)">
<g id="27_casteller" class="pinya" transform="scale(.15 .15) rotate(-90)">
${_rep27}
</g>
<g transform="rotate(90) translate(0 6)">
<text id="27_text" class="pinya vtext" text-anchor="middle">
27 ${_27} ${_c27}
</text>
</g>
</g>
<g id="28" transform="translate(62.5 -108.25) rotate(300.0)">
<g id="28_casteller" class="vent" transform="scale(.15 .15) rotate(-90)">
${_rep28}
</g>
<g transform="rotate(90) translate(0 6)">
<text id="28_text" class="vent vtext" text-anchor="middle">
28 ${_28} ${_c28}
</text>
</g>
</g>
<g id="29" transform="translate(95.76 -80.35) rotate(320.0)">
<g id="29_casteller" class="pinya" transform="scale(.15 .15) rotate(-90)">
${_rep29}
</g>
<g transform="rotate(90) translate(0 6)">
<text id="29_text" class="pinya vtext" text-anchor="middle">
29 ${_29} ${_c29}
</text>
</g>
</g>
<g id="30" transform="translate(117.46 -42.75) rotate(340.0)">
<g id="30_casteller" class="pinya" transform="scale(.15 .15) rotate(-90)">
${_rep30}
</g>
<g transform="rotate(90) translate(0 6)">
<text id="30_text" class="pinya vtext" text-anchor="middle">
30 ${_30} ${_c30}
</text>
</g>
</g>
<g id="31" transform="translate(150.0 0.0) rotate(0.0)">
<g id="31_casteller" class="ma" transform="scale(.15 .15) rotate(-90)">
${_rep31}
</g>
<g transform="rotate(90) translate(0 6)">
<text id="31_text" class="ma vtext" text-anchor="middle">
31 ${_31} ${_c31}
</text>
</g>
</g>
<g id="32" transform="translate(144.89 38.82) rotate(15.0)">
<g id="32_casteller" class="pinya" transform="scale(.15 .15) rotate(-90)">
${_rep32}
</g>
<g transform="rotate(90) translate(0 6)">
<text id="32_text" class="pinya vtext" text-anchor="middle">
32 ${_32} ${_c32}
</text>
</g>
</g>
<g id="33" transform="translate(129.9 75.0) rotate(30.0)">
<g id="33_casteller" class="pinya" transform="scale(.15 .15) rotate(-90)">
${_rep33}
</g>
<g transform="rotate(90) translate(0 6)">
<text id="33_text" class="pinya vtext" text-anchor="middle">
33 ${_33} ${_c33}
</text>
</g>
</g>
<g id="34" transform="translate(106.07 106.07) rotate(45.0)">
<g id="34_casteller" class="pinya" transform="scale(.15 .15) rotate(-90)">
${_rep34}
</g>
<g transform="rotate(90) translate(0 6)">
<text id="34_text" class="pinya vtext" text-anchor="middle">
34 ${_34} ${_c34}
</text>
</g>
</g>
<g id="35" transform="translate(75.0 129.9) rotate(60.0)">
<g id="35_casteller" class="vent" transform="scale(.15 .15) rotate(-90)">
${_rep35}
</g>
<g transform="rotate(90) translate(0 6)">
<text id="35_text" class="vent vtext" text-anchor="middle">
35 ${_35} ${_c35}
</text>
</g>
</g>
<g id="36" transform="translate(38.82 144.89) rotate(75.0)">
<g id="36_casteller" class="pinya" transform="scale(.15 .15) rotate(-90)">
${_rep36}
</g>
<g transform="rotate(90) translate(0 6)">
<text id="36_text" class="pinya vtext" text-anchor="middle">
36 ${_36} ${_c36}
</text>
</g>
</g>
<g id="37" transform="translate(0.0 150.0) rotate(90.0)">
<g id="37_casteller" class="pinya" transform="scale(.15 .15) rotate(-90)">
${_rep37}
</g>
<g transform="rotate(90) translate(0 6)">
<text id="37_text" class="pinya vtext" text-anchor="middle">
37 ${_37} ${_c37}
</text>
</g>
</g>
<g id="38" transform="translate(-38.82 144.89) rotate(105.0)">
<g id="38_casteller" class="pinya" transform="scale(.15 .15) rotate(-90)">
${_rep38}
</g>
<g transform="rotate(90) translate(0 6)">
<text id="38_text" class="pinya vtext" text-anchor="middle">
38 ${_38} ${_c38}
</text>
</g>
</g>
<g id="39" transform="translate(-75.0 129.9) rotate(120.0)">
<g id="39_casteller" class="ma" transform="scale(.15 .15) rotate(-90)">
${_rep39}
</g>
<g transform="rotate(90) translate(0 6)">
<text id="39_text" class="ma vtext" text-anchor="middle">
39 ${_39} ${_c39}
</text>
</g>
</g>
<g id="40" transform="translate(-106.07 106.07) rotate(135.0)">
<g id="40_casteller" class="pinya" transform="scale(.15 .15) rotate(-90)">
${_rep40}
</g>
<g transform="rotate(90) translate(0 6)">
<text id="40_text" class="pinya vtext" text-anchor="middle">
40 ${_40} ${_c40}
</text>
</g>
</g>
<g id="41" transform="translate(-129.9 75.0) rotate(150.0)">
<g id="41_casteller" class="pinya" transform="scale(.15 .15) rotate(-90)">
${_rep41}
</g>
<g transform="rotate(90) translate(0 6)">
<text id="41_text" class="pinya vtext" text-anchor="middle">
41 ${_41} ${_c41}
</text>
</g>
</g>
<g id="42" transform="translate(-144.89 38.82) rotate(165.0)">
<g id="42_casteller" class="pinya" transform="scale(.15 .15) rotate(-90)">
${_rep42}
</g>
<g transform="rotate(90) translate(0 6)">
<text id="42_text" class="pinya vtext" text-anchor="middle">
42 ${_42} ${_c42}
</text>
</g>
</g>
<g id="43" transform="translate(-150.0 0.0) rotate(180.0)">
<g id="43_casteller" class="vent" transform="scale(.15 .15) rotate(-90)">
${_rep43}
</g>
<g transform="rotate(90) translate(0 6)">
<text id="43_text" class="vent vtext" text-anchor="middle">
43 ${_43} ${_c43}
</text>
</g>
</g>
<g id="44" transform="translate(-144.89 -38.82) rotate(195.0)">
<g id="44_casteller" class="pinya" transform="scale(.15 .15) rotate(-90)">
${_rep44}
</g>
<g transform="rotate(90) translate(0 6)">
<text id="44_text" class="pinya vtext" text-anchor="middle">
44 ${_44} ${_c44}
</text>
</g>
</g>
<g id="45" transform="translate(-129.9 -75.0) rotate(210.0)">
<g id="45_casteller" class="pinya" transform="scale(.15 .15) rotate(-90)">
${_rep45}
</g>
<g transform="rotate(90) translate(0 6)">
<text id="45_text" class="pinya vtext" text-anchor="middle">
45 ${_45} ${_c45}
</text>
</g>
</g>
<g id="46" transform="translate(-106.07 -106.07) rotate(225.0)">
<g id="46_casteller" class="pinya" transform="scale(.15 .15) rotate(-90)">
${_rep46}
</g>
<g transform="rotate(90) translate(0 6)">
<text id="46_text" class="pinya vtext" text-anchor="middle">
46 ${_46} ${_c46}
</text>
</g>
</g>
<g id="47" transform="translate(-75.0 -129.9) rotate(240.0)">
<g id="47_casteller" class="ma" transform="scale(.15 .15) rotate(-90)">
${_rep47}
</g>
<g transform="rotate(90) translate(0 6)">
<text id="47_text" class="ma vtext" text-anchor="middle">
47 ${_47} ${_c47}
</text>
</g>
</g>
<g id="48" transform="translate(-38.82 -144.89) rotate(255.0)">
<g id="48_casteller" class="pinya" transform="scale(.15 .15) rotate(-90)">
${_rep48}
</g>
<g transform="rotate(90) translate(0 6)">
<text id="48_text" class="pinya vtext" text-anchor="middle">
48 ${_48} ${_c48}
</text>
</g>
</g>
<g id="49" transform="translate(-0.0 -150.0) rotate(270.0)">
<g id="49_casteller" class="pinya" transform="scale(.15 .15) rotate(-90)">
${_rep49}
</g>
<g transform="rotate(90) translate(0 6)">
<text id="49_text" class="pinya vtext" text-anchor="middle">
49 ${_49} ${_c49}
</text>
</g>
</g>
<g id="50" transform="translate(38.82 -144.89) rotate(285.0)">
<g id="50_casteller" class="pinya" transform="scale(.15 .15) rotate(-90)">
${_rep50}
</g>
<g transform="rotate(90) translate(0 6)">
<text id="50_text" class="pinya vtext" text-anchor="middle">
50 ${_50} ${_c50}
</text>
</g>
</g>
<g id="51" transform="translate(75.0 -129.9) rotate(300.0)">
<g id="51_casteller" class="vent" transform="scale(.15 .15) rotate(-90)">
${_rep51}
</g>
<g transform="rotate(90) translate(0 6)">
<text id="51_text" class="vent vtext" text-anchor="middle">
51 ${_51} ${_c51}
</text>
</g>
</g>
<g id="52" transform="translate(106.07 -106.07) rotate(315.0)">
<g id="52_casteller" class="pinya" transform="scale(.15 .15) rotate(-90)">
${_rep52}
</g>
<g transform="rotate(90) translate(0 6)">
<text id="52_text" class="pinya vtext" text-anchor="middle">
52 ${_52} ${_c52}
</text>
</g>
</g>
<g id="53" transform="translate(129.9 -75.0) rotate(330.0)">
<g id="53_casteller" class="pinya" transform="scale(.15 .15) rotate(-90)">
${_rep53}
</g>
<g transform="rotate(90) translate(0 6)">
<text id="53_text" class="pinya vtext" text-anchor="middle">
53 ${_53} ${_c53}
</text>
</g>
</g>
<g id="54" transform="translate(144.89 -38.82) rotate(345.0)">
<g id="54_casteller" class="pinya" transform="scale(.15 .15) rotate(-90)">
${_rep54}
</g>
<g transform="rotate(90) translate(0 6)">
<text id="54_text" class="pinya vtext" text-anchor="middle">
54 ${_54} ${_c54}
</text>
</g>
</g>
<g id="baixos_gp_0" transform="translate(40.0 0.0) rotate(0.0)">
<g id="55" transform="translate(0 0) rotate(0)">
<g id="55_casteller" class="baix" transform="scale(.15 .15) rotate(-90)">
${_rep55}
</g>
<g transform="rotate(90) translate(0 6)">
<text id="55_text" class="baix vtext" text-anchor="middle">
55 ${_55} ${_c55}
</text>
</g>
</g>
<g id="56" transform="translate(0 30) rotate(90)">
<g id="56_casteller" class="crossa" transform="scale(.15 .15) rotate(-90)">
${_rep56}
</g>
<g transform="rotate(90) translate(0 6)">
<text id="56_text" class="crossa vtext" text-anchor="middle">
56 ${_56} ${_c56}
</text>
</g>
</g>
<g id="57" transform="translate(0 -30) rotate(-90)">
<g id="57_casteller" class="crossa" transform="scale(.15 .15) rotate(-90)">
${_rep57}
</g>
<g transform="rotate(90) translate(0 6)">
<text id="57_text" class="crossa vtext" text-anchor="middle">
57 ${_57} ${_c57}
</text>
</g>
</g>
<g id="58" transform="translate(20 0) rotate(0)">
<g id="58_casteller" class="contrafort" transform="scale(.15 .15) rotate(-90)">
${_rep58}
</g>
<g transform="rotate(90) translate(0 6)">
<text id="58_text" class="contrafort vtext" text-anchor="middle">
58 ${_58} ${_c58}
</text>
</g>
</g>
<g id="59" transform="translate(-20 0) rotate(0)">
<g id="59_casteller" class="agulla" transform="scale(.15 .15) rotate(-90)">
${_rep59}
</g>
<g transform="rotate(90) translate(0 6)">
<text id="59_text" class="agulla vtext" text-anchor="middle">
59 ${_59} ${_c59}
</text>
</g>
</g>
<g id="60" transform="translate(30 25) rotate(30)">
<g id="60_casteller" class="lateral" transform="scale(.15 .15) rotate(-90)">
${_rep60}
</g>
<g transform="rotate(90) translate(0 6)">
<text id="60_text" class="lateral vtext" text-anchor="middle">
60 ${_60} ${_c60}
</text>
</g>
</g>
<g id="61" transform="translate(30 -25) rotate(-30)">
<g id="61_casteller" class="lateral" transform="scale(.15 .15) rotate(-90)">
${_rep61}
</g>
<g transform="rotate(90) translate(0 6)">
<text id="61_text" class="lateral vtext" text-anchor="middle">
61 ${_61} ${_c61}
</text>
</g>
</g>
</g>
<g id="baixos_gp_1" transform="translate(-20.0 34.64) rotate(120.0)">
<g id="62" transform="translate(0 0) rotate(0)">
<g id="62_casteller" class="baix" transform="scale(.15 .15) rotate(-90)">
${_rep62}
</g>
<g transform="rotate(90) translate(0 6)">
<text id="62_text" class="baix vtext" text-anchor="middle">
62 ${_62} ${_c62}
</text>
</g>
</g>
<g id="63" transform="translate(0 30) rotate(90)">
<g id="63_casteller" class="crossa" transform="scale(.15 .15) rotate(-90)">
${_rep63}
</g>
<g transform="rotate(90) translate(0 6)">
<text id="63_text" class="crossa vtext" text-anchor="middle">
63 ${_63} ${_c63}
</text>
</g>
</g>
<g id="64" transform="translate(0 -30) rotate(-90)">
<g id="64_casteller" class="crossa" transform="scale(.15 .15) rotate(-90)">
${_rep64}
</g>
<g transform="rotate(90) translate(0 6)">
<text id="64_text" class="crossa vtext" text-anchor="middle">
64 ${_64} ${_c64}
</text>
</g>
</g>
<g id="65" transform="translate(20 0) rotate(0)">
<g id="65_casteller" class="contrafort" transform="scale(.15 .15) rotate(-90)">
${_rep65}
</g>
<g transform="rotate(90) translate(0 6)">
<text id="65_text" class="contrafort vtext" text-anchor="middle">
65 ${_65} ${_c65}
</text>
</g>
</g>
<g id="66" transform="translate(-20 0) rotate(0)">
<g id="66_casteller" class="agulla" transform="scale(.15 .15) rotate(-90)">
${_rep66}
</g>
<g transform="rotate(90) translate(0 6)">
<text id="66_text" class="agulla vtext" text-anchor="middle">
66 ${_66} ${_c66}
</text>
</g>
</g>
<g id="67" transform="translate(30 25) rotate(30)">
<g id="67_casteller" class="lateral" transform="scale(.15 .15) rotate(-90)">
${_rep67}
</g>
<g transform="rotate(90) translate(0 6)">
<text id="67_text" class="lateral vtext" text-anchor="middle">
67 ${_67} ${_c67}
</text>
</g>
</g>
<g id="68" transform="translate(30 -25) rotate(-30)">
<g id="68_casteller" class="lateral" transform="scale(.15 .15) rotate(-90)">
${_rep68}
</g>
<g transform="rotate(90) translate(0 6)">
<text id="68_text" class="lateral vtext" text-anchor="middle">
68 ${_68} ${_c68}
</text>
</g>
</g>
</g>
<g id="baixos_gp_2" transform="translate(-20.0 -34.64) rotate(240.0)">
<g id="69" transform="translate(0 0) rotate(0)">
<g id="69_casteller" class="baix" transform="scale(.15 .15) rotate(-90)">
${_rep69}
</g>
<g transform="rotate(90) translate(0 6)">
<text id="69_text" class="baix vtext" text-anchor="middle">
69 ${_69} ${_c69}
</text>
</g>
</g>
<g id="70" transform="translate(0 30) rotate(90)">
<g id="70_casteller" class="crossa" transform="scale(.15 .15) rotate(-90)">
${_rep70}
</g>
<g transform="rotate(90) translate(0 6)">
<text id="70_text" class="crossa vtext" text-anchor="middle">
70 ${_70} ${_c70}
</text>
</g>
</g>
<g id="71" transform="translate(0 -30) rotate(-90)">
<g id="71_casteller" class="crossa" transform="scale(.15 .15) rotate(-90)">
${_rep71}
</g>
<g transform="rotate(90) translate(0 6)">
<text id="71_text" class="crossa vtext" text-anchor="middle">
71 ${_71} ${_c71}
</text>
</g>
</g>
<g id="72" transform="translate(20 0) rotate(0)">
<g id="72_casteller" class="contrafort" transform="scale(.15 .15) rotate(-90)">
${_rep72}
</g>
<g transform="rotate(90) translate(0 6)">
<text id="72_text" class="contrafort vtext" text-anchor="middle">
72 ${_72} ${_c72}
</text>
</g>
</g>
<g id="73" transform="translate(-20 0) rotate(0)">
<g id="73_casteller" class="agulla" transform="scale(.15 .15) rotate(-90)">
${_rep73}
</g>
<g transform="rotate(90) translate(0 6)">
<text id="73_text" class="agulla vtext" text-anchor="middle">
73 ${_73} ${_c73}
</text>
</g>
</g>
<g id="74" transform="translate(30 25) rotate(30)">
<g id="74_casteller" class="lateral" transform="scale(.15 .15) rotate(-90)">
${_rep74}
</g>
<g transform="rotate(90) translate(0 6)">
<text id="74_text" class="lateral vtext" text-anchor="middle">
74 ${_74} ${_c74}
</text>
</g>
</g>
<g id="75" transform="translate(30 -25) rotate(-30)">
<g id="75_casteller" class="lateral" transform="scale(.15 .15) rotate(-90)">
${_rep75}
</g>
<g transform="rotate(90) translate(0 6)">
<text id="75_text" class="lateral vtext" text-anchor="middle">
75 ${_75} ${_c75}
</text>
</g>
</g>
</g>
<g id="portacrossa_gp_0" transform="translate(35.0 60.62) rotate(60.0)">
<g id="76" transform="translate(0 0) rotate(0)">
<g id="76_casteller" class="portacrossa" transform="scale(.15 .15) rotate(-90)">
${_rep76}
</g>
<g transform="rotate(90) translate(0 6)">
<text id="76_text" class="portacrossa vtext" text-anchor="middle">
76 ${_76} ${_c76}
</text>
</g>
</g>
</g>
<g id="portacrossa_gp_1" transform="translate(-70.0 0.0) rotate(180.0)">
<g id="77" transform="translate(0 0) rotate(0)">
<g id="77_casteller" class="portacrossa" transform="scale(.15 .15) rotate(-90)">
${_rep77}
</g>
<g transform="rotate(90) translate(0 6)">
<text id="77_text" class="portacrossa vtext" text-anchor="middle">
77 ${_77} ${_c77}
</text>
</g>
</g>
</g>
<g id="portacrossa_gp_2" transform="translate(35.0 -60.62) rotate(300.0)">
<g id="78" transform="translate(0 0) rotate(0)">
<g id="78_casteller" class="portacrossa" transform="scale(.15 .15) rotate(-90)">
${_rep78}
</g>
<g transform="rotate(90) translate(0 6)">
<text id="78_text" class="portacrossa vtext" text-anchor="middle">
78 ${_78} ${_c78}
</text>
</g>
</g>
</g>
<g id="79" transform="translate(187.5 0.0) rotate(0.0)">
<g id="79_casteller" class="segon" transform="scale(.15 .15) rotate(-90)">
${_rep79}
</g>
<g transform="rotate(90) translate(0 6)">
<text id="79_text" class="segon vtext" text-anchor="middle">
79 ${_79} ${_c79}
</text>
</g>
</g>
<g id="80" transform="translate(-93.75 162.38) rotate(120.0)">
<g id="80_casteller" class="segon" transform="scale(.15 .15) rotate(-90)">
${_rep80}
</g>
<g transform="rotate(90) translate(0 6)">
<text id="80_text" class="segon vtext" text-anchor="middle">
80 ${_80} ${_c80}
</text>
</g>
</g>
<g id="81" transform="translate(-93.75 -162.38) rotate(240.0)">
<g id="81_casteller" class="segon" transform="scale(.15 .15) rotate(-90)">
${_rep81}
</g>
<g transform="rotate(90) translate(0 6)">
<text id="81_text" class="segon vtext" text-anchor="middle">
81 ${_81} ${_c81}
</text>
</g>
</g>
</g>
<g id="relations">
<path class="rel ma_ma" pos_list="13_1" d="M129.15317054,4.78958896431L100.221016607,3.21512268156"/>
<g transform="translate(114.69 4.0)"><text class="rel ma_ma">${_rel13_1}</text></g>
<path class="rel ma_ma" pos_list="31_13" d="M152.860213777,3.8454115078L129.949493114,2.82432829"/>
<g transform="translate(141.4 3.33)"><text class="rel ma_ma">${_rel31_13}</text></g>
<path class="rel vent_vent" pos_list="16_3" d="M63.706418044,109.515503082L52.8392698991,86.965540138"/>
<g transform="translate(58.27 98.24)"><text class="rel vent_vent">${_rel16_3}</text></g>
<path class="rel vent_vent" pos_list="35_16" d="M79.3959810603,130.094413579L66.4978663017,112.000122745"/>
<g transform="translate(72.95 121.05)"><text class="rel vent_vent">${_rel35_16}</text></g>
<path class="rel ma_ma" pos_list="19_5" d="M-59.2908501052,110.421506098L-45.9853600854,87.6464329315"/>
<g transform="translate(-52.64 99.03)"><text class="rel ma_ma">${_rel19_5}</text></g>
<path class="rel ma_ma" pos_list="39_19" d="M-71.443322525,131.582741465L-59.0856411909,111.495077083"/>
<g transform="translate(-65.26 121.54)"><text class="rel ma_ma">${_rel39_19}</text></g>
<path class="rel vent_vent" pos_list="22_7" d="M-123.85001797,4.52750882663L-97.6900723371,2.26995718647"/>
<g transform="translate(-110.77 3.4)"><text class="rel vent_vent">${_rel22_7}</text></g>
<path class="rel vent_vent" pos_list="43_22" d="M-148.782064556,3.59078547267L-123.248150176,0.376748734269"/>
<g transform="translate(-136.02 1.98)"><text class="rel vent_vent">${_rel43_22}</text></g>
<path class="rel ma_ma" pos_list="25_9" d="M-58.6290264816,-104.730537089L-45.1733020535,-86.1699620431"/>
<g transform="translate(-51.9 -95.45)"><text class="rel ma_ma">${_rel25_9}</text></g>
<path class="rel ma_ma" pos_list="47_25" d="M-70.2279026638,-128.08851132L-60.3661385722,-106.544491913"/>
<g transform="translate(-65.3 -117.32)"><text class="rel ma_ma">${_rel47_25}</text></g>
<path class="rel vent_vent" pos_list="28_11" d="M64.140621781,-107.257321805L52.3670746431,-82.1420289951"/>
<g transform="translate(58.25 -94.7)"><text class="rel vent_vent">${_rel28_11}</text></g>
<path class="rel vent_vent" pos_list="51_28" d="M76.5435779015,-129.408996913L64.7266994163,-104.751301184"/>
<g transform="translate(70.64 -117.08)"><text class="rel vent_vent">${_rel51_28}</text></g>
<path class="rel pinya_pinya" pos_list="14_2" d="M117.732736954,45.8125174895L88.4963736903,50.2204993177"/>
<g transform="translate(103.11 48.02)"><text class="rel pinya_pinya">${_rel14_2}</text></g>
<path class="rel pinya_pinya" pos_list="15_2" d="M96.5251377727,83.03225777L89.0042540147,54.409339605"/>
<g transform="translate(92.76 68.72)"><text class="rel pinya_pinya">${_rel15_2}</text></g>
<path class="rel pinya_pinya" pos_list="32_14" d="M149.025631891,40.0522710124L118.516933246,44.2574492195"/>
<g transform="translate(133.77 42.15)"><text class="rel pinya_pinya">${_rel32_14}</text></g>
<path class="rel pinya_pinya" pos_list="33_14" d="M134.762600234,76.1719299936L120.613886574,46.1162004657"/>
<g transform="translate(127.69 61.14)"><text class="rel pinya_pinya">${_rel33_14}</text></g>
<path class="rel pinya_pinya" pos_list="33_15" d="M133.904164325,78.1331535584L98.4650093589,81.0174309383"/>
<g transform="translate(116.18 79.58)"><text class="rel pinya_pinya">${_rel33_15}</text></g>
<path class="rel pinya_pinya" pos_list="34_15" d="M106.625587548,107.968075472L96.7687893608,83.2468700065"/>
<g transform="translate(101.7 95.61)"><text class="rel pinya_pinya">${_rel34_15}</text></g>
<path class="rel pinya_pinya" pos_list="17_4" d="M22.3279251543,124.883446671L3.65551671707,100.021061425"/>
<g transform="translate(12.99 112.45)"><text class="rel pinya_pinya">${_rel17_4}</text></g>
<path class="rel pinya_pinya" pos_list="18_4" d="M-20.5196162287,123.102452377L4.87225022568,102.313892537"/>
<g transform="translate(-7.82 112.71)"><text class="rel pinya_pinya">${_rel18_4}</text></g>
<path class="rel pinya_pinya" pos_list="36_17" d="M39.3419490123,149.443666728L22.6960068388,126.812743368"/>
<g transform="translate(31.02 138.13)"><text class="rel pinya_pinya">${_rel36_17}</text></g>
<path class="rel pinya_pinya" pos_list="37_17" d="M4.12706477647,150.928172046L21.9045528178,125.627523422"/>
<g transform="translate(13.02 138.28)"><text class="rel pinya_pinya">${_rel37_17}</text></g>
<path class="rel pinya_pinya" pos_list="37_18" d="M1.97783853599,151.252779661L-20.9490943644,123.585996606"/>
<g transform="translate(-9.49 137.42)"><text class="rel pinya_pinya">${_rel37_18}</text></g>
<path class="rel pinya_pinya" pos_list="38_18" d="M-36.3369020216,146.364147465L-18.4456499155,127.486271939"/>
<g transform="translate(-27.39 136.93)"><text class="rel pinya_pinya">${_rel38_18}</text></g>
<path class="rel pinya_pinya" pos_list="20_6" d="M-92.7826578594,83.4040158293L-86.3684642457,50.9938159733"/>
<g transform="translate(-89.58 67.2)"><text class="rel pinya_pinya">${_rel20_6}</text></g>
<path class="rel pinya_pinya" pos_list="21_6" d="M-116.740229112,46.0345824649L-83.2919029866,53.5239144286"/>
<g transform="translate(-100.02 49.78)"><text class="rel pinya_pinya">${_rel21_6}</text></g>
<path class="rel pinya_pinya" pos_list="40_20" d="M-105.284787647,110.127549029L-95.3506623874,82.3804636598"/>
<g transform="translate(-100.32 96.25)"><text class="rel pinya_pinya">${_rel40_20}</text></g>
<path class="rel pinya_pinya" pos_list="41_20" d="M-125.03752974,79.8872493932L-92.3534781903,84.2765859436"/>
<g transform="translate(-108.7 82.08)"><text class="rel pinya_pinya">${_rel41_20}</text></g>
<path class="rel pinya_pinya" pos_list="41_21" d="M-127.244765519,78.1667623822L-116.730419057,47.2907277602"/>
<g transform="translate(-121.99 62.73)"><text class="rel pinya_pinya">${_rel41_21}</text></g>
<path class="rel pinya_pinya" pos_list="42_21" d="M-140.257360823,42.4421562858L-116.443244853,46.8677635941"/>
<g transform="translate(-128.35 44.65)"><text class="rel pinya_pinya">${_rel42_21}</text></g>
<path class="rel pinya_pinya" pos_list="23_8" d="M-115.540534091,-38.1154156529L-86.2327315277,-45.0484847147"/>
<g transform="translate(-100.89 -41.58)"><text class="rel pinya_pinya">${_rel23_8}</text></g>
<path class="rel pinya_pinya" pos_list="24_8" d="M-91.3563078829,-75.5637194775L-82.4070737457,-47.4866383758"/>
<g transform="translate(-86.88 -61.53)"><text class="rel pinya_pinya">${_rel24_8}</text></g>
<path class="rel pinya_pinya" pos_list="44_23" d="M-141.490327622,-34.1811299597L-115.794825353,-38.502156555"/>
<g transform="translate(-128.64 -36.34)"><text class="rel pinya_pinya">${_rel44_23}</text></g>
<path class="rel pinya_pinya" pos_list="45_23" d="M-126.112747539,-70.0035213211L-117.456252043,-41.554543109"/>
<g transform="translate(-121.78 -55.78)"><text class="rel pinya_pinya">${_rel45_23}</text></g>
<path class="rel pinya_pinya" pos_list="45_24" d="M-126.305962159,-72.6403604262L-93.3497093428,-76.1649389597"/>
<g transform="translate(-109.83 -74.4)"><text class="rel pinya_pinya">${_rel45_24}</text></g>
<path class="rel pinya_pinya" pos_list="46_24" d="M-102.311179075,-101.630889547L-92.3938972557,-75.7982286824"/>
<g transform="translate(-97.35 -88.71)"><text class="rel pinya_pinya">${_rel46_24}</text></g>
<path class="rel pinya_pinya" pos_list="26_10" d="M-21.2891252937,-121.576098278L1.19984155967,-97.123672558"/>
<g transform="translate(-10.04 -109.35)"><text class="rel pinya_pinya">${_rel26_10}</text></g>
<path class="rel pinya_pinya" pos_list="27_10" d="M25.4035370738,-121.244243997L2.78791795829,-95.6477237089"/>
<g transform="translate(14.1 -108.45)"><text class="rel pinya_pinya">${_rel27_10}</text></g>
<path class="rel pinya_pinya" pos_list="48_26" d="M-34.9535325908,-143.634068985L-17.424860592,-119.055495063"/>
<g transform="translate(-26.19 -131.34)"><text class="rel pinya_pinya">${_rel48_26}</text></g>
<path class="rel pinya_pinya" pos_list="49_26" d="M4.1627662342,-146.604901353L-18.4528592252,-119.008041288"/>
<g transform="translate(-7.15 -132.81)"><text class="rel pinya_pinya">${_rel49_26}</text></g>
<path class="rel pinya_pinya" pos_list="49_27" d="M2.51965787501,-147.936715291L21.7545772257,-120.100984872"/>
<g transform="translate(12.14 -134.02)"><text class="rel pinya_pinya">${_rel49_27}</text></g>
<path class="rel pinya_pinya" pos_list="50_27" d="M39.3769162453,-140.094706094L25.3541980755,-119.192783292"/>
<g transform="translate(32.37 -129.64)"><text class="rel pinya_pinya">${_rel50_27}</text></g>
<path class="rel pinya_pinya" pos_list="29_12" d="M96.4628212578,-77.7936999363L90.3759073572,-45.6606011255"/>
<g transform="translate(93.42 -61.73)"><text class="rel pinya_pinya">${_rel29_12}</text></g>
<path class="rel pinya_pinya" pos_list="30_12" d="M120.882951153,-40.8455623718L89.3334134647,-49.6178763464"/>
<g transform="translate(105.11 -45.23)"><text class="rel pinya_pinya">${_rel30_12}</text></g>
<path class="rel pinya_pinya" pos_list="52_29" d="M108.316985681,-102.724137873L96.3955787953,-77.7048825032"/>
<g transform="translate(102.36 -90.21)"><text class="rel pinya_pinya">${_rel52_29}</text></g>
<path class="rel pinya_pinya" pos_list="53_29" d="M132.229787351,-71.8406015745L97.7569814816,-79.7912914132"/>
<g transform="translate(114.99 -75.82)"><text class="rel pinya_pinya">${_rel53_29}</text></g>
<path class="rel pinya_pinya" pos_list="53_30" d="M132.215784383,-72.8041261113L118.928761807,-38.6065540871"/>
<g transform="translate(125.57 -55.71)"><text class="rel pinya_pinya">${_rel53_30}</text></g>
<path class="rel pinya_pinya" pos_list="54_30" d="M149.303138339,-36.2139647936L121.11776421,-38.5734148396"/>
<g transform="translate(135.21 -37.39)"><text class="rel pinya_pinya">${_rel54_30}</text></g>
<path class="rel pinya" pos_list="2" d="M88.5671528582,54.6336422489"/>
<g transform="translate(88.57 54.63)"></g>
<path class="rel pinya_pinya" pos_list="14_15" d="M118.535899143,44.3831415592L99.2250985837,82.1466569923"/>
<g transform="translate(108.88 63.26)"><text class="rel pinya_pinya">${_rel14_15}</text></g>
<path class="rel pinya_pinya_pinya" pos_list="32_33_34" d="M146.308550225,41.6373387892L133.949409135,79.3373666666L109.57469738,108.518469955"/>
<g transform="translate(129.94 76.5)"></g>
<path class="rel pinya" pos_list="4" d="M0.335079624724,100.75000613"/>
<g transform="translate(0.34 100.75)"></g>
<path class="rel pinya_pinya" pos_list="17_18" d="M24.3785609669,126.515658398L-19.4600380492,126.829972809"/>
<g transform="translate(2.46 126.67)"><text class="rel pinya_pinya">${_rel17_18}</text></g>
<path class="rel pinya_pinya_pinya" pos_list="36_37_38" d="M40.1701801367,146.478687938L0.725438907584,150.409012441L-36.6537186989,146.634702961"/>
<g transform="translate(1.41 147.84)"></g>
<path class="rel pinya" pos_list="6" d="M-86.2774354762,50.4084065468"/>
<g transform="translate(-86.28 50.41)"></g>
<path class="rel pinya_pinya" pos_list="20_21" d="M-93.1990311622,80.9883154275L-115.023685696,43.6042845091"/>
<g transform="translate(-104.11 62.3)"><text class="rel pinya_pinya">${_rel20_21}</text></g>
<path class="rel pinya_pinya_pinya" pos_list="40_41_42" d="M-105.207131785,108.838012916L-129.728964325,79.9829162621L-140.989454183,40.0815693506"/>
<g transform="translate(-125.31 76.3)"></g>
<path class="rel pinya" pos_list="8" d="M-85.4377336399,-46.5593110142"/>
<g transform="translate(-85.44 -46.56)"></g>
<path class="rel pinya_pinya" pos_list="23_24" d="M-117.216970045,-39.5396592858L-91.4667271529,-78.7250057933"/>
<g transform="translate(-104.34 -59.13)"><text class="rel pinya_pinya">${_rel23_24}</text></g>
<path class="rel pinya_pinya_pinya" pos_list="44_45_46" d="M-144.300897869,-37.2577669557L-128.758513194,-72.2408069875L-105.10739967,-101.98003272"/>
<g transform="translate(-126.06 -70.49)"></g>
<path class="rel pinya" pos_list="10" d="M2.47006573385,-95.1695239637"/>
<g transform="translate(2.47 -95.17)"></g>
<path class="rel pinya_pinya" pos_list="26_27" d="M-19.5379445165,-118.25798153L25.8312864078,-118.136666587"/>
<g transform="translate(3.15 -118.2)"><text class="rel pinya_pinya">${_rel26_27}</text></g>
<path class="rel pinya_pinya_pinya" pos_list="48_49_50" d="M-38.7595900881,-142.434456712L2.06325996203,-149.044357404L39.4447973018,-141.019810827"/>
<g transform="translate(0.92 -144.17)"></g>
<path class="rel pinya" pos_list="12" d="M90.1366516404,-48.7939814471"/>
<g transform="translate(90.14 -48.79)"></g>
<path class="rel pinya_pinya" pos_list="29_30" d="M97.3736934929,-76.2625406971L119.576565308,-41.1513690808"/>
<g transform="translate(108.48 -58.71)"><text class="rel pinya_pinya">${_rel29_30}</text></g>
<path class="rel pinya_pinya_pinya" pos_list="52_53_54" d="M106.571709589,-104.295453252L132.271178007,-74.3214528995L147.47490246,-33.9883299709"/>
<g transform="translate(128.77 -70.87)"></g>
<path class="rel baix_crossa" pos_list="55_56" d="M41.6708709364,3.91640442731L42.3247859462,31.9621356727"/>
<g transform="translate(42.0 17.94)"><text class="rel baix_crossa">${_rel55_56}</text></g>
<path class="rel baix_crossa" pos_list="55_57" d="M43.7257372883,3.06293074732L43.1748149305,-27.8231470396"/>
<g transform="translate(43.45 -12.38)"><text class="rel baix_crossa">${_rel55_57}</text></g>
<path class="rel baix_crossa" pos_list="62_63" d="M-16.1354218616,36.974629411L-40.9922374037,20.298190387"/>
<g transform="translate(-28.56 28.64)"><text class="rel baix_crossa">${_rel62_63}</text></g>
<path class="rel baix_crossa" pos_list="62_64" d="M-17.2520276346,38.8002135502L10.7313538182,49.72751268"/>
<g transform="translate(-3.26 44.26)"><text class="rel baix_crossa">${_rel62_64}</text></g>
<path class="rel baix_crossa" pos_list="69_70" d="M-16.4836333366,-32.5835299203L7.9421545192,-47.6980173738"/>
<g transform="translate(-4.27 -40.14)"><text class="rel baix_crossa">${_rel69_70}</text></g>
<path class="rel baix_crossa" pos_list="69_71" d="M-16.9565925403,-29.7040478799L-42.5414113325,-18.2413743306"/>
<g transform="translate(-29.75 -23.97)"><text class="rel baix_crossa">${_rel69_71}</text></g>
<path class="rel baix_agulla" pos_list="55_59" d="M40.2670123698,1.36307474465L22.4235372501,0.218832764511"/>
<g transform="translate(31.35 0.79)"><text class="rel baix_agulla">${_rel55_59}</text></g>
<path class="rel baix_agulla" pos_list="62_66" d="M-18.0357040054,34.6751145249L-7.54827226514,19.2919104984"/>
<g transform="translate(-12.79 26.98)"><text class="rel baix_agulla">${_rel62_66}</text></g>
<path class="rel baix_agulla" pos_list="69_73" d="M-15.1560137345,-32.196418349L-7.29899910238,-13.4628333928"/>
<g transform="translate(-11.23 -22.83)"><text class="rel baix_agulla">${_rel69_73}</text></g>
<path class="rel baix_contrafort" pos_list="55_58" d="M44.078801901,3.11713834281L60.1102816013,3.43129974028"/>
<g transform="translate(52.09 3.27)"><text class="rel baix_contrafort">${_rel55_58}</text></g>
<path class="rel baix_contrafort" pos_list="62_65" d="M-19.5560857307,39.6117062531L-25.6444421886,52.4085962891"/>
<g transform="translate(-22.6 46.01)"><text class="rel baix_contrafort">${_rel62_65}</text></g>
<path class="rel baix_contrafort" pos_list="69_72" d="M-19.09199811,-31.4550408625L-26.5469930343,-49.9974321877"/>
<g transform="translate(-22.82 -40.73)"><text class="rel baix_contrafort">${_rel69_72}</text></g>
<path class="rel ma_baix_segon" pos_list="1_55_79" d="M103.743649898,0.148338254404L42.3632999145,3.49798089952L189.117389353,2.32025404904"/>
<g transform="translate(111.74 1.99)"></g>
<path class="rel ma_baix_segon" pos_list="5_62_80" d="M-46.5865974599,90.1057776279L-17.2425642294,36.3183168294L-91.2720222136,163.011113841"/>
<g transform="translate(-51.7 96.48)"></g>
<path class="rel ma_baix_segon" pos_list="9_69_81" d="M-47.8299405905,-83.3513486066L-19.3570940952,-32.7262917696L-91.3845802259,-160.512275804"/>
<g transform="translate(-52.86 -92.2)"></g>
<path class="rel vent_baix_segon" pos_list="3_55_79" d="M50.800975394,90.8226393154L40.6309965415,4.932197665L189.145156315,0.00127892408728"/>
<g transform="translate(93.53 31.92)"></g>
<path class="rel vent_baix_segon" pos_list="11_55_79" d="M52.7859675105,-85.4989724228L41.0130437373,0.929304689642L189.418496783,3.45688552073"/>
<g transform="translate(94.41 -27.04)"></g>
<path class="rel vent_baix_segon" pos_list="7_62_80" d="M-98.7040070841,3.6120820293L-17.9189713009,39.4257473172L-90.5058226386,166.369419713"/>
<g transform="translate(-69.04 69.8)"></g>
<path class="rel vent_baix_segon" pos_list="3_62_80" d="M53.4512828415,87.3390499288L-15.3454276213,39.3607607763L-90.6068800824,165.504566705"/>
<g transform="translate(-17.5 97.4)"></g>
<path class="rel vent_baix_segon" pos_list="11_69_81" d="M54.7085423169,-84.2147062179L-15.1916651111,-31.1018395734L-91.1370175481,-161.634341518"/>
<g transform="translate(-17.21 -92.32)"></g>
<path class="rel vent_baix_segon" pos_list="7_69_81" d="M-97.2285198549,1.47812632313L-19.8784472022,-31.4747839141L-91.8672891147,-161.857614912"/>
<g transform="translate(-69.66 -63.95)"></g>
<path class="rel agulla_baix_segon" pos_list="59_55_79" d="M24.3241523127,3.6268656174L40.018485341,1.87385930482L192.401408477,0.246022198246"/>
<g transform="translate(85.58 1.92)"></g>
<path class="rel agulla_baix_segon" pos_list="66_62_80" d="M-5.76392087247,20.3597985624L-15.9410883527,38.6282773125L-91.4689402582,163.651128597"/>
<g transform="translate(-37.72 74.21)"></g>
<path class="rel agulla_baix_segon" pos_list="73_69_81" d="M-6.99834991548,-13.0573322939L-15.6333945616,-33.1544628788L-90.02277358,-157.402613736"/>
<g transform="translate(-37.55 -67.87)"></g>
<path class="rel baix_segon_baix_segon" pos_list="55_79_62_80" d="M40.8303720813,3.5314116946L191.520557275,1.50208702163L-18.4686997521,35.2683870902L-93.0208706072,163.946459268"/>
<g transform="translate(30.22 51.06)"></g>
<path class="rel baix_segon_baix_segon" pos_list="62_80_69_81" d="M-15.2512227238,34.8747221608L-89.453967533,165.615450479L-18.2993887425,-31.3006827678L-89.496558665,-160.158451005"/>
<g transform="translate(-53.13 2.26)"></g>
<path class="rel baix_segon_baix_segon" pos_list="69_81_55_79" d="M-15.8157483622,-33.2725123496L-88.7794612485,-159.046478817L43.385987329,4.54163582875L188.249682664,2.95776541724"/>
<g transform="translate(31.76 -46.2)"></g>
<path class="rel lateral_baix_segon" pos_list="60_55_79" d="M70.528407878,29.3858516863L40.1527828273,4.28987197257L192.20909552,2.65635943046"/>
<g transform="translate(100.96 12.11)"></g>
<path class="rel lateral_baix_segon" pos_list="61_55_79" d="M72.0412653825,-23.7713446246L43.1646845151,0.531110069501L191.478064451,1.94431763373"/>
<g transform="translate(102.23 -7.1)"></g>
<path class="rel lateral_baix_segon" pos_list="67_62_80" d="M-52.6981649807,52.2188534689L-18.0164655195,37.6429006083L-90.6508916747,163.595329201"/>
<g transform="translate(-53.79 84.49)"></g>
<path class="rel lateral_baix_segon" pos_list="68_62_80" d="M-8.47471477011,75.3387699575L-19.5691276769,38.8032881393L-93.3183110512,163.623541327"/>
<g transform="translate(-40.45 92.59)"></g>
<path class="rel lateral_baix_segon" pos_list="74_69_81" d="M-10.9451173059,-73.0551992509L-15.5005800529,-31.9140566071L-90.5442624714,-157.876434253"/>
<g transform="translate(-39.0 -87.62)"></g>
<path class="rel lateral_baix_segon" pos_list="75_69_81" d="M-54.6859176679,-44.287682333L-19.1147052744,-34.0702322387L-91.3804488482,-162.249942054"/>
<g transform="translate(-55.06 -80.2)"></g>
</g>
</svg>