<svg xmlns="http://www.w3.org/2000/xml" xmlns:xlink="http://www.w3.org/1999/xlink" viewBox="-230.0,-133.75,497.5,260.0">
<g id="positions">
<g id="1" transform="translate(100.0,0.0) rotate(0.0)">
<g id="1_casteller" class="ma" transform="scale(.2 .2) rotate(-90)">
${_rep1}
</g>
<g transform="rotate(90) translate(0 6)">
<text id="1_text" class="ma vtext" text-anchor="middle">
1 ${_1} ${_c1}
</text>
</g>
</g>
<g id="2" transform="translate(86.6,33.3333333333) rotate(30.0)">
<g id="2_casteller" class="pinya" transform="scale(.2 .2) rotate(-90)">
${_rep2}
</g>
<g transform="rotate(90) translate(0 6)">
<text id="2_text" class="pinya vtext" text-anchor="middle">
2 ${_2} ${_c2}
</text>
</g>
</g>
<g id="3" transform="translate(50.0,57.7333333333) rotate(60.0)">
<g id="3_casteller" class="vent" transform="scale(.2 .2) rotate(-90)">
${_rep3}
</g>
<g transform="rotate(90) translate(0 6)">
<text id="3_text" class="vent vtext" text-anchor="middle">
3 ${_3} ${_c3}
</text>
</g>
</g>
<g id="4" transform="translate(0.0,66.6666666667) rotate(90.0)">
<g id="4_casteller" class="pinya" transform="scale(.2 .2) rotate(-90)">
${_rep4}
</g>
<g transform="rotate(90) translate(0 6)">
<text id="4_text" class="pinya vtext" text-anchor="middle">
4 ${_4} ${_c4}
</text>
</g>
</g>
<g id="5" transform="translate(-50.0,57.7333333333) rotate(120.0)">
<g id="5_casteller" class="ma" transform="scale(.2 .2) rotate(-90)">
${_rep5}
</g>
<g transform="rotate(90) translate(0 6)">
<text id="5_text" class="ma vtext" text-anchor="middle">
5 ${_5} ${_c5}
</text>
</g>
</g>
<g id="6" transform="translate(-86.6,33.3333333333) rotate(150.0)">
<g id="6_casteller" class="pinya" transform="scale(.2 .2) rotate(-90)">
${_rep6}
</g>
<g transform="rotate(90) translate(0 6)">
<text id="6_text" class="pinya vtext" text-anchor="middle">
6 ${_6} ${_c6}
</text>
</g>
</g>
<g id="7" transform="translate(-100.0,0.0) rotate(180.0)">
<g id="7_casteller" class="vent" transform="scale(.2 .2) rotate(-90)">
${_rep7}
</g>
<g transform="rotate(90) translate(0 6)">
<text id="7_text" class="vent vtext" text-anchor="middle">
7 ${_7} ${_c7}
</text>
</g>
</g>
<g id="8" transform="translate(-86.6,-33.3333333333) rotate(210.0)">
<g id="8_casteller" class="pinya" transform="scale(.2 .2) rotate(-90)">
${_rep8}
</g>
<g transform="rotate(90) translate(0 6)">
<text id="8_text" class="pinya vtext" text-anchor="middle">
8 ${_8} ${_c8}
</text>
</g>
</g>
<g id="9" transform="translate(-50.0,-57.7333333333) rotate(240.0)">
<g id="9_casteller" class="ma" transform="scale(.2 .2) rotate(-90)">
${_rep9}
</g>
<g transform="rotate(90) translate(0 6)">
<text id="9_text" class="ma vtext" text-anchor="middle">
9 ${_9} ${_c9}
</text>
</g>
</g>
<g id="10" transform="translate(-0.0,-66.6666666667) rotate(270.0)">
<g id="10_casteller" class="pinya" transform="scale(.2 .2) rotate(-90)">
${_rep10}
</g>
<g transform="rotate(90) translate(0 6)">
<text id="10_text" class="pinya vtext" text-anchor="middle">
10 ${_10} ${_c10}
</text>
</g>
</g>
<g id="11" transform="translate(50.0,-57.7333333333) rotate(300.0)">
<g id="11_casteller" class="vent" transform="scale(.2 .2) rotate(-90)">
${_rep11}
</g>
<g transform="rotate(90) translate(0 6)">
<text id="11_text" class="vent vtext" text-anchor="middle">
11 ${_11} ${_c11}
</text>
</g>
</g>
<g id="12" transform="translate(86.6,-33.3333333333) rotate(330.0)">
<g id="12_casteller" class="pinya" transform="scale(.2 .2) rotate(-90)">
${_rep12}
</g>
<g transform="rotate(90) translate(0 6)">
<text id="12_text" class="pinya vtext" text-anchor="middle">
12 ${_12} ${_c12}
</text>
</g>
</g>
<g id="13" transform="translate(125.0,0.0) rotate(0.0)">
<g id="13_casteller" class="ma" transform="scale(.2 .2) rotate(-90)">
${_rep13}
</g>
<g transform="rotate(90) translate(0 6)">
<text id="13_text" class="ma vtext" text-anchor="middle">
13 ${_13} ${_c13}
</text>
</g>
</g>
<g id="14" transform="translate(117.46,28.5) rotate(20.0)">
<g id="14_casteller" class="pinya" transform="scale(.2 .2) rotate(-90)">
${_rep14}
</g>
<g transform="rotate(90) translate(0 6)">
<text id="14_text" class="pinya vtext" text-anchor="middle">
14 ${_14} ${_c14}
</text>
</g>
</g>
<g id="15" transform="translate(95.76,53.5666666667) rotate(40.0)">
<g id="15_casteller" class="pinya" transform="scale(.2 .2) rotate(-90)">
${_rep15}
</g>
<g transform="rotate(90) translate(0 6)">
<text id="15_text" class="pinya vtext" text-anchor="middle">
15 ${_15} ${_c15}
</text>
</g>
</g>
<g id="16" transform="translate(62.5,72.1666666667) rotate(60.0)">
<g id="16_casteller" class="vent" transform="scale(.2 .2) rotate(-90)">
${_rep16}
</g>
<g transform="rotate(90) translate(0 6)">
<text id="16_text" class="vent vtext" text-anchor="middle">
16 ${_16} ${_c16}
</text>
</g>
</g>
<g id="17" transform="translate(21.71,82.0666666667) rotate(80.0)">
<g id="17_casteller" class="pinya" transform="scale(.2 .2) rotate(-90)">
${_rep17}
</g>
<g transform="rotate(90) translate(0 6)">
<text id="17_text" class="pinya vtext" text-anchor="middle">
17 ${_17} ${_c17}
</text>
</g>
</g>
<g id="18" transform="translate(-21.71,82.0666666667) rotate(100.0)">
<g id="18_casteller" class="pinya" transform="scale(.2 .2) rotate(-90)">
${_rep18}
</g>
<g transform="rotate(90) translate(0 6)">
<text id="18_text" class="pinya vtext" text-anchor="middle">
18 ${_18} ${_c18}
</text>
</g>
</g>
<g id="19" transform="translate(-62.5,72.1666666667) rotate(120.0)">
<g id="19_casteller" class="ma" transform="scale(.2 .2) rotate(-90)">
${_rep19}
</g>
<g transform="rotate(90) translate(0 6)">
<text id="19_text" class="ma vtext" text-anchor="middle">
19 ${_19} ${_c19}
</text>
</g>
</g>
<g id="20" transform="translate(-95.76,53.5666666667) rotate(140.0)">
<g id="20_casteller" class="pinya" transform="scale(.2 .2) rotate(-90)">
${_rep20}
</g>
<g transform="rotate(90) translate(0 6)">
<text id="20_text" class="pinya vtext" text-anchor="middle">
20 ${_20} ${_c20}
</text>
</g>
</g>
<g id="21" transform="translate(-117.46,28.5) rotate(160.0)">
<g id="21_casteller" class="pinya" transform="scale(.2 .2) rotate(-90)">
${_rep21}
</g>
<g transform="rotate(90) translate(0 6)">
<text id="21_text" class="pinya vtext" text-anchor="middle">
21 ${_21} ${_c21}
</text>
</g>
</g>
<g id="22" transform="translate(-125.0,0.0) rotate(180.0)">
<g id="22_casteller" class="vent" transform="scale(.2 .2) rotate(-90)">
${_rep22}
</g>
<g transform="rotate(90) translate(0 6)">
<text id="22_text" class="vent vtext" text-anchor="middle">
22 ${_22} ${_c22}
</text>
</g>
</g>
<g id="23" transform="translate(-117.46,-28.5) rotate(200.0)">
<g id="23_casteller" class="pinya" transform="scale(.2 .2) rotate(-90)">
${_rep23}
</g>
<g transform="rotate(90) translate(0 6)">
<text id="23_text" class="pinya vtext" text-anchor="middle">
23 ${_23} ${_c23}
</text>
</g>
</g>
<g id="24" transform="translate(-95.76,-53.5666666667) rotate(220.0)">
<g id="24_casteller" class="pinya" transform="scale(.2 .2) rotate(-90)">
${_rep24}
</g>
<g transform="rotate(90) translate(0 6)">
<text id="24_text" class="pinya vtext" text-anchor="middle">
24 ${_24} ${_c24}
</text>
</g>
</g>
<g id="25" transform="translate(-62.5,-72.1666666667) rotate(240.0)">
<g id="25_casteller" class="ma" transform="scale(.2 .2) rotate(-90)">
${_rep25}
</g>
<g transform="rotate(90) translate(0 6)">
<text id="25_text" class="ma vtext" text-anchor="middle">
25 ${_25} ${_c25}
</text>
</g>
</g>
<g id="26" transform="translate(-21.71,-82.0666666667) rotate(260.0)">
<g id="26_casteller" class="pinya" transform="scale(.2 .2) rotate(-90)">
${_rep26}
</g>
<g transform="rotate(90) translate(0 6)">
<text id="26_text" class="pinya vtext" text-anchor="middle">
26 ${_26} ${_c26}
</text>
</g>
</g>
<g id="27" transform="translate(21.71,-82.0666666667) rotate(280.0)">
<g id="27_casteller" class="pinya" transform="scale(.2 .2) rotate(-90)">
${_rep27}
</g>
<g transform="rotate(90) translate(0 6)">
<text id="27_text" class="pinya vtext" text-anchor="middle">
27 ${_27} ${_c27}
</text>
</g>
</g>
<g id="28" transform="translate(62.5,-72.1666666667) rotate(300.0)">
<g id="28_casteller" class="vent" transform="scale(.2 .2) rotate(-90)">
${_rep28}
</g>
<g transform="rotate(90) translate(0 6)">
<text id="28_text" class="vent vtext" text-anchor="middle">
28 ${_28} ${_c28}
</text>
</g>
</g>
<g id="29" transform="translate(95.76,-53.5666666667) rotate(320.0)">
<g id="29_casteller" class="pinya" transform="scale(.2 .2) rotate(-90)">
${_rep29}
</g>
<g transform="rotate(90) translate(0 6)">
<text id="29_text" class="pinya vtext" text-anchor="middle">
29 ${_29} ${_c29}
</text>
</g>
</g>
<g id="30" transform="translate(117.46,-28.5) rotate(340.0)">
<g id="30_casteller" class="pinya" transform="scale(.2 .2) rotate(-90)">
${_rep30}
</g>
<g transform="rotate(90) translate(0 6)">
<text id="30_text" class="pinya vtext" text-anchor="middle">
30 ${_30} ${_c30}
</text>
</g>
</g>
<g id="31" transform="translate(150.0,0.0) rotate(0.0)">
<g id="31_casteller" class="ma" transform="scale(.2 .2) rotate(-90)">
${_rep31}
</g>
<g transform="rotate(90) translate(0 6)">
<text id="31_text" class="ma vtext" text-anchor="middle">
31 ${_31} ${_c31}
</text>
</g>
</g>
<g id="32" transform="translate(144.89,25.88) rotate(15.0)">
<g id="32_casteller" class="pinya" transform="scale(.2 .2) rotate(-90)">
${_rep32}
</g>
<g transform="rotate(90) translate(0 6)">
<text id="32_text" class="pinya vtext" text-anchor="middle">
32 ${_32} ${_c32}
</text>
</g>
</g>
<g id="33" transform="translate(129.9,50.0) rotate(30.0)">
<g id="33_casteller" class="pinya" transform="scale(.2 .2) rotate(-90)">
${_rep33}
</g>
<g transform="rotate(90) translate(0 6)">
<text id="33_text" class="pinya vtext" text-anchor="middle">
33 ${_33} ${_c33}
</text>
</g>
</g>
<g id="34" transform="translate(106.07,70.7133333333) rotate(45.0)">
<g id="34_casteller" class="pinya" transform="scale(.2 .2) rotate(-90)">
${_rep34}
</g>
<g transform="rotate(90) translate(0 6)">
<text id="34_text" class="pinya vtext" text-anchor="middle">
34 ${_34} ${_c34}
</text>
</g>
</g>
<g id="35" transform="translate(75.0,86.6) rotate(60.0)">
<g id="35_casteller" class="vent" transform="scale(.2 .2) rotate(-90)">
${_rep35}
</g>
<g transform="rotate(90) translate(0 6)">
<text id="35_text" class="vent vtext" text-anchor="middle">
35 ${_35} ${_c35}
</text>
</g>
</g>
<g id="36" transform="translate(38.82,96.5933333333) rotate(75.0)">
<g id="36_casteller" class="pinya" transform="scale(.2 .2) rotate(-90)">
${_rep36}
</g>
<g transform="rotate(90) translate(0 6)">
<text id="36_text" class="pinya vtext" text-anchor="middle">
36 ${_36} ${_c36}
</text>
</g>
</g>
<g id="37" transform="translate(0.0,100.0) rotate(90.0)">
<g id="37_casteller" class="pinya" transform="scale(.2 .2) rotate(-90)">
${_rep37}
</g>
<g transform="rotate(90) translate(0 6)">
<text id="37_text" class="pinya vtext" text-anchor="middle">
37 ${_37} ${_c37}
</text>
</g>
</g>
<g id="38" transform="translate(-38.82,96.5933333333) rotate(105.0)">
<g id="38_casteller" class="pinya" transform="scale(.2 .2) rotate(-90)">
${_rep38}
</g>
<g transform="rotate(90) translate(0 6)">
<text id="38_text" class="pinya vtext" text-anchor="middle">
38 ${_38} ${_c38}
</text>
</g>
</g>
<g id="39" transform="translate(-75.0,86.6) rotate(120.0)">
<g id="39_casteller" class="ma" transform="scale(.2 .2) rotate(-90)">
${_rep39}
</g>
<g transform="rotate(90) translate(0 6)">
<text id="39_text" class="ma vtext" text-anchor="middle">
39 ${_39} ${_c39}
</text>
</g>
</g>
<g id="40" transform="translate(-106.07,70.7133333333) rotate(135.0)">
<g id="40_casteller" class="pinya" transform="scale(.2 .2) rotate(-90)">
${_rep40}
</g>
<g transform="rotate(90) translate(0 6)">
<text id="40_text" class="pinya vtext" text-anchor="middle">
40 ${_40} ${_c40}
</text>
</g>
</g>
<g id="41" transform="translate(-129.9,50.0) rotate(150.0)">
<g id="41_casteller" class="pinya" transform="scale(.2 .2) rotate(-90)">
${_rep41}
</g>
<g transform="rotate(90) translate(0 6)">
<text id="41_text" class="pinya vtext" text-anchor="middle">
41 ${_41} ${_c41}
</text>
</g>
</g>
<g id="42" transform="translate(-144.89,25.88) rotate(165.0)">
<g id="42_casteller" class="pinya" transform="scale(.2 .2) rotate(-90)">
${_rep42}
</g>
<g transform="rotate(90) translate(0 6)">
<text id="42_text" class="pinya vtext" text-anchor="middle">
42 ${_42} ${_c42}
</text>
</g>
</g>
<g id="43" transform="translate(-150.0,0.0) rotate(180.0)">
<g id="43_casteller" class="vent" transform="scale(.2 .2) rotate(-90)">
${_rep43}
</g>
<g transform="rotate(90) translate(0 6)">
<text id="43_text" class="vent vtext" text-anchor="middle">
43 ${_43} ${_c43}
</text>
</g>
</g>
<g id="44" transform="translate(-144.89,-25.88) rotate(195.0)">
<g id="44_casteller" class="pinya" transform="scale(.2 .2) rotate(-90)">
${_rep44}
</g>
<g transform="rotate(90) translate(0 6)">
<text id="44_text" class="pinya vtext" text-anchor="middle">
44 ${_44} ${_c44}
</text>
</g>
</g>
<g id="45" transform="translate(-129.9,-50.0) rotate(210.0)">
<g id="45_casteller" class="pinya" transform="scale(.2 .2) rotate(-90)">
${_rep45}
</g>
<g transform="rotate(90) translate(0 6)">
<text id="45_text" class="pinya vtext" text-anchor="middle">
45 ${_45} ${_c45}
</text>
</g>
</g>
<g id="46" transform="translate(-106.07,-70.7133333333) rotate(225.0)">
<g id="46_casteller" class="pinya" transform="scale(.2 .2) rotate(-90)">
${_rep46}
</g>
<g transform="rotate(90) translate(0 6)">
<text id="46_text" class="pinya vtext" text-anchor="middle">
46 ${_46} ${_c46}
</text>
</g>
</g>
<g id="47" transform="translate(-75.0,-86.6) rotate(240.0)">
<g id="47_casteller" class="ma" transform="scale(.2 .2) rotate(-90)">
${_rep47}
</g>
<g transform="rotate(90) translate(0 6)">
<text id="47_text" class="ma vtext" text-anchor="middle">
47 ${_47} ${_c47}
</text>
</g>
</g>
<g id="48" transform="translate(-38.82,-96.5933333333) rotate(255.0)">
<g id="48_casteller" class="pinya" transform="scale(.2 .2) rotate(-90)">
${_rep48}
</g>
<g transform="rotate(90) translate(0 6)">
<text id="48_text" class="pinya vtext" text-anchor="middle">
48 ${_48} ${_c48}
</text>
</g>
</g>
<g id="49" transform="translate(-0.0,-100.0) rotate(270.0)">
<g id="49_casteller" class="pinya" transform="scale(.2 .2) rotate(-90)">
${_rep49}
</g>
<g transform="rotate(90) translate(0 6)">
<text id="49_text" class="pinya vtext" text-anchor="middle">
49 ${_49} ${_c49}
</text>
</g>
</g>
<g id="50" transform="translate(38.82,-96.5933333333) rotate(285.0)">
<g id="50_casteller" class="pinya" transform="scale(.2 .2) rotate(-90)">
${_rep50}
</g>
<g transform="rotate(90) translate(0 6)">
<text id="50_text" class="pinya vtext" text-anchor="middle">
50 ${_50} ${_c50}
</text>
</g>
</g>
<g id="51" transform="translate(75.0,-86.6) rotate(300.0)">
<g id="51_casteller" class="vent" transform="scale(.2 .2) rotate(-90)">
${_rep51}
</g>
<g transform="rotate(90) translate(0 6)">
<text id="51_text" class="vent vtext" text-anchor="middle">
51 ${_51} ${_c51}
</text>
</g>
</g>
<g id="52" transform="translate(106.07,-70.7133333333) rotate(315.0)">
<g id="52_casteller" class="pinya" transform="scale(.2 .2) rotate(-90)">
${_rep52}
</g>
<g transform="rotate(90) translate(0 6)">
<text id="52_text" class="pinya vtext" text-anchor="middle">
52 ${_52} ${_c52}
</text>
</g>
</g>
<g id="53" transform="translate(129.9,-50.0) rotate(330.0)">
<g id="53_casteller" class="pinya" transform="scale(.2 .2) rotate(-90)">
${_rep53}
</g>
<g transform="rotate(90) translate(0 6)">
<text id="53_text" class="pinya vtext" text-anchor="middle">
53 ${_53} ${_c53}
</text>
</g>
</g>
<g id="54" transform="translate(144.89,-25.88) rotate(345.0)">
<g id="54_casteller" class="pinya" transform="scale(.2 .2) rotate(-90)">
${_rep54}
</g>
<g transform="rotate(90) translate(0 6)">
<text id="54_text" class="pinya vtext" text-anchor="middle">
54 ${_54} ${_c54}
</text>
</g>
</g>
<g id="baixos_gp_0" transform="translate(40.0 0.0) rotate(0.0)">
<g id="55" transform="translate(0.0,0.0) rotate(0.0)">
<g id="55_casteller" class="baix" transform="scale(.2 .2) rotate(-90)">
${_rep55}
</g>
<g transform="rotate(90) translate(0 6)">
<text id="55_text" class="baix vtext" text-anchor="middle">
55 ${_55} ${_c55}
</text>
</g>
</g>
<g id="56" transform="translate(0.0,20.0) rotate(90.0)">
<g id="56_casteller" class="crossa" transform="scale(.2 .2) rotate(-90)">
${_rep56}
</g>
<g transform="rotate(90) translate(0 6)">
<text id="56_text" class="crossa vtext" text-anchor="middle">
56 ${_56} ${_c56}
</text>
</g>
</g>
<g id="57" transform="translate(0.0,-20.0) rotate(-90.0)">
<g id="57_casteller" class="crossa" transform="scale(.2 .2) rotate(-90)">
${_rep57}
</g>
<g transform="rotate(90) translate(0 6)">
<text id="57_text" class="crossa vtext" text-anchor="middle">
57 ${_57} ${_c57}
</text>
</g>
</g>
<g id="58" transform="translate(20.0,0.0) rotate(0.0)">
<g id="58_casteller" class="contrafort" transform="scale(.2 .2) rotate(-90)">
${_rep58}
</g>
<g transform="rotate(90) translate(0 6)">
<text id="58_text" class="contrafort vtext" text-anchor="middle">
58 ${_58} ${_c58}
</text>
</g>
</g>
<g id="59" transform="translate(-20.0,0.0) rotate(0.0)">
<g id="59_casteller" class="agulla" transform="scale(.2 .2) rotate(-90)">
${_rep59}
</g>
<g transform="rotate(90) translate(0 6)">
<text id="59_text" class="agulla vtext" text-anchor="middle">
59 ${_59} ${_c59}
</text>
</g>
</g>
<g id="60" transform="translate(30.0,16.6666666667) rotate(30.0)">
<g id="60_casteller" class="lateral" transform="scale(.2 .2) rotate(-90)">
${_rep60}
</g>
<g transform="rotate(90) translate(0 6)">
<text id="60_text" class="lateral vtext" text-anchor="middle">
60 ${_60} ${_c60}
</text>
</g>
</g>
<g id="61" transform="translate(30.0,-16.6666666667) rotate(-30.0)">
<g id="61_casteller" class="lateral" transform="scale(.2 .2) rotate(-90)">
${_rep61}
</g>
<g transform="rotate(90) translate(0 6)">
<text id="61_text" class="lateral vtext" text-anchor="middle">
61 ${_61} ${_c61}
</text>
</g>
</g>
</g>
<g id="baixos_gp_1" transform="translate(-20.0 34.64) rotate(120.0)">
<g id="62" transform="translate(0.0,0.0) rotate(0.0)">
<g id="62_casteller" class="baix" transform="scale(.2 .2) rotate(-90)">
${_rep62}
</g>
<g transform="rotate(90) translate(0 6)">
<text id="62_text" class="baix vtext" text-anchor="middle">
62 ${_62} ${_c62}
</text>
</g>
</g>
<g id="63" transform="translate(0.0,20.0) rotate(90.0)">
<g id="63_casteller" class="crossa" transform="scale(.2 .2) rotate(-90)">
${_rep63}
</g>
<g transform="rotate(90) translate(0 6)">
<text id="63_text" class="crossa vtext" text-anchor="middle">
63 ${_63} ${_c63}
</text>
</g>
</g>
<g id="64" transform="translate(0.0,-20.0) rotate(-90.0)">
<g id="64_casteller" class="crossa" transform="scale(.2 .2) rotate(-90)">
${_rep64}
</g>
<g transform="rotate(90) translate(0 6)">
<text id="64_text" class="crossa vtext" text-anchor="middle">
64 ${_64} ${_c64}
</text>
</g>
</g>
<g id="65" transform="translate(20.0,0.0) rotate(0.0)">
<g id="65_casteller" class="contrafort" transform="scale(.2 .2) rotate(-90)">
${_rep65}
</g>
<g transform="rotate(90) translate(0 6)">
<text id="65_text" class="contrafort vtext" text-anchor="middle">
65 ${_65} ${_c65}
</text>
</g>
</g>
<g id="66" transform="translate(-20.0,0.0) rotate(0.0)">
<g id="66_casteller" class="agulla" transform="scale(.2 .2) rotate(-90)">
${_rep66}
</g>
<g transform="rotate(90) translate(0 6)">
<text id="66_text" class="agulla vtext" text-anchor="middle">
66 ${_66} ${_c66}
</text>
</g>
</g>
<g id="67" transform="translate(30.0,16.6666666667) rotate(30.0)">
<g id="67_casteller" class="lateral" transform="scale(.2 .2) rotate(-90)">
${_rep67}
</g>
<g transform="rotate(90) translate(0 6)">
<text id="67_text" class="lateral vtext" text-anchor="middle">
67 ${_67} ${_c67}
</text>
</g>
</g>
<g id="68" transform="translate(30.0,-16.6666666667) rotate(-30.0)">
<g id="68_casteller" class="lateral" transform="scale(.2 .2) rotate(-90)">
${_rep68}
</g>
<g transform="rotate(90) translate(0 6)">
<text id="68_text" class="lateral vtext" text-anchor="middle">
68 ${_68} ${_c68}
</text>
</g>
</g>
</g>
<g id="baixos_gp_2" transform="translate(-20.0 -34.64) rotate(240.0)">
<g id="69" transform="translate(0.0,0.0) rotate(0.0)">
<g id="69_casteller" class="baix" transform="scale(.2 .2) rotate(-90)">
${_rep69}
</g>
<g transform="rotate(90) translate(0 6)">
<text id="69_text" class="baix vtext" text-anchor="middle">
69 ${_69} ${_c69}
</text>
</g>
</g>
<g id="70" transform="translate(0.0,20.0) rotate(90.0)">
<g id="70_casteller" class="crossa" transform="scale(.2 .2) rotate(-90)">
${_rep70}
</g>
<g transform="rotate(90) translate(0 6)">
<text id="70_text" class="crossa vtext" text-anchor="middle">
70 ${_70} ${_c70}
</text>
</g>
</g>
<g id="71" transform="translate(0.0,-20.0) rotate(-90.0)">
<g id="71_casteller" class="crossa" transform="scale(.2 .2) rotate(-90)">
${_rep71}
</g>
<g transform="rotate(90) translate(0 6)">
<text id="71_text" class="crossa vtext" text-anchor="middle">
71 ${_71} ${_c71}
</text>
</g>
</g>
<g id="72" transform="translate(20.0,0.0) rotate(0.0)">
<g id="72_casteller" class="contrafort" transform="scale(.2 .2) rotate(-90)">
${_rep72}
</g>
<g transform="rotate(90) translate(0 6)">
<text id="72_text" class="contrafort vtext" text-anchor="middle">
72 ${_72} ${_c72}
</text>
</g>
</g>
<g id="73" transform="translate(-20.0,0.0) rotate(0.0)">
<g id="73_casteller" class="agulla" transform="scale(.2 .2) rotate(-90)">
${_rep73}
</g>
<g transform="rotate(90) translate(0 6)">
<text id="73_text" class="agulla vtext" text-anchor="middle">
73 ${_73} ${_c73}
</text>
</g>
</g>
<g id="74" transform="translate(30.0,16.6666666667) rotate(30.0)">
<g id="74_casteller" class="lateral" transform="scale(.2 .2) rotate(-90)">
${_rep74}
</g>
<g transform="rotate(90) translate(0 6)">
<text id="74_text" class="lateral vtext" text-anchor="middle">
74 ${_74} ${_c74}
</text>
</g>
</g>
<g id="75" transform="translate(30.0,-16.6666666667) rotate(-30.0)">
<g id="75_casteller" class="lateral" transform="scale(.2 .2) rotate(-90)">
${_rep75}
</g>
<g transform="rotate(90) translate(0 6)">
<text id="75_text" class="lateral vtext" text-anchor="middle">
75 ${_75} ${_c75}
</text>
</g>
</g>
</g>
<g id="portacrossa_gp_0" transform="translate(35.0 60.62) rotate(60.0)">
<g id="76" transform="translate(0.0,0.0) rotate(0.0)">
<g id="76_casteller" class="portacrossa" transform="scale(.2 .2) rotate(-90)">
${_rep76}
</g>
<g transform="rotate(90) translate(0 6)">
<text id="76_text" class="portacrossa vtext" text-anchor="middle">
76 ${_76} ${_c76}
</text>
</g>
</g>
</g>
<g id="portacrossa_gp_1" transform="translate(-70.0 0.0) rotate(180.0)">
<g id="77" transform="translate(0.0,0.0) rotate(0.0)">
<g id="77_casteller" class="portacrossa" transform="scale(.2 .2) rotate(-90)">
${_rep77}
</g>
<g transform="rotate(90) translate(0 6)">
<text id="77_text" class="portacrossa vtext" text-anchor="middle">
77 ${_77} ${_c77}
</text>
</g>
</g>
</g>
<g id="portacrossa_gp_2" transform="translate(35.0 -60.62) rotate(300.0)">
<g id="78" transform="translate(0.0,0.0) rotate(0.0)">
<g id="78_casteller" class="portacrossa" transform="scale(.2 .2) rotate(-90)">
${_rep78}
</g>
<g transform="rotate(90) translate(0 6)">
<text id="78_text" class="portacrossa vtext" text-anchor="middle">
78 ${_78} ${_c78}
</text>
</g>
</g>
</g>
<g id="79" transform="translate(187.5,0.0) rotate(0.0)">
<g id="79_casteller" class="segon" transform="scale(.2 .2) rotate(-90)">
${_rep79}
</g>
<g transform="rotate(90) translate(0 6)">
<text id="79_text" class="segon vtext" text-anchor="middle">
79 ${_79} ${_c79}
</text>
</g>
</g>
<g id="80" transform="translate(-93.75,108.253333333) rotate(120.0)">
<g id="80_casteller" class="segon" transform="scale(.2 .2) rotate(-90)">
${_rep80}
</g>
<g transform="rotate(90) translate(0 6)">
<text id="80_text" class="segon vtext" text-anchor="middle">
80 ${_80} ${_c80}
</text>
</g>
</g>
<g id="81" transform="translate(-93.75,-108.253333333) rotate(240.0)">
<g id="81_casteller" class="segon" transform="scale(.2 .2) rotate(-90)">
${_rep81}
</g>
<g transform="rotate(90) translate(0 6)">
<text id="81_text" class="segon vtext" text-anchor="middle">
81 ${_81} ${_c81}
</text>
</g>
</g>
</g>
<g id="relations">
<path class="rel ma_ma" pos_list="13_1" d="M127.721843264,2.08965800188L103.994740286,4.55793423555"/>
<g transform="translate(115.86 3.32)"><text class="rel ma_ma">${_rel13_1}</text></g>
<path class="rel ma_ma" pos_list="31_13" d="M152.900987506,2.53405918243L127.556404293,2.3213099173"/>
<g transform="translate(140.23 2.43)"><text class="rel ma_ma">${_rel31_13}</text></g>
<path class="rel vent_vent" pos_list="16_3" d="M64.6117126335,75.576695422L51.9981276968,59.6152777399"/>
<g transform="translate(58.3 67.6)"><text class="rel vent_vent">${_rel16_3}</text></g>
<path class="rel vent_vent" pos_list="35_16" d="M78.9571311896,88.0733581114L65.4542355721,75.4315679936"/>
<g transform="translate(72.21 81.75)"><text class="rel vent_vent">${_rel35_16}</text></g>
<path class="rel ma_ma" pos_list="19_5" d="M-59.884191413,76.3578450994L-47.3947834478,61.1641405142"/>
<g transform="translate(-53.64 68.76)"><text class="rel ma_ma">${_rel19_5}</text></g>
<path class="rel ma_ma" pos_list="39_19" d="M-72.3346257405,87.6650746926L-59.2172864316,75.9564388452"/>
<g transform="translate(-65.78 81.81)"><text class="rel ma_ma">${_rel39_19}</text></g>
<path class="rel vent_vent" pos_list="22_7" d="M-121.113128444,1.82986512527L-98.2908027049,3.52991176383"/>
<g transform="translate(-109.7 2.68)"><text class="rel vent_vent">${_rel22_7}</text></g>
<path class="rel vent_vent" pos_list="43_22" d="M-147.420984662,4.81779980627L-122.697145348,1.91550320076"/>
<g transform="translate(-135.06 3.37)"><text class="rel vent_vent">${_rel43_22}</text></g>
<path class="rel ma_ma" pos_list="25_9" d="M-60.2635137546,-67.8190217825L-47.4698310281,-53.2921013874"/>
<g transform="translate(-53.87 -60.56)"><text class="rel ma_ma">${_rel25_9}</text></g>
<path class="rel ma_ma" pos_list="47_25" d="M-70.2296125907,-84.396814377L-60.046981826,-68.5743844243"/>
<g transform="translate(-65.14 -76.49)"><text class="rel ma_ma">${_rel47_25}</text></g>
<path class="rel vent_vent" pos_list="28_11" d="M67.4234901239,-71.5623614415L50.3107092683,-53.7269370807"/>
<g transform="translate(58.87 -62.64)"><text class="rel vent_vent">${_rel28_11}</text></g>
<path class="rel vent_vent" pos_list="51_28" d="M77.2851985239,-82.8532492005L62.7293069104,-70.3402269147"/>
<g transform="translate(70.01 -76.6)"><text class="rel vent_vent">${_rel51_28}</text></g>
<path class="rel pinya_pinya" pos_list="14_2" d="M121.666196159,30.8725770213L88.3329024827,35.6579577078"/>
<g transform="translate(105.0 33.27)"><text class="rel pinya_pinya">${_rel14_2}</text></g>
<path class="rel pinya_pinya" pos_list="15_2" d="M96.6355677679,57.9445813983L89.8854430603,33.3753897182"/>
<g transform="translate(93.26 45.66)"><text class="rel pinya_pinya">${_rel15_2}</text></g>
<path class="rel pinya_pinya" pos_list="32_14" d="M148.169983348,28.3773030896L119.206561206,28.9410018358"/>
<g transform="translate(133.69 28.66)"><text class="rel pinya_pinya">${_rel32_14}</text></g>
<path class="rel pinya_pinya" pos_list="33_14" d="M133.867121345,54.8762864775L120.680187773,28.9089130529"/>
<g transform="translate(127.27 41.89)"><text class="rel pinya_pinya">${_rel33_14}</text></g>
<path class="rel pinya_pinya" pos_list="33_15" d="M130.303317525,53.6029978635L96.674182927,55.6291832184"/>
<g transform="translate(113.49 54.62)"><text class="rel pinya_pinya">${_rel33_15}</text></g>
<path class="rel pinya_pinya" pos_list="34_15" d="M106.758485682,73.5138611216L98.6438839745,58.4907780097"/>
<g transform="translate(102.7 66.0)"><text class="rel pinya_pinya">${_rel34_15}</text></g>
<path class="rel pinya_pinya" pos_list="17_4" d="M26.6226578878,86.1996925636L3.33820947883,71.4628439432"/>
<g transform="translate(14.98 78.83)"><text class="rel pinya_pinya">${_rel17_4}</text></g>
<path class="rel pinya_pinya" pos_list="18_4" d="M-18.4305857561,85.6801760817L2.75173316529,71.501828393"/>
<g transform="translate(-7.84 78.59)"><text class="rel pinya_pinya">${_rel18_4}</text></g>
<path class="rel pinya_pinya" pos_list="36_17" d="M40.3593597721,96.9386320445L25.6153101953,82.5975290366"/>
<g transform="translate(32.99 89.77)"><text class="rel pinya_pinya">${_rel36_17}</text></g>
<path class="rel pinya_pinya" pos_list="37_17" d="M0.411057336113,103.595469182L21.8570735947,85.6984263486"/>
<g transform="translate(11.13 94.65)"><text class="rel pinya_pinya">${_rel37_17}</text></g>
<path class="rel pinya_pinya" pos_list="37_18" d="M3.7940661807,104.969121146L-17.9942132904,83.8162805898"/>
<g transform="translate(-7.1 94.39)"><text class="rel pinya_pinya">${_rel37_18}</text></g>
<path class="rel pinya_pinya" pos_list="38_18" d="M-34.1552061264,98.3501612126L-21.0799500719,83.013493279"/>
<g transform="translate(-27.62 90.68)"><text class="rel pinya_pinya">${_rel38_18}</text></g>
<path class="rel pinya_pinya" pos_list="20_6" d="M-94.9024256893,56.9724178426L-83.9004368819,36.6837615837"/>
<g transform="translate(-89.4 46.83)"><text class="rel pinya_pinya">${_rel20_6}</text></g>
<path class="rel pinya_pinya" pos_list="21_6" d="M-114.934667698,32.1016030323L-86.4825423169,34.0180185095"/>
<g transform="translate(-100.71 33.06)"><text class="rel pinya_pinya">${_rel21_6}</text></g>
<path class="rel pinya_pinya" pos_list="40_20" d="M-104.000198488,72.5964692445L-93.8775189336,57.7817504501"/>
<g transform="translate(-98.94 65.19)"><text class="rel pinya_pinya">${_rel40_20}</text></g>
<path class="rel pinya_pinya" pos_list="41_20" d="M-125.731394241,52.8402126275L-94.4256712404,58.0741250396"/>
<g transform="translate(-110.08 55.46)"><text class="rel pinya_pinya">${_rel41_20}</text></g>
<path class="rel pinya_pinya" pos_list="41_21" d="M-127.988756269,51.8153244339L-114.222171351,28.6245652921"/>
<g transform="translate(-121.11 40.22)"><text class="rel pinya_pinya">${_rel41_21}</text></g>
<path class="rel pinya_pinya" pos_list="42_21" d="M-143.345218722,27.507756053L-117.135301697,31.3463439815"/>
<g transform="translate(-130.24 29.43)"><text class="rel pinya_pinya">${_rel42_21}</text></g>
<path class="rel pinya_pinya" pos_list="23_8" d="M-113.429300771,-25.3291779392L-85.9037836954,-29.3837394802"/>
<g transform="translate(-99.67 -27.36)"><text class="rel pinya_pinya">${_rel23_8}</text></g>
<path class="rel pinya_pinya" pos_list="24_8" d="M-92.5014206109,-53.2106465275L-84.22783197,-30.5023566308"/>
<g transform="translate(-88.36 -41.86)"><text class="rel pinya_pinya">${_rel24_8}</text></g>
<path class="rel pinya_pinya" pos_list="44_23" d="M-142.540155289,-23.6186071506L-115.305724716,-27.3687698969"/>
<g transform="translate(-128.92 -25.49)"><text class="rel pinya_pinya">${_rel44_23}</text></g>
<path class="rel pinya_pinya" pos_list="45_23" d="M-128.223069876,-47.5728332104L-116.624871135,-24.9997186788"/>
<g transform="translate(-122.42 -36.29)"><text class="rel pinya_pinya">${_rel45_23}</text></g>
<path class="rel pinya_pinya" pos_list="45_24" d="M-129.123507469,-48.4837707665L-91.5771867923,-51.4775330103"/>
<g transform="translate(-110.35 -49.98)"><text class="rel pinya_pinya">${_rel45_24}</text></g>
<path class="rel pinya_pinya" pos_list="46_24" d="M-104.639650508,-70.6264712316L-93.4490512968,-50.8473111817"/>
<g transform="translate(-99.04 -60.74)"><text class="rel pinya_pinya">${_rel46_24}</text></g>
<path class="rel pinya_pinya" pos_list="26_10" d="M-17.9261161726,-81.2885631299L3.38021968424,-62.4729235523"/>
<g transform="translate(-7.27 -71.88)"><text class="rel pinya_pinya">${_rel26_10}</text></g>
<path class="rel pinya_pinya" pos_list="27_10" d="M25.6020974281,-79.1691191101L2.77110101884,-63.2512608056"/>
<g transform="translate(14.19 -71.21)"><text class="rel pinya_pinya">${_rel27_10}</text></g>
<path class="rel pinya_pinya" pos_list="48_26" d="M-37.4477706466,-93.1391494005L-19.3136260688,-80.3885873889"/>
<g transform="translate(-28.38 -86.76)"><text class="rel pinya_pinya">${_rel48_26}</text></g>
<path class="rel pinya_pinya" pos_list="49_26" d="M0.762825004033,-96.2630632701L-18.8545078704,-77.3555154133"/>
<g transform="translate(-9.05 -86.81)"><text class="rel pinya_pinya">${_rel49_26}</text></g>
<path class="rel pinya_pinya" pos_list="49_27" d="M0.575016569589,-97.2012437238L23.3204037812,-78.2528723001"/>
<g transform="translate(11.95 -87.73)"><text class="rel pinya_pinya">${_rel49_27}</text></g>
<path class="rel pinya_pinya" pos_list="50_27" d="M38.8688636743,-94.2871103754L23.7096464141,-81.1137817972"/>
<g transform="translate(31.29 -87.7)"><text class="rel pinya_pinya">${_rel50_27}</text></g>
<path class="rel pinya_pinya" pos_list="29_12" d="M96.9903928644,-50.6240931329L87.1783895416,-30.4647339308"/>
<g transform="translate(92.08 -40.54)"><text class="rel pinya_pinya">${_rel29_12}</text></g>
<path class="rel pinya_pinya" pos_list="30_12" d="M121.829204518,-24.1248706518L87.3311592825,-28.8577771612"/>
<g transform="translate(104.58 -26.49)"><text class="rel pinya_pinya">${_rel30_12}</text></g>
<path class="rel pinya_pinya" pos_list="52_29" d="M109.477170988,-67.9319575671L96.3982259095,-51.8653488527"/>
<g transform="translate(102.94 -59.9)"><text class="rel pinya_pinya">${_rel52_29}</text></g>
<path class="rel pinya_pinya" pos_list="53_29" d="M131.02705894,-46.5663164663L98.5753114188,-49.8928728127"/>
<g transform="translate(114.8 -48.23)"><text class="rel pinya_pinya">${_rel53_29}</text></g>
<path class="rel pinya_pinya" pos_list="53_30" d="M131.211000341,-45.610710377L122.109650587,-23.9996502643"/>
<g transform="translate(126.66 -34.81)"><text class="rel pinya_pinya">${_rel53_30}</text></g>
<path class="rel pinya_pinya" pos_list="54_30" d="M149.725795782,-24.2441249835L118.345616517,-26.8823180682"/>
<g transform="translate(134.04 -25.56)"><text class="rel pinya_pinya">${_rel54_30}</text></g>
<path class="rel pinya" pos_list="2" d="M90.452569463,37.1721939205"/>
<g transform="translate(90.45 37.17)"></g>
<path class="rel pinya_pinya" pos_list="14_15" d="M121.179195366,29.9371783736L96.5521767802,54.5559270299"/>
<g transform="translate(108.87 42.25)"><text class="rel pinya_pinya">${_rel14_15}</text></g>
<path class="rel pinya_pinya_pinya" pos_list="32_33_34" d="M149.35586639,27.5517249323L133.449995731,53.1922709209L110.720044662,73.3097691675"/>
<g transform="translate(131.18 51.35)"></g>
<path class="rel pinya" pos_list="4" d="M1.00496150769,70.4937386007"/>
<g transform="translate(1.0 70.49)"></g>
<path class="rel pinya_pinya" pos_list="17_18" d="M26.0776392078,85.8240398784L-20.0138553197,85.947863309"/>
<g transform="translate(3.03 85.89)"><text class="rel pinya_pinya">${_rel17_18}</text></g>
<path class="rel pinya_pinya_pinya" pos_list="36_37_38" d="M42.0109313375,99.0613633401L1.9252242838,100.687553357L-35.2127511222,100.75479161"/>
<g transform="translate(2.91 100.17)"></g>
<path class="rel pinya" pos_list="6" d="M-85.9128073032,34.1999666644"/>
<g transform="translate(-85.91 34.2)"></g>
<path class="rel pinya_pinya" pos_list="20_21" d="M-92.4326716634,56.3377007208L-113.338361452,31.3094190622"/>
<g transform="translate(-102.89 43.82)"><text class="rel pinya_pinya">${_rel20_21}</text></g>
<path class="rel pinya_pinya_pinya" pos_list="40_41_42" d="M-104.453344569,72.9769620356L-126.334959792,52.2920517373L-139.929381823,30.6225781145"/>
<g transform="translate(-123.57 51.96)"></g>
<path class="rel pinya" pos_list="8" d="M-83.9769197421,-28.4314518983"/>
<g transform="translate(-83.98 -28.43)"></g>
<path class="rel pinya_pinya" pos_list="23_24" d="M-115.238150853,-23.6303186625L-95.1346468374,-53.0520484004"/>
<g transform="translate(-105.19 -38.34)"><text class="rel pinya_pinya">${_rel23_24}</text></g>
<path class="rel pinya_pinya_pinya" pos_list="44_45_46" d="M-142.556856295,-25.8417012442L-128.02485086,-49.923799221L-105.351623462,-67.7209063477"/>
<g transform="translate(-125.31 -47.83)"></g>
<path class="rel pinya" pos_list="10" d="M1.13095637541,-61.8332971626"/>
<g transform="translate(1.13 -61.83)"></g>
<path class="rel pinya_pinya" pos_list="26_27" d="M-18.2726258782,-79.7823614442L22.5489859481,-78.4408006315"/>
<g transform="translate(2.14 -79.11)"><text class="rel pinya_pinya">${_rel26_27}</text></g>
<path class="rel pinya_pinya_pinya" pos_list="48_49_50" d="M-34.6038439279,-95.4868883833L2.33489048745,-98.6684218138L39.5812354947,-91.7025243887"/>
<g transform="translate(2.44 -95.29)"></g>
<path class="rel pinya" pos_list="12" d="M88.5072948934,-32.9388967488"/>
<g transform="translate(88.51 -32.94)"></g>
<path class="rel pinya_pinya" pos_list="29_30" d="M97.2807012402,-52.7716403151L121.59158318,-27.4286502809"/>
<g transform="translate(109.44 -40.1)"><text class="rel pinya_pinya">${_rel29_30}</text></g>
<path class="rel pinya_pinya_pinya" pos_list="52_53_54" d="M110.890869388,-66.3020795043L131.359640183,-49.4623178817L148.5716948,-25.0913142622"/>
<g transform="translate(130.27 -46.95)"></g>
<path class="rel baix_crossa" pos_list="55_56" d="M43.4828837883,3.95863039448L40.3254492027,24.9969783365"/>
<g transform="translate(41.9 14.48)"><text class="rel baix_crossa">${_rel55_56}</text></g>
<path class="rel baix_crossa" pos_list="55_57" d="M43.2980230112,3.23535758576L43.1923949991,-19.9635028117"/>
<g transform="translate(43.25 -8.36)"><text class="rel baix_crossa">${_rel55_57}</text></g>
<path class="rel baix_crossa" pos_list="62_63" d="M-15.4529928184,23.5172537923L-36.3295704331,14.4515162417"/>
<g transform="translate(-25.89 18.98)"><text class="rel baix_crossa">${_rel62_63}</text></g>
<path class="rel baix_crossa" pos_list="62_64" d="M-16.1964962616,26.0154595405L1.54701179421,34.7423722144"/>
<g transform="translate(-7.32 30.38)"><text class="rel baix_crossa">${_rel62_64}</text></g>
<path class="rel baix_crossa" pos_list="69_70" d="M-17.392921886,-22.4164022656L-0.324341286969,-30.8540310686"/>
<g transform="translate(-8.86 -26.64)"><text class="rel baix_crossa">${_rel69_70}</text></g>
<path class="rel baix_crossa" pos_list="69_71" d="M-17.9141597387,-21.7859682423L-37.308870687,-8.47542526626"/>
<g transform="translate(-27.61 -15.13)"><text class="rel baix_crossa">${_rel69_71}</text></g>
<path class="rel baix_agulla" pos_list="55_59" d="M43.0989785226,1.04174231373L22.6698035033,2.40926527224"/>
<g transform="translate(32.88 1.73)"><text class="rel baix_agulla">${_rel55_59}</text></g>
<path class="rel baix_agulla" pos_list="62_66" d="M-15.3909655853,27.8296001568L-8.25446895593,6.57910671533"/>
<g transform="translate(-11.82 17.2)"><text class="rel baix_agulla">${_rel62_66}</text></g>
<path class="rel baix_agulla" pos_list="69_73" d="M-19.3906307092,-22.8663546133L-8.37126228902,-1.93924164888"/>
<g transform="translate(-13.88 -12.4)"><text class="rel baix_agulla">${_rel69_73}</text></g>
<path class="rel baix_contrafort" pos_list="55_58" d="M44.1567195515,4.72709588763L63.470034124,1.0977221073"/>
<g transform="translate(53.81 2.91)"><text class="rel baix_contrafort">${_rel55_58}</text></g>
<path class="rel baix_contrafort" pos_list="62_65" d="M-17.1607480046,23.1391621981L-29.4623798298,42.3528861556"/>
<g transform="translate(-23.31 32.75)"><text class="rel baix_contrafort">${_rel62_65}</text></g>
<path class="rel baix_contrafort" pos_list="69_72" d="M-18.7106424827,-19.8626357941L-28.5217689566,-38.2064664956"/>
<g transform="translate(-23.62 -29.03)"><text class="rel baix_contrafort">${_rel69_72}</text></g>
<path class="rel ma_baix_segon" pos_list="1_55_79" d="M100.745046048,4.51255465216L44.910030318,0.17871819535L189.749412512,4.08456237099"/>
<g transform="translate(111.8 2.93)"></g>
<path class="rel ma_baix_segon" pos_list="5_62_80" d="M-47.9761318121,61.7467155214L-18.1147027229,24.1283675969L-90.0307369715,108.810302432"/>
<g transform="translate(-52.04 64.9)"></g>
<path class="rel ma_baix_segon" pos_list="9_69_81" d="M-47.8114162117,-53.2301454678L-18.2883550742,-22.2326041372L-91.0249007022,-106.072266143"/>
<g transform="translate(-52.37 -60.51)"></g>
<path class="rel vent_baix_segon" pos_list="3_55_79" d="M50.0090967833,60.664075736L44.201519792,4.11440450326L189.999388664,1.37088853517"/>
<g transform="translate(94.74 22.05)"></g>
<path class="rel vent_baix_segon" pos_list="11_55_79" d="M53.6341498939,-55.0573843817L42.0570656236,2.30053947435L190.907460867,3.16081854933"/>
<g transform="translate(95.53 -16.53)"></g>
<path class="rel vent_baix_segon" pos_list="7_62_80" d="M-95.9438856878,2.64484581659L-18.9642437727,27.4495409687L-91.9973507264,112.67420478"/>
<g transform="translate(-68.97 47.59)"></g>
<path class="rel vent_baix_segon" pos_list="3_62_80" d="M54.3857859421,60.2398764379L-19.0604802335,26.2095742475L-90.8166937672,109.379973578"/>
<g transform="translate(-18.5 65.28)"></g>
<path class="rel vent_baix_segon" pos_list="11_69_81" d="M50.3045131723,-56.4390316873L-15.2009873178,-18.249797826L-92.0552583679,-108.217976857"/>
<g transform="translate(-18.98 -60.97)"></g>
<path class="rel vent_baix_segon" pos_list="7_69_81" d="M-97.9386695706,0.52007059646L-15.7824379574,-19.5821720304L-92.2197816846,-105.862847875"/>
<g transform="translate(-68.65 -41.64)"></g>
<path class="rel agulla_baix_segon" pos_list="59_55_79" d="M24.5427985435,3.36451686485L42.5461048687,4.00390663296L188.384988065,3.26047156513"/>
<g transform="translate(85.16 3.54)"></g>
<path class="rel agulla_baix_segon" pos_list="66_62_80" d="M-8.57278549324,9.89400744131L-16.6129268229,26.9267850842L-93.038804021,112.694529237"/>
<g transform="translate(-39.41 49.84)"></g>
<path class="rel agulla_baix_segon" pos_list="73_69_81" d="M-8.55327314204,-0.810098218804L-15.9064264861,-21.8668388311L-92.4283163248,-105.139823799"/>
<g transform="translate(-38.96 -42.61)"></g>
<path class="rel baix_segon_baix_segon" pos_list="55_79_62_80" d="M41.2534811344,0.414407830175L187.82827909,4.52754619158L-17.5737078656,24.8641612554L-91.5916377504,108.653496441"/>
<g transform="translate(29.98 34.61)"></g>
<path class="rel baix_segon_baix_segon" pos_list="62_80_69_81" d="M-16.9896543163,24.6242621741L-90.5818151359,112.999749387L-16.7671836428,-19.54276717L-92.4326970763,-107.44503056"/>
<g transform="translate(-54.19 2.66)"></g>
<path class="rel baix_segon_baix_segon" pos_list="69_81_55_79" d="M-19.2799448475,-22.9287849566L-93.5459969743,-107.219685177L41.7929039359,4.4310574996L190.959431641,3.33726752142"/>
<g transform="translate(29.98 -30.6)"></g>
<path class="rel lateral_baix_segon" pos_list="60_55_79" d="M74.3382862789,19.4109095726L40.5250645418,2.50053904369L191.594082198,4.47981165936"/>
<g transform="translate(102.15 8.8)"></g>
<path class="rel lateral_baix_segon" pos_list="61_55_79" d="M73.7934006749,-12.560270122L41.9155302018,0.969037516107L192.282905276,1.34524219524"/>
<g transform="translate(102.66 -3.42)"></g>
<path class="rel lateral_baix_segon" pos_list="67_62_80" d="M-49.1390780733,43.6789475113L-17.4483781113,23.0970388576L-89.268970201,111.692125718"/>
<g transform="translate(-51.95 59.49)"></g>
<path class="rel lateral_baix_segon" pos_list="68_62_80" d="M-20.0070447507,59.5112578517L-15.9829538179,24.6197091546L-93.4486816017,109.009727542"/>
<g transform="translate(-43.15 64.38)"></g>
<path class="rel lateral_baix_segon" pos_list="74_69_81" d="M-20.1508917757,-53.91376711L-15.4480660907,-19.8693408537L-90.1082762953,-107.410403919"/>
<g transform="translate(-41.9 -60.4)"></g>
<path class="rel lateral_baix_segon" pos_list="75_69_81" d="M-46.4885736899,-35.8828460549L-17.7810303564,-18.1671676494L-93.3045912642,-105.760902629"/>
<g transform="translate(-52.52 -53.27)"></g>
</g>
</svg>