<svg xmlns="http://www.w3.org/2000/svg" xmlns:xlink="http://www.w3.org/1999/xlink" viewBox="-230.0,-175.32,497.5,350.64">
<g id="positions">
<g id="1" transform="translate(100.0,0.0) rotate(0.0)">
<g id="1_casteller" class="ma" transform="scale(.2 .2) rotate(-90)">
${_rep1}
</g>
<g transform="rotate(90) translate(0 6)">
<text id="1_text" class="ma vtext" text-anchor="middle">
1 ${_1} ${_c1}
</text>
</g>
</g>
<g id="2" transform="translate(86.6,41.67) rotate(30.0)">
<g id="2_casteller" class="pinya" transform="scale(.2 .2) rotate(-90)">
${_rep2}
</g>
<g transform="rotate(90) translate(0 6)">
<text id="2_text" class="pinya vtext" text-anchor="middle">
2 ${_2} ${_c2}
</text>
</g>
</g>
<g id="3" transform="translate(50.0,72.17) rotate(60.0)">
<g id="3_casteller" class="vent" transform="scale(.2 .2) rotate(-90)">
${_rep3}
</g>
<g transform="rotate(90) translate(0 6)">
<text id="3_text" class="vent vtext" text-anchor="middle">
3 ${_3} ${_c3}
</text>
</g>
</g>
<g id="4" transform="translate(0.0,83.33) rotate(90.0)">
<g id="4_casteller" class="pinya" transform="scale(.2 .2) rotate(-90)">
${_rep4}
</g>
<g transform="rotate(90) translate(0 6)">
<text id="4_text" class="pinya vtext" text-anchor="middle">
4 ${_4} ${_c4}
</text>
</g>
</g>
<g id="5" transform="translate(-50.0,72.17) rotate(120.0)">
<g id="5_casteller" class="ma" transform="scale(.2 .2) rotate(-90)">
${_rep5}
</g>
<g transform="rotate(90) translate(0 6)">
<text id="5_text" class="ma vtext" text-anchor="middle">
5 ${_5} ${_c5}
</text>
</g>
</g>
<g id="6" transform="translate(-86.6,41.67) rotate(150.0)">
<g id="6_casteller" class="pinya" transform="scale(.2 .2) rotate(-90)">
${_rep6}
</g>
<g transform="rotate(90) translate(0 6)">
<text id="6_text" class="pinya vtext" text-anchor="middle">
6 ${_6} ${_c6}
</text>
</g>
</g>
<g id="7" transform="translate(-100.0,0.0) rotate(180.0)">
<g id="7_casteller" class="vent" transform="scale(.2 .2) rotate(-90)">
${_rep7}
</g>
<g transform="rotate(90) translate(0 6)">
<text id="7_text" class="vent vtext" text-anchor="middle">
7 ${_7} ${_c7}
</text>
</g>
</g>
<g id="8" transform="translate(-86.6,-41.67) rotate(210.0)">
<g id="8_casteller" class="pinya" transform="scale(.2 .2) rotate(-90)">
${_rep8}
</g>
<g transform="rotate(90) translate(0 6)">
<text id="8_text" class="pinya vtext" text-anchor="middle">
8 ${_8} ${_c8}
</text>
</g>
</g>
<g id="9" transform="translate(-50.0,-72.17) rotate(240.0)">
<g id="9_casteller" class="ma" transform="scale(.2 .2) rotate(-90)">
${_rep9}
</g>
<g transform="rotate(90) translate(0 6)">
<text id="9_text" class="ma vtext" text-anchor="middle">
9 ${_9} ${_c9}
</text>
</g>
</g>
<g id="10" transform="translate(-0.0,-83.33) rotate(270.0)">
<g id="10_casteller" class="pinya" transform="scale(.2 .2) rotate(-90)">
${_rep10}
</g>
<g transform="rotate(90) translate(0 6)">
<text id="10_text" class="pinya vtext" text-anchor="middle">
10 ${_10} ${_c10}
</text>
</g>
</g>
<g id="11" transform="translate(50.0,-72.17) rotate(300.0)">
<g id="11_casteller" class="vent" transform="scale(.2 .2) rotate(-90)">
${_rep11}
</g>
<g transform="rotate(90) translate(0 6)">
<text id="11_text" class="vent vtext" text-anchor="middle">
11 ${_11} ${_c11}
</text>
</g>
</g>
<g id="12" transform="translate(86.6,-41.67) rotate(330.0)">
<g id="12_casteller" class="pinya" transform="scale(.2 .2) rotate(-90)">
${_rep12}
</g>
<g transform="rotate(90) translate(0 6)">
<text id="12_text" class="pinya vtext" text-anchor="middle">
12 ${_12} ${_c12}
</text>
</g>
</g>
<g id="13" transform="translate(125.0,0.0) rotate(0.0)">
<g id="13_casteller" class="ma" transform="scale(.2 .2) rotate(-90)">
${_rep13}
</g>
<g transform="rotate(90) translate(0 6)">
<text id="13_text" class="ma vtext" text-anchor="middle">
13 ${_13} ${_c13}
</text>
</g>
</g>
<g id="14" transform="translate(117.46,35.63) rotate(20.0)">
<g id="14_casteller" class="pinya" transform="scale(.2 .2) rotate(-90)">
${_rep14}
</g>
<g transform="rotate(90) translate(0 6)">
<text id="14_text" class="pinya vtext" text-anchor="middle">
14 ${_14} ${_c14}
</text>
</g>
</g>
<g id="15" transform="translate(95.76,66.96) rotate(40.0)">
<g id="15_casteller" class="pinya" transform="scale(.2 .2) rotate(-90)">
${_rep15}
</g>
<g transform="rotate(90) translate(0 6)">
<text id="15_text" class="pinya vtext" text-anchor="middle">
15 ${_15} ${_c15}
</text>
</g>
</g>
<g id="16" transform="translate(62.5,90.21) rotate(60.0)">
<g id="16_casteller" class="vent" transform="scale(.2 .2) rotate(-90)">
${_rep16}
</g>
<g transform="rotate(90) translate(0 6)">
<text id="16_text" class="vent vtext" text-anchor="middle">
16 ${_16} ${_c16}
</text>
</g>
</g>
<g id="17" transform="translate(21.71,102.58) rotate(80.0)">
<g id="17_casteller" class="pinya" transform="scale(.2 .2) rotate(-90)">
${_rep17}
</g>
<g transform="rotate(90) translate(0 6)">
<text id="17_text" class="pinya vtext" text-anchor="middle">
17 ${_17} ${_c17}
</text>
</g>
</g>
<g id="18" transform="translate(-21.71,102.58) rotate(100.0)">
<g id="18_casteller" class="pinya" transform="scale(.2 .2) rotate(-90)">
${_rep18}
</g>
<g transform="rotate(90) translate(0 6)">
<text id="18_text" class="pinya vtext" text-anchor="middle">
18 ${_18} ${_c18}
</text>
</g>
</g>
<g id="19" transform="translate(-62.5,90.21) rotate(120.0)">
<g id="19_casteller" class="ma" transform="scale(.2 .2) rotate(-90)">
${_rep19}
</g>
<g transform="rotate(90) translate(0 6)">
<text id="19_text" class="ma vtext" text-anchor="middle">
19 ${_19} ${_c19}
</text>
</g>
</g>
<g id="20" transform="translate(-95.76,66.96) rotate(140.0)">
<g id="20_casteller" class="pinya" transform="scale(.2 .2) rotate(-90)">
${_rep20}
</g>
<g transform="rotate(90) translate(0 6)">
<text id="20_text" class="pinya vtext" text-anchor="middle">
20 ${_20} ${_c20}
</text>
</g>
</g>
<g id="21" transform="translate(-117.46,35.63) rotate(160.0)">
<g id="21_casteller" class="pinya" transform="scale(.2 .2) rotate(-90)">
${_rep21}
</g>
<g transform="rotate(90) translate(0 6)">
<text id="21_text" class="pinya vtext" text-anchor="middle">
21 ${_21} ${_c21}
</text>
</g>
</g>
<g id="22" transform="translate(-125.0,0.0) rotate(180.0)">
<g id="22_casteller" class="vent" transform="scale(.2 .2) rotate(-90)">
${_rep22}
</g>
<g transform="rotate(90) translate(0 6)">
<text id="22_text" class="vent vtext" text-anchor="middle">
22 ${_22} ${_c22}
</text>
</g>
</g>
<g id="23" transform="translate(-117.46,-35.63) rotate(200.0)">
<g id="23_casteller" class="pinya" transform="scale(.2 .2) rotate(-90)">
${_rep23}
</g>
<g transform="rotate(90) translate(0 6)">
<text id="23_text" class="pinya vtext" text-anchor="middle">
23 ${_23} ${_c23}
</text>
</g>
</g>
<g id="24" transform="translate(-95.76,-66.96) rotate(220.0)">
<g id="24_casteller" class="pinya" transform="scale(.2 .2) rotate(-90)">
${_rep24}
</g>
<g transform="rotate(90) translate(0 6)">
<text id="24_text" class="pinya vtext" text-anchor="middle">
24 ${_24} ${_c24}
</text>
</g>
</g>
<g id="25" transform="translate(-62.5,-90.21) rotate(240.0)">
<g id="25_casteller" class="ma" transform="scale(.2 .2) rotate(-90)">
${_rep25}
</g>
<g transform="rotate(90) translate(0 6)">
<text id="25_text" class="ma vtext" text-anchor="middle">
25 ${_25} ${_c25}
</text>
</g>
</g>
<g id="26" transform="translate(-21.71,-102.58) rotate(260.0)">
<g id="26_casteller" class="pinya" transform="scale(.2 .2) rotate(-90)">
${_rep26}
</g>
<g transform="rotate(90) translate(0 6)">
<text id="26_text" class="pinya vtext" text-anchor="middle">
26 ${_26} ${_c26}
</text>
</g>
</g>
<g id="27" transform="translate(21.71,-102.58) rotate(280.0)">
<g id="27_casteller" class="pinya" transform="scale(.2 .2) rotate(-90)">
${_rep27}
</g>
<g transform="rotate(90) translate(0 6)">
<text id="27_text" class="pinya vtext" text-anchor="middle">
27 ${_27} ${_c27}
</text>
</g>
</g>
<g id="28" transform="translate(62.5,-90.21) rotate(300.0)">
<g id="28_casteller" class="vent" transform="scale(.2 .2) rotate(-90)">
${_rep28}
</g>
<g transform="rotate(90) translate(0 6)">
<text id="28_text" class="vent vtext" text-anchor="middle">
28 ${_28} ${_c28}
</text>
</g>
</g>
<g id="29" transform="translate(95.76,-66.96) rotate(320.0)">
<g id="29_casteller" class="pinya" transform="scale(.2 .2) rotate(-90)">
${_rep29}
</g>
<g transform="rotate(90) translate(0 6)">
<text id="29_text" class="pinya vtext" text-anchor="middle">
29 ${_29} ${_c29}
</text>
</g>
</g>
<g id="30" transform="translate(117.46,-35.63) rotate(340.0)">
<g id="30_casteller" class="pinya" transform="scale(.2 .2) rotate(-90)">
${_rep30}
</g>
<g transform="rotate(90) translate(0 6)">
<text id="30_text" class="pinya vtext" text-anchor="middle">
30 ${_30} ${_c30}
</text>
</g>
</g>
<g id="31" transform="translate(150.0,0.0) rotate(0.0)">
<g id="31_casteller" class="ma" transform="scale(.2 .2) rotate(-90)">
${_rep31}
</g>
<g transform="rotate(90) translate(0 6)">
<text id="31_text" class="ma vtext" text-anchor="middle">
31 ${_31} ${_c31}
</text>
</g>
</g>
<g id="32" transform="translate(144.89,32.35) rotate(15.0)">
<g id="32_casteller" class="pinya" transform="scale(.2 .2) rotate(-90)">
${_rep32}
</g>
<g transform="rotate(90) translate(0 6)">
<text id="32_text" class="pinya vtext" text-anchor="middle">
32 ${_32} ${_c32}
</text>
</g>
</g>
<g id="33" transform="translate(129.9,62.5) rotate(30.0)">
<g id="33_casteller" class="pinya" transform="scale(.2 .2) rotate(-90)">
${_rep33}
</g>
<g transform="rotate(90) translate(0 6)">
<text id="33_text" class="pinya vtext" text-anchor="middle">
33 ${_33} ${_c33}
</text>
</g>
</g>
<g id="34" transform="translate(106.07,88.39) rotate(45.0)">
<g id="34_casteller" class="pinya" transform="scale(.2 .2) rotate(-90)">
${_rep34}
</g>
<g transform="rotate(90) translate(0 6)">
<text id="34_text" class="pinya vtext" text-anchor="middle">
34 ${_34} ${_c34}
</text>
</g>
</g>
<g id="35" transform="translate(75.0,108.25) rotate(60.0)">
<g id="35_casteller" class="vent" transform="scale(.2 .2) rotate(-90)">
${_rep35}
</g>
<g transform="rotate(90) translate(0 6)">
<text id="35_text" class="vent vtext" text-anchor="middle">
35 ${_35} ${_c35}
</text>
</g>
</g>
<g id="36" transform="translate(38.82,120.74) rotate(75.0)">
<g id="36_casteller" class="pinya" transform="scale(.2 .2) rotate(-90)">
${_rep36}
</g>
<g transform="rotate(90) translate(0 6)">
<text id="36_text" class="pinya vtext" text-anchor="middle">
36 ${_36} ${_c36}
</text>
</g>
</g>
<g id="37" transform="translate(0.0,125.0) rotate(90.0)">
<g id="37_casteller" class="pinya" transform="scale(.2 .2) rotate(-90)">
${_rep37}
</g>
<g transform="rotate(90) translate(0 6)">
<text id="37_text" class="pinya vtext" text-anchor="middle">
37 ${_37} ${_c37}
</text>
</g>
</g>
<g id="38" transform="translate(-38.82,120.74) rotate(105.0)">
<g id="38_casteller" class="pinya" transform="scale(.2 .2) rotate(-90)">
${_rep38}
</g>
<g transform="rotate(90) translate(0 6)">
<text id="38_text" class="pinya vtext" text-anchor="middle">
38 ${_38} ${_c38}
</text>
</g>
</g>
<g id="39" transform="translate(-75.0,108.25) rotate(120.0)">
<g id="39_casteller" class="ma" transform="scale(.2 .2) rotate(-90)">
${_rep39}
</g>
<g transform="rotate(90) translate(0 6)">
<text id="39_text" class="ma vtext" text-anchor="middle">
39 ${_39} ${_c39}
</text>
</g>
</g>
<g id="40" transform="translate(-106.07,88.39) rotate(135.0)">
<g id="40_casteller" class="pinya" transform="scale(.2 .2) rotate(-90)">
${_rep40}
</g>
<g transform="rotate(90) translate(0 6)">
<text id="40_text" class="pinya vtext" text-anchor="middle">
40 ${_40} ${_c40}
</text>
</g>
</g>
<g id="41" transform="translate(-129.9,62.5) rotate(150.0)">
<g id="41_casteller" class="pinya" transform="scale(.2 .2) rotate(-90)">
${_rep41}
</g>
<g transform="rotate(90) translate(0 6)">
<text id="41_text" class="pinya vtext" text-anchor="middle">
41 ${_41} ${_c41}
</text>
</g>
</g>
<g id="42" transform="translate(-144.89,32.35) rotate(165.0)">
<g id="42_casteller" class="pinya" transform="scale(.2 .2) rotate(-90)">
${_rep42}
</g>
<g transform="rotate(90) translate(0 6)">
<text id="42_text" class="pinya vtext" text-anchor="middle">
42 ${_42} ${_c42}
</text>
</g>
</g>
<g id="43" transform="translate(-150.0,0.0) rotate(180.0)">
<g id="43_casteller" class="vent" transform="scale(.2 .2) rotate(-90)">
${_rep43}
</g>
<g transform="rotate(90) translate(0 6)">
<text id="43_text" class="vent vtext" text-anchor="middle">
43 ${_43} ${_c43}
</text>
</g>
</g>
<g id="44" transform="translate(-144.89,-32.35) rotate(195.0)">
<g id="44_casteller" class="pinya" transform="scale(.2 .2) rotate(-90)">
${_rep44}
</g>
<g transform="rotate(90) translate(0 6)">
<text id="44_text" class="pinya vtext" text-anchor="middle">
44 ${_44} ${_c44}
</text>
</g>
</g>
<g id="45" transform="translate(-129.9,-62.5) rotate(210.0)">
<g id="45_casteller" class="pinya" transform="scale(.2 .2) rotate(-90)">
${_rep45}
</g>
<g transform="rotate(90) translate(0 6)">
<text id="45_text" class="pinya vtext" text-anchor="middle">
45 ${_45} ${_c45}
</text>
</g>
</g>
<g id="46" transform="translate(-106.07,-88.39) rotate(225.0)">
<g id="46_casteller" class="pinya" transform="scale(.2 .2) rotate(-90)">
${_rep46}
</g>
<g transform="rotate(90) translate(0 6)">
<text id="46_text" class="pinya vtext" text-anchor="middle">
46 ${_46} ${_c46}
</text>
</g>
</g>
<g id="47" transform="translate(-75.0,-108.25) rotate(240.0)">
<g id="47_casteller" class="ma" transform="scale(.2 .2) rotate(-90)">
${_rep47}
</g>
<g transform="rotate(90) translate(0 6)">
<text id="47_text" class="ma vtext" text-anchor="middle">
47 ${_47} ${_c47}
</text>
</g>
</g>
<g id="48" transform="translate(-38.82,-120.74) rotate(255.0)">
<g id="48_casteller" class="pinya" transform="scale(.2 .2) rotate(-90)">
${_rep48}
</g>
<g transform="rotate(90) translate(0 6)">
<text id="48_text" class="pinya vtext" text-anchor="middle">
48 ${_48} ${_c48}
</text>
</g>
</g>
<g id="49" transform="translate(-0.0,-125.0) rotate(270.0)">
<g id="49_casteller" class="pinya" transform="scale(.2 .2) rotate(-90)">
${_rep49}
</g>
<g transform="rotate(90) translate(0 6)">
<text id="49_text" class="pinya vtext" text-anchor="middle">
49 ${_49} ${_c49}
</text>
</g>
</g>
<g id="50" transform="translate(38.82,-120.74) rotate(285.0)">
<g id="50_casteller" class="pinya" transform="scale(.2 .2) rotate(-90)">
${_rep50}
</g>
<g transform="rotate(90) translate(0 6)">
<text id="50_text" class="pinya vtext" text-anchor="middle">
50 ${_50} ${_c50}
</text>
</g>
</g>
<g id="51" transform="translate(75.0,-108.25) rotate(300.0)">
<g id="51_casteller" class="vent" transform="scale(.2 .2) rotate(-90)">
${_rep51}
</g>
<g transform="rotate(90) translate(0 6)">
<text id="51_text" class="vent vtext" text-anchor="middle">
51 ${_51} ${_c51}
</text>
</g>
</g>
<g id="52" transform="translate(106.07,-88.39) rotate(315.0)">
<g id="52_casteller" class="pinya" transform="scale(.2 .2) rotate(-90)">
${_rep52}
</g>
<g transform="rotate(90) translate(0 6)">
<text id="52_text" class="pinya vtext" text-anchor="middle">
52 ${_52} ${_c52}
</text>
</g>
</g>
<g id="53" transform="translate(129.9,-62.5) rotate(330.0)">
<g id="53_casteller" class="pinya" transform="scale(.2 .2) rotate(-90)">
${_rep53}
</g>
<g transform="rotate(90) translate(0 6)">
<text id="53_text" class="pinya vtext" text-anchor="middle">
53 ${_53} ${_c53}
</text>
</g>
</g>
<g id="54" transform="translate(144.89,-32.35) rotate(345.0)">
<g id="54_casteller" class="pinya" transform="scale(.2 .2) rotate(-90)">
${_rep54}
</g>
<g transform="rotate(90) translate(0 6)">
<text id="54_text" class="pinya vtext" text-anchor="middle">
54 ${_54} ${_c54}
</text>
</g>
</g>
<g id="baixos_gp_0" transform="translate(40.0 0.0) rotate(0.0)">
<g id="55" transform="translate(0.0,0.0) rotate(0.0)">
<g id="55_casteller" class="baix" transform="scale(.2 .2) rotate(-90)">
${_rep55}
</g>
<g transform="rotate(90) translate(0 6)">
<text id="55_text" class="baix vtext" text-anchor="middle">
55 ${_55} ${_c55}
</text>
</g>
</g>
<g id="56" transform="translate(0.0,25.0) rotate(90.0)">
<g id="56_casteller" class="crossa" transform="scale(.2 .2) rotate(-90)">
${_rep56}
</g>
<g transform="rotate(90) translate(0 6)">
<text id="56_text" class="crossa vtext" text-anchor="middle">
56 ${_56} ${_c56}
</text>
</g>
</g>
<g id="57" transform="translate(0.0,-25.0) rotate(-90.0)">
<g id="57_casteller" class="crossa" transform="scale(.2 .2) rotate(-90)">
${_rep57}
</g>
<g transform="rotate(90) translate(0 6)">
<text id="57_text" class="crossa vtext" text-anchor="middle">
57 ${_57} ${_c57}
</text>
</g>
</g>
<g id="58" transform="translate(20.0,0.0) rotate(0.0)">
<g id="58_casteller" class="contrafort" transform="scale(.2 .2) rotate(-90)">
${_rep58}
</g>
<g transform="rotate(90) translate(0 6)">
<text id="58_text" class="contrafort vtext" text-anchor="middle">
58 ${_58} ${_c58}
</text>
</g>
</g>
<g id="59" transform="translate(-20.0,0.0) rotate(0.0)">
<g id="59_casteller" class="agulla" transform="scale(.2 .2) rotate(-90)">
${_rep59}
</g>
<g transform="rotate(90) translate(0 6)">
<text id="59_text" class="agulla vtext" text-anchor="middle">
59 ${_59} ${_c59}
</text>
</g>
</g>
<g id="60" transform="translate(30.0,20.83) rotate(30.0)">
<g id="60_casteller" class="lateral" transform="scale(.2 .2) rotate(-90)">
${_rep60}
</g>
<g transform="rotate(90) translate(0 6)">
<text id="60_text" class="lateral vtext" text-anchor="middle">
60 ${_60} ${_c60}
</text>
</g>
</g>
<g id="61" transform="translate(30.0,-20.83) rotate(-30.0)">
<g id="61_casteller" class="lateral" transform="scale(.2 .2) rotate(-90)">
${_rep61}
</g>
<g transform="rotate(90) translate(0 6)">
<text id="61_text" class="lateral vtext" text-anchor="middle">
61 ${_61} ${_c61}
</text>
</g>
</g>
</g>
<g id="baixos_gp_1" transform="translate(-20.0 34.64) rotate(120.0)">
<g id="62" transform="translate(0.0,0.0) rotate(0.0)">
<g id="62_casteller" class="baix" transform="scale(.2 .2) rotate(-90)">
${_rep62}
</g>
<g transform="rotate(90) translate(0 6)">
<text id="62_text" class="baix vtext" text-anchor="middle">
62 ${_62} ${_c62}
</text>
</g>
</g>
<g id="63" transform="translate(0.0,25.0) rotate(90.0)">
<g id="63_casteller" class="crossa" transform="scale(.2 .2) rotate(-90)">
${_rep63}
</g>
<g transform="rotate(90) translate(0 6)">
<text id="63_text" class="crossa vtext" text-anchor="middle">
63 ${_63} ${_c63}
</text>
</g>
</g>
<g id="64" transform="translate(0.0,-25.0) rotate(-90.0)">
<g id="64_casteller" class="crossa" transform="scale(.2 .2) rotate(-90)">
${_rep64}
</g>
<g transform="rotate(90) translate(0 6)">
<text id="64_text" class="crossa vtext" text-anchor="middle">
64 ${_64} ${_c64}
</text>
</g>
</g>
<g id="65" transform="translate(20.0,0.0) rotate(0.0)">
<g id="65_casteller" class="contrafort" transform="scale(.2 .2) rotate(-90)">
${_rep65}
</g>
<g transform="rotate(90) translate(0 6)">
<text id="65_text" class="contrafort vtext" text-anchor="middle">
65 ${_65} ${_c65}
</text>
</g>
</g>
<g id="66" transform="translate(-20.0,0.0) rotate(0.0)">
<g id="66_casteller" class="agulla" transform="scale(.2 .2) rotate(-90)">
${_rep66}
</g>
<g transform="rotate(90) translate(0 6)">
<text id="66_text" class="agulla vtext" text-anchor="middle">
66 ${_66} ${_c66}
</text>
</g>
</g>
<g id="67" transform="translate(30.0,20.83) rotate(30.0)">
<g id="67_casteller" class="lateral" transform="scale(.2 .2) rotate(-90)">
${_rep67}
</g>
<g transform="rotate(90) translate(0 6)">
<text id="67_text" class="lateral vtext" text-anchor="middle">
67 ${_67} ${_c67}
</text>
</g>
</g>
<g id="68" transform="translate(30.0,-20.83) rotate(-30.0)">
<g id="68_casteller" class="lateral" transform="scale(.2 .2) rotate(-90)">
${_rep68}
</g>
<g transform="rotate(90) translate(0 6)">
<text id="68_text" class="lateral vtext" text-anchor="middle">
68 ${_68} ${_c68}
</text>
</g>
</g>
</g>
<g id="baixos_gp_2" transform="translate(-20.0 -34.64) rotate(240.0)">
<g id="69" transform="translate(0.0,0.0) rotate(0.0)">
<g id="69_casteller" class="baix" transform="scale(.2 .2) rotate(-90)">
${_rep69}
</g>
<g transform="rotate(90) translate(0 6)">
<text id="69_text" class="baix vtext" text-anchor="middle">
69 ${_69} ${_c69}
</text>
</g>
</g>
<g id="70" transform="translate(0.0,25.0) rotate(90.0)">
<g id="70_casteller" class="crossa" transform="scale(.2 .2) rotate(-90)">
${_rep70}
</g>
<g transform="rotate(90) translate(0 6)">
<text id="70_text" class="crossa vtext" text-anchor="middle">
70 ${_70} ${_c70}
</text>
</g>
</g>
<g id="71" transform="translate(0.0,-25.0) rotate(-90.0)">
<g id="71_casteller" class="crossa" transform="scale(.2 .2) rotate(-90)">
${_rep71}
</g>
<g transform="rotate(90) translate(0 6)">
<text id="71_text" class="crossa vtext" text-anchor="middle">
71 ${_71} ${_c71}
</text>
</g>
</g>
<g id="72" transform="translate(20.0,0.0) rotate(0.0)">
<g id="72_casteller" class="contrafort" transform="scale(.2 .2) rotate(-90)">
${_rep72}
</g>
<g transform="rotate(90) translate(0 6)">
<text id="72_text" class="contrafort vtext" text-anchor="middle">
72 ${_72} ${_c72}
</text>
</g>
</g>
<g id="73" transform="translate(-20.0,0.0) rotate(0.0)">
<g id="73_casteller" class="agulla" transform="scale(.2 .2) rotate(-90)">
${_rep73}
</g>
<g transform="rotate(90) translate(0 6)">
<text id="73_text" class="agulla vtext" text-anchor="middle">
73 ${_73} ${_c73}
</text>
</g>
</g>
<g id="74" transform="translate(30.0,20.83) rotate(30.0)">
<g id="74_casteller" class="lateral" transform="scale(.2 .2) rotate(-90)">
${_rep74}
</g>
<g transform="rotate(90) translate(0 6)">
<text id="74_text" class="lateral vtext" text-anchor="middle">
74 ${_74} ${_c74}
</text>
</g>
</g>
<g id="75" transform="translate(30.0,-20.83) rotate(-30.0)">
<g id="75_casteller" class="lateral" transform="scale(.2 .2) rotate(-90)">
${_rep75}
</g>
<g transform="rotate(90) translate(0 6)">
<text id="75_text" class="lateral vtext" text-anchor="middle">
75 ${_75} ${_c75}
</text>
</g>
</g>
</g>
<g id="portacrossa_gp_0" transform="translate(35.0 60.62) rotate(60.0)">
<g id="76" transform="translate(0.0,0.0) rotate(0.0)">
<g id="76_casteller" class="portacrossa" transform="scale(.2 .2) rotate(-90)">
${_rep76}
</g>
<g transform="rotate(90) translate(0 6)">
<text id="76_text" class="portacrossa vtext" text-anchor="middle">
76 ${_76} ${_c76}
</text>
</g>
</g>
</g>
<g id="portacrossa_gp_1" transform="translate(-70.0 0.0) rotate(180.0)">
<g id="77" transform="translate(0.0,0.0) rotate(0.0)">
<g id="77_casteller" class="portacrossa" transform="scale(.2 .2) rotate(-90)">
${_rep77}
</g>
<g transform="rotate(90) translate(0 6)">
<text id="77_text" class="portacrossa vtext" text-anchor="middle">
77 ${_77} ${_c77}
</text>
</g>
</g>
</g>
<g id="portacrossa_gp_2" transform="translate(35.0 -60.62) rotate(300.0)">
<g id="78" transform="translate(0.0,0.0) rotate(0.0)">
<g id="78_casteller" class="portacrossa" transform="scale(.2 .2) rotate(-90)">
${_rep78}
</g>
<g transform="rotate(90) translate(0 6)">
<text id="78_text" class="portacrossa vtext" text-anchor="middle">
78 ${_78} ${_c78}
</text>
</g>
</g>
</g>
<g id="79" transform="translate(187.5,0.0) rotate(0.0)">
<g id="79_casteller" class="segon" transform="scale(.2 .2) rotate(-90)">
${_rep79}
</g>
<g transform="rotate(90) translate(0 6)">
<text id="79_text" class="segon vtext" text-anchor="middle">
79 ${_79} ${_c79}
</text>
</g>
</g>
<g id="80" transform="translate(-93.75,135.32) rotate(120.0)">
<g id="80_casteller" class="segon" transform="scale(.2 .2) rotate(-90)">
${_rep80}
</g>
<g transform="rotate(90) translate(0 6)">
<text id="80_text" class="segon vtext" text-anchor="middle">
80 ${_80} ${_c80}
</text>
</g>
</g>
<g id="81" transform="translate(-93.75,-135.32) rotate(240.0)">
<g id="81_casteller" class="segon" transform="scale(.2 .2) rotate(-90)">
${_rep81}
</g>
<g transform="rotate(90) translate(0 6)">
<text id="81_text" class="segon vtext" text-anchor="middle">
81 ${_81} ${_c81}
</text>
</g>
</g>
</g>
<g id="relations">
<path class="rel ma_ma" pos_list="13_1" d="M126.258745908,0.863795158761L104.168910119,3.97492500611"/>
<g transform="translate(115.21 2.42)"><text class="rel ma_ma">${_rel13_1}</text></g>
<path class="rel ma_ma" pos_list="31_13" d="M154.4537556,0.313895870933L126.553298968,1.44515495532"/>
<g transform="translate(140.5 0.88)"><text class="rel ma_ma">${_rel31_13}</text></g>
<path class="rel vent_vent" pos_list="16_3" d="M65.8923365666,90.3482273327L51.2864717103,73.4574921673"/>
<g transform="translate(58.59 81.9)"><text class="rel vent_vent">${_rel16_3}</text></g>
<path class="rel vent_vent" pos_list="35_16" d="M75.5324398896,108.522163266L64.3023622209,90.7578023708"/>
<g transform="translate(69.92 99.64)"><text class="rel vent_vent">${_rel35_16}</text></g>
<path class="rel ma_ma" pos_list="19_5" d="M-62.1632929417,93.2860135666L-49.2230276278,72.9959156804"/>
<g transform="translate(-55.69 83.14)"><text class="rel ma_ma">${_rel19_5}</text></g>
<path class="rel ma_ma" pos_list="39_19" d="M-70.8207908022,111.571127515L-58.7598028489,91.5717460265"/>
<g transform="translate(-64.79 101.57)"><text class="rel ma_ma">${_rel39_19}</text></g>
<path class="rel vent_vent" pos_list="22_7" d="M-122.184097094,4.95967091757L-96.6796510998,0.0364798705453"/>
<g transform="translate(-109.43 2.5)"><text class="rel vent_vent">${_rel22_7}</text></g>
<path class="rel vent_vent" pos_list="43_22" d="M-148.069655163,3.67564841498L-122.891066142,1.6138034129"/>
<g transform="translate(-135.48 2.64)"><text class="rel vent_vent">${_rel43_22}</text></g>
<path class="rel ma_ma" pos_list="25_9" d="M-57.5155045704,-85.8803827006L-46.6912071663,-68.4692371308"/>
<g transform="translate(-52.1 -77.17)"><text class="rel ma_ma">${_rel25_9}</text></g>
<path class="rel ma_ma" pos_list="47_25" d="M-71.8373832103,-106.099008764L-60.3541400931,-90.1066838957"/>
<g transform="translate(-66.1 -98.1)"><text class="rel ma_ma">${_rel47_25}</text></g>
<path class="rel vent_vent" pos_list="28_11" d="M63.3526765919,-85.3985787325L51.5120584439,-70.1592334978"/>
<g transform="translate(57.43 -77.78)"><text class="rel vent_vent">${_rel28_11}</text></g>
<path class="rel vent_vent" pos_list="51_28" d="M77.4222083819,-106.434245737L63.0931560348,-88.3688349826"/>
<g transform="translate(70.26 -97.4)"><text class="rel vent_vent">${_rel51_28}</text></g>
<path class="rel pinya_pinya" pos_list="14_2" d="M119.694931436,39.0472858258L90.820607085,45.5313407543"/>
<g transform="translate(105.26 42.29)"><text class="rel pinya_pinya">${_rel14_2}</text></g>
<path class="rel pinya_pinya" pos_list="15_2" d="M98.4794196821,70.0565019792L88.1542381825,45.3155021536"/>
<g transform="translate(93.32 57.69)"><text class="rel pinya_pinya">${_rel15_2}</text></g>
<path class="rel pinya_pinya" pos_list="32_14" d="M149.418091857,35.1801497425L117.546755334,40.2420763154"/>
<g transform="translate(133.48 37.71)"><text class="rel pinya_pinya">${_rel32_14}</text></g>
<path class="rel pinya_pinya" pos_list="33_14" d="M132.148903303,66.1349799129L118.401597281,39.0929984152"/>
<g transform="translate(125.28 52.61)"><text class="rel pinya_pinya">${_rel33_14}</text></g>
<path class="rel pinya_pinya" pos_list="33_15" d="M134.206913109,67.3982591957L97.4216240594,67.2601946509"/>
<g transform="translate(115.81 67.33)"><text class="rel pinya_pinya">${_rel33_15}</text></g>
<path class="rel pinya_pinya" pos_list="34_15" d="M109.642331069,93.1295254162L97.4632010936,71.7902564151"/>
<g transform="translate(103.55 82.46)"><text class="rel pinya_pinya">${_rel34_15}</text></g>
<path class="rel pinya_pinya" pos_list="17_4" d="M24.7038948636,104.988256592L0.0301091935358,86.1498472055"/>
<g transform="translate(12.37 95.57)"><text class="rel pinya_pinya">${_rel17_4}</text></g>
<path class="rel pinya_pinya" pos_list="18_4" d="M-20.9572049285,107.563560595L2.36545597945,86.32411674"/>
<g transform="translate(-9.3 96.94)"><text class="rel pinya_pinya">${_rel18_4}</text></g>
<path class="rel pinya_pinya" pos_list="36_17" d="M42.4982139874,121.258522659L23.9998531397,107.48926676"/>
<g transform="translate(33.25 114.37)"><text class="rel pinya_pinya">${_rel36_17}</text></g>
<path class="rel pinya_pinya" pos_list="37_17" d="M2.28771853885,128.793034788L23.8973688784,107.222811702"/>
<g transform="translate(13.09 118.01)"><text class="rel pinya_pinya">${_rel37_17}</text></g>
<path class="rel pinya_pinya" pos_list="37_18" d="M0.574085327818,127.281593165L-18.2382057383,106.267606307"/>
<g transform="translate(-8.83 116.77)"><text class="rel pinya_pinya">${_rel37_18}</text></g>
<path class="rel pinya_pinya" pos_list="38_18" d="M-37.4497170811,124.713229425L-20.4667258316,106.685521711"/>
<g transform="translate(-28.96 115.7)"><text class="rel pinya_pinya">${_rel38_18}</text></g>
<path class="rel pinya_pinya" pos_list="20_6" d="M-91.6484280639,67.6171634766L-81.8182953446,41.7014359299"/>
<g transform="translate(-86.73 54.66)"><text class="rel pinya_pinya">${_rel20_6}</text></g>
<path class="rel pinya_pinya" pos_list="21_6" d="M-113.965262493,38.0075918975L-84.1872945238,42.2533723511"/>
<g transform="translate(-99.08 40.13)"><text class="rel pinya_pinya">${_rel21_6}</text></g>
<path class="rel pinya_pinya" pos_list="40_20" d="M-105.654798454,91.2258426971L-94.8427265356,71.4924977071"/>
<g transform="translate(-100.25 81.36)"><text class="rel pinya_pinya">${_rel40_20}</text></g>
<path class="rel pinya_pinya" pos_list="41_20" d="M-126.273028015,66.9582957136L-94.0231963016,68.8771955269"/>
<g transform="translate(-110.15 67.92)"><text class="rel pinya_pinya">${_rel41_20}</text></g>
<path class="rel pinya_pinya" pos_list="41_21" d="M-125.182119789,65.2473567473L-115.119035477,39.3173119296"/>
<g transform="translate(-120.15 52.28)"><text class="rel pinya_pinya">${_rel41_21}</text></g>
<path class="rel pinya_pinya" pos_list="42_21" d="M-140.358713014,33.7009378985L-115.81678615,40.355637602"/>
<g transform="translate(-128.09 37.03)"><text class="rel pinya_pinya">${_rel42_21}</text></g>
<path class="rel pinya_pinya" pos_list="23_8" d="M-116.332263224,-32.2222123086L-82.9475237435,-39.5773093132"/>
<g transform="translate(-99.64 -35.9)"><text class="rel pinya_pinya">${_rel23_8}</text></g>
<path class="rel pinya_pinya" pos_list="24_8" d="M-94.1224694871,-66.9426995138L-86.4079683669,-39.8233089987"/>
<g transform="translate(-90.27 -53.38)"><text class="rel pinya_pinya">${_rel24_8}</text></g>
<path class="rel pinya_pinya" pos_list="44_23" d="M-141.898025442,-29.4353859188L-115.74755918,-33.1456063735"/>
<g transform="translate(-128.82 -31.29)"><text class="rel pinya_pinya">${_rel44_23}</text></g>
<path class="rel pinya_pinya" pos_list="45_23" d="M-126.639746833,-60.1906004896L-115.266383397,-31.7280024765"/>
<g transform="translate(-120.95 -45.96)"><text class="rel pinya_pinya">${_rel45_23}</text></g>
<path class="rel pinya_pinya" pos_list="45_24" d="M-126.826299939,-57.5350318239L-91.2787831338,-64.3188476271"/>
<g transform="translate(-109.05 -60.93)"><text class="rel pinya_pinya">${_rel45_24}</text></g>
<path class="rel pinya_pinya" pos_list="46_24" d="M-105.346539693,-84.1926224346L-94.5076684585,-62.4694622173"/>
<g transform="translate(-99.93 -73.33)"><text class="rel pinya_pinya">${_rel46_24}</text></g>
<path class="rel pinya_pinya" pos_list="26_10" d="M-20.7326640577,-99.5937540895L2.58857752139,-82.6388712689"/>
<g transform="translate(-9.07 -91.12)"><text class="rel pinya_pinya">${_rel26_10}</text></g>
<path class="rel pinya_pinya" pos_list="27_10" d="M24.7346163643,-100.749520848L0.285653426008,-79.1525494009"/>
<g transform="translate(12.51 -89.95)"><text class="rel pinya_pinya">${_rel27_10}</text></g>
<path class="rel pinya_pinya" pos_list="48_26" d="M-38.5175705017,-120.427393688L-20.1657718948,-97.9574318318"/>
<g transform="translate(-29.34 -109.19)"><text class="rel pinya_pinya">${_rel48_26}</text></g>
<path class="rel pinya_pinya" pos_list="49_26" d="M0.772330917286,-124.044937138L-20.5835663572,-101.169222979"/>
<g transform="translate(-9.91 -112.61)"><text class="rel pinya_pinya">${_rel49_26}</text></g>
<path class="rel pinya_pinya" pos_list="49_27" d="M2.47350919969,-124.909625589L23.2352113694,-100.753534321"/>
<g transform="translate(12.85 -112.83)"><text class="rel pinya_pinya">${_rel49_27}</text></g>
<path class="rel pinya_pinya" pos_list="50_27" d="M38.986474531,-118.770294252L23.3104675179,-100.729297979"/>
<g transform="translate(31.15 -109.75)"><text class="rel pinya_pinya">${_rel50_27}</text></g>
<path class="rel pinya_pinya" pos_list="29_12" d="M96.3545154379,-64.5270413013L89.5815650417,-39.0098028101"/>
<g transform="translate(92.97 -51.77)"><text class="rel pinya_pinya">${_rel29_12}</text></g>
<path class="rel pinya_pinya" pos_list="30_12" d="M120.044296248,-34.1795508397L91.5799721039,-38.8237828646"/>
<g transform="translate(105.81 -36.5)"><text class="rel pinya_pinya">${_rel30_12}</text></g>
<path class="rel pinya_pinya" pos_list="52_29" d="M110.532096444,-85.8132740191L97.7956874572,-66.443714156"/>
<g transform="translate(104.16 -76.13)"><text class="rel pinya_pinya">${_rel52_29}</text></g>
<path class="rel pinya_pinya" pos_list="53_29" d="M132.598157833,-58.5941752291L99.6672798586,-62.8227887348"/>
<g transform="translate(116.13 -60.71)"><text class="rel pinya_pinya">${_rel53_29}</text></g>
<path class="rel pinya_pinya" pos_list="53_30" d="M133.033662491,-58.5883114016L118.359727312,-32.2835269236"/>
<g transform="translate(125.7 -45.44)"><text class="rel pinya_pinya">${_rel53_30}</text></g>
<path class="rel pinya_pinya" pos_list="54_30" d="M145.91568427,-31.8668859172L119.651729589,-34.6840523534"/>
<g transform="translate(132.78 -33.28)"><text class="rel pinya_pinya">${_rel54_30}</text></g>
<path class="rel pinya" pos_list="2" d="M89.6480172149,45.4891623046"/>
<g transform="translate(89.65 45.49)"><text class="rel pinya">${_rel2}</text></g>
<path class="rel pinya_pinya" pos_list="14_15" d="M120.236763533,36.2078092734L100.041782277,71.9409339068"/>
<g transform="translate(110.14 54.07)"><text class="rel pinya_pinya">${_rel14_15}</text></g>
<path class="rel pinya_pinya_pinya" pos_list="32_33_34" d="M148.0324248,36.3723447808L130.676019525,66.9389267355L107.695774813,91.3527440711"/>
<g transform="translate(128.8 64.89)"><text class="rel pinya_pinya_pinya">${_rel32_33_34}</text></g>
<path class="rel pinya" pos_list="4" d="M0.463037101503,86.9841684123"/>
<g transform="translate(0.46 86.98)"><text class="rel pinya">${_rel4}</text></g>
<path class="rel pinya_pinya" pos_list="17_18" d="M25.0662560023,105.066121987L-18.2135486942,102.774200205"/>
<g transform="translate(3.43 103.92)"><text class="rel pinya_pinya">${_rel17_18}</text></g>
<path class="rel pinya_pinya_pinya" pos_list="36_37_38" d="M39.0878704184,120.988483794L4.82718893489,129.722435905L-36.6424822454,122.001957405"/>
<g transform="translate(2.42 124.24)"><text class="rel pinya_pinya_pinya">${_rel36_37_38}</text></g>
<path class="rel pinya" pos_list="6" d="M-82.9578906388,45.8586682174"/>
<g transform="translate(-82.96 45.86)"><text class="rel pinya">${_rel6}</text></g>
<path class="rel pinya_pinya" pos_list="20_21" d="M-91.4248798016,70.2434266162L-114.040550228,39.5708360526"/>
<g transform="translate(-102.73 54.91)"><text class="rel pinya_pinya">${_rel20_21}</text></g>
<path class="rel pinya_pinya_pinya" pos_list="40_41_42" d="M-103.342000845,90.9307982247L-128.718051974,65.7605226063L-140.513095796,36.1189143091"/>
<g transform="translate(-124.19 64.27)"><text class="rel pinya_pinya_pinya">${_rel40_41_42}</text></g>
<path class="rel pinya" pos_list="8" d="M-84.3500868479,-41.2809721645"/>
<g transform="translate(-84.35 -41.28)"><text class="rel pinya">${_rel8}</text></g>
<path class="rel pinya_pinya" pos_list="23_24" d="M-113.739416182,-35.1203626559L-94.0594480168,-65.2179930428"/>
<g transform="translate(-103.9 -50.17)"><text class="rel pinya_pinya">${_rel23_24}</text></g>
<path class="rel pinya_pinya_pinya" pos_list="44_45_46" d="M-142.550831489,-28.302196373L-125.394212032,-60.4801722256L-102.316574031,-84.2472673263"/>
<g transform="translate(-123.42 -57.68)"><text class="rel pinya_pinya_pinya">${_rel44_45_46}</text></g>
<path class="rel pinya" pos_list="10" d="M2.50012214895,-80.0696459399"/>
<g transform="translate(2.5 -80.07)"><text class="rel pinya">${_rel10}</text></g>
<path class="rel pinya_pinya" pos_list="26_27" d="M-20.0959532466,-99.7635609691L24.8341484399,-98.2597804785"/>
<g transform="translate(2.37 -99.01)"><text class="rel pinya_pinya">${_rel26_27}</text></g>
<path class="rel pinya_pinya_pinya" pos_list="48_49_50" d="M-36.7490842,-119.40335441L4.24718123581,-124.336684968L39.6989585388,-117.051173545"/>
<g transform="translate(2.4 -120.26)"><text class="rel pinya_pinya_pinya">${_rel48_49_50}</text></g>
<path class="rel pinya" pos_list="12" d="M89.2174935315,-37.9892723679"/>
<g transform="translate(89.22 -37.99)"><text class="rel pinya">${_rel12}</text></g>
<path class="rel pinya_pinya" pos_list="29_30" d="M100.220757734,-63.5181136141L121.5235323,-34.0973968324"/>
<g transform="translate(110.87 -48.81)"><text class="rel pinya_pinya">${_rel29_30}</text></g>
<path class="rel pinya_pinya_pinya" pos_list="52_53_54" d="M108.39165165,-87.4719620046L130.295314369,-61.88386867L148.39554399,-28.7525310069"/>
<g transform="translate(129.03 -59.37)"><text class="rel pinya_pinya_pinya">${_rel52_53_54}</text></g>
<path class="rel baix_crossa" pos_list="55_56" d="M44.2470108679,1.68620885444L43.3764176568,26.2549167551"/>
<g transform="translate(43.81 13.97)"><text class="rel baix_crossa">${_rel55_56}</text></g>
<path class="rel baix_crossa" pos_list="55_57" d="M40.7962634719,1.31596753802L40.6920051564,-20.8299165982"/>
<g transform="translate(40.74 -9.76)"><text class="rel baix_crossa">${_rel55_57}</text></g>
<path class="rel baix_crossa" pos_list="62_63" d="M-16.9325855,29.6570800026L-38.8264469854,18.2509158544"/>
<g transform="translate(-27.88 23.95)"><text class="rel baix_crossa">${_rel62_63}</text></g>
<path class="rel baix_crossa" pos_list="62_64" d="M-15.708755294,30.1570537979L3.78348500699,42.8995485707"/>
<g transform="translate(-5.96 36.53)"><text class="rel baix_crossa">${_rel62_64}</text></g>
<path class="rel baix_crossa" pos_list="69_70" d="M-15.431539647,-26.6935002169L3.70664110629,-41.0173470536"/>
<g transform="translate(-5.86 -33.86)"><text class="rel baix_crossa">${_rel69_70}</text></g>
<path class="rel baix_crossa" pos_list="69_71" d="M-16.6875099838,-28.0774714119L-37.8168066338,-11.3777827605"/>
<g transform="translate(-27.25 -19.73)"><text class="rel baix_crossa">${_rel69_71}</text></g>
<path class="rel baix_agulla" pos_list="55_59" d="M42.4104405014,1.47195448547L24.5142110175,1.96963401999"/>
<g transform="translate(33.46 1.72)"><text class="rel baix_agulla">${_rel55_59}</text></g>
<path class="rel baix_agulla" pos_list="62_66" d="M-18.036453208,33.1168853947L-6.82623034665,12.3866386353"/>
<g transform="translate(-12.43 22.75)"><text class="rel baix_agulla">${_rel62_66}</text></g>
<path class="rel baix_agulla" pos_list="69_73" d="M-18.5402073866,-27.893202539L-8.75971011646,-9.06534291884"/>
<g transform="translate(-13.65 -18.48)"><text class="rel baix_agulla">${_rel69_73}</text></g>
<path class="rel baix_contrafort" pos_list="55_58" d="M43.5817560269,0.272445810462L60.7687441547,0.598930807124"/>
<g transform="translate(52.18 0.44)"><text class="rel baix_contrafort">${_rel55_58}</text></g>
<path class="rel baix_contrafort" pos_list="62_65" d="M-17.9203436279,30.9498984479L-26.4357437595,48.9988461116"/>
<g transform="translate(-22.18 39.97)"><text class="rel baix_contrafort">${_rel62_65}</text></g>
<path class="rel baix_contrafort" pos_list="69_72" d="M-17.3562554903,-28.3710467298L-25.2286879115,-42.1021034234"/>
<g transform="translate(-21.29 -35.24)"><text class="rel baix_contrafort">${_rel69_72}</text></g>
<path class="rel ma_baix_segon" pos_list="1_55_79" d="M102.783216803,4.94114385273L40.4117859424,2.78624036889L189.137722666,3.51879728431"/>
<g transform="translate(110.78 3.75)"><text class="rel ma_baix_segon">${_rel1_55_79}</text></g>
<path class="rel ma_baix_segon" pos_list="5_62_80" d="M-48.2032433884,73.9888501257L-18.3066390794,28.9737434092L-92.8658337876,136.675501241"/>
<g transform="translate(-53.13 79.88)"><text class="rel ma_baix_segon">${_rel5_62_80}</text></g>
<path class="rel ma_baix_segon" pos_list="9_69_81" d="M-49.1564977517,-70.910477638L-16.2127583524,-28.7826685293L-89.3458710804,-133.78249557"/>
<g transform="translate(-51.57 -77.83)"><text class="rel ma_baix_segon">${_rel9_69_81}</text></g>
<path class="rel vent_baix_segon" pos_list="3_55_79" d="M50.9085286125,72.8404880984L41.923665135,0.363748900733L192.39261432,4.69947652026"/>
<g transform="translate(95.07 25.97)"><text class="rel vent_baix_segon">${_rel3_55_79}</text></g>
<path class="rel vent_baix_segon" pos_list="11_55_79" d="M53.6404207137,-70.9517442198L40.7900157927,4.26144161231L188.476754622,1.18473553154"/>
<g transform="translate(94.3 -21.84)"><text class="rel vent_baix_segon">${_rel11_55_79}</text></g>
<path class="rel vent_baix_segon" pos_list="7_62_80" d="M-95.2734394835,3.32781295061L-17.1405479398,31.1851371392L-92.3384104276,136.399373511"/>
<g transform="translate(-68.25 56.97)"><text class="rel vent_baix_segon">${_rel7_62_80}</text></g>
<path class="rel vent_baix_segon" pos_list="3_62_80" d="M54.8491601296,76.0493598017L-17.4448085209,30.6310631698L-89.6300881283,137.931336319"/>
<g transform="translate(-17.41 81.54)"><text class="rel vent_baix_segon">${_rel3_62_80}</text></g>
<path class="rel vent_baix_segon" pos_list="11_69_81" d="M51.8328453255,-68.0324283247L-19.9510467189,-28.2935639133L-91.4213589481,-132.03420113"/>
<g transform="translate(-19.85 -76.12)"><text class="rel vent_baix_segon">${_rel11_69_81}</text></g>
<path class="rel vent_baix_segon" pos_list="7_69_81" d="M-96.7614058944,0.48629253079L-18.1463023557,-27.5156496117L-91.5482257482,-132.748936406"/>
<g transform="translate(-68.82 -53.26)"><text class="rel vent_baix_segon">${_rel7_69_81}</text></g>
<path class="rel agulla_baix_segon" pos_list="59_55_79" d="M22.6878851085,3.31933731822L43.6749619389,0.342887902926L187.622571347,4.09376742989"/>
<g transform="translate(84.66 2.59)"><text class="rel agulla_baix_segon">${_rel59_55_79}</text></g>
<path class="rel agulla_baix_segon" pos_list="66_62_80" d="M-5.71181837082,13.3114952759L-17.0968944089,28.8765066293L-93.0174562623,139.73300274"/>
<g transform="translate(-38.61 60.64)"><text class="rel agulla_baix_segon">${_rel66_62_80}</text></g>
<path class="rel agulla_baix_segon" pos_list="73_69_81" d="M-5.82576786929,-9.48627625546L-16.8310033887,-24.0977787273L-91.4030579741,-132.322586574"/>
<g transform="translate(-38.02 -55.3)"><text class="rel agulla_baix_segon">${_rel73_69_81}</text></g>
<path class="rel baix_segon_baix_segon" pos_list="55_79_62_80" d="M40.2562957665,4.30933058594L191.015033776,3.90856707218L-17.6976189943,32.0172702625L-91.1285848982,138.82727475"/>
<g transform="translate(30.61 44.77)"><text class="rel baix_segon_baix_segon">${_rel55_79_62_80}</text></g>
<path class="rel baix_segon_baix_segon" pos_list="62_80_69_81" d="M-15.05084273,31.2777683136L-93.5875979495,138.018679111L-19.3632102735,-26.7849417996L-90.5689700578,-131.536425726"/>
<g transform="translate(-54.64 2.74)"><text class="rel baix_segon_baix_segon">${_rel62_80_69_81}</text></g>
<path class="rel baix_segon_baix_segon" pos_list="69_81_55_79" d="M-16.2829901862,-26.6666506398L-90.0454237904,-135.104821686L41.6430538181,1.43275031572L191.295081421,2.1013514642"/>
<g transform="translate(31.65 -39.56)"><text class="rel baix_segon_baix_segon">${_rel69_81_55_79}</text></g>
<path class="rel lateral_baix_segon" pos_list="60_55_79" d="M72.8038295408,24.6430955611L43.3903343571,1.40502222767L191.212534154,2.6586417293"/>
<g transform="translate(102.47 9.57)"><text class="rel lateral_baix_segon">${_rel60_55_79}</text></g>
<path class="rel lateral_baix_segon" pos_list="61_55_79" d="M72.7537210095,-17.5872211837L40.4050817933,0.426795532852L187.61293193,2.14122874715"/>
<g transform="translate(100.26 -5.01)"><text class="rel lateral_baix_segon">${_rel61_55_79}</text></g>
<path class="rel lateral_baix_segon" pos_list="67_62_80" d="M-49.8208312892,44.4598187753L-19.3814990327,33.3109298568L-92.9441676557,137.629339184"/>
<g transform="translate(-54.05 71.8)"><text class="rel lateral_baix_segon">${_rel67_62_80}</text></g>
<path class="rel lateral_baix_segon" pos_list="68_62_80" d="M-12.4363318963,65.451937467L-15.9516884787,32.6762201499L-90.4133579109,136.702940887"/>
<g transform="translate(-39.6 78.28)"><text class="rel lateral_baix_segon">${_rel68_62_80}</text></g>
<path class="rel lateral_baix_segon" pos_list="74_69_81" d="M-14.761866805,-65.0073493843L-19.5776174056,-27.6502252631L-92.9873247108,-130.452932093"/>
<g transform="translate(-42.44 -74.37)"><text class="rel lateral_baix_segon">${_rel74_69_81}</text></g>
<path class="rel lateral_baix_segon" pos_list="75_69_81" d="M-51.7066853487,-41.9419021425L-16.8802052657,-24.3457545103L-92.1957832445,-134.279056383"/>
<g transform="translate(-53.59 -66.86)"><text class="rel lateral_baix_segon">${_rel75_69_81}</text></g>
</g>
</svg>