<svg xmlns="http://www.w3.org/2000/svg" xmlns:xlink="http://www.w3.org/1999/xlink" viewBox="-230.0,-175.32,497.5,350.64">
<g id="positions">
<g id="1" transform="translate(100.0,0.0) rotate(0.0)">
<g id="1_casteller" class="ma" transform="scale(.2 .2) rotate(-90)">
${_rep1}
</g>
<g transform="rotate(90) translate(0 6)">
<text id="1_text" class="ma vtext" text-anchor="middle">
1 ${_1} ${_c1}
</text>
</g>
</g>
<g id="2" transform="translate(86.6,41.67) rotate(30.0)">
<g id="2_casteller" class="pinya" transform="scale(.2 .2) rotate(-90)">
${_rep2}
</g>
<g transform="rotate(90) translate(0 6)">
<text id="2_text" class="pinya vtext" text-anchor="middle">
2 ${_2} ${_c2}
</text>
</g>
</g>
<g id="3" transform="translate(50.0,72.17) rotate(60.0)">
<g id="3_casteller" class="vent" transform="scale(.2 .2) rotate(-90)">
${_rep3}
</g>
<g transform="rotate(90) translate(0 6)">
<text id="3_text" class="vent vtext" text-anchor="middle">
3 ${_3} ${_c3}
</text>
</g>
</g>
<g id="4" transform="translate(0.0,83.33) rotate(90.0)">
<g id="4_casteller" class="pinya" transform="scale(.2 .2) rotate(-90)">
${_rep4}
</g>
<g transform="rotate(90) translate(0 6)">
<text id="4_text" class="pinya vtext" text-anchor="middle">
4 ${_4} ${_c4}
</text>
</g>
</g>
<g id="5" transform="translate(-50.0,72.17) rotate(120.0)">
<g id="5_casteller" class="ma" transform="scale(.2 .2) rotate(-90)">
${_rep5}
</g>
<g transform="rotate(90) translate(0 6)">
<text id="5_text" class="ma vtext" text-anchor="middle">
5 ${_5} ${_c5}
</text>
</g>
</g>
<g id="6" transform="translate(-86.6,41.67) rotate(150.0)">
<g id="6_casteller" class="pinya" transform="scale(.2 .2) rotate(-90)">
${_rep6}
</g>
<g transform="rotate(90) translate(0 6)">
<text id="6_text" class="pinya vtext" text-anchor="middle">
6 ${_6} ${_c6}
</text>
</g>
</g>
<g id="7" transform="translate(-100.0,0.0) rotate(180.0)">
<g id="7_casteller" class="vent" transform="scale(.2 .2) rotate(-90)">
${_rep7}
</g>
<g transform="rotate(90) translate(0 6)">
<text id="7_text" class="vent vtext" text-anchor="middle">
7 ${_7} ${_c7}
</text>
</g>
</g>
<g id="8" transform="translate(-86.6,-41.67) rotate(210.0)">
<g id="8_casteller" class="pinya" transform="scale(.2 .2) rotate(-90)">
${_rep8}
</g>
<g transform="rotate(90) translate(0 6)">
<text id="8_text" class="pinya vtext" text-anchor="middle">
8 ${_8} ${_c8}
</text>
</g>
</g>
<g id="9" transform="translate(-50.0,-72.17) rotate(240.0)">
<g id="9_casteller" class="ma" transform="scale(.2 .2) rotate(-90)">
${_rep9}
</g>
<g transform="rotate(90) translate(0 6)">
<text id="9_text" class="ma vtext" text-anchor="middle">
9 ${_9} ${_c9}
</text>
</g>
</g>
<g id="10" transform="translate(-0.0,-83.33) rotate(270.0)">
<g id="10_casteller" class="pinya" transform="scale(.2 .2) rotate(-90)">
${_rep10}
</g>
<g transform="rotate(90) translate(0 6)">
<text id="10_text" class="pinya vtext" text-anchor="middle">
10 ${_10} ${_c10}
</text>
</g>
</g>
<g id="11" transform="translate(50.0,-72.17) rotate(300.0)">
<g id="11_casteller" class="vent" transform="scale(.2 .2) rotate(-90)">
${_rep11}
</g>
<g transform="rotate(90) translate(0 6)">
<text id="11_text" class="vent vtext" text-anchor="middle">
11 ${_11} ${_c11}
</text>
</g>
</g>
<g id="12" transform="translate(86.6,-41.67) rotate(330.0)">
<g id="12_casteller" class="pinya" transform="scale(.2 .2) rotate(-90)">
${_rep12}
</g>
<g transform="rotate(90) translate(0 6)">
<text id="12_text" class="pinya vtext" text-anchor="middle">
12 ${_12} ${_c12}
</text>
</g>
</g>
<g id="13" transform="translate(125.0,0.0) rotate(0.0)">
<g id="13_casteller" class="ma" transform="scale(.2 .2) rotate(-90)">
${_rep13}
</g>
<g transform="rotate(90) translate(0 6)">
<text id="13_text" class="ma vtext" text-anchor="middle">
13 ${_13} ${_c13}
</text>
</g>
</g>
<g id="14" transform="translate(117.46,35.63) rotate(20.0)">
<g id="14_casteller" class="pinya" transform="scale(.2 .2) rotate(-90)">
${_rep14}
</g>
<g transform="rotate(90) translate(0 6)">
<text id="14_text" class="pinya vtext" text-anchor="middle">
14 ${_14} ${_c14}
</text>
</g>
</g>
<g id="15" transform="translate(95.76,66.96) rotate(40.0)">
<g id="15_casteller" class="pinya" transform="scale(.2 .2) rotate(-90)">
${_rep15}
</g>
<g transform="rotate(90) translate(0 6)">
<text id="15_text" class="pinya vtext" text-anchor="middle">
15 ${_15} ${_c15}
</text>
</g>
</g>
<g id="16" transform="translate(62.5,90.21) rotate(60.0)">
<g id="16_casteller" class="vent" transform="scale(.2 .2) rotate(-90)">
${_rep16}
</g>
<g transform="rotate(90) translate(0 6)">
<text id="16_text" class="vent vtext" text-anchor="middle">
16 ${_16} ${_c16}
</text>
</g>
</g>
<g id="17" transform="translate(21.71,102.58) rotate(80.0)">
<g id="17_casteller" class="pinya" transform="scale(.2 .2) rotate(-90)">
${_rep17}
</g>
<g transform="rotate(90) translate(0 6)">
<text id="17_text" class="pinya vtext" text-anchor="middle">
17 ${_17} ${_c17}
</text>
</g>
</g>
<g id="18" transform="translate(-21.71,102.58) rotate(100.0)">
<g id="18_casteller" class="pinya" transform="scale(.2 .2) rotate(-90)">
${_rep18}
</g>
<g transform="rotate(90) translate(0 6)">
<text id="18_text" class="pinya vtext" text-anchor="middle">
18 ${_18} ${_c18}
</text>
</g>
</g>
<g id="19" transform="translate(-62.5,90.21) rotate(120.0)">
<g id="19_casteller" class="ma" transform="scale(.2 .2) rotate(-90)">
${_rep19}
</g>
<g transform="rotate(90) translate(0 6)">
<text id="19_text" class="ma vtext" text-anchor="middle">
19 ${_19} ${_c19}
</text>
</g>
</g>
<g id="20" transform="translate(-95.76,66.96) rotate(140.0)">
<g id="20_casteller" class="pinya" transform="scale(.2 .2) rotate(-90)">
${_rep20}
</g>
<g transform="rotate(90) translate(0 6)">
<text id="20_text" class="pinya vtext" text-anchor="middle">
20 ${_20} ${_c20}
</text>
</g>
</g>
<g id="21" transform="translate(-117.46,35.63) rotate(160.0)">
<g id="21_casteller" class="pinya" transform="scale(.2 .2) rotate(-90)">
${_rep21}
</g>
<g transform="rotate(90) translate(0 6)">
<text id="21_text" class="pinya vtext" text-anchor="middle">
21 ${_21} ${_c21}
</text>
</g>
</g>
<g id="22" transform="translate(-125.0,0.0) rotate(180.0)">
<g id="22_casteller" class="vent" transform="scale(.2 .2) rotate(-90)">
${_rep22}
</g>
<g transform="rotate(90) translate(0 6)">
<text id="22_text" class="vent vtext" text-anchor="middle">
22 ${_22} ${_c22}
</text>
</g>
</g>
<g id="23" transform="translate(-117.46,-35.63) rotate(200.0)">
<g id="23_casteller" class="pinya" transform="scale(.2 .2) rotate(-90)">
${_rep23}
</g>
<g transform="rotate(90) translate(0 6)">
<text id="23_text" class="pinya vtext" text-anchor="middle">
23 ${_23} ${_c23}
</text>
</g>
</g>
<g id="24" transform="translate(-95.76,-66.96) rotate(220.0)">
<g id="24_casteller" class="pinya" transform="scale(.2 .2) rotate(-90)">
${_rep24}
</g>
<g transform="rotate(90) translate(0 6)">
<text id="24_text" class="pinya vtext" text-anchor="middle">
24 ${_24} ${_c24}
</text>
</g>
</g>
<g id="25" transform="translate(-62.5,-90.21) rotate(240.0)">
<g id="25_casteller" class="ma" transform="scale(.2 .2) rotate(-90)">
${_rep25}
</g>
<g transform="rotate(90) translate(0 6)">
<text id="25_text" class="ma vtext" text-anchor="middle">
25 ${_25} ${_c25}
</text>
</g>
</g>
<g id="26" transform="translate(-21.71,-102.58) rotate(260.0)">
<g id="26_casteller" class="pinya" transform="scale(.2 .2) rotate(-90)">
${_rep26}
</g>
<g transform="rotate(90) translate(0 6)">
<text id="26_text" class="pinya vtext" text-anchor="middle">
26 ${_26} ${_c26}
</text>
</g>
</g>
<g id="27" transform="translate(21.71,-102.58) rotate(280.0)">
<g id="27_casteller" class="pinya" transform="scale(.2 .2) rotate(-90)">
${_rep27}
</g>
<g transform="rotate(90) translate(0 6)">
<text id="27_text" class="pinya vtext" text-anchor="middle">
27 ${_27} ${_c27}
</text>
</g>
</g>
<g id="28" transform="translate(62.5,-90.21) rotate(300.0)">
<g id="28_casteller" class="vent" transform="scale(.2 .2) rotate(-90)">
${_rep28}
</g>
<g transform="rotate(90) translate(0 6)">
<text id="28_text" class="vent vtext" text-anchor="middle">
28 ${_28} ${_c28}
</text>
</g>
</g>
<g id="29" transform="translate(95.76,-66.96) rotate(320.0)">
<g id="29_casteller" class="pinya" transform="scale(.2 .2) rotate(-90)">
${_rep29}
</g>
<g transform="rotate(90) translate(0 6)">
<text id="29_text" class="pinya vtext" text-anchor="middle">
29 ${_29} ${_c29}
</text>
</g>
</g>
<g id="30" transform="translate(117.46,-35.63) rotate(340.0)">
<g id="30_casteller" class="pinya" transform="scale(.2 .2) rotate(-90)">
${_rep30}
</g>
<g transform="rotate(90) translate(0 6)">
<text id="30_text" class="pinya vtext" text-anchor="middle">
30 ${_30} ${_c30}
</text>
</g>
</g>
<g id="31" transform="translate(150.0,0.0) rotate(0.0)">
<g id="31_casteller" class="ma" transform="scale(.2 .2) rotate(-90)">
${_rep31}
</g>
<g transform="rotate(90) translate(0 6)">
<text id="31_text" class="ma vtext" text-anchor="middle">
31 ${_31} ${_c31}
</text>
</g>
</g>
<g id="32" transform="translate(144.89,32.35) rotate(15.0)">
<g id="32_casteller" class="pinya" transform="scale(.2 .2) rotate(-90)">
${_rep32}
</g>
<g transform="rotate(90) translate(0 6)">
<text id="32_text" class="pinya vtext" text-anchor="middle">
32 ${_32} ${_c32}
</text>
</g>
</g>
<g id="33" transform="translate(129.9,62.5) rotate(30.0)">
<g id="33_casteller" class="pinya" transform="scale(.2 .2) rotate(-90)">
${_rep33}
</g>
<g transform="rotate(90) translate(0 6)">
<text id="33_text" class="pinya vtext" text-anchor="middle">
33 ${_33} ${_c33}
</text>
</g>
</g>
<g id="34" transform="translate(106.07,88.39) rotate(45.0)">
<g id="34_casteller" class="pinya" transform="scale(.2 .2) rotate(-90)">
${_rep34}
</g>
<g transform="rotate(90) translate(0 6)">
<text id="34_text" class="pinya vtext" text-anchor="middle">
34 ${_34} ${_c34}
</text>
</g>
</g>
<g id="35" transform="translate(75.0,108.25) rotate(60.0)">
<g id="35_casteller" class="vent" transform="scale(.2 .2) rotate(-90)">
${_rep35}
</g>
<g transform="rotate(90) translate(0 6)">
<text id="35_text" class="vent vtext" text-anchor="middle">
35 ${_35} ${_c35}
</text>
</g>
</g>
<g id="36" transform="translate(38.82,120.74) rotate(75.0)">
<g id="36_casteller" class="pinya" transform="scale(.2 .2) rotate(-90)">
${_rep36}
</g>
<g transform="rotate(90) translate(0 6)">
<text id="36_text" class="pinya vtext" text-anchor="middle">
36 ${_36} ${_c36}
</text>
</g>
</g>
<g id="37" transform="translate(0.0,125.0) rotate(90.0)">
<g id="37_casteller" class="pinya" transform="scale(.2 .2) rotate(-90)">
${_rep37}
</g>
<g transform="rotate(90) translate(0 6)">
<text id="37_text" class="pinya vtext" text-anchor="middle">
37 ${_37} ${_c37}
</text>
</g>
</g>
<g id="38" transform="translate(-38.82,120.74) rotate(105.0)">
<g id="38_casteller" class="pinya" transform="scale(.2 .2) rotate(-90)">
${_rep38}
</g>
<g transform="rotate(90) translate(0 6)">
<text id="38_text" class="pinya vtext" text-anchor="middle">
38 ${_38} ${_c38}
</text>
</g>
</g>
<g id="39" transform="translate(-75.0,108.25) rotate(120.0)">
<g id="39_casteller" class="ma" transform="scale(.2 .2) rotate(-90)">
${_rep39}
</g>
<g transform="rotate(90) translate(0 6)">
<text id="39_text" class="ma vtext" text-anchor="middle">
39 ${_39} ${_c39}
</text>
</g>
</g>
<g id="40" transform="translate(-106.07,88.39) rotate(135.0)">
<g id="40_casteller" class="pinya" transform="scale(.2 .2) rotate(-90)">
${_rep40}
</g>
<g transform="rotate(90) translate(0 6)">
<text id="40_text" class="pinya vtext" text-anchor="middle">
40 ${_40} ${_c40}
</text>
</g>
</g>
<g id="41" transform="translate(-129.9,62.5) rotate(150.0)">
<g id="41_casteller" class="pinya" transform="scale(.2 .2) rotate(-90)">
${_rep41}
</g>
<g transform="rotate(90) translate(0 6)">
<text id="41_text" class="pinya vtext" text-anchor="middle">
41 ${_41} ${_c41}
</text>
</g>
</g>
<g id="42" transform="translate(-144.89,32.35) rotate(165.0)">
<g id="42_casteller" class="pinya" transform="scale(.2 .2) rotate(-90)">
${_rep42}
</g>
<g transform="rotate(90) translate(0 6)">
<text id="42_text" class="pinya vtext" text-anchor="middle">
42 ${_42} ${_c42}
</text>
</g>
</g>
<g id="43" transform="translate(-150.0,0.0) rotate(180.0)">
<g id="43_casteller" class="vent" transform="scale(.2 .2) rotate(-90)">
${_rep43}
</g>
<g transform="rotate(90) translate(0 6)">
<text id="43_text" class="vent vtext" text-anchor="middle">
43 ${_43} ${_c43}
</text>
</g>
</g>
<g id="44" transform="translate(-144.89,-32.35) rotate(195.0)">
<g id="44_casteller" class="pinya" transform="scale(.2 .2) rotate(-90)">
${_rep44}
</g>
<g transform="rotate(90) translate(0 6)">
<text id="44_text" class="pinya vtext" text-anchor="middle">
44 ${_44} ${_c44}
</text>
</g>
</g>
<g id="45" transform="translate(-129.9,-62.5) rotate(210.0)">
<g id="45_casteller" class="pinya" transform="scale(.2 .2) rotate(-90)">
${_rep45}
</g>
<g transform="rotate(90) translate(0 6)">
<text id="45_text" class="pinya vtext" text-anchor="middle">
45 ${_45} ${_c45}
</text>
</g>
</g>
<g id="46" transform="translate(-106.07,-88.39) rotate(225.0)">
<g id="46_casteller" class="pinya" transform="scale(.2 .2) rotate(-90)">
${_rep46}
</g>
<g transform="rotate(90) translate(0 6)">
<text id="46_text" class="pinya vtext" text-anchor="middle">
46 ${_46} ${_c46}
</text>
</g>
</g>
<g id="47" transform="translate(-75.0,-108.25) rotate(240.0)">
<g id="47_casteller" class="ma" transform="scale(.2 .2) rotate(-90)">
${_rep47}
</g>
<g transform="rotate(90) translate(0 6)">
<text id="47_text" class="ma vtext" text-anchor="middle">
47 ${_47} ${_c47}
</text>
</g>
</g>
<g id="48" transform="translate(-38.82,-120.74) rotate(255.0)">
<g id="48_casteller" class="pinya" transform="scale(.2 .2) rotate(-90)">
${_rep48}
</g>
<g transform="rotate(90) translate(0 6)">
<text id="48_text" class="pinya vtext" text-anchor="middle">
48 ${_48} ${_c48}
</text>
</g>
</g>
<g id="49" transform="translate(-0.0,-125.0) rotate(270.0)">
<g id="49_casteller" class="pinya" transform="scale(.2 .2) rotate(-90)">
${_rep49}
</g>
<g transform="rotate(90) translate(0 6)">
<text id="49_text" class="pinya vtext" text-anchor="middle">
49 ${_49} ${_c49}
</text>
</g>
</g>
<g id="50" transform="translate(38.82,-120.74) rotate(285.0)">
<g id="50_casteller" class="pinya" transform="scale(.2 .2) rotate(-90)">
${_rep50}
</g>
<g transform="rotate(90) translate(0 6)">
<text id="50_text" class="pinya vtext" text-anchor="middle">
50 ${_50} ${_c50}
</text>
</g>
</g>
<g id="51" transform="translate(75.0,-108.25) rotate(300.0)">
<g id="51_casteller" class="vent" transform="scale(.2 .2) rotate(-90)">
${_rep51}
</g>
<g transform="rotate(90) translate(0 6)">
<text id="51_text" class="vent vtext" text-anchor="middle">
51 ${_51} ${_c51}
</text>
</g>
</g>
<g id="52" transform="translate(106.07,-88.39) rotate(315.0)">
<g id="52_casteller" class="pinya" transform="scale(.2 .2) rotate(-90)">
${_rep52}
</g>
<g transform="rotate(90) translate(0 6)">
<text id="52_text" class="pinya vtext" text-anchor="middle">
52 ${_52} ${_c52}
</text>
</g>
</g>
<g id="53" transform="translate(129.9,-62.5) rotate(330.0)">
<g id="53_casteller" class="pinya" transform="scale(.2 .2) rotate(-90)">
${_rep53}
</g>
<g transform="rotate(90) translate(0 6)">
<text id="53_text" class="pinya vtext" text-anchor="middle">
53 ${_53} ${_c53}
</text>
</g>
</g>
<g id="54" transform="translate(144.89,-32.35) rotate(345.0)">
<g id="54_casteller" class="pinya" transform="scale(.2 .2) rotate(-90)">
${_rep54}
</g>
<g transform="rotate(90) translate(0 6)">
<text id="54_text" class="pinya vtext" text-anchor="middle">
54 ${_54} ${_c54}
</text>
</g>
</g>
<g id="baixos_gp_0" transform="translate(40.0 0.0) rotate(0.0)">
<g id="55" transform="translate(0.0,0.0) rotate(0.0)">
<g id="55_casteller" class="baix" transform="scale(.2 .2) rotate(-90)">
${_rep55}
</g>
<g transform="rotate(90) translate(0 6)">
<text id="55_text" class="baix vtext" text-anchor="middle">
55 ${_55} ${_c55}
</text>
</g>
</g>
<g id="56" transform="translate(0.0,25.0) rotate(90.0)">
<g id="56_casteller" class="crossa" transform="scale(.2 .2) rotate(-90)">
${_rep56}
</g>
<g transform="rotate(90) translate(0 6)">
<text id="56_text" class="crossa vtext" text-anchor="middle">
56 ${_56} ${_c56}
</text>
</g>
</g>
<g id="57" transform="translate(0.0,-25.0) rotate(-90.0)">
<g id="57_casteller" class="crossa" transform="scale(.2 .2) rotate(-90)">
${_rep57}
</g>
<g transform="rotate(90) translate(0 6)">
<text id="57_text" class="crossa vtext" text-anchor="middle">
57 ${_57} ${_c57}
</text>
</g>
</g>
<g id="58" transform="translate(20.0,0.0) rotate(0.0)">
<g id="58_casteller" class="contrafort" transform="scale(.2 .2) rotate(-90)">
${_rep58}
</g>
<g transform="rotate(90) translate(0 6)">
<text id="58_text" class="contrafort vtext" text-anchor="middle">
58 ${_58} ${_c58}
</text>
</g>
</g>
<g id="59" transform="translate(-20.0,0.0) rotate(0.0)">
<g id="59_casteller" class="agulla" transform="scale(.2 .2) rotate(-90)">
${_rep59}
</g>
<g transform="rotate(90) translate(0 6)">
<text id="59_text" class="agulla vtext" text-anchor="middle">
59 ${_59} ${_c59}
</text>
</g>
</g>
<g id="60" transform="translate(30.0,20.83) rotate(30.0)">
<g id="60_casteller" class="lateral" transform="scale(.2 .2) rotate(-90)">
${_rep60}
</g>
<g transform="rotate(90) translate(0 6)">
<text id="60_text" class="lateral vtext" text-anchor="middle">
60 ${_60} ${_c60}
</text>
</g>
</g>
<g id="61" transform="translate(30.0,-20.83) rotate(-30.0)">
<g id="61_casteller" class="lateral" transform="scale(.2 .2) rotate(-90)">
${_rep61}
</g>
<g transform="rotate(90) translate(0 6)">
<text id="61_text" class="lateral vtext" text-anchor="middle">
61 ${_61} ${_c61}
</text>
</g>
</g>
</g>
<g id="baixos_gp_1" transform="translate(-20.0 34.64) rotate(120.0)">
<g id="62" transform="translate(0.0,0.0) rotate(0.0)">
<g id="62_casteller" class="baix" transform="scale(.2 .2) rotate(-90)">
${_rep62}
</g>
<g transform="rotate(90) translate(0 6)">
<text id="62_text" class="baix vtext" text-anchor="middle">
62 ${_62} ${_c62}
</text>
</g>
</g>
<g id="63" transform="translate(0.0,25.0) rotate(90.0)">
<g id="63_casteller" class="crossa" transform="scale(.2 .2) rotate(-90)">
${_rep63}
</g>
<g transform="rotate(90) translate(0 6)">
<text id="63_text" class="crossa vtext" text-anchor="middle">
63 ${_63} ${_c63}
</text>
</g>
</g>
<g id="64" transform="translate(0.0,-25.0) rotate(-90.0)">
<g id="64_casteller" class="crossa" transform="scale(.2 .2) rotate(-90)">
${_rep64}
</g>
<g transform="rotate(90) translate(0 6)">
<text id="64_text" class="crossa vtext" text-anchor="middle">
64 ${_64} ${_c64}
</text>
</g>
</g>
<g id="65" transform="translate(20.0,0.0) rotate(0.0)">
<g id="65_casteller" class="contrafort" transform="scale(.2 .2) rotate(-90)">
${_rep65}
</g>
<g transform="rotate(90) translate(0 6)">
<text id="65_text" class="contrafort vtext" text-anchor="middle">
65 ${_65} ${_c65}
</text>
</g>
</g>
<g id="66" transform="translate(-20.0,0.0) rotate(0.0)">
<g id="66_casteller" class="agulla" transform="scale(.2 .2) rotate(-90)">
${_rep66}
</g>
<g transform="rotate(90) translate(0 6)">
<text id="66_text" class="agulla vtext" text-anchor="middle">
66 ${_66} ${_c66}
</text>
</g>
</g>
<g id="67" transform="translate(30.0,20.83) rotate(30.0)">
<g id="67_casteller" class="lateral" transform="scale(.2 .2) rotate(-90)">
${_rep67}
</g>
<g transform="rotate(90) translate(0 6)">
<text id="67_text" class="lateral vtext" text-anchor="middle">
67 ${_67} ${_c67}
</text>
</g>
</g>
<g id="68" transform="translate(30.0,-20.83) rotate(-30.0)">
<g id="68_casteller" class="lateral" transform="scale(.2 .2) rotate(-90)">
${_rep68}
</g>
<g transform="rotate(90) translate(0 6)">
<text id="68_text" class="lateral vtext" text-anchor="middle">
68 ${_68} ${_c68}
</text>
</g>
</g>
</g>
<g id="baixos_gp_2" transform="translate(-20.0 -34.64) rotate(240.0)">
<g id="69" transform="translate(0.0,0.0) rotate(0.0)">
<g id="69_casteller" class="baix" transform="scale(.2 .2) rotate(-90)">
${_rep69}
</g>
<g transform="rotate(90) translate(0 6)">
<text id="69_text" class="baix vtext" text-anchor="middle">
69 ${_69} ${_c69}
</text>
</g>
</g>
<g id="70" transform="translate(0.0,25.0) rotate(90.0)">
<g id="70_casteller" class="crossa" transform="scale(.2 .2) rotate(-90)">
${_rep70}
</g>
<g transform="rotate(90) translate(0 6)">
<text id="70_text" class="crossa vtext" text-anchor="middle">
70 ${_70} ${_c70}
</text>
</g>
</g>
<g id="71" transform="translate(0.0,-25.0) rotate(-90.0)">
<g id="71_casteller" class="crossa" transform="scale(.2 .2) rotate(-90)">
${_rep71}
</g>
<g transform="rotate(90) translate(0 6)">
<text id="71_text" class="crossa vtext" text-anchor="middle">
71 ${_71} ${_c71}
</text>
</g>
</g>
<g id="72" transform="translate(20.0,0.0) rotate(0.0)">
<g id="72_casteller" class="contrafort" transform="scale(.2 .2) rotate(-90)">
${_rep72}
</g>
<g transform="rotate(90) translate(0 6)">
<text id="72_text" class="contrafort vtext" text-anchor="middle">
72 ${_72} ${_c72}
</text>
</g>
</g>
<g id="73" transform="translate(-20.0,0.0) rotate(0.0)">
<g id="73_casteller" class="agulla" transform="scale(.2 .2) rotate(-90)">
${_rep73}
</g>
<g transform="rotate(90) translate(0 6)">
<text id="73_text" class="agulla vtext" text-anchor="middle">
73 ${_73} ${_c73}
</text>
</g>
</g>
<g id="74" transform="translate(30.0,20.83) rotate(30.0)">
<g id="74_casteller" class="lateral" transform="scale(.2 .2) rotate(-90)">
${_rep74}
</g>
<g transform="rotate(90) translate(0 6)">
<text id="74_text" class="lateral vtext" text-anchor="middle">
74 ${_74} ${_c74}
</text>
</g>
</g>
<g id="75" transform="translate(30.0,-20.83) rotate(-30.0)">
<g id="75_casteller" class="lateral" transform="scale(.2 .2) rotate(-90)">
${_rep75}
</g>
<g transform="rotate(90) translate(0 6)">
<text id="75_text" class="lateral vtext" text-anchor="middle">
75 ${_75} ${_c75}
</text>
</g>
</g>
</g>
<g id="portacrossa_gp_0" transform="translate(35.0 60.62) rotate(60.0)">
<g id="76" transform="translate(0.0,0.0) rotate(0.0)">
<g id="76_casteller" class="portacrossa" transform="scale(.2 .2) rotate(-90)">
${_rep76}
</g>
<g transform="rotate(90) translate(0 6)">
<text id="76_text" class="portacrossa vtext" text-anchor="middle">
76 ${_76} ${_c76}
</text>
</g>
</g>
</g>
<g id="portacrossa_gp_1" transform="translate(-70.0 0.0) rotate(180.0)">
<g id="77" transform="translate(0.0,0.0) rotate(0.0)">
<g id="77_casteller" class="portacrossa" transform="scale(.2 .2) rotate(-90)">
${_rep77}
</g>
<g transform="rotate(90) translate(0 6)">
<text id="77_text" class="portacrossa vtext" text-anchor="middle">
77 ${_77} ${_c77}
</text>
</g>
</g>
</g>
<g id="portacrossa_gp_2" transform="translate(35.0 -60.62) rotate(300.0)">
<g id="78" transform="translate(0.0,0.0) rotate(0.0)">
<g id="78_casteller" class="portacrossa" transform="scale(.2 .2) rotate(-90)">
${_rep78}
</g>
<g transform="rotate(90) translate(0 6)">
<text id="78_text" class="portacrossa vtext" text-anchor="middle">
78 ${_78} ${_c78}
</text>
</g>
</g>
</g>
<g id="79" transform="translate(187.5,0.0) rotate(0.0)">
<g id="79_casteller" class="segon" transform="scale(.2 .2) rotate(-90)">
${_rep79}
</g>
<g transform="rotate(90) translate(0 6)">
<text id="79_text" class="segon vtext" text-anchor="middle">
79 ${_79} ${_c79}
</text>
</g>
</g>
<g id="80" transform="translate(-93.75,135.32) rotate(120.0)">
<g id="80_casteller" class="segon" transform="scale(.2 .2) rotate(-90)">
${_rep80}
</g>
<g transform="rotate(90) translate(0 6)">
<text id="80_text" class="segon vtext" text-anchor="middle">
80 ${_80} ${_c80}
</text>
</g>
</g>
<g id="81" transform="translate(-93.75,-135.32) rotate(240.0)">
<g id="81_casteller" class="segon" transform="scale(.2 .2) rotate(-90)">
${_rep81}
</g>
<g transform="rotate(90) translate(0 6)">
<text id="81_text" class="segon vtext" text-anchor="middle">
81 ${_81} ${_c81}
</text>
</g>
</g>
</g>
<g id="relations">
<path class="rel ma_ma" pos_list="13_1" d="M128.032273812,0.554562379718L100.96681575,2.20350496242"/>
<g transform="translate(114.5 1.38)"><text class="rel ma_ma">${_rel13_1}</text></g>
<path class="rel ma_ma" pos_list="31_13" d="M150.142344089,4.90415400039L125.224198762,0.396860905016"/>
<g transform="translate(137.68 2.65)"><text class="rel ma_ma">${_rel31_13}</text></g>
<path class="rel vent_vent" pos_list="16_3" d="M64.6186514331,94.6052953068L53.3477448917,72.8417236938"/>
<g transform="translate(58.98 83.72)"><text class="rel vent_vent">${_rel16_3}</text></g>
<path class="rel vent_vent" pos_list="35_16" d="M75.2743737819,111.25142107L65.4884350294,90.8762079697"/>
<g transform="translate(70.38 101.06)"><text class="rel vent_vent">${_rel35_16}</text></g>
<path class="rel ma_ma" pos_list="19_5" d="M-59.7320107554,93.5338131545L-46.2032955595,74.9208462561"/>
<g transform="translate(-52.97 84.23)"><text class="rel ma_ma">${_rel19_5}</text></g>
<path class="rel ma_ma" pos_list="39_19" d="M-72.5813520476,112.523688414L-58.8001502978,92.440265216"/>
<g transform="translate(-65.69 102.48)"><text class="rel ma_ma">${_rel39_19}</text></g>
<path class="rel vent_vent" pos_list="22_7" d="M-120.77577828,2.78622399249L-98.8403923288,0.277105550613"/>
<g transform="translate(-109.81 1.53)"><text class="rel vent_vent">${_rel22_7}</text></g>
<path class="rel vent_vent" pos_list="43_22" d="M-145.58684696,0.937130027239L-120.493469734,2.73930172514"/>
<g transform="translate(-133.04 1.84)"><text class="rel vent_vent">${_rel43_22}</text></g>
<path class="rel ma_ma" pos_list="25_9" d="M-62.0703821398,-86.0668818271L-45.426421564,-69.5884346746"/>
<g transform="translate(-53.75 -77.83)"><text class="rel ma_ma">${_rel25_9}</text></g>
<path class="rel ma_ma" pos_list="47_25" d="M-70.2043368421,-105.312087631L-60.9098102742,-85.7161094981"/>
<g transform="translate(-65.56 -95.51)"><text class="rel ma_ma">${_rel47_25}</text></g>
<path class="rel vent_vent" pos_list="28_11" d="M67.4237298378,-88.2345450188L53.7877318441,-69.5028375787"/>
<g transform="translate(60.61 -78.87)"><text class="rel vent_vent">${_rel28_11}</text></g>
<path class="rel vent_vent" pos_list="51_28" d="M75.3348664409,-105.10948489L62.8368166823,-90.0818906333"/>
<g transform="translate(69.09 -97.6)"><text class="rel vent_vent">${_rel51_28}</text></g>
<path class="rel pinya_pinya" pos_list="14_2" d="M119.181842918,38.6680886117L90.7974627065,46.3794191624"/>
<g transform="translate(104.99 42.52)"><text class="rel pinya_pinya">${_rel14_2}</text></g>
<path class="rel pinya_pinya" pos_list="15_2" d="M99.8675014155,67.8028054149L87.4705094106,44.9794510374"/>
<g transform="translate(93.67 56.39)"><text class="rel pinya_pinya">${_rel15_2}</text></g>
<path class="rel pinya_pinya" pos_list="32_14" d="M145.156468075,34.0385104539L118.286374833,40.3169435135"/>
<g transform="translate(131.72 37.18)"><text class="rel pinya_pinya">${_rel32_14}</text></g>
<path class="rel pinya_pinya" pos_list="33_14" d="M132.914968428,64.1500172088L118.231746782,39.6519334064"/>
<g transform="translate(125.57 51.9)"><text class="rel pinya_pinya">${_rel33_14}</text></g>
<path class="rel pinya_pinya" pos_list="33_15" d="M134.73827331,64.5553848889L97.6935049115,69.5278287798"/>
<g transform="translate(116.22 67.04)"><text class="rel pinya_pinya">${_rel33_15}</text></g>
<path class="rel pinya_pinya" pos_list="34_15" d="M106.762132132,90.9149565711L97.3104285068,69.0153731131"/>
<g transform="translate(102.04 79.97)"><text class="rel pinya_pinya">${_rel34_15}</text></g>
<path class="rel pinya_pinya" pos_list="17_4" d="M21.7195717103,107.541179694L2.46179657898,86.2593401034"/>
<g transform="translate(12.09 96.9)"><text class="rel pinya_pinya">${_rel17_4}</text></g>
<path class="rel pinya_pinya" pos_list="18_4" d="M-18.6352278725,103.479896767L2.16083280343,88.124992712"/>
<g transform="translate(-8.24 95.8)"><text class="rel pinya_pinya">${_rel18_4}</text></g>
<path class="rel pinya_pinya" pos_list="36_17" d="M42.8099776882,122.296920849L24.0746807029,102.696041754"/>
<g transform="translate(33.44 112.5)"><text class="rel pinya_pinya">${_rel36_17}</text></g>
<path class="rel pinya_pinya" pos_list="37_17" d="M4.68382436868,128.478206658L25.8472064234,107.26156429"/>
<g transform="translate(15.27 117.87)"><text class="rel pinya_pinya">${_rel37_17}</text></g>
<path class="rel pinya_pinya" pos_list="37_18" d="M1.40478453145,129.880777044L-21.3127097805,106.907490148"/>
<g transform="translate(-9.95 118.39)"><text class="rel pinya_pinya">${_rel37_18}</text></g>
<path class="rel pinya_pinya" pos_list="38_18" d="M-36.0892043272,124.26145231L-20.2286618763,106.734510785"/>
<g transform="translate(-28.16 115.5)"><text class="rel pinya_pinya">${_rel38_18}</text></g>
<path class="rel pinya_pinya" pos_list="20_6" d="M-95.4935323446,67.5487526958L-86.4066119028,46.468413189"/>
<g transform="translate(-90.95 57.01)"><text class="rel pinya_pinya">${_rel20_6}</text></g>
<path class="rel pinya_pinya" pos_list="21_6" d="M-112.612077614,40.3316423053L-84.3345548868,42.4555408821"/>
<g transform="translate(-98.47 41.39)"><text class="rel pinya_pinya">${_rel21_6}</text></g>
<path class="rel pinya_pinya" pos_list="40_20" d="M-106.001191278,89.6944548783L-90.8018777826,67.9608390542"/>
<g transform="translate(-98.4 78.83)"><text class="rel pinya_pinya">${_rel40_20}</text></g>
<path class="rel pinya_pinya" pos_list="41_20" d="M-127.931042818,65.0541110902L-92.8891359251,71.5873426582"/>
<g transform="translate(-110.41 68.32)"><text class="rel pinya_pinya">${_rel41_20}</text></g>
<path class="rel pinya_pinya" pos_list="41_21" d="M-128.710333771,66.9098560258L-114.238357805,35.8633281807"/>
<g transform="translate(-121.47 51.39)"><text class="rel pinya_pinya">${_rel41_21}</text></g>
<path class="rel pinya_pinya" pos_list="42_21" d="M-141.532238992,32.3970871502L-112.802319649,36.4021043652"/>
<g transform="translate(-127.17 34.4)"><text class="rel pinya_pinya">${_rel42_21}</text></g>
<path class="rel pinya_pinya" pos_list="23_8" d="M-113.199549275,-31.3789869642L-86.4695250547,-39.5256289552"/>
<g transform="translate(-99.83 -35.45)"><text class="rel pinya_pinya">${_rel23_8}</text></g>
<path class="rel pinya_pinya" pos_list="24_8" d="M-91.1839093856,-63.8807950324L-84.288605858,-36.7957938502"/>
<g transform="translate(-87.74 -50.34)"><text class="rel pinya_pinya">${_rel24_8}</text></g>
<path class="rel pinya_pinya" pos_list="44_23" d="M-140.303712146,-30.9365547867L-115.687362448,-32.015117548"/>
<g transform="translate(-128.0 -31.48)"><text class="rel pinya_pinya">${_rel44_23}</text></g>
<path class="rel pinya_pinya" pos_list="45_23" d="M-127.151526664,-59.5542719528L-116.469195875,-30.7714908732"/>
<g transform="translate(-121.81 -45.16)"><text class="rel pinya_pinya">${_rel45_23}</text></g>
<path class="rel pinya_pinya" pos_list="45_24" d="M-126.180369097,-60.5997163041L-91.0398519161,-65.2109463604"/>
<g transform="translate(-108.61 -62.91)"><text class="rel pinya_pinya">${_rel45_24}</text></g>
<path class="rel pinya_pinya" pos_list="46_24" d="M-103.634020886,-83.9409920351L-91.9791181048,-64.9621449583"/>
<g transform="translate(-97.81 -74.45)"><text class="rel pinya_pinya">${_rel46_24}</text></g>
<path class="rel pinya_pinya" pos_list="26_10" d="M-18.6611031592,-98.3770079523L2.25630594945,-81.4292292074"/>
<g transform="translate(-8.2 -89.9)"><text class="rel pinya_pinya">${_rel26_10}</text></g>
<path class="rel pinya_pinya" pos_list="27_10" d="M22.6903851921,-97.9171448801L0.513917840793,-80.3227822288"/>
<g transform="translate(11.6 -89.12)"><text class="rel pinya_pinya">${_rel27_10}</text></g>
<path class="rel pinya_pinya" pos_list="48_26" d="M-35.7751661766,-119.801606614L-17.170086748,-98.6515965345"/>
<g transform="translate(-26.47 -109.23)"><text class="rel pinya_pinya">${_rel48_26}</text></g>
<path class="rel pinya_pinya" pos_list="49_26" d="M3.14706373968,-120.279164826L-18.3076701106,-100.859493483"/>
<g transform="translate(-7.58 -110.57)"><text class="rel pinya_pinya">${_rel49_26}</text></g>
<path class="rel pinya_pinya" pos_list="49_27" d="M4.98457463414,-123.353668221L22.4941614014,-99.6013739042"/>
<g transform="translate(13.74 -111.48)"><text class="rel pinya_pinya">${_rel49_27}</text></g>
<path class="rel pinya_pinya" pos_list="50_27" d="M42.3039248494,-118.061586339L22.2211442475,-99.2282670671"/>
<g transform="translate(32.26 -108.64)"><text class="rel pinya_pinya">${_rel50_27}</text></g>
<path class="rel pinya_pinya" pos_list="29_12" d="M95.7907762428,-63.250848715L87.1665386177,-40.6529041681"/>
<g transform="translate(91.48 -51.95)"><text class="rel pinya_pinya">${_rel29_12}</text></g>
<path class="rel pinya_pinya" pos_list="30_12" d="M118.092798466,-31.553652792L89.0729791885,-40.3061139805"/>
<g transform="translate(103.58 -35.93)"><text class="rel pinya_pinya">${_rel30_12}</text></g>
<path class="rel pinya_pinya" pos_list="52_29" d="M110.561302544,-85.1389383465L100.045507652,-63.5649391839"/>
<g transform="translate(105.3 -74.35)"><text class="rel pinya_pinya">${_rel52_29}</text></g>
<path class="rel pinya_pinya" pos_list="53_29" d="M133.936983748,-58.6553476185L96.8530128644,-64.9703999635"/>
<g transform="translate(115.39 -61.81)"><text class="rel pinya_pinya">${_rel53_29}</text></g>
<path class="rel pinya_pinya" pos_list="53_30" d="M134.607034826,-60.4189913621L118.203301261,-32.5315326908"/>
<g transform="translate(126.41 -46.48)"><text class="rel pinya_pinya">${_rel53_30}</text></g>
<path class="rel pinya_pinya" pos_list="54_30" d="M148.568372173,-30.0339133111L120.292711722,-32.1321839632"/>
<g transform="translate(134.43 -31.08)"><text class="rel pinya_pinya">${_rel54_30}</text></g>
<path class="rel pinya" pos_list="2" d="M89.0640485765,46.4773068948"/>
<g transform="translate(89.06 46.48)"><text class="rel pinya">${_rel2}</text></g>
<path class="rel pinya_pinya" pos_list="14_15" d="M118.204387937,40.0994934223L96.8073174805,68.0024522706"/>
<g transform="translate(107.51 54.05)"><text class="rel pinya_pinya">${_rel14_15}</text></g>
<path class="rel pinya_pinya_pinya" pos_list="32_33_34" d="M149.814669716,34.3038427913L131.643229422,63.239680161L108.897907535,90.6070410239"/>
<g transform="translate(130.12 62.72)"><text class="rel pinya_pinya_pinya">${_rel32_33_34}</text></g>
<path class="rel pinya" pos_list="4" d="M2.92337371636,85.999052519"/>
<g transform="translate(2.92 86.0)"><text class="rel pinya">${_rel4}</text></g>
<path class="rel pinya_pinya" pos_list="17_18" d="M26.1046422046,107.305344861L-19.103165825,103.756711592"/>
<g transform="translate(3.5 105.53)"><text class="rel pinya_pinya">${_rel17_18}</text></g>
<path class="rel pinya_pinya_pinya" pos_list="36_37_38" d="M40.1500453281,125.669676943L3.91798086867,127.646259175L-37.3528728329,122.48340393"/>
<g transform="translate(2.24 125.27)"><text class="rel pinya_pinya_pinya">${_rel36_37_38}</text></g>
<path class="rel pinya" pos_list="6" d="M-84.049099396,41.8929539656"/>
<g transform="translate(-84.05 41.89)"><text class="rel pinya">${_rel6}</text></g>
<path class="rel pinya_pinya" pos_list="20_21" d="M-91.3366067276,70.9714615343L-117.407562508,36.7571053006"/>
<g transform="translate(-104.37 53.86)"><text class="rel pinya_pinya">${_rel20_21}</text></g>
<path class="rel pinya_pinya_pinya" pos_list="40_41_42" d="M-101.132688359,88.92531931L-126.361845348,63.4769063858L-142.751161012,35.2564950874"/>
<g transform="translate(-123.42 62.55)"><text class="rel pinya_pinya_pinya">${_rel40_41_42}</text></g>
<path class="rel pinya" pos_list="8" d="M-83.9709568834,-41.315398449"/>
<g transform="translate(-83.97 -41.32)"><text class="rel pinya">${_rel8}</text></g>
<path class="rel pinya_pinya" pos_list="23_24" d="M-113.83180944,-33.6716079104L-94.1901220054,-66.310042299"/>
<g transform="translate(-104.01 -49.99)"><text class="rel pinya_pinya">${_rel23_24}</text></g>
<path class="rel pinya_pinya_pinya" pos_list="44_45_46" d="M-141.706031613,-27.6510339194L-128.508788135,-59.7866705977L-106.034741981,-87.3937906193"/>
<g transform="translate(-125.42 -58.28)"><text class="rel pinya_pinya_pinya">${_rel44_45_46}</text></g>
<path class="rel pinya" pos_list="10" d="M4.64685977689,-83.3120533467"/>
<g transform="translate(4.65 -83.31)"><text class="rel pinya">${_rel10}</text></g>
<path class="rel pinya_pinya" pos_list="26_27" d="M-17.3210271258,-98.5593228287L23.9265812579,-100.75822751"/>
<g transform="translate(3.3 -99.66)"><text class="rel pinya_pinya">${_rel26_27}</text></g>
<path class="rel pinya_pinya_pinya" pos_list="48_49_50" d="M-37.2994332287,-116.532065828L0.489143255263,-123.406402035L41.0920098949,-120.017771275"/>
<g transform="translate(1.43 -119.99)"><text class="rel pinya_pinya_pinya">${_rel48_49_50}</text></g>
<path class="rel pinya" pos_list="12" d="M89.8654137799,-39.0233963698"/>
<g transform="translate(89.87 -39.02)"><text class="rel pinya">${_rel12}</text></g>
<path class="rel pinya_pinya" pos_list="29_30" d="M98.6401760885,-66.0824988366L119.717427244,-32.676476663"/>
<g transform="translate(109.18 -49.38)"><text class="rel pinya_pinya">${_rel29_30}</text></g>
<path class="rel pinya_pinya_pinya" pos_list="52_53_54" d="M109.871777509,-85.8522449049L132.337497236,-61.711731798L147.945571255,-30.7851569284"/>
<g transform="translate(130.05 -59.45)"><text class="rel pinya_pinya_pinya">${_rel52_53_54}</text></g>
<path class="rel baix_crossa" pos_list="55_56" d="M40.2631190533,4.78901933036L41.4908783989,28.8423168033"/>
<g transform="translate(40.88 16.82)"><text class="rel baix_crossa">${_rel55_56}</text></g>
<path class="rel baix_crossa" pos_list="55_57" d="M41.6017472847,4.16992241308L44.1035336333,-20.2535702613"/>
<g transform="translate(42.85 -8.04)"><text class="rel baix_crossa">${_rel55_57}</text></g>
<path class="rel baix_crossa" pos_list="62_63" d="M-17.9120232655,33.7124845518L-39.8411854324,17.0614545719"/>
<g transform="translate(-28.88 25.39)"><text class="rel baix_crossa">${_rel62_63}</text></g>
<path class="rel baix_crossa" pos_list="62_64" d="M-16.7667603164,31.1797634711L2.84132929292,42.7219785384"/>
<g transform="translate(-6.96 36.95)"><text class="rel baix_crossa">${_rel62_64}</text></g>
<path class="rel baix_crossa" pos_list="69_70" d="M-15.723525483,-26.3834688386L4.8867568567,-38.0513624415"/>
<g transform="translate(-5.42 -32.22)"><text class="rel baix_crossa">${_rel69_70}</text></g>
<path class="rel baix_crossa" pos_list="69_71" d="M-17.7116825743,-27.113956551L-39.3025062774,-12.0292039529"/>
<g transform="translate(-28.51 -19.57)"><text class="rel baix_crossa">${_rel69_71}</text></g>
<path class="rel baix_agulla" pos_list="55_59" d="M43.1068723019,1.76572873576L20.2939134257,4.44414881582"/>
<g transform="translate(31.7 3.1)"><text class="rel baix_agulla">${_rel55_59}</text></g>
<path class="rel baix_agulla" pos_list="62_66" d="M-16.9192913631,29.2537668873L-7.19264067913,13.8754948386"/>
<g transform="translate(-12.06 21.56)"><text class="rel baix_agulla">${_rel62_66}</text></g>
<path class="rel baix_agulla" pos_list="69_73" d="M-18.5411423393,-24.5242198478L-5.32653842204,-7.32883443151"/>
<g transform="translate(-11.93 -15.93)"><text class="rel baix_agulla">${_rel69_73}</text></g>
<path class="rel baix_contrafort" pos_list="55_58" d="M43.3441862794,1.53928228998L64.2282520845,3.55557128893"/>
<g transform="translate(53.79 2.55)"><text class="rel baix_contrafort">${_rel55_58}</text></g>
<path class="rel baix_contrafort" pos_list="62_65" d="M-15.4814305807,32.6540530115L-29.5432461946,51.0157273393"/>
<g transform="translate(-22.51 41.83)"><text class="rel baix_contrafort">${_rel62_65}</text></g>
<path class="rel baix_contrafort" pos_list="69_72" d="M-17.5107178286,-28.0146903378L-26.0359894073,-41.989010894"/>
<g transform="translate(-21.77 -35.0)"><text class="rel baix_contrafort">${_rel69_72}</text></g>
<path class="rel ma_baix_segon" pos_list="1_55_79" d="M104.13756954,0.146564918981L41.3749515977,0.383543968678L191.541212222,0.305369658289"/>
<g transform="translate(112.35 0.28)"><text class="rel ma_baix_segon">${_rel1_55_79}</text></g>
<path class="rel ma_baix_segon" pos_list="5_62_80" d="M-46.6744012096,77.0957305288L-16.4970912147,29.8647212658L-91.6939729866,138.414138835"/>
<g transform="translate(-51.62 81.79)"><text class="rel ma_baix_segon">${_rel5_62_80}</text></g>
<path class="rel ma_baix_segon" pos_list="9_69_81" d="M-48.7679818643,-70.1111507393L-17.0122314478,-26.4593464312L-90.2454496746,-131.164184211"/>
<g transform="translate(-52.01 -75.91)"><text class="rel ma_baix_segon">${_rel9_69_81}</text></g>
<path class="rel vent_baix_segon" pos_list="3_55_79" d="M54.7131007394,72.5134082255L44.723725337,1.25468699859L188.629182469,1.78794912165"/>
<g transform="translate(96.02 25.19)"><text class="rel vent_baix_segon">${_rel3_55_79}</text></g>
<path class="rel vent_baix_segon" pos_list="11_55_79" d="M51.3825855842,-71.6732528658L43.8699696316,2.50716775673L189.910116791,1.33086870054"/>
<g transform="translate(95.05 -22.61)"><text class="rel vent_baix_segon">${_rel11_55_79}</text></g>
<path class="rel vent_baix_segon" pos_list="7_62_80" d="M-98.7014653253,2.90472460811L-16.2433114048,32.2249656165L-91.3764214126,135.841352639"/>
<g transform="translate(-68.77 56.99)"><text class="rel vent_baix_segon">${_rel7_62_80}</text></g>
<path class="rel vent_baix_segon" pos_list="3_62_80" d="M52.299184547,73.6616345207L-19.0088852907,29.415690329L-90.608110196,136.753697306"/>
<g transform="translate(-19.11 79.94)"><text class="rel vent_baix_segon">${_rel3_62_80}</text></g>
<path class="rel vent_baix_segon" pos_list="11_69_81" d="M50.8369944822,-68.8986834124L-19.6845531116,-25.2631676602L-92.3478658659,-132.357612958"/>
<g transform="translate(-20.4 -75.51)"><text class="rel vent_baix_segon">${_rel11_69_81}</text></g>
<path class="rel vent_baix_segon" pos_list="7_69_81" d="M-97.0462850243,2.74565279685L-19.4461802922,-28.6364374835L-93.1128397136,-133.105872013"/>
<g transform="translate(-69.87 -53.0)"><text class="rel vent_baix_segon">${_rel7_69_81}</text></g>
<path class="rel agulla_baix_segon" pos_list="59_55_79" d="M24.4885276385,2.82381011189L40.1719049069,1.4045560458L188.149767867,2.33215133749"/>
<g transform="translate(84.27 2.19)"><text class="rel agulla_baix_segon">${_rel59_55_79}</text></g>
<path class="rel agulla_baix_segon" pos_list="66_62_80" d="M-5.46854313516,14.6082367633L-15.5434285032,32.6462631683L-90.1428572882,139.485383449"/>
<g transform="translate(-37.05 62.25)"><text class="rel agulla_baix_segon">${_rel66_62_80}</text></g>
<path class="rel agulla_baix_segon" pos_list="73_69_81" d="M-6.50844541418,-11.0999984653L-16.8073373796,-28.7714266988L-89.9304072028,-134.706106722"/>
<g transform="translate(-37.75 -58.19)"><text class="rel agulla_baix_segon">${_rel73_69_81}</text></g>
<path class="rel baix_segon_baix_segon" pos_list="55_79_62_80" d="M41.280736544,4.00635140572L190.748500353,1.65680182375L-15.8332093715,31.4853155025L-90.8358960775,136.807303033"/>
<g transform="translate(31.34 43.49)"><text class="rel baix_segon_baix_segon">${_rel55_79_62_80}</text></g>
<path class="rel baix_segon_baix_segon" pos_list="62_80_69_81" d="M-16.5953171848,33.0334169414L-90.7796729947,135.798245009L-18.4122947678,-25.1071617382L-91.0476534175,-133.299277268"/>
<g transform="translate(-54.21 2.61)"><text class="rel baix_segon_baix_segon">${_rel62_80_69_81}</text></g>
<path class="rel baix_segon_baix_segon" pos_list="69_81_55_79" d="M-19.0394031962,-26.1145176752L-92.8159858032,-134.341442655L42.1282986728,3.25700372473L190.352663148,2.99045836415"/>
<g transform="translate(30.16 -38.55)"><text class="rel baix_segon_baix_segon">${_rel69_81_55_79}</text></g>
<path class="rel lateral_baix_segon" pos_list="60_55_79" d="M73.8510645711,24.6036543415L44.3467129746,1.33489274764L191.140465915,0.000586196770906"/>
<g transform="translate(103.11 8.65)"><text class="rel lateral_baix_segon">${_rel60_55_79}</text></g>
<path class="rel lateral_baix_segon" pos_list="61_55_79" d="M70.4487980132,-20.1424212457L44.9799283853,4.11791685935L191.674075215,3.15122929678"/>
<g transform="translate(102.37 -4.29)"><text class="rel lateral_baix_segon">${_rel61_55_79}</text></g>
<path class="rel lateral_baix_segon" pos_list="67_62_80" d="M-49.9962331267,45.0210006068L-18.6088762729,30.0120924863L-93.0546986428,135.487376961"/>
<g transform="translate(-53.89 70.17)"><text class="rel lateral_baix_segon">${_rel67_62_80}</text></g>
<path class="rel lateral_baix_segon" pos_list="68_62_80" d="M-14.2489816222,67.3827458773L-19.4430464013,33.4234233054L-88.9860512363,138.470684641"/>
<g transform="translate(-40.89 79.76)"><text class="rel lateral_baix_segon">${_rel68_62_80}</text></g>
<path class="rel lateral_baix_segon" pos_list="74_69_81" d="M-13.2418509649,-61.3912358589L-17.4520413976,-24.5047935793L-89.0789023398,-130.947019023"/>
<g transform="translate(-39.92 -72.28)"><text class="rel lateral_baix_segon">${_rel74_69_81}</text></g>
<path class="rel lateral_baix_segon" pos_list="75_69_81" d="M-52.5170961581,-41.0902951476L-17.4678408346,-25.9747929442L-92.2957180244,-132.300367366"/>
<g transform="translate(-54.09 -66.46)"><text class="rel lateral_baix_segon">${_rel75_69_81}</text></g>
</g>
</svg>